<svg width="129" height="24" viewBox="0 0 129 24" fill="none" xmlns="http://www.w3.org/2000/svg">
<path d="M49.6245 5.44601C49.541 4.66447 49.189 4.05595 48.5685 3.62044C47.954 3.18493 47.1546 2.96717 46.1702 2.96717C45.4782 2.96717 44.8846 3.07157 44.3894 3.28038C43.8942 3.48919 43.5154 3.77257 43.2529 4.13052C42.9904 4.48848 42.8562 4.89714 42.8502 5.35652C42.8502 5.73834 42.9367 6.06944 43.1097 6.34984C43.2887 6.63024 43.5303 6.86888 43.8346 7.06575C44.1388 7.25666 44.4759 7.41774 44.8458 7.54899C45.2157 7.68024 45.5885 7.79061 45.9644 7.8801L47.6826 8.30964C48.3746 8.47072 49.0398 8.68848 49.6782 8.96291C50.3225 9.23734 50.8982 9.58336 51.4053 10.001C51.9184 10.4186 52.3241 10.9227 52.6224 11.5133C52.9206 12.104 53.0698 12.796 53.0698 13.5895C53.0698 14.6633 52.7954 15.6089 52.2465 16.4263C51.6976 17.2376 50.9042 17.873 49.8661 18.3324C48.834 18.7858 47.5841 19.0125 46.1165 19.0125C44.6907 19.0125 43.4527 18.7917 42.4027 18.3503C41.3587 17.9088 40.5414 17.2645 39.9508 16.4173C39.3661 15.5702 39.0499 14.5381 39.0022 13.321H42.2685C42.3162 13.9594 42.5131 14.4903 42.8591 14.9139C43.2052 15.3375 43.6556 15.6537 44.2104 15.8625C44.7712 16.0713 45.3976 16.1757 46.0897 16.1757C46.8116 16.1757 47.4439 16.0683 47.9868 15.8535C48.5357 15.6328 48.9652 15.3285 49.2755 14.9408C49.5857 14.547 49.7438 14.0876 49.7498 13.5626C49.7438 13.0854 49.6036 12.6916 49.3292 12.3814C49.0547 12.0652 48.6699 11.8027 48.1748 11.5939C47.6856 11.3791 47.1128 11.1882 46.4566 11.0211L44.3715 10.4842C42.8621 10.0964 41.6689 9.50879 40.792 8.72129C39.9209 7.92783 39.4854 6.87484 39.4854 5.56234C39.4854 4.48251 39.7777 3.53691 40.3624 2.72555C40.953 1.91419 41.7554 1.28478 42.7697 0.83734C43.7839 0.383931 44.9323 0.157227 46.215 0.157227C47.5155 0.157227 48.655 0.383931 49.6334 0.83734C50.6178 1.28478 51.3904 1.90822 51.9512 2.70765C52.512 3.50112 52.8013 4.4139 52.8192 5.44601H49.6245Z" fill="#121316"/>
<path d="M62.7509 7.49532V4.98964H60.0394V1.69646H56.7999V4.98964H54.849V7.49532H56.7999V15.1377C56.7939 15.9967 56.9789 16.7127 57.3547 17.2854C57.7365 17.8581 58.2526 18.2817 58.9029 18.5561C59.5532 18.8246 60.284 18.9469 61.0954 18.923C61.5547 18.9111 61.9425 18.8693 62.2587 18.7977C62.5809 18.7261 62.8285 18.6605 63.0015 18.6009L62.4556 16.0683C62.3661 16.0922 62.2348 16.119 62.0618 16.1489C61.8948 16.1787 61.7098 16.1936 61.507 16.1936C61.2385 16.1936 60.9939 16.1519 60.7732 16.0683C60.5525 15.9848 60.3735 15.8297 60.2363 15.603C60.105 15.3703 60.0394 15.0362 60.0394 14.6007V7.49532H62.7509Z" fill="#121316"/>
<path d="M97.5231 4.98964V7.49532H94.8116V14.6007C94.8116 15.0362 94.8772 15.3703 95.0085 15.603C95.1457 15.8297 95.3247 15.9848 95.5454 16.0683C95.7661 16.1519 96.0107 16.1936 96.2792 16.1936C96.4821 16.1936 96.667 16.1787 96.834 16.1489C97.0071 16.119 97.1383 16.0922 97.2278 16.0683L97.7737 18.6009C97.6007 18.6605 97.3531 18.7261 97.0309 18.7977C96.7147 18.8693 96.3269 18.9111 95.8676 18.923C95.0562 18.9469 94.3254 18.8246 93.6751 18.5561C93.0248 18.2817 92.5088 17.8581 92.1269 17.2854C91.7511 16.7127 91.5661 15.9967 91.5721 15.1377V7.49532H89.6213V4.98964H91.5721V1.69646H94.8116V4.98964H97.5231Z" fill="#121316"/>
<path fill-rule="evenodd" clip-rule="evenodd" d="M115.566 4.98956V23.8896H118.805V16.5694H118.939C119.112 16.9035 119.354 17.2584 119.664 17.6343C119.98 18.0042 120.398 18.3204 120.917 18.5829C121.436 18.8454 122.089 18.9766 122.877 18.9766C123.957 18.9766 124.923 18.6992 125.776 18.1444C126.629 17.5896 127.304 16.7842 127.799 15.7282C128.294 14.6722 128.541 13.3896 128.541 11.8802C128.541 10.3529 128.288 9.06427 127.781 8.01427C127.28 6.95831 126.6 6.16186 125.74 5.62493C124.887 5.08203 123.93 4.81058 122.868 4.81058C122.062 4.81058 121.4 4.9478 120.881 5.22223C120.362 5.49069 119.951 5.81583 119.646 6.19765C119.342 6.57351 119.106 6.92848 118.939 7.26257H118.751V4.98956H115.566ZM119.118 14.1979C118.868 13.5298 118.742 12.7512 118.742 11.8623C118.742 10.9734 118.865 10.2008 119.109 9.54453C119.36 8.88828 119.727 8.37819 120.21 8.01427C120.693 7.65035 121.281 7.46839 121.973 7.46839C122.695 7.46839 123.297 7.65632 123.781 8.03217C124.264 8.40802 124.628 8.92706 124.872 9.58927C125.117 10.2515 125.239 11.0092 125.239 11.8623C125.239 12.7214 125.114 13.488 124.863 14.1621C124.619 14.8303 124.255 15.3583 123.772 15.7461C123.288 16.1279 122.689 16.3188 121.973 16.3188C121.287 16.3188 120.702 16.1339 120.219 15.764C119.742 15.3881 119.375 14.8661 119.118 14.1979Z" fill="#121316"/>
<path d="M108.994 4.98966V12.9541C108.994 13.6522 108.848 14.2338 108.555 14.6992C108.269 15.1586 107.902 15.5046 107.455 15.7372C107.007 15.9699 106.545 16.0863 106.068 16.0863C105.292 16.0863 104.666 15.8297 104.188 15.3166C103.711 14.8036 103.472 14.1115 103.472 13.2405V4.98966H100.233V13.7416C100.233 14.8394 100.427 15.776 100.815 16.5516C101.202 17.3212 101.739 17.9088 102.425 18.3145C103.117 18.7142 103.914 18.9141 104.815 18.9141C105.847 18.9141 106.715 18.6695 107.419 18.1803C108.129 17.6911 108.639 17.0617 108.949 16.2921H109.092V18.7351H112.233V4.98966H108.994Z" fill="#121316"/>
<path d="M79.9313 4.98962V18.7351H83.1708V10.6543C83.1708 10.0696 83.305 9.55355 83.5735 9.1061C83.842 8.65866 84.2089 8.30965 84.6742 8.05908C85.1455 7.80255 85.6765 7.67428 86.2671 7.67428C86.5415 7.67428 86.8249 7.69516 87.1172 7.73693C87.4155 7.77272 87.6333 7.81448 87.7705 7.86221V4.88224C87.6214 4.85241 87.4334 4.83153 87.2067 4.81959C86.986 4.8017 86.7861 4.79275 86.6072 4.79275C85.8197 4.79275 85.1187 5.0105 84.5042 5.44602C83.8957 5.87556 83.4661 6.48707 83.2155 7.28053H83.0724V4.98962H79.9313Z" fill="#121316"/>
<path fill-rule="evenodd" clip-rule="evenodd" d="M69.4146 19.0124C68.5436 19.0124 67.759 18.8573 67.061 18.5471C66.369 18.2309 65.8201 17.7656 65.4144 17.1511C65.0147 16.5366 64.8149 15.7789 64.8149 14.8781C64.8149 14.1025 64.958 13.4611 65.2444 12.954C65.5308 12.4469 65.9215 12.0413 66.4167 11.737C66.9119 11.4327 67.4697 11.2031 68.0901 11.0479C68.7166 10.8869 69.3639 10.7705 70.0321 10.6989C70.8375 10.6154 71.4907 10.5408 71.9919 10.4752C72.493 10.4036 72.8569 10.2962 73.0836 10.1531C73.3163 10.0039 73.4326 9.77422 73.4326 9.46399V9.4103C73.4326 8.73615 73.2328 8.21413 72.8331 7.84424C72.4333 7.47436 71.8576 7.28941 71.1059 7.28941C70.3125 7.28941 69.6831 7.46243 69.2177 7.80845C68.7583 8.15447 68.4481 8.56314 68.287 9.03444L65.2623 8.6049C65.5009 7.76967 65.8947 7.07166 66.4436 6.51086C66.9924 5.9441 67.6636 5.52052 68.4571 5.24012C69.2505 4.95376 70.1275 4.81058 71.088 4.81058C71.7502 4.81058 72.4095 4.88814 73.0657 5.04325C73.722 5.19836 74.3215 5.4549 74.8644 5.81285C75.4073 6.16484 75.8429 6.6451 76.171 7.25362C76.5051 7.86214 76.6721 8.62279 76.6721 9.53558V18.735H73.5579V16.8468H73.4505C73.2536 17.2286 72.9762 17.5866 72.6183 17.9207C72.2663 18.2488 71.8218 18.5143 71.2849 18.7171C70.7539 18.914 70.1305 19.0124 69.4146 19.0124ZM70.2558 16.632C70.9061 16.632 71.4698 16.5038 71.9471 16.2472C72.4244 15.9847 72.7913 15.6387 73.0478 15.2092C73.3103 14.7796 73.4416 14.3113 73.4416 13.8042V12.1844C73.3402 12.268 73.1671 12.3455 72.9225 12.4171C72.6839 12.4887 72.4154 12.5513 72.1171 12.605C71.8188 12.6587 71.5235 12.7065 71.2312 12.7482C70.9389 12.79 70.6853 12.8258 70.4705 12.8556C69.9873 12.9212 69.5548 13.0286 69.173 13.1778C68.7911 13.3269 68.4899 13.5357 68.2691 13.8042C68.0484 14.0667 67.938 14.4067 67.938 14.8244C67.938 15.4209 68.1558 15.8714 68.5913 16.1756C69.0268 16.4799 69.5816 16.632 70.2558 16.632Z" fill="#121316"/>
<path d="M3.83907 18.6934L9.53223 12.9418C9.85846 12.6123 10.3889 12.6057 10.7232 12.927L13.4336 15.5323C14.4313 16.4914 16.0125 16.4775 16.9932 15.5012L24.0195 8.50656V12.6248C24.0195 13.7402 24.9237 14.6443 26.039 14.6443C27.1544 14.6443 28.0586 13.7402 28.0586 12.6248V3.93553C28.0586 2.76407 27.1089 1.81441 25.9374 1.81441H17.169C16.0973 1.81441 15.2286 2.68312 15.2286 3.75474C15.2286 4.82635 16.0973 5.69507 17.169 5.69507H21.2872L15.2286 11.8328L11.6174 8.24964C10.7893 7.42789 9.45291 7.42923 8.62639 8.25264L0.993431 15.8569C0.214076 16.6333 0.204146 17.8922 0.971156 18.6808C1.75514 19.4869 3.04803 19.4925 3.83907 18.6934Z" fill="#121316"/>
</svg>
