<svg width="162" height="28" viewBox="0 0 162 28" fill="none" xmlns="http://www.w3.org/2000/svg">
<path d="M0.74707 18.7176C0.74707 19.4069 1.44529 19.8768 2.0839 19.6172L10.6172 16.1484C10.9832 15.9996 11.2226 15.6439 11.2226 15.2488V11.3316C11.2226 10.9365 11.462 10.5808 11.828 10.432L20.3923 6.9506C20.7583 6.8018 20.9977 6.44608 20.9977 6.05096V1.45843C20.9977 0.922093 20.5629 0.487305 20.0266 0.487305H11.4933C10.9569 0.487305 10.5222 0.922092 10.5222 1.45843L10.5222 8.714C10.5222 9.25033 10.0874 9.68512 9.55104 9.68512L1.71819 9.68512C1.18186 9.68512 0.74707 10.1199 0.74707 10.6562V18.7176Z" fill="#121316"/>
<path d="M28.4078 7.13317C28.4078 6.44382 27.7096 5.97394 27.071 6.23354L18.5377 9.70235C18.1717 9.85115 17.9323 10.2069 17.9323 10.602V14.5191C17.9323 14.9142 17.6929 15.2699 17.3268 15.4187L8.7626 18.9001C8.39657 19.0489 8.15718 19.4046 8.15718 19.7998V24.3923C8.15718 24.9286 8.59197 25.3634 9.1283 25.3634H17.6616C18.1979 25.3634 18.6327 24.9286 18.6327 24.3923V17.1368C18.6327 16.6004 19.0675 16.1656 19.6038 16.1656H27.4367C27.973 16.1656 28.4078 15.7309 28.4078 15.1945V7.13317Z" fill="#121316"/>
<path d="M129.403 8.6591V22.4046H132.642V8.6591H129.403Z" fill="#121316"/>
<path d="M129.707 6.19816C130.077 6.53822 130.518 6.70825 131.031 6.70825C131.55 6.70825 131.992 6.53822 132.356 6.19816C132.726 5.85214 132.911 5.43751 132.911 4.95427C132.911 4.46506 132.726 4.05043 132.356 3.71038C131.992 3.36435 131.55 3.19134 131.031 3.19134C130.518 3.19134 130.077 3.36435 129.707 3.71038C129.337 4.05043 129.152 4.46506 129.152 4.95427C129.152 5.43751 129.337 5.85214 129.707 6.19816Z" fill="#121316"/>
<path d="M146.838 12.2923L143.885 12.6145C143.801 12.3162 143.655 12.0358 143.446 11.7733C143.244 11.5108 142.969 11.299 142.623 11.1379C142.277 10.9768 141.853 10.8963 141.352 10.8963C140.678 10.8963 140.111 11.0425 139.652 11.3348C139.199 11.6271 138.975 12.006 138.981 12.4713C138.975 12.871 139.121 13.1962 139.419 13.4467C139.724 13.6973 140.225 13.9031 140.923 14.0642L143.267 14.5653C144.568 14.8457 145.534 15.2902 146.167 15.8987C146.805 16.5072 147.127 17.3037 147.133 18.2881C147.127 19.1531 146.874 19.9167 146.373 20.579C145.877 21.2352 145.188 21.7483 144.305 22.1182C143.422 22.4881 142.408 22.673 141.263 22.673C139.58 22.673 138.226 22.321 137.2 21.617C136.174 20.9071 135.562 19.9197 135.366 18.655L138.524 18.3507C138.668 18.9712 138.972 19.4395 139.437 19.7557C139.903 20.0719 140.508 20.23 141.254 20.23C142.023 20.23 142.641 20.0719 143.106 19.7557C143.578 19.4395 143.813 19.0487 143.813 18.5834C143.813 18.1896 143.661 17.8645 143.357 17.6079C143.059 17.3514 142.593 17.1545 141.961 17.0173L139.616 16.5251C138.298 16.2507 137.322 15.7883 136.69 15.1381C136.058 14.4818 135.744 13.6525 135.75 12.6503C135.744 11.8031 135.974 11.0693 136.439 10.4488C136.911 9.82243 137.564 9.33919 138.399 8.99913C139.24 8.65311 140.21 8.4801 141.308 8.4801C142.918 8.4801 144.186 8.82314 145.111 9.50922C146.042 10.1953 146.617 11.123 146.838 12.2923Z" fill="#121316"/>
<path fill-rule="evenodd" clip-rule="evenodd" d="M155.888 22.673C154.51 22.673 153.32 22.3866 152.318 21.8139C151.321 21.2352 150.555 20.4179 150.018 19.3619C149.481 18.3 149.212 17.0501 149.212 15.6123C149.212 14.1984 149.481 12.9575 150.018 11.8896C150.561 10.8158 151.318 9.98052 152.291 9.38393C153.263 8.78138 154.406 8.4801 155.718 8.4801C156.565 8.4801 157.365 8.61731 158.116 8.89175C158.874 9.16021 159.542 9.57783 160.121 10.1446C160.706 10.7113 161.165 11.4332 161.499 12.3102C161.833 13.1812 162 14.2193 162 15.4244V16.4177H152.425C152.435 17.1828 152.581 17.842 152.863 18.3954C153.156 18.9622 153.564 19.3977 154.089 19.702C154.614 20.0003 155.229 20.1494 155.933 20.1494C156.404 20.1494 156.831 20.0838 157.213 19.9525C157.594 19.8153 157.926 19.6155 158.206 19.353C158.486 19.0905 158.698 18.7653 158.841 18.3775L161.866 18.7176C161.675 19.517 161.311 20.215 160.774 20.8116C160.243 21.4023 159.563 21.8616 158.734 22.1898C157.905 22.5119 156.956 22.673 155.888 22.673ZM152.846 12.7398C152.601 13.1975 152.463 13.6957 152.432 14.2342H158.895C158.889 13.6138 158.755 13.0619 158.492 12.5787C158.23 12.0895 157.863 11.7047 157.392 11.4243C156.926 11.1439 156.383 11.0037 155.763 11.0037C155.101 11.0037 154.519 11.1648 154.018 11.4869C153.517 11.8031 153.126 12.2207 152.846 12.7398Z" fill="#121316"/>
<path d="M119.412 22.4046V8.65914H122.553V10.9501H122.696C122.947 10.1566 123.376 9.54508 123.985 9.11554C124.599 8.68002 125.3 8.46227 126.088 8.46227C126.267 8.46227 126.467 8.47122 126.687 8.48911C126.914 8.50105 127.102 8.52193 127.251 8.55176V11.5317C127.114 11.484 126.896 11.4422 126.598 11.4064C126.306 11.3647 126.022 11.3438 125.748 11.3438C125.157 11.3438 124.626 11.4721 124.155 11.7286C123.69 11.9792 123.323 12.3282 123.054 12.7756C122.786 13.2231 122.652 13.7391 122.652 14.3238V22.4046H119.412Z" fill="#121316"/>
<path fill-rule="evenodd" clip-rule="evenodd" d="M103.659 8.65908V27.5591H106.899V20.2389H107.033C107.206 20.573 107.448 20.928 107.758 21.3038C108.074 21.6737 108.492 21.9899 109.011 22.2524C109.53 22.5149 110.183 22.6462 110.97 22.6462C112.05 22.6462 113.017 22.3687 113.87 21.8139C114.723 21.2591 115.397 20.4537 115.892 19.3977C116.388 18.3417 116.635 17.0591 116.635 15.5497C116.635 14.0224 116.382 12.7338 115.874 11.6838C115.373 10.6278 114.693 9.83138 113.834 9.29445C112.981 8.75155 112.023 8.4801 110.962 8.4801C110.156 8.4801 109.494 8.61731 108.975 8.89175C108.456 9.16021 108.044 9.48535 107.74 9.86717C107.436 10.243 107.2 10.598 107.033 10.9321H106.845V8.65908H103.659ZM107.212 17.8675C106.961 17.1993 106.836 16.4207 106.836 15.5318C106.836 14.6429 106.958 13.8703 107.203 13.214C107.454 12.5578 107.82 12.0477 108.304 11.6838C108.787 11.3199 109.375 11.1379 110.067 11.1379C110.788 11.1379 111.391 11.3258 111.874 11.7017C112.358 12.0775 112.721 12.5966 112.966 13.2588C113.211 13.921 113.333 14.6787 113.333 15.5318C113.333 16.3909 113.208 17.1575 112.957 17.8317C112.713 18.4998 112.349 19.0278 111.865 19.4156C111.382 19.7974 110.783 19.9883 110.067 19.9883C109.381 19.9883 108.796 19.8034 108.313 19.4335C107.835 19.0577 107.468 18.5356 107.212 17.8675Z" fill="#121316"/>
<path d="M93.6683 22.4046V8.65914H96.8094V10.9501H96.9526C97.2031 10.1566 97.6327 9.54508 98.2412 9.11554C98.8557 8.68002 99.5567 8.46227 100.344 8.46227C100.523 8.46227 100.723 8.47122 100.944 8.48911C101.17 8.50105 101.358 8.52193 101.508 8.55176V11.5317C101.37 11.484 101.153 11.4422 100.854 11.4064C100.562 11.3647 100.279 11.3438 100.004 11.3438C99.4135 11.3438 98.8825 11.4721 98.4112 11.7286C97.9459 11.9792 97.579 12.3282 97.3105 12.7756C97.0421 13.2231 96.9078 13.7391 96.9078 14.3238V22.4046H93.6683Z" fill="#121316"/>
<path fill-rule="evenodd" clip-rule="evenodd" d="M81.2465 21.8139C82.2488 22.3866 83.439 22.673 84.8171 22.673C85.885 22.673 86.8336 22.5119 87.6628 22.1898C88.4921 21.8616 89.1722 21.4023 89.7032 20.8116C90.2401 20.215 90.604 19.517 90.7949 18.7176L87.7702 18.3775C87.627 18.7653 87.4152 19.0905 87.1348 19.353C86.8544 19.6155 86.5233 19.8153 86.1415 19.9525C85.7597 20.0838 85.3331 20.1494 84.8618 20.1494C84.1579 20.1494 83.5434 20.0003 83.0184 19.702C82.4934 19.3977 82.0847 18.9622 81.7924 18.3954C81.5099 17.842 81.3639 17.1828 81.3544 16.4177H90.9292V15.4244C90.9292 14.2193 90.7621 13.1812 90.428 12.3102C90.0939 11.4332 89.6346 10.7113 89.0499 10.1446C88.4712 9.57783 87.803 9.16021 87.0454 8.89175C86.2937 8.61731 85.4942 8.4801 84.6471 8.4801C83.3346 8.4801 82.1921 8.78138 81.2196 9.38393C80.2472 9.98052 79.4895 10.8158 78.9466 11.8896C78.4097 12.9575 78.1412 14.1984 78.1412 15.6123C78.1412 17.0501 78.4097 18.3 78.9466 19.3619C79.4836 20.4179 80.2502 21.2352 81.2465 21.8139ZM87.8239 14.2342H81.3605C81.3916 13.6957 81.5296 13.1975 81.7745 12.7398C82.0549 12.2207 82.4456 11.8031 82.9468 11.4869C83.4479 11.1648 84.0296 11.0037 84.6918 11.0037C85.3123 11.0037 85.8552 11.1439 86.3205 11.4243C86.7918 11.7047 87.1587 12.0895 87.4212 12.5787C87.6837 13.0619 87.8179 13.6138 87.8239 14.2342Z" fill="#121316"/>
<path d="M76.1682 8.65916V11.1648H73.4567V18.2702C73.4567 18.7058 73.5223 19.0398 73.6535 19.2725C73.7908 19.4992 73.9697 19.6543 74.1905 19.7379C74.4112 19.8214 74.6558 19.8631 74.9243 19.8631C75.1271 19.8631 75.3121 19.8482 75.4791 19.8184C75.6521 19.7886 75.7834 19.7617 75.8729 19.7379L76.4187 22.2704C76.2457 22.33 75.9982 22.3957 75.676 22.4673C75.3598 22.5388 74.972 22.5806 74.5126 22.5925C73.7013 22.6164 72.9704 22.4941 72.3202 22.2256C71.6699 21.9512 71.1538 21.5276 70.772 20.9549C70.3962 20.3822 70.2112 19.6663 70.2172 18.8072V11.1648H68.2663V8.65916H70.2172V5.36598H73.4567V8.65916H76.1682Z" fill="#121316"/>
<path d="M57.1888 22.4045V14.3506C57.1888 13.6883 57.3111 13.1246 57.5557 12.6592C57.8063 12.1939 58.1493 11.8389 58.5848 11.5943C59.0263 11.3437 59.5304 11.2185 60.0972 11.2185C60.9324 11.2185 61.5857 11.478 62.057 11.997C62.5342 12.516 62.7729 13.2349 62.7729 14.1537V22.4045H66.0124V13.6525C66.0183 12.5548 65.8244 11.6211 65.4307 10.8515C65.0429 10.0819 64.494 9.4943 63.7841 9.08862C63.0801 8.68294 62.2538 8.4801 61.3053 8.4801C60.2791 8.4801 59.417 8.7068 58.719 9.16021C58.027 9.61362 57.5229 10.2251 57.2067 10.9947H57.0456V8.65908H53.9493V22.4045H57.1888Z" fill="#121316"/>
<path d="M38.7858 22.4046V4.07734H50.7057V6.86044H42.1059V11.836H50.0882V14.6191H42.1059V19.6215H50.7773V22.4046H38.7858Z" fill="#121316"/>
</svg>
