<svg width="528" height="837" viewBox="0 0 528 837" fill="none" xmlns="http://www.w3.org/2000/svg">
<g opacity="0.1">
<path d="M-620.884 229.85C-608.752 175.948 -634.169 123.157 -664.034 79.7441C-698.123 30.1928 -743.064 -17.3755 -752.148 -79.1785C-756.232 -106.965 -753.286 -137.173 -738.279 -161.472C-723.567 -185.291 -698.656 -199.437 -671.245 -203.124C-608.424 -211.573 -555.722 -171.536 -512.38 -131.275C-467.058 -89.1749 -420.657 -39.8803 -356.348 -30.4422C-302.727 -22.5727 -249.881 -40.9997 -196.44 -41.7887C-168.578 -42.2005 -141.058 -36.96 -117.203 -21.9684C-92.1915 -6.25013 -73.2816 17.1296 -55.889 40.5881C-37.8869 64.8678 -20.7198 89.5645 0.0274519 111.653C21.2022 134.196 44.7249 154.45 69.4606 172.98C174.22 251.456 299.947 298.278 399.099 384.737C441.702 421.885 478.381 466.94 501.298 518.905C522.578 567.161 533.015 624.292 516.187 675.471C508.717 698.19 496.071 720.123 477.049 735.069C454.192 753.029 425.923 755.549 398.4 748.186C369.593 740.48 343.134 725.36 313.601 720.133C287.435 715.502 260.957 720.211 236.416 729.739C184.405 749.933 142.921 788.868 93.2452 813.441C68.0612 825.899 40.3531 835.051 11.9306 833.609C-18.1394 832.085 -45.0524 818.115 -67.3335 798.479C-90.9247 777.687 -109.616 751.955 -128.174 726.769C-146.629 701.723 -165.788 677.349 -186.791 654.373C-229.299 607.871 -277.567 566.609 -330.149 531.901C-385.344 495.468 -446.658 469.737 -501.967 433.576C-549.001 402.825 -593.484 361.395 -613.843 307.742C-623.306 282.802 -626.189 255.917 -620.548 229.748C-620.146 227.882 -622.979 226.875 -623.387 228.764C-634.55 280.558 -612.542 330.832 -579.722 370.175C-538.596 419.476 -482.071 450.693 -426.149 480.261C-396.335 496.025 -366.61 511.887 -338.255 530.195C-310.415 548.172 -283.757 567.974 -258.489 589.415C-208.011 632.249 -165.365 681.5 -126.117 734.607C-92.3129 780.348 -51.9161 832.234 9.59901 836.479C65.0784 840.308 114.858 806.609 158.7 777.006C207.067 744.348 263.054 709.71 323.802 725.43C353.735 733.176 381.153 749.333 411.902 754.137C435.958 757.895 459.785 752.451 479.004 737.351C517.067 707.444 529.993 654.317 526.937 608.08C523.352 553.836 501.266 502.404 470.192 458.32C394.257 350.594 270.843 294.385 160.678 229.227C104.073 195.748 48.5695 158.671 3.17491 110.619C-18.4758 87.7003 -36.2117 61.9423 -55.0107 36.7435C-72.163 13.7523 -90.9472 -9.01518 -115.499 -24.4447C-162.921 -54.2467 -219.014 -44.0613 -271.202 -36.6721C-298.57 -32.7972 -326.476 -29.4659 -354.06 -33.1484C-389.262 -37.8479 -420.478 -55.615 -448.014 -77.2796C-498.991 -117.388 -540.492 -174.247 -603.053 -197.571C-648.587 -214.546 -706.793 -210.742 -737.255 -168.428C-770.29 -122.54 -757.253 -59.5428 -731.892 -13.615C-702.065 40.4008 -655.876 84.252 -633.003 142.27C-622.155 169.786 -617.155 199.688 -623.722 228.866C-624.141 230.731 -621.308 231.736 -620.884 229.85Z" fill="url(#paint0_linear_142_2669)"/>
<path d="M-648.771 -178.97C-588.666 -186.978 -538.306 -148.591 -496.856 -110.069C-453.551 -69.8243 -409.169 -22.7936 -347.699 -13.842C-296.429 -6.37648 -245.912 -24.0031 -194.812 -24.7141C-168.163 -25.0852 -141.868 -20.0242 -119.081 -5.64727C-95.1898 9.42586 -77.1321 31.8084 -60.5043 54.2465C-43.3095 77.451 -26.8889 101.034 -7.05383 122.128C13.2018 143.668 35.6988 163.021 59.3516 180.728C159.495 255.695 279.655 300.455 374.397 383.111C415.118 418.638 450.173 461.723 472.058 511.416C492.376 557.552 502.316 612.162 486.181 661.066C479.017 682.78 466.897 703.737 448.674 717.984C426.751 735.122 399.685 737.389 373.368 730.293C345.838 722.871 320.52 708.424 292.259 703.516C267.291 699.175 242.043 703.716 218.642 712.821C168.931 732.168 129.27 769.397 81.7566 792.861C57.659 804.76 31.1397 813.48 3.95444 812.034C-24.8245 810.504 -50.547 797.04 -71.8309 778.2C-94.2949 758.322 -112.114 733.774 -129.82 709.747C-147.457 685.812 -165.778 662.527 -185.856 640.575C-226.492 596.145 -272.63 556.721 -322.887 523.559C-375.513 488.834 -434.254 464.178 -487.1 429.605C-532.099 400.167 -574.449 360.689 -593.881 309.251C-602.899 285.384 -605.641 259.66 -600.249 234.629C-599.865 232.847 -602.487 231.869 -602.933 233.562C-603.262 234.813 -603.595 236.1 -603.843 237.454C-612.664 285.605 -592.057 332.223 -561.56 368.94C-522.355 416.134 -468.303 445.989 -414.869 474.245C-386.357 489.322 -357.953 504.511 -330.843 521.995C-304.231 539.157 -278.736 558.047 -254.568 578.54C-206.302 619.465 -165.493 666.528 -127.979 717.295C-95.6744 761.011 -57.135 810.645 1.61334 814.894C54.6537 818.733 102.338 786.577 144.257 758.271C190.472 727.064 243.988 693.794 302.07 708.697C330.716 716.045 356.931 731.507 386.323 736.163C409.334 739.808 432.145 734.698 450.584 720.299C487.015 691.842 499.5 641.084 496.657 596.921C493.32 545.048 472.281 495.846 442.62 453.656C370.157 350.587 252.216 296.775 146.895 234.522C92.726 202.505 39.5945 167.067 -3.87515 121.126C-24.5955 99.2274 -41.5762 74.6173 -59.5436 50.5154C-75.9407 28.5205 -93.8761 6.72756 -117.32 -8.082C-162.622 -36.7014 -216.244 -27.0717 -266.172 -19.9955C-292.365 -16.2836 -319.066 -13.0694 -345.468 -16.5585C-379.12 -21.0066 -408.967 -37.9413 -435.3 -58.6339C-484.08 -96.9645 -523.736 -151.324 -583.531 -173.705C-627.044 -189.992 -682.723 -186.438 -711.944 -146.065C-743.635 -102.28 -731.294 -42.0061 -707.097 1.92658C-678.618 53.636 -634.409 95.571 -612.483 151.051C-602.076 177.387 -597.265 206.013 -603.548 233.952C-603.967 235.817 -601.133 236.822 -600.709 234.936C-589.076 183.204 -613.331 133.008 -641.953 91.4229C-674.593 43.9985 -717.503 -1.51482 -726.191 -60.486C-730.111 -87.0851 -727.289 -116.021 -712.886 -139.264C-698.794 -162.006 -674.967 -175.478 -648.771 -178.97Z" fill="url(#paint1_linear_142_2669)"/>
<path d="M-626.298 -154.818C-568.909 -162.385 -520.891 -125.645 -481.334 -88.865C-440.045 -50.4737 -397.682 -5.70864 -339.052 2.75656C-290.13 9.81971 -241.944 -7.00838 -193.185 -7.64134C-167.751 -7.97082 -142.682 -3.09011 -120.962 10.672C-98.1907 25.1001 -80.9846 46.4846 -65.1233 67.903C-48.7348 90.0323 -33.0625 112.5 -14.1379 132.601C5.19779 153.139 26.669 171.592 49.2406 188.476C144.768 259.934 259.361 302.631 349.693 381.486C388.533 415.391 421.963 456.507 442.816 503.927C462.174 547.943 471.615 600.032 456.174 646.662C449.316 667.371 437.72 687.351 420.299 700.899C399.31 717.217 373.446 719.229 348.334 712.399C322.082 705.261 297.904 691.488 270.914 686.9C247.146 682.85 223.127 687.221 200.867 695.904C153.456 714.405 115.62 749.927 70.267 772.282C47.2549 783.624 21.9253 791.91 -4.02179 790.462C-31.5105 788.925 -56.0416 775.967 -76.3276 757.924C-97.6636 738.958 -114.611 715.596 -131.464 692.727C-148.282 669.904 -165.767 647.708 -184.918 626.78C-223.683 584.422 -267.69 546.835 -315.622 515.22C-365.68 482.202 -421.845 458.621 -472.23 425.637C-515.194 397.51 -555.41 359.984 -573.915 310.762C-582.487 287.967 -585.089 263.406 -579.945 239.512C-579.579 237.814 -581.989 236.865 -582.474 238.36C-582.833 239.466 -583.22 240.643 -583.464 241.955C-591.968 287.946 -572.453 332.553 -543.395 367.704C-506.11 412.793 -454.53 441.287 -403.584 468.23C-376.375 482.62 -349.294 497.135 -323.426 513.794C-298.042 530.142 -273.711 548.121 -250.641 567.665C-204.589 606.68 -165.616 651.554 -129.837 699.98C-99.0318 741.674 -62.3513 789.054 -6.36898 793.306C44.2332 797.155 89.8229 766.543 129.816 739.533C173.878 709.776 224.925 677.873 280.34 691.96C307.698 698.912 332.71 713.677 360.747 718.185C382.711 721.718 404.508 716.941 422.164 703.245C456.963 676.237 469.007 627.85 466.378 585.759C463.29 536.257 443.298 489.284 415.049 448.989C346.058 350.577 233.592 299.161 133.113 239.814C81.3794 209.259 30.6211 175.459 -10.9245 131.629C-30.7145 110.75 -46.94 87.2889 -64.0767 64.283C-79.7178 43.2843 -96.8043 22.4668 -119.141 8.27631C-162.324 -19.1595 -213.474 -10.0874 -261.143 -3.32335C-286.159 0.226438 -311.657 3.32275 -336.878 0.0270187C-368.979 -4.16961 -397.457 -20.2719 -422.587 -39.9917C-469.17 -76.5439 -506.981 -128.405 -564.01 -149.843C-605.503 -165.442 -658.654 -162.138 -686.634 -123.706C-716.979 -82.023 -705.334 -24.4721 -682.303 17.4646C-655.173 66.8685 -612.941 106.886 -591.964 159.83C-581.996 184.985 -577.375 212.336 -583.374 239.035C-583.793 240.9 -580.959 241.905 -580.536 240.018C-569.401 190.455 -592.495 142.854 -619.871 103.099C-651.063 57.8007 -691.942 14.3414 -700.235 -41.797C-703.99 -67.2091 -701.291 -94.873 -687.493 -117.06C-674.021 -138.722 -651.279 -151.523 -626.298 -154.818Z" fill="url(#paint2_linear_142_2669)"/>
<path d="M-603.825 -130.664C-549.151 -137.79 -503.474 -102.699 -465.811 -67.6592C-426.539 -31.1227 -386.193 11.3785 -330.404 19.3573C-283.832 26.0164 -237.975 9.9886 -191.557 9.43456C-167.337 9.14582 -143.492 13.8471 -122.84 26.9936C-101.188 40.7756 -84.8351 61.163 -69.7385 81.5626C-54.1573 102.617 -39.2316 123.97 -21.2182 143.078C-2.80165 162.613 17.643 180.166 39.1325 196.227C130.044 264.176 239.071 304.811 324.992 379.863C361.95 412.146 393.754 451.293 413.578 496.441C431.974 538.337 440.918 587.904 426.169 632.26C419.616 651.964 408.546 670.97 391.926 683.818C371.871 699.315 347.209 701.073 323.303 694.509C298.329 687.654 275.293 674.556 249.573 670.286C227.004 666.528 204.214 670.729 183.095 678.991C137.985 696.644 101.972 730.46 58.7802 751.707C36.8546 762.491 12.7136 770.344 -11.9961 768.892C-38.1946 767.35 -61.5335 754.897 -80.8223 737.651C-101.03 719.598 -117.106 697.422 -133.106 675.711C-149.107 653.998 -165.753 632.891 -183.978 612.989C-220.871 572.703 -262.749 536.954 -308.357 506.884C-355.846 475.573 -409.437 453.066 -457.359 421.672C-498.289 394.858 -536.372 359.284 -553.95 312.278C-562.077 290.554 -564.537 267.156 -559.641 244.399C-559.294 242.786 -561.494 241.868 -562.016 243.164C-562.405 244.124 -562.846 245.192 -563.085 246.462C-571.273 290.293 -552.852 332.889 -525.229 366.475C-489.864 409.457 -440.759 436.589 -392.3 462.22C-366.393 475.922 -340.634 489.765 -316.01 505.599C-291.853 521.132 -268.687 538.199 -246.716 556.795C-202.875 593.901 -165.741 636.586 -131.695 682.672C-102.39 722.343 -67.5674 767.47 -14.3519 771.724C33.8112 775.584 77.306 746.515 115.375 720.803C157.285 692.495 205.862 661.961 258.61 675.23C284.682 681.786 308.49 695.854 335.172 700.213C356.091 703.634 376.872 699.189 393.747 686.196C426.913 660.638 438.518 614.62 436.101 574.602C433.261 527.47 414.316 482.728 387.48 444.327C321.958 350.572 214.965 301.551 119.33 245.11C70.0322 216.016 21.6471 183.856 -17.9745 142.137C-36.835 122.277 -52.3044 99.9644 -68.6096 78.0553C-83.4946 58.0537 -99.733 38.2109 -120.961 24.6403C-162.024 -1.61192 -210.703 6.90357 -256.113 13.3546C-279.953 16.7413 -304.247 19.7206 -328.287 16.6182C-358.838 12.673 -385.947 -2.59693 -409.873 -21.3438C-454.259 -56.1177 -490.225 -105.48 -544.487 -125.977C-583.96 -140.886 -634.584 -137.834 -661.322 -101.341C-690.323 -61.7615 -679.373 -6.934 -657.507 33.0076C-631.725 80.1051 -591.474 118.206 -571.444 168.612C-561.916 192.588 -557.484 218.662 -563.199 244.123C-563.617 245.988 -560.783 246.993 -560.361 245.107C-549.724 197.713 -571.657 152.708 -597.787 114.781C-627.53 71.6095 -666.379 30.2051 -674.277 -23.1014C-677.867 -47.3256 -675.291 -73.7174 -662.097 -94.8488C-649.248 -115.435 -627.591 -127.564 -603.825 -130.664Z" fill="url(#paint3_linear_142_2669)"/>
<path d="M-581.351 -106.511C-529.393 -113.195 -486.058 -79.7543 -450.288 -46.4536C-413.032 -11.7717 -374.704 28.4646 -321.756 35.957C-277.533 42.2138 -234.007 26.9845 -189.929 26.5085C-166.924 26.2605 -144.305 30.7824 -124.719 43.315C-104.187 56.4519 -88.6858 75.8422 -74.3558 95.2212C-59.5818 115.2 -45.4025 135.439 -28.3013 153.552C-10.8039 172.084 8.61418 188.737 29.0215 203.976C115.317 268.416 218.777 306.989 300.289 378.239C335.365 408.9 365.544 446.078 384.336 488.952C401.77 528.729 410.216 575.775 396.16 617.856C389.914 636.555 379.369 654.584 363.548 666.734C344.428 681.41 320.968 682.913 298.267 676.616C274.57 670.044 252.675 657.621 228.226 653.669C206.857 650.201 185.296 654.233 165.319 662.073C122.509 678.88 88.3204 710.989 47.2889 731.127C26.4489 741.354 3.49755 748.774 -19.974 747.317C-44.8815 745.769 -67.0299 733.821 -85.3216 717.372C-104.402 700.231 -119.606 679.242 -134.752 658.689C-149.935 638.088 -165.744 618.07 -183.044 599.192C-218.066 560.977 -257.812 527.065 -301.095 498.542C-346.016 468.939 -397.033 447.507 -442.494 417.702C-481.389 392.199 -517.337 358.577 -533.989 313.787C-541.67 293.135 -543.989 270.9 -539.342 249.28C-539.013 247.751 -541.002 246.866 -541.562 247.961C-541.981 248.779 -542.476 249.734 -542.71 250.962C-550.582 292.633 -533.252 333.217 -507.068 365.238C-473.623 406.114 -426.99 431.884 -381.019 456.203C-356.415 469.219 -331.979 482.388 -308.597 497.397C-285.668 512.118 -263.667 528.271 -242.794 545.919C-201.166 581.117 -165.868 621.611 -133.558 665.358C-105.752 703.006 -72.7873 745.88 -22.3394 750.137C23.3846 754.008 64.7855 726.482 100.929 702.066C140.688 675.209 186.795 646.042 236.876 658.494C261.662 664.653 284.265 678.025 309.591 682.237C329.465 685.545 349.231 681.434 365.323 669.143C396.858 645.035 408.021 601.385 405.819 563.441C403.227 518.681 385.328 476.168 359.906 439.662C297.856 350.565 196.338 303.94 105.547 250.405C58.6848 222.773 12.672 192.252 -25.0247 152.643C-42.9548 133.802 -57.6699 112.639 -73.1427 91.8258C-87.2725 72.8205 -102.661 53.9522 -122.782 41.0016C-161.726 15.9329 -207.933 23.8909 -251.085 30.0297C-273.748 33.2535 -296.838 36.1148 -319.697 33.2067C-348.697 29.5129 -374.437 15.0753 -397.161 -2.69873C-439.35 -35.6942 -473.471 -82.5584 -524.967 -102.112C-562.421 -116.333 -610.516 -113.532 -636.013 -78.9792C-663.669 -41.5009 -653.416 10.6021 -632.714 48.5485C-608.282 93.3396 -570.008 129.524 -550.927 177.393C-541.838 200.19 -537.596 224.987 -543.027 249.208C-543.444 251.073 -540.61 252.078 -540.188 250.193C-530.049 204.969 -550.821 162.559 -575.707 126.46C-604.002 85.4155 -640.818 46.0653 -648.322 -4.40858C-651.749 -27.4458 -649.296 -52.5656 -636.705 -72.6409C-624.474 -92.1499 -603.903 -103.608 -581.351 -106.511Z" fill="url(#paint4_linear_142_2669)"/>
<path d="M-558.878 -82.3589C-509.636 -88.6027 -468.643 -56.8098 -434.765 -25.2494C-399.527 7.57789 -363.216 45.5503 -313.108 52.5563C-271.235 58.409 -230.038 43.9801 -188.302 43.5821C-166.51 43.3749 -145.116 47.7172 -126.598 59.6342C-107.187 72.1261 -92.5373 90.5183 -78.9728 108.878C-65.0052 127.781 -51.5743 146.905 -35.3835 164.026C-18.8051 181.555 -0.413739 197.308 18.9115 211.723C100.591 272.654 198.485 309.165 275.586 376.612C308.781 405.651 337.335 440.861 355.096 481.462C371.569 519.119 379.516 563.644 366.155 603.451C360.214 621.146 350.194 638.199 335.174 649.648C316.988 663.504 294.731 664.753 273.236 658.722C250.816 652.434 230.062 640.685 206.884 637.053C186.714 633.875 166.382 637.738 147.546 645.156C107.037 661.116 74.6728 691.519 35.8011 710.548C16.0476 720.217 -5.715 727.205 -27.9493 725.744C-51.5665 724.189 -72.5236 712.747 -89.8173 697.095C-107.77 680.867 -122.102 661.063 -136.395 641.669C-150.76 622.18 -165.732 603.251 -182.106 585.398C-215.255 549.254 -252.871 517.18 -293.831 490.203C-336.183 462.307 -384.625 441.95 -427.624 413.734C-464.484 389.545 -498.3 357.874 -514.024 315.299C-521.261 295.719 -523.439 274.647 -519.039 254.164C-518.729 252.718 -520.512 251.87 -521.105 252.761C-521.556 253.438 -522.102 254.279 -522.331 255.465C-529.887 294.978 -513.65 333.549 -488.903 364.004C-457.378 402.774 -413.219 427.182 -369.735 450.189C-346.433 462.517 -323.318 475.013 -301.181 489.199C-279.48 503.105 -258.643 518.346 -238.87 535.046C-199.455 568.334 -165.993 606.641 -135.417 648.047C-109.112 683.67 -78.0052 724.292 -30.3233 728.552C12.9626 732.433 52.2677 706.45 86.4875 683.331C124.093 657.924 167.731 630.125 215.146 641.76C238.645 647.523 260.044 660.198 284.015 664.263C302.843 667.458 321.593 663.68 336.904 652.092C366.807 629.434 377.53 588.154 375.54 552.282C373.196 509.892 356.345 469.61 332.336 434.997C273.758 350.558 177.714 306.329 91.7662 255.699C47.3393 229.53 3.69969 200.647 -32.073 163.149C-49.0728 145.328 -63.0326 125.314 -77.6748 105.597C-91.0485 87.5876 -105.589 69.6939 -124.602 57.3642C-161.426 33.479 -205.161 40.8803 -246.054 46.7061C-267.541 49.7678 -289.427 52.5112 -311.104 49.7964C-338.554 46.3541 -362.925 32.7481 -384.446 15.9477C-424.438 -15.2694 -456.713 -59.6347 -505.443 -78.2455C-540.877 -91.7779 -586.444 -89.2278 -610.7 -56.6156C-637.011 -21.24 -627.453 28.1396 -607.916 64.0909C-584.832 106.576 -548.539 140.844 -530.405 186.176C-521.756 207.793 -517.703 231.314 -522.85 254.296C-523.266 256.161 -520.434 257.166 -520.011 255.28C-510.37 212.225 -529.981 172.411 -553.621 138.141C-580.468 99.2228 -615.254 61.9267 -622.362 14.2855C-625.624 -7.56376 -623.294 -31.4116 -611.308 -50.4308C-599.701 -68.8647 -580.214 -79.6511 -558.878 -82.3589Z" fill="url(#paint5_linear_142_2669)"/>
<path d="M-536.405 -58.2061C-489.878 -64.0086 -451.227 -33.8641 -419.242 -4.04466C-386.021 26.9279 -351.729 62.6356 -304.461 69.1551C-264.936 74.6046 -226.07 60.9743 -186.674 60.6561C-166.097 60.4896 -145.928 64.6524 -128.477 75.9547C-110.185 87.8006 -96.3882 105.196 -83.5885 122.535C-70.4281 140.363 -57.7438 158.373 -42.4643 174.501C-26.805 191.027 -9.4402 205.879 8.80297 219.473C85.8664 276.895 178.194 311.342 250.884 374.988C282.198 402.405 309.127 435.645 325.856 473.973C341.367 509.51 348.817 551.514 336.149 589.047C330.514 605.737 321.018 621.813 306.799 632.563C289.547 645.598 268.492 646.592 248.203 640.828C227.061 634.823 207.447 623.749 185.54 620.436C166.568 617.549 147.466 621.243 129.771 628.238C91.563 643.352 61.0213 672.048 24.3113 689.968C5.64334 699.08 -14.9296 705.634 -35.9257 704.17C-58.2527 702.609 -78.0176 691.673 -94.3142 676.817C-111.139 661.501 -124.598 642.884 -138.041 624.648C-151.587 606.27 -165.722 588.429 -181.169 571.601C-212.448 537.53 -247.934 507.293 -286.568 481.862C-326.351 455.673 -372.22 436.392 -412.756 409.764C-447.582 386.887 -479.263 357.168 -494.06 316.809C-500.851 298.301 -502.889 278.392 -498.737 259.046C-498.445 257.685 -500.027 256.871 -500.648 257.559C-501.135 258.097 -501.729 258.821 -501.953 259.967C-509.193 297.319 -494.048 333.879 -470.739 362.769C-441.134 399.433 -399.449 422.48 -358.452 444.174C-336.454 455.815 -314.66 467.637 -293.766 480.998C-273.293 494.09 -253.62 508.419 -234.946 524.171C-197.743 555.55 -166.118 591.667 -137.277 630.734C-112.471 664.334 -83.2226 702.702 -38.3076 706.965C2.53921 710.857 39.7495 686.418 72.0453 664.595C107.499 640.639 148.667 614.207 193.414 625.026C215.627 630.391 235.823 642.37 258.437 646.287C276.22 649.37 293.955 645.925 308.484 635.039C336.755 613.831 347.037 574.919 345.261 541.121C343.166 501.101 327.361 463.048 304.764 430.331C249.658 350.549 159.088 308.717 77.9838 260.992C35.9925 236.285 -5.27479 209.04 -39.1226 173.653C-55.192 156.851 -68.3966 137.985 -82.2073 119.364C-94.8249 102.351 -108.518 85.4326 -126.423 73.722C-161.128 51.0195 -202.391 57.8641 -241.025 63.3778C-261.336 66.2764 -282.017 68.9028 -302.514 66.3813C-328.414 63.1905 -351.415 50.4169 -371.734 34.5894C-409.529 5.15062 -439.959 -36.7167 -485.923 -54.3841C-519.337 -67.228 -562.377 -64.9286 -585.391 -34.2568C-610.358 -0.983909 -601.496 45.6731 -583.124 79.6284C-561.389 119.808 -527.074 152.158 -509.888 194.953C-501.678 215.39 -497.815 237.634 -502.679 259.377C-503.095 261.242 -500.261 262.247 -499.84 260.36C-490.698 219.476 -509.146 182.256 -531.542 149.815C-556.939 113.024 -589.694 77.7816 -596.408 32.9732C-599.506 12.3109 -597.299 -10.265 -585.917 -28.2281C-574.928 -45.579 -556.527 -55.6942 -536.405 -58.2061Z" fill="url(#paint6_linear_142_2669)"/>
<path d="M-513.932 -34.0523C-470.12 -39.4134 -433.81 -10.918 -403.719 17.1611C-372.514 46.2791 -340.24 79.7219 -295.813 85.7559C-258.637 90.8022 -222.1 77.9713 -185.046 77.7311C-165.684 77.6054 -146.74 81.5887 -130.356 92.2762C-113.184 103.477 -100.239 119.874 -88.2057 136.194C-75.8525 152.947 -63.9156 169.842 -49.5474 184.976C-34.8081 200.5 -18.469 214.452 -1.30796 227.222C71.14 281.134 157.9 313.52 226.181 373.364C255.613 399.159 280.917 430.43 296.615 466.486C311.165 499.903 318.117 539.386 306.141 574.644C300.813 590.33 291.842 605.431 278.423 615.481C262.106 627.695 242.253 628.435 223.169 622.937C203.305 617.217 184.833 606.816 164.197 603.821C146.423 601.224 128.55 604.749 111.997 611.322C76.0892 625.59 47.3719 652.579 12.8217 669.391C-4.75983 677.945 -24.144 684.067 -43.9028 682.598C-64.9388 681.031 -83.5131 670.6 -98.8126 656.542C-114.51 642.138 -127.097 624.706 -139.686 607.629C-152.415 590.363 -165.711 573.611 -180.234 557.808C-209.641 525.808 -242.996 497.408 -279.306 473.524C-316.521 449.042 -359.814 430.836 -397.889 405.798C-430.68 384.232 -460.228 356.466 -474.098 318.323C-480.444 300.886 -482.341 282.14 -478.437 263.932C-478.163 262.654 -479.551 261.876 -480.194 262.361C-480.723 262.759 -481.359 263.368 -481.578 264.471C-488.501 299.664 -474.45 334.213 -452.578 361.537C-424.894 396.095 -385.682 417.779 -347.173 438.161C-326.476 449.114 -306.005 460.263 -286.355 472.799C-267.11 485.077 -248.601 498.494 -231.026 513.297C-196.036 542.767 -166.247 576.695 -139.141 613.422C-115.835 644.999 -88.445 681.114 -46.2959 685.38C-7.88818 689.282 27.2281 666.386 57.5981 645.861C90.8997 623.355 129.598 598.291 171.678 608.293C192.604 613.262 211.597 624.543 232.855 628.313C249.592 631.284 266.312 628.172 280.06 617.989C306.699 598.23 316.54 561.688 314.977 529.963C313.13 492.314 298.373 456.491 277.19 425.668C225.555 350.543 140.459 311.107 64.1974 266.288C24.6417 243.042 -14.2525 217.437 -46.1762 184.16C-61.3161 168.378 -73.7647 150.661 -86.7447 133.137C-98.6071 117.121 -111.45 101.177 -128.249 90.086C-160.834 68.5671 -199.625 74.8551 -235.999 80.0558C-255.134 82.7922 -274.612 85.3006 -293.927 82.9717C-318.277 80.0315 -339.909 68.091 -359.024 53.2364C-394.623 25.5751 -423.208 -13.7924 -466.405 -30.5182C-497.8 -42.6727 -538.311 -40.6256 -560.085 -11.8935C-583.707 19.2776 -575.541 63.2103 -558.333 95.1714C-537.948 133.044 -505.611 163.478 -489.373 203.736C-481.603 222.994 -477.93 243.961 -482.509 264.465C-482.924 266.33 -480.091 267.336 -479.67 265.448C-471.027 226.734 -488.314 192.11 -509.464 161.496C-533.413 126.832 -564.138 93.6436 -570.456 51.6679C-573.389 32.1935 -571.305 10.8896 -560.527 -6.01827C-550.155 -22.2932 -532.839 -31.7364 -513.932 -34.0523Z" fill="url(#paint7_linear_142_2669)"/>
<path d="M-491.459 -9.90019C-450.363 -14.8199 -416.395 12.0263 -388.197 38.3661C-359.009 65.6294 -328.752 96.8083 -287.165 102.355C-252.339 106.998 -218.132 94.9667 -183.418 94.8046C-165.271 94.7205 -147.552 98.5234 -132.234 108.596C-116.183 119.152 -104.09 134.552 -92.8217 149.852C-81.2758 165.53 -70.0854 181.31 -56.6285 195.451C-42.8082 209.972 -27.4958 223.023 -11.416 234.972C56.4157 285.375 137.61 315.699 201.48 371.74C229.03 395.913 252.71 425.214 267.377 458.998C280.966 490.296 287.42 527.256 276.136 560.241C271.114 574.921 262.668 589.046 250.05 598.397C234.666 609.79 216.015 610.276 198.137 605.044C179.55 599.607 162.219 589.881 142.854 587.206C126.28 584.899 109.636 588.255 94.2243 594.406C60.6167 607.826 33.7236 633.109 1.33426 648.812C-15.1617 656.809 -33.3564 662.498 -51.877 661.025C-71.6227 659.452 -89.0058 649.527 -103.307 636.265C-117.877 622.774 -129.592 606.529 -141.328 590.61C-153.238 574.455 -165.698 558.791 -179.295 544.012C-206.83 514.084 -238.055 487.523 -272.04 465.184C-306.686 442.409 -347.405 425.278 -383.018 401.829C-413.774 381.576 -441.189 355.76 -454.131 319.833C-460.032 303.468 -461.787 285.885 -458.132 268.813C-457.876 267.619 -459.077 266.869 -459.734 267.158C-460.311 267.411 -460.983 267.911 -461.198 268.972C-467.806 302.005 -454.846 334.542 -434.412 360.301C-408.647 392.753 -371.909 413.076 -335.887 432.145C-316.494 442.412 -297.344 452.887 -278.937 464.599C-260.92 476.064 -243.576 488.569 -227.099 502.423C-194.322 529.984 -166.369 561.722 -140.997 596.109C-119.191 625.662 -93.6584 659.524 -54.277 663.793C-18.3075 667.705 14.7131 646.353 43.1591 627.124C74.3086 606.068 110.537 582.372 149.951 591.557C169.591 596.129 187.379 606.714 207.281 610.336C222.973 613.194 238.677 610.415 251.643 600.936C276.65 582.627 286.051 548.454 284.701 518.802C283.103 483.524 269.392 449.93 249.621 421.002C201.457 350.535 121.836 313.494 50.4182 271.58C13.299 249.797 -23.2229 225.83 -53.2226 194.664C-67.4322 179.901 -79.1255 163.333 -91.274 146.904C-102.38 131.885 -114.375 116.916 -130.066 106.445C-160.531 86.1096 -196.851 91.8401 -230.967 96.7286C-248.925 99.302 -267.199 101.693 -285.333 99.5578C-308.133 96.8699 -328.395 85.761 -346.308 71.8792C-379.709 45.9963 -406.449 9.1268 -446.879 -6.65561C-476.254 -18.1217 -514.237 -16.3252 -534.77 10.4664C-557.047 39.5349 -549.577 80.7441 -533.534 110.71C-514.497 146.276 -484.14 174.794 -468.849 212.514C-461.519 230.592 -458.036 250.284 -462.33 269.548C-462.746 271.413 -459.912 272.419 -459.492 270.532C-451.346 233.987 -467.473 201.958 -487.378 173.174C-509.879 140.635 -538.573 109.503 -544.496 70.3584C-547.265 52.071 -545.304 32.0391 -535.129 16.1873C-525.382 0.991917 -509.151 -7.77934 -491.459 -9.90019Z" fill="url(#paint8_linear_142_2669)"/>
<path d="M-468.985 14.2528C-430.605 9.77442 -398.979 34.9714 -372.674 59.5711C-345.502 84.9806 -317.264 113.894 -278.517 118.954C-246.04 123.195 -214.164 111.962 -181.791 111.879C-164.857 111.835 -148.364 115.459 -134.113 124.917C-119.181 134.827 -107.941 149.23 -97.4388 163.51C-86.6993 178.112 -76.2563 192.778 -63.7116 205.925C-50.8104 219.443 -36.5246 231.594 -21.5269 242.72C41.6885 289.614 117.316 317.875 176.776 370.115C202.445 392.666 224.5 419.999 238.135 451.509C250.762 480.687 256.718 515.127 246.129 545.836C241.413 559.511 233.492 572.66 221.674 581.312C207.224 591.885 189.776 592.116 173.104 587.151C155.794 581.998 139.604 572.947 121.51 570.59C106.135 568.575 90.7204 571.76 76.4493 577.489C45.1421 590.063 20.0725 613.64 -10.1553 628.233C-25.5649 635.673 -42.5707 640.928 -59.854 639.452C-78.3096 637.873 -94.5004 628.453 -107.805 615.988C-121.247 603.409 -132.09 588.35 -142.973 573.589C-154.065 558.544 -165.688 543.971 -178.358 530.217C-204.022 502.36 -233.116 477.636 -264.777 456.844C-296.855 435.776 -335 419.721 -368.15 397.86C-396.872 378.919 -422.152 355.056 -434.168 321.345C-439.623 306.051 -441.238 289.631 -437.83 273.697C-437.593 272.587 -438.61 271.853 -439.278 271.958C-439.904 272.056 -440.61 272.456 -440.82 273.474C-447.112 304.348 -435.244 334.873 -416.247 359.067C-392.404 389.413 -358.139 408.374 -324.604 426.131C-306.513 435.71 -288.686 445.513 -271.523 456.4C-254.733 467.05 -238.553 478.643 -223.175 491.549C-192.611 517.201 -166.495 546.75 -142.858 578.797C-122.551 606.327 -98.8773 637.936 -62.2627 642.208C-28.7322 646.131 2.1935 626.322 28.7154 608.39C57.7128 588.784 91.4722 566.456 128.219 574.824C146.572 579 163.156 588.888 181.704 592.362C196.349 595.107 211.038 592.662 223.223 583.884C246.598 567.023 255.557 535.22 254.421 507.641C253.071 474.734 240.407 443.371 222.05 416.337C177.358 350.527 103.211 315.883 36.6361 276.874C1.95247 256.553 -32.1971 234.225 -60.2719 205.17C-73.5511 191.426 -84.4892 176.007 -95.8062 160.675C-106.156 146.652 -117.303 132.657 -131.886 122.806C-160.232 103.655 -194.08 108.828 -225.936 113.404C-242.718 115.814 -259.788 118.088 -276.741 116.146C-297.991 113.71 -316.884 103.433 -333.593 90.5246C-364.797 66.42 -389.692 32.0494 -427.356 17.2095C-454.711 6.43184 -490.168 7.9778 -509.458 32.8289C-530.391 59.7947 -523.616 98.2814 -508.738 126.251C-491.05 159.511 -462.672 186.113 -448.329 221.296C-441.439 238.193 -438.145 256.609 -442.155 274.635C-442.57 276.5 -439.736 277.506 -439.317 275.619C-431.669 241.243 -446.634 211.81 -465.294 184.854C-486.345 154.442 -513.009 125.363 -518.536 89.0523C-521.141 71.9528 -519.303 53.1929 -509.733 38.3964C-500.608 24.2779 -485.463 16.1777 -468.985 14.2528Z" fill="url(#paint9_linear_142_2669)"/>
<path d="M-446.512 38.4054C-410.848 34.3683 -381.563 57.9171 -357.151 80.7756C-331.995 104.33 -305.776 130.98 -269.869 135.554C-239.742 139.39 -210.195 128.958 -180.163 128.953C-164.444 128.95 -149.175 132.394 -135.992 141.237C-122.181 150.502 -111.793 163.907 -102.055 177.168C-92.1231 190.694 -82.4275 204.246 -70.7932 216.399C-58.812 228.915 -45.5519 240.166 -31.6364 250.468C26.9637 293.854 97.0238 320.053 152.074 368.489C175.86 389.419 196.29 414.782 208.896 444.02C220.561 471.078 226.019 502.996 216.123 531.432C211.713 544.102 204.317 556.275 193.299 564.228C179.784 573.98 163.538 573.956 148.071 569.258C132.038 564.388 116.989 556.011 100.166 553.973C85.9903 552.248 71.805 555.265 58.675 560.571C29.668 572.299 6.42278 594.168 -21.6451 607.654C-35.9691 614.536 -51.7844 619.359 -67.8304 617.878C-84.995 616.293 -99.9952 607.379 -112.302 595.71C-124.617 584.044 -134.588 570.171 -144.618 556.568C-154.892 542.635 -165.677 529.149 -177.422 516.421C-201.214 490.636 -228.178 467.75 -257.514 448.503C-287.023 429.142 -322.594 414.161 -353.282 393.891C-379.969 376.263 -403.116 354.351 -414.205 322.855C-419.214 308.634 -420.689 293.376 -417.529 278.579C-417.31 277.554 -418.135 276.827 -418.822 276.757C-419.492 276.688 -420.239 276.999 -420.443 277.977C-426.419 306.691 -415.643 335.204 -398.084 357.832C-376.161 386.072 -344.369 403.671 -313.322 420.115C-296.533 429.008 -280.028 438.137 -264.108 448.2C-248.546 458.036 -233.531 468.716 -219.252 480.674C-190.901 504.417 -166.621 531.777 -144.718 561.484C-125.911 586.991 -104.096 616.347 -70.247 620.622C-39.1547 624.555 -10.3238 606.289 14.2732 589.654C41.1186 571.499 72.4077 550.538 106.487 558.09C123.553 561.869 138.934 571.06 156.126 574.387C169.727 577.02 183.399 574.907 194.802 566.832C216.546 551.422 225.065 521.988 224.142 496.482C223.041 465.945 211.423 436.812 194.479 411.673C153.258 350.519 84.5848 318.272 22.8538 282.169C-9.3943 263.309 -41.1707 242.62 -67.3215 215.676C-79.6703 202.952 -89.854 188.682 -100.339 174.445C-109.934 161.418 -120.232 148.399 -133.707 139.168C-159.933 121.2 -191.31 125.816 -220.907 130.08C-236.514 132.328 -252.379 134.484 -268.151 132.736C-287.851 130.55 -305.375 121.106 -320.881 109.17C-349.889 86.8442 -372.939 54.9716 -407.836 41.0742C-433.171 30.985 -466.1 32.2796 -484.149 55.191C-503.737 80.0542 -497.658 115.817 -483.945 141.792C-467.605 172.746 -441.206 197.431 -427.811 230.076C-421.361 245.795 -418.256 262.934 -421.983 279.72C-422.397 281.585 -419.563 282.59 -419.144 280.704C-411.995 248.498 -425.798 221.661 -443.214 196.532C-462.817 168.247 -487.45 141.222 -492.583 107.744C-495.023 91.8316 -493.307 74.3437 -484.342 60.6041C-475.835 47.5625 -461.775 40.1343 -446.512 38.4054Z" fill="url(#paint10_linear_142_2669)"/>
<path d="M-398.97 285.788C-384.852 222.03 -457.667 184.379 -466.625 126.435C-468.901 111.711 -467.308 95.4946 -458.947 82.8103C-451.062 70.8482 -438.087 64.092 -424.039 62.559C-391.091 58.9633 -364.147 80.8628 -341.628 101.982C-318.49 123.682 -294.288 148.067 -261.221 152.154C-233.443 155.589 -206.227 145.955 -178.535 146.027C-164.03 146.066 -149.987 149.33 -137.871 157.559C-125.18 166.178 -115.643 178.586 -106.672 190.826C-97.5472 203.277 -88.5982 215.715 -77.8752 226.875C-66.8131 238.388 -54.5796 248.738 -41.7461 258.218C12.2377 298.095 76.732 322.232 127.371 366.867C149.276 386.174 168.081 409.568 179.655 436.534C190.359 461.472 195.319 490.87 186.115 517.03C182.012 528.696 175.14 539.893 164.923 547.146C152.342 556.078 137.299 555.799 123.038 551.367C108.282 546.781 94.3751 539.079 78.8225 537.359C65.846 535.925 52.8902 538.773 40.9012 543.657C14.1946 554.538 -7.22721 574.701 -33.1335 587.077C-46.3711 593.401 -60.9976 597.791 -75.8055 596.307C-91.6798 594.716 -105.489 586.306 -116.798 575.435C-127.984 564.682 -137.084 551.994 -146.261 539.55C-155.717 526.729 -165.664 514.332 -176.483 502.628C-198.404 478.915 -223.238 457.866 -250.249 440.166C-300.719 407.095 -372.442 387.174 -394.24 324.369C-398.804 311.219 -400.138 297.124 -397.226 283.464C-396.828 281.598 -399.662 280.591 -400.065 282.48C-405.724 309.034 -396.042 335.536 -379.92 356.599C-359.916 382.732 -330.598 398.97 -302.039 414.102C-271.428 430.321 -242.003 447.519 -215.327 469.801C-189.189 491.634 -166.746 516.805 -146.577 544.172C-129.271 567.656 -109.312 594.759 -78.2306 599.036C-49.5775 602.979 -22.8414 586.257 -0.169242 570.918C24.5232 554.213 53.3437 534.62 84.7559 541.354C100.536 544.736 114.712 553.231 130.548 556.411C143.104 558.931 155.761 557.152 166.382 549.779C186.494 535.819 194.571 508.754 193.862 485.32C193.009 457.155 182.438 430.251 166.907 407.007C129.158 350.51 65.9587 320.66 9.07111 287.461C-20.7413 270.064 -50.1445 251.014 -74.3713 226.179C-85.7898 214.474 -95.2183 201.353 -104.872 188.213C-113.711 176.182 -123.16 164.138 -135.527 155.527C-159.635 138.741 -188.539 142.801 -215.877 146.752C-230.307 148.838 -244.969 150.876 -259.559 149.321C-277.709 147.387 -293.863 138.775 -308.167 127.812C-334.978 107.264 -356.183 77.8905 -388.313 64.9357C-411.628 55.5358 -442.029 56.5788 -458.837 77.5498C-477.081 100.311 -471.697 133.35 -459.149 157.33C-444.158 185.977 -419.738 208.745 -407.29 238.854C-401.28 253.392 -398.365 269.255 -401.808 284.802C-402.222 286.67 -399.388 287.675 -398.97 285.788Z" fill="url(#paint11_linear_142_2669)"/>
</g>
<defs>
<linearGradient id="paint0_linear_142_2669" x1="527.368" y1="314.889" x2="-757" y2="314.889" gradientUnits="userSpaceOnUse">
<stop stop-color="#FC5B15"/>
<stop offset="1" stop-color="#FF9465"/>
</linearGradient>
<linearGradient id="paint1_linear_142_2669" x1="497.046" y1="316.209" x2="-730.96" y2="316.209" gradientUnits="userSpaceOnUse">
<stop stop-color="#FC5B15"/>
<stop offset="1" stop-color="#FF9465"/>
</linearGradient>
<linearGradient id="paint2_linear_142_2669" x1="466.726" y1="317.526" x2="-704.921" y2="317.526" gradientUnits="userSpaceOnUse">
<stop stop-color="#FC5B15"/>
<stop offset="1" stop-color="#FF9465"/>
</linearGradient>
<linearGradient id="paint3_linear_142_2669" x1="436.409" y1="318.849" x2="-678.881" y2="318.849" gradientUnits="userSpaceOnUse">
<stop stop-color="#FC5B15"/>
<stop offset="1" stop-color="#FF9465"/>
</linearGradient>
<linearGradient id="paint4_linear_142_2669" x1="406.087" y1="320.169" x2="-652.845" y2="320.169" gradientUnits="userSpaceOnUse">
<stop stop-color="#FC5B15"/>
<stop offset="1" stop-color="#FF9465"/>
</linearGradient>
<linearGradient id="paint5_linear_142_2669" x1="375.77" y1="321.492" x2="-626.805" y2="321.492" gradientUnits="userSpaceOnUse">
<stop stop-color="#FC5B15"/>
<stop offset="1" stop-color="#FF9465"/>
</linearGradient>
<linearGradient id="paint6_linear_142_2669" x1="345.455" y1="322.812" x2="-600.772" y2="322.812" gradientUnits="userSpaceOnUse">
<stop stop-color="#FC5B15"/>
<stop offset="1" stop-color="#FF9465"/>
</linearGradient>
<linearGradient id="paint7_linear_142_2669" x1="315.136" y1="324.137" x2="-574.741" y2="324.137" gradientUnits="userSpaceOnUse">
<stop stop-color="#FC5B15"/>
<stop offset="1" stop-color="#FF9465"/>
</linearGradient>
<linearGradient id="paint8_linear_142_2669" x1="284.827" y1="325.46" x2="-548.704" y2="325.46" gradientUnits="userSpaceOnUse">
<stop stop-color="#FC5B15"/>
<stop offset="1" stop-color="#FF9465"/>
</linearGradient>
<linearGradient id="paint9_linear_142_2669" x1="254.517" y1="326.786" x2="-522.672" y2="326.786" gradientUnits="userSpaceOnUse">
<stop stop-color="#FC5B15"/>
<stop offset="1" stop-color="#FF9465"/>
</linearGradient>
<linearGradient id="paint10_linear_142_2669" x1="224.209" y1="328.114" x2="-496.644" y2="328.114" gradientUnits="userSpaceOnUse">
<stop stop-color="#FC5B15"/>
<stop offset="1" stop-color="#FF9465"/>
</linearGradient>
<linearGradient id="paint11_linear_142_2669" x1="193.905" y1="329.442" x2="-470.617" y2="329.442" gradientUnits="userSpaceOnUse">
<stop stop-color="#FC5B15"/>
<stop offset="1" stop-color="#FF9465"/>
</linearGradient>
</defs>
</svg>
