<?xml version="1.0" encoding="UTF-8"?>
<svg version="1.1" xmlns="http://www.w3.org/2000/svg" width="256" height="256">
<path d="M0 0 C4.62 0 9.24 0 14 0 C17.09383611 7.6068631 19.96922219 15.27360432 22.75 23 C23.16121094 24.13050781 23.57242188 25.26101562 23.99609375 26.42578125 C24.57810547 28.04033203 24.57810547 28.04033203 25.171875 29.6875 C25.5234668 30.66074219 25.87505859 31.63398437 26.23730469 32.63671875 C27 35 27 35 27 37 C22.05 37.33 17.1 37.66 12 38 C9.03 29.09 6.06 20.18 3 11 C2.67 11 2.34 11 2 11 C1.01 19.25 0.02 27.5 -1 36 C-2.485 36.495 -2.485 36.495 -4 37 C-4.18002871 29.59534103 -3.48463277 22.46775023 -2.5625 15.125 C-2.42779297 13.99835938 -2.29308594 12.87171875 -2.15429688 11.7109375 C-1.13646375 3.40939126 -1.13646375 3.40939126 0 0 Z " fill="#615BE7" transform="translate(23,73)"/>
<path d="M0 0 C4.95 0 9.9 0 15 0 C16.71500513 4.78506196 18.4238318 9.57226765 20.12695312 14.36157227 C20.70728688 15.99075866 21.28930881 17.61934472 21.87304688 19.24731445 C22.71147369 21.58649676 23.54381937 23.92776593 24.375 26.26953125 C24.63748535 26.99775589 24.8999707 27.72598053 25.17041016 28.47627258 C26.21999152 31.44909653 27 33.82225618 27 37 C22.38 37 17.76 37 13 37 C9.16524535 28.12528211 5.95151112 19.19364316 3 10 C2.87153687 10.90709717 2.87153687 10.90709717 2.74047852 11.83251953 C2.34856968 14.59678671 1.95554417 17.36089403 1.5625 20.125 C1.42779297 21.07632813 1.29308594 22.02765625 1.15429688 23.0078125 C0.48888877 27.6818987 -0.1932839 32.34767608 -1 37 C-1.99 37 -2.98 37 -4 37 C-3.37550161 24.57463555 -1.68543106 12.31742698 0 0 Z " fill="#5D57E5" transform="translate(140,73)"/>
<path d="M0 0 C1.37478516 0.01740234 1.37478516 0.01740234 2.77734375 0.03515625 C3.69644531 0.04417969 4.61554688 0.05320312 5.5625 0.0625 C6.27277344 0.07410156 6.98304687 0.08570312 7.71484375 0.09765625 C12.71484375 27.63098958 12.71484375 27.63098958 12.71484375 37.09765625 C8.09484375 37.09765625 3.47484375 37.09765625 -1.28515625 37.09765625 C-2.3945707 31.10681823 -3.47992925 25.13685877 -4.28515625 19.09765625 C-6.69632129 25.07049147 -9.04801857 31.0573845 -11.28515625 37.09765625 C-12.27515625 37.09765625 -13.26515625 37.09765625 -14.28515625 37.09765625 C-13.70729286 32.17247009 -12.66210686 27.78616961 -11.03515625 23.10546875 C-10.81698242 22.47405975 -10.59880859 21.84265076 -10.37402344 21.19210815 C-9.91640851 19.87182117 -9.45576114 18.55258159 -8.9921875 17.234375 C-8.28052363 15.20947503 -7.57900705 13.18126717 -6.87890625 11.15234375 C-3.0468477 0.13020717 -3.0468477 0.13020717 0 0 Z " fill="#5F5AE6" transform="translate(95.28515625,72.90234375)"/>
<path d="M0 0 C3.63 0 7.26 0 11 0 C11.57682702 3.98256105 12.14618681 7.96611513 12.70898438 11.95068359 C12.90100126 13.30285621 13.09497029 14.65475323 13.29101562 16.00634766 C14.31030119 23.04253834 15.2904876 29.8830538 15 37 C10.38 37 5.76 37 1 37 C0.01 30.73 -0.98 24.46 -2 18 C-3.81281032 23.87322392 -3.81281032 23.87322392 -5.58886719 29.75756836 C-5.82250977 30.48596924 -6.05615234 31.21437012 -6.296875 31.96484375 C-6.52729492 32.7137085 -6.75771484 33.46257324 -6.99511719 34.23413086 C-8 36 -8 36 -10.10644531 36.75219727 C-10.73131836 36.83397217 -11.35619141 36.91574707 -12 37 C-9.85879693 28.61282353 -7.18596986 20.47462092 -4.3125 12.3125 C-3.68891602 10.52682617 -3.68891602 10.52682617 -3.05273438 8.70507812 C-2.03847718 5.80220407 -1.02084668 2.90056187 0 0 Z " fill="#5D57E7" transform="translate(210,73)"/>
<path d="M0 0 C4.62 0 9.24 0 14 0 C16.79194552 6.64030286 19.46915585 13.25108226 22 20 C24.31 13.4 26.62 6.8 29 0 C29.99 0 30.98 0 32 0 C31.42834741 4.76025914 30.4748238 9.05298348 28.93359375 13.58984375 C28.3293457 15.38325195 28.3293457 15.38325195 27.71289062 17.21289062 C27.08157227 19.05657227 27.08157227 19.05657227 26.4375 20.9375 C26.00790487 22.20619117 25.57886341 23.47506996 25.15039062 24.74414062 C24.10568206 27.83131312 23.05540218 30.91647035 22 34 C18.37 34 14.74 34 11 34 C9.42951452 29.48067743 7.86303763 24.95999341 6.30029297 20.43798828 C5.76787065 18.89919359 5.23434634 17.36077973 4.69970703 15.82275391 C3.93233256 13.61459471 3.16890493 11.40510546 2.40625 9.1953125 C2.16563843 8.50567413 1.92502686 7.81603577 1.67712402 7.10549927 C0 2.22774341 0 2.22774341 0 0 Z " fill="#635DE7" transform="translate(161,132)"/>
<path d="M0 0 C1.66042444 2.49063665 2.55324168 4.25176398 3.5078125 7.01171875 C3.77207031 7.76904297 4.03632812 8.52636719 4.30859375 9.30664062 C4.57800781 10.09232422 4.84742187 10.87800781 5.125 11.6875 C5.54072266 12.88342773 5.54072266 12.88342773 5.96484375 14.10351562 C6.6470154 16.06769952 7.32401098 18.03367973 8 20 C10.62663439 16.06004841 11.69307995 11.78863808 12.96875 7.2734375 C13.5859375 5.2734375 13.5859375 5.2734375 15 2 C17.1640625 1.0390625 17.1640625 1.0390625 19 1 C18.29224481 5.10768922 17.08394234 8.89803909 15.71484375 12.83203125 C15.49429825 13.46864182 15.27375275 14.10525238 15.04652405 14.76115417 C14.34656706 16.77934462 13.64210815 18.7959293 12.9375 20.8125 C12.45998747 22.18674511 11.9827708 23.56109305 11.50585938 24.93554688 C10.34066087 28.29156146 9.17142161 31.64615178 8 35 C4.7 35 1.4 35 -2 35 C-3.46763898 31.02420479 -4.92239053 27.04380848 -6.375 23.0625 C-6.99375 21.38704102 -6.99375 21.38704102 -7.625 19.67773438 C-9.87611576 13.48716602 -11.75133186 7.46974755 -13 1 C-6.565 0.505 -6.565 0.505 0 0 Z " fill="#605BE6" transform="translate(57,131)"/>
<path d="M0 0 C2.31243792 -0.02685412 4.6249627 -0.04632841 6.9375 -0.0625 C8.22527344 -0.07410156 9.51304688 -0.08570313 10.83984375 -0.09765625 C14 0 14 0 15 1 C15.37136158 3.15385944 15.68430955 5.31783949 15.97265625 7.484375 C16.06002548 8.13698303 16.14739471 8.78959106 16.2374115 9.4619751 C16.42180748 10.84709893 16.60408314 12.2325064 16.78442383 13.61816406 C17.05963081 15.72800371 17.34275517 17.83666735 17.62695312 19.9453125 C17.80516581 21.29160344 17.98291484 22.63795585 18.16015625 23.984375 C18.32136963 25.20866211 18.48258301 26.43294922 18.64868164 27.69433594 C19 31 19 31 19 36 C14.38 36 9.76 36 5 36 C3.35075953 29.09470187 2.26135994 22.22863483 1.375 15.1875 C1.2409375 14.16462891 1.106875 13.14175781 0.96875 12.08789062 C0.44468466 8.00499385 0 4.12424244 0 0 Z " fill="#5C58E5" transform="translate(97,132)"/>
<path d="M0 0 C4.95 0 9.9 0 15 0 C15.573646 3.87723232 16.14461773 7.75471984 16.70898438 11.63330078 C16.99573533 13.59581276 17.28689713 15.55767863 17.578125 17.51953125 C17.84882813 19.38544922 17.84882813 19.38544922 18.125 21.2890625 C18.29257813 22.43068848 18.46015625 23.57231445 18.6328125 24.74853516 C19 28 19 28 19 34 C14.38 34 9.76 34 5 34 C3.53829804 26.29111099 2.35360555 18.59640844 1.375 10.8125 C1.2409375 9.76513672 1.106875 8.71777344 0.96875 7.63867188 C0.64324748 5.09277719 0.32124914 2.54643488 0 0 Z " fill="#5D57E5" transform="translate(214,132)"/>
<path d="M0 0 C0.99 0 1.98 0 3 0 C2.67 11.88 2.34 23.76 2 36 C-1.3 36 -4.6 36 -8 36 C-7.40838408 30.13701975 -6.22956741 24.76821985 -4.5625 19.125 C-2.74013254 12.78355244 -1.15385175 6.50352806 0 0 Z " fill="#7772ED" transform="translate(133,132)"/>
<path d="M0 0 C9.24 0 18.48 0 28 0 C29 5 29 5 28 8 C19.09 8 10.18 8 1 8 C0 6 0 6 0 0 Z " fill="#6F6BE3" transform="translate(225,116)"/>
<path d="M0 0 C0.99 0 1.98 0 3 0 C2.9278125 0.86238281 2.855625 1.72476563 2.78125 2.61328125 C1.98471489 13.08993058 1.89824352 23.49646966 2 34 C-1.3 34 -4.6 34 -8 34 C-7.3265889 28.36301943 -6.05351183 23.03533934 -4.5625 17.5625 C-4.12583303 15.93892816 -3.68963047 14.31523135 -3.25390625 12.69140625 C-2.93897217 11.52182373 -2.93897217 11.52182373 -2.61767578 10.32861328 C-1.70687695 6.89493768 -0.85132694 3.44886403 0 0 Z " fill="#6B67EA" transform="translate(16,132)"/>
<path d="M0 0 C2.475 0.495 2.475 0.495 5 1 C5.66 2.98 6.32 4.96 7 7 C8.89213369 4.61426621 10.02391783 2.92824652 11 0 C12.32 0.33 13.64 0.66 15 1 C15 4.96 15 8.92 15 13 C13.68 13 12.36 13 11 13 C10.67 12.34 10.34 11.68 10 11 C9.67 12.32 9.34 13.64 9 15 C8.01 15 7.02 15 6 15 C5.67 13.68 5.34 12.36 5 11 C4.67 11.66 4.34 12.32 4 13 C2.68 13 1.36 13 0 13 C0 8.71 0 4.42 0 0 Z " fill="#7E79EC" transform="translate(27,113)"/>
<path d="M0 0 C5 1 5 1 6.8125 3.0625 C7.204375 3.701875 7.59625 4.34125 8 5 C8.4125 4.175 8.825 3.35 9.25 2.5 C9.8275 1.675 10.405 0.85 11 0 C12.32 0 13.64 0 15 0 C15 3.63 15 7.26 15 11 C13.68 11 12.36 11 11 11 C10.67 10.34 10.34 9.68 10 9 C9.01 9.99 8.02 10.98 7 12 C6.34 11.34 5.68 10.68 5 10 C4.67 10.99 4.34 11.98 4 13 C2.68 12.67 1.36 12.34 0 12 C0 8.04 0 4.08 0 0 Z " fill="#7D79EA" transform="translate(126,115)"/>
<path d="M0 0 C4.95 0 9.9 0 15 0 C14.67 0.66 14.34 1.32 14 2 C10.7 1.67 7.4 1.34 4 1 C3.24778479 5.37279972 2.61004868 9.74995511 2.02734375 14.1484375 C1.93997452 14.80582916 1.85260529 15.46322083 1.7625885 16.14053345 C1.4866275 18.21856667 1.21204117 20.29677877 0.9375 22.375 C0.74944017 23.79298085 0.56129001 25.21094972 0.37304688 26.62890625 C-0.08567961 30.08579968 -0.54317429 33.54285481 -1 37 C-1.99 37 -2.98 37 -4 37 C-3.37550161 24.57463555 -1.68543106 12.31742698 0 0 Z " fill="#6C68E1" transform="translate(140,73)"/>
<path d="M0 0 C3.63 0 7.26 0 11 0 C10.67 2.31 10.34 4.62 10 7 C10.33 6.01 10.66 5.02 11 4 C11.66 2.68 12.32 1.36 13 0 C13 3.63 13 7.26 13 11 C8.71 11 4.42 11 0 11 C0 7.37 0 3.74 0 0 Z " fill="#7E7AED" transform="translate(94,115)"/>
<path d="M0 0 C3.96 0 7.92 0 12 0 C12 3.63 12 7.26 12 11 C10.88625 10.95875 9.7725 10.9175 8.625 10.875 C4.95633975 10.58878141 4.95633975 10.58878141 3 13 C2.01 12.67 1.02 12.34 0 12 C0 8.04 0 4.08 0 0 Z " fill="#6965DD" transform="translate(65,115)"/>
<path d="M0 0 C3.4375 0.4375 3.4375 0.4375 5.4375 2.4375 C5.7675 2.4375 6.0975 2.4375 6.4375 2.4375 C6.72321429 9.86607143 6.72321429 9.86607143 4.4375 13.4375 C-2.95054781 13.80084661 -2.95054781 13.80084661 -5.5625 12.25 C-6.94772721 9.73927568 -6.96796281 8.27573969 -6.5625 5.4375 C-5.00779509 1.32210464 -4.46241366 0.54801571 0 0 Z M-2.5625 6.4375 C-2.5625 7.4275 -2.5625 8.4175 -2.5625 9.4375 C-0.9125 9.1075 0.7375 8.7775 2.4375 8.4375 C0.05587991 7.02364089 0.05587991 7.02364089 -2.5625 6.4375 Z " fill="#817CEC" transform="translate(57.5625,112.5625)"/>
<path d="M0 0 C0.78375 0.185625 1.5675 0.37125 2.375 0.5625 C4.97089775 1.25962266 4.97089775 1.25962266 7 0 C6.979375 1.134375 6.95875 2.26875 6.9375 3.4375 C6.58422523 6.81575674 6.58422523 6.81575674 8 8 C8 5.36 8 2.72 8 0 C9.32 0 10.64 0 12 0 C12.3699422 7.39884393 12.3699422 7.39884393 10.5 10.4375 C10.005 10.953125 9.51 11.46875 9 12 C9 12.33 9 12.66 9 13 C6.69 13 4.38 13 2 13 C0.21590198 9.93753253 -0.22880021 7.77920727 -0.125 4.25 C-0.10695312 3.45078125 -0.08890625 2.6515625 -0.0703125 1.828125 C-0.04710937 1.22484375 -0.02390625 0.6215625 0 0 Z M3 1 C3 2.98 3 4.96 3 7 C3.33 7 3.66 7 4 7 C4 5.02 4 3.04 4 1 C3.67 1 3.34 1 3 1 Z " fill="#645DD8" transform="translate(203,115)"/>
<path d="M0 0 C5 0 5 0 7.8125 2.5 C8.534375 3.325 9.25625 4.15 10 5 C10 3.35 10 1.7 10 0 C11.32 0 12.64 0 14 0 C14 3.63 14 7.26 14 11 C9.80825346 9.95206337 8.78407039 9.08236365 6 6 C5.67 7.65 5.34 9.3 5 11 C2.03 10.505 2.03 10.505 -1 10 C-0.67 6.7 -0.34 3.4 0 0 Z M1 1 C1 3.97 1 6.94 1 10 C1.33 10 1.66 10 2 10 C2 7.03 2 4.06 2 1 C1.67 1 1.34 1 1 1 Z " fill="#6560E4" transform="translate(157,115)"/>
<path d="M0 0 C3.875 0.875 3.875 0.875 5 2 C5.66 1.34 6.32 0.68 7 0 C6.979375 1.134375 6.95875 2.26875 6.9375 3.4375 C6.58422523 6.81575674 6.58422523 6.81575674 8 8 C8 5.36 8 2.72 8 0 C9.32 0 10.64 0 12 0 C12.35921422 7.30402245 12.35921422 7.30402245 11 9.9375 C7.78963377 11.64300706 4.60700273 11.70434404 1 12 C0.03929566 9.11788698 -0.10581883 7.30149956 -0.0625 4.3125 C-0.05347656 3.50425781 -0.04445312 2.69601563 -0.03515625 1.86328125 C-0.02355469 1.24839844 -0.01195312 0.63351563 0 0 Z " fill="#7069E9" transform="translate(144,115)"/>
<path d="M0 0 C0.33 0.66 0.66 1.32 1 2 C1.66 2 2.32 2 3 2 C4.75 4.0625 4.75 4.0625 6 7 C5.1875 10.8125 5.1875 10.8125 4 14 C3.67 14 3.34 14 3 14 C2.67 11.69 2.34 9.38 2 7 C1.83918945 7.54003662 1.67837891 8.08007324 1.51269531 8.63647461 C0.77573159 11.07576147 0.01329539 13.5063308 -0.75 15.9375 C-1.00265625 16.78763672 -1.2553125 17.63777344 -1.515625 18.51367188 C-1.90234375 19.72700195 -1.90234375 19.72700195 -2.296875 20.96484375 C-2.52729492 21.7137085 -2.75771484 22.46257324 -2.99511719 23.23413086 C-4 25 -4 25 -6.10644531 25.75219727 C-7.04375488 25.87485962 -7.04375488 25.87485962 -8 26 C-5.74603165 17.185701 -2.9375631 8.60369272 0 0 Z " fill="#726EE9" transform="translate(206,84)"/>
<path d="M0 0 C1.65 0 3.3 0 5 0 C6.65 3.63 8.3 7.26 10 11 C5.38 11 0.76 11 -4 11 C-2.74908525 7.24725576 -1.49934109 3.64125692 0 0 Z M2 4 C3 6 3 6 3 6 Z " fill="#7772EE" transform="translate(83,115)"/>
<path d="M0 0 C2.25 0 2.25 0 5 1 C7.05695657 3.99014453 9 7.313902 9 11 C4.38 11 -0.24 11 -5 11 C-3.53867783 6.61603349 -2.416361 3.73437609 0 0 Z " fill="#6963E6" transform="translate(178,115)"/>
<path d="M0 0 C0.33 0.99 0.66 1.98 1 3 C1.66 3 2.32 3 3 3 C3 4.98 3 6.96 3 9 C2.01 9.495 2.01 9.495 1 10 C0.16245004 11.72494642 0.16245004 11.72494642 -0.5078125 13.81640625 C-0.90419922 14.96206055 -0.90419922 14.96206055 -1.30859375 16.13085938 C-1.57800781 16.93330078 -1.84742187 17.73574219 -2.125 18.5625 C-2.40214844 19.36880859 -2.67929688 20.17511719 -2.96484375 21.00585938 C-3.6497948 23.00166501 -4.32574416 25.00055579 -5 27 C-5.99 27 -6.98 27 -8 27 C-7.39795395 20.81842856 -5.55317819 15.38166239 -3.4375 9.5625 C-3.10814453 8.64017578 -2.77878906 7.71785156 -2.43945312 6.76757812 C-1.63217353 4.5095352 -0.81891273 2.25384435 0 0 Z " fill="#7A76EB" transform="translate(89,83)"/>
<path d="M0 0 C4.95 0 9.9 0 15 0 C15 1.98 15 3.96 15 6 C10.05 6 5.1 6 0 6 C0 4.02 0 2.04 0 0 Z " fill="#7974EB" transform="translate(0,116)"/>
<path d="M0 0 C0.99 0 1.98 0 3 0 C2.39795395 6.18157144 0.55317819 11.61833761 -1.5625 17.4375 C-2.0565332 18.82098633 -2.0565332 18.82098633 -2.56054688 20.23242188 C-3.36782647 22.4904648 -4.18108727 24.74615565 -5 27 C-8.0234375 23.23339844 -8.0234375 23.23339844 -7.8125 21.1328125 C-7.544375 20.47023437 -7.27625 19.80765625 -7 19.125 C-6.70480469 18.35542969 -6.40960938 17.58585937 -6.10546875 16.79296875 C-5.74066406 15.87128906 -5.37585938 14.94960937 -5 14 C-4.32842216 12.12394038 -3.65708309 10.2477808 -2.99414062 8.36865234 C-2.0080002 5.57482326 -1.00326097 2.78771723 0 0 Z " fill="#6B66E9" transform="translate(190,132)"/>
<path d="M0 0 C0.99 0 1.98 0 3 0 C2.3664299 3.47239922 1.49921277 6.73869671 0.37109375 10.08203125 C-0.09780273 11.47905273 -0.09780273 11.47905273 -0.57617188 12.90429688 C-0.90166016 13.86400391 -1.22714844 14.82371094 -1.5625 15.8125 C-1.89185547 16.79154297 -2.22121094 17.77058594 -2.56054688 18.77929688 C-3.37098715 21.18712669 -4.18422054 23.59397496 -5 26 C-5.99 25.67 -6.98 25.34 -8 25 C-6.87613072 19.17631373 -5.3072912 13.62007724 -3.4375 8 C-3.21553955 7.3289624 -2.9935791 6.6579248 -2.76489258 5.96655273 C-1.12932926 1.12932926 -1.12932926 1.12932926 0 0 Z " fill="#706BEC" transform="translate(73,132)"/>
<path d="M0 0 C0.66 0 1.32 0 2 0 C3.82611864 3.65223727 3.008558 8.01647317 2.9375 12.03125 C2.78651752 14.92994225 2.78651752 14.92994225 4 17 C0.7 17 -2.6 17 -6 17 C-4.3770361 12.64750591 -2.74849671 8.3039919 -1 4 C-0.34 4 0.32 4 1 4 C0.67 2.68 0.34 1.36 0 0 Z " fill="#5651E2" transform="translate(131,151)"/>
<path d="M0 0 C0.99 0 1.98 0 3 0 C2.01 8.91 1.02 17.82 0 27 C-0.99 27.33 -1.98 27.66 -3 28 C-3.22056647 21.93442194 -2.76472944 16.07953083 -2.0625 10.0625 C-1.97564941 9.30461182 -1.88879883 8.54672363 -1.79931641 7.76586914 C-1.12804207 2.25608414 -1.12804207 2.25608414 0 0 Z " fill="#7773E7" transform="translate(22,82)"/>
<path d="M0 0 C2.97 0.495 2.97 0.495 6 1 C6 2.65 6 4.3 6 6 C7.32 6.33 8.64 6.66 10 7 C10 8.32 10 9.64 10 11 C6.7 11 3.4 11 0 11 C0 7.37 0 3.74 0 0 Z " fill="#837FEB" transform="translate(108,115)"/>
<path d="M0 0 C2.475 0.495 2.475 0.495 5 1 C6.3125 3.0625 6.3125 3.0625 7 5 C9.2236068 3.0745356 9.2236068 3.0745356 10 0 C11.32 0 12.64 0 14 0 C12.7874262 3.72433382 11.49140021 7.37802806 10 11 C8.35 11 6.7 11 5 11 C3.35 7.37 1.7 3.74 0 0 Z " fill="#7470EA" transform="translate(187,115)"/>
<path d="M0 0 C2.31 0.66 4.62 1.32 7 2 C6.34 3.98 5.68 5.96 5 8 C-1.0546875 8.1953125 -1.0546875 8.1953125 -3 8 C-5 6 -5 6 -5.125 3.375 C-5.08375 2.59125 -5.0425 1.8075 -5 1 C-4.67 1.99 -4.34 2.98 -4 4 C-0.95865509 2.33075929 -0.95865509 2.33075929 0 0 Z " fill="#6E69E1" transform="translate(57,118)"/>
<path d="M0 0 C2.475 0.495 2.475 0.495 5 1 C6.3125 3.5625 6.3125 3.5625 7 6 C6.01 6 5.02 6 4 6 C4 8.31 4 10.62 4 13 C2.68 12.67 1.36 12.34 0 12 C0 8.04 0 4.08 0 0 Z " fill="#635FE6" transform="translate(126,115)"/>
<path d="M0 0 C4.95 0 9.9 0 15 0 C14.67 0.66 14.34 1.32 14 2 C10.7 1.67 7.4 1.34 4 1 C3.26167392 5.32448133 2.60825035 9.65535464 2 14 C0.48046875 12.85546875 0.48046875 12.85546875 -1 11 C-1.10302628 7.25309688 -0.48300248 3.73229186 0 0 Z " fill="#7B77F0" transform="translate(140,73)"/>
<path d="M0 0 C1.32 0 2.64 0 4 0 C5.125 7.625 5.125 7.625 4 11 C2.68 11 1.36 11 0 11 C0 7.37 0 3.74 0 0 Z " fill="#7572E1" transform="translate(45,115)"/>
<path d="M0 0 C3.63 0 7.26 0 11 0 C10.67 1.32 10.34 2.64 10 4 C8.9171875 3.7525 8.9171875 3.7525 7.8125 3.5 C5.13572455 3.02412881 2.71050513 2.922557 0 3 C-0.33 5.64 -0.66 8.28 -1 11 C-1.66 10.67 -2.32 10.34 -3 10 C-2.01 6.7 -1.02 3.4 0 0 Z " fill="#746FEA" transform="translate(210,73)"/>
<path d="M0 0 C1.38592445 2.27022699 2.03309948 3.56594541 1.828125 6.25390625 C1.63734375 7.01574219 1.4465625 7.77757812 1.25 8.5625 C1.06953125 9.32691406 0.8890625 10.09132812 0.703125 10.87890625 C0 13 0 13 -2 16 C-3.65165202 12.86186115 -4.23720262 10.8216503 -3.2421875 7.375 C-2.2282201 4.87908024 -1.16224412 2.4301468 0 0 Z " fill="#736FF0" transform="translate(186,143)"/>
<path d="M0 0 C4.62 0 9.24 0 14 0 C14 0.33 14 0.66 14 1 C9.71 1 5.42 1 1 1 C1 1.66 1 2.32 1 3 C2.32 3 3.64 3 5 3 C4.41789544 7.19115285 3.71843438 8.37542083 1 12 C0.67 8.04 0.34 4.08 0 0 Z " fill="#9691F5" transform="translate(97,132)"/>
<path d="M0 0 C0.33 0.99 0.66 1.98 1 3 C1.99 3.33 2.98 3.66 4 4 C3.34 4 2.68 4 2 4 C1.67 4.66 1.34 5.32 1 6 C0.34 5.67 -0.32 5.34 -1 5 C-1 5.66 -1 6.32 -1 7 C1.31 7 3.62 7 6 7 C5.67 7.99 5.34 8.98 5 10 C2.03 10 -0.94 10 -4 10 C-2.8905928 6.51329166 -1.73662334 3.22515763 0 0 Z " fill="#837EEC" transform="translate(177,116)"/>
<path d="M0 0 C0.99 0 1.98 0 3 0 C2.67 4.95 2.34 9.9 2 15 C1.67 15 1.34 15 1 15 C1 13.02 1 11.04 1 9 C0.34 9 -0.32 9 -1 9 C-1.33 9.66 -1.66 10.32 -2 11 C-1.85892253 9.54119891 -1.71197585 8.08296449 -1.5625 6.625 C-1.48128906 5.81289062 -1.40007813 5.00078125 -1.31640625 4.1640625 C-1 2 -1 2 0 0 Z " fill="#8E8AEF" transform="translate(16,132)"/>
<path d="M0 0 C1.89213369 2.38573379 3.02391783 4.07175348 4 7 C0.04 7 -3.92 7 -8 7 C-8 6.34 -8 5.68 -8 5 C-4.535 4.505 -4.535 4.505 -1 4 C-0.67 2.68 -0.34 1.36 0 0 Z " fill="#8B86EC" transform="translate(89,119)"/>
<path d="M0 0 C1.32 0 2.64 0 4 0 C4 2.64 4 5.28 4 8 C2.02 8.99 2.02 8.99 0 10 C0 6.7 0 3.4 0 0 Z " fill="#7571E9" transform="translate(211,115)"/>
<path d="M0 0 C6.75 -0.125 6.75 -0.125 9 1 C9 2.32 9 3.64 9 5 C7.00045254 5.04254356 4.99958364 5.04080783 3 5 C2.67 4.67 2.34 4.34 2 4 C1.67 5.65 1.34 7.3 1 9 C0.67 9 0.34 9 0 9 C0 6.03 0 3.06 0 0 Z " fill="#8B87F2" transform="translate(65,115)"/>
<path d="M0 0 C0.185625 0.9590625 0.185625 0.9590625 0.375 1.9375 C0.684375 2.9584375 0.684375 2.9584375 1 4 C1.66 4.33 2.32 4.66 3 5 C2.01 7.64 1.02 10.28 0 13 C-0.99 13 -1.98 13 -3 13 C-2.45144652 8.428721 -1.58255197 4.32564205 0 0 Z " fill="#8884F0" transform="translate(84,97)"/>
<path d="M0 0 C1.32 0.33 2.64 0.66 4 1 C4 3.64 4 6.28 4 9 C4.99 9.33 5.98 9.66 7 10 C5.00045254 10.04254356 2.99958364 10.04080783 1 10 C0 9 0 9 -0.09765625 6.93359375 C-0.08605469 6.10988281 -0.07445312 5.28617187 -0.0625 4.4375 C-0.05347656 3.61121094 -0.04445312 2.78492187 -0.03515625 1.93359375 C-0.02355469 1.29550781 -0.01195312 0.65742187 0 0 Z " fill="#706AEC" transform="translate(203,115)"/>
<path d="M0 0 C0.33 0 0.66 0 1 0 C1.33 5.61 1.66 11.22 2 17 C1.01 17.33 0.02 17.66 -1 18 C-1.09706112 11.88514973 -0.77040851 6.06696699 0 0 Z " fill="#7E79EF" transform="translate(20,92)"/>
<path d="M0 0 C3.3 0 6.6 0 10 0 C10 0.66 10 1.32 10 2 C7.36 2 4.72 2 2 2 C2 4.31 2 6.62 2 9 C1.34 9 0.68 9 0 9 C0 6.03 0 3.06 0 0 Z " fill="#5D58DE" transform="translate(95,115)"/>
<path d="M0 0 C0.99 0.33 1.98 0.66 3 1 C2.67 5.29 2.34 9.58 2 14 C1.01 14 0.02 14 -1 14 C-0.67 9.38 -0.34 4.76 0 0 Z " fill="#7F79F1" transform="translate(137,96)"/>
<path d="M0 0 C0.66 0 1.32 0 2 0 C2 3.63 2 7.26 2 11 C0.68 10.67 -0.64 10.34 -2 10 C-1.67 9.01 -1.34 8.02 -1 7 C-0.64456573 4.66993089 -0.3086247 2.33672984 0 0 Z " fill="#5956E2" transform="translate(15,141)"/>
<path d="M0 0 C2.3125 0.0625 2.3125 0.0625 5 1 C6.8125 4.5625 6.8125 4.5625 8 8 C6.68 8.33 5.36 8.66 4 9 C2.68 6.03 1.36 3.06 0 0 Z " fill="#7B76EE" transform="translate(187,115)"/>
<path d="M0 0 C0.99 0 1.98 0 3 0 C3 2.31 3 4.62 3 7 C2.01 7.33 1.02 7.66 0 8 C-0.33 8.66 -0.66 9.32 -1 10 C-0.67 6.7 -0.34 3.4 0 0 Z " fill="#837EEE" transform="translate(133,132)"/>
<path d="M0 0 C0.928125 0.2784375 0.928125 0.2784375 1.875 0.5625 C4.04160178 1.23686176 4.04160178 1.23686176 6 0 C6.6875 1.8125 6.6875 1.8125 7 4 C5.5625 5.75 5.5625 5.75 4 7 C3.34 6.34 2.68 5.68 2 5 C1.01 5.495 1.01 5.495 0 6 C0 4.02 0 2.04 0 0 Z " fill="#8984F2" transform="translate(129,120)"/>
<path d="M0 0 C0.66 0 1.32 0 2 0 C1.67 1.65 1.34 3.3 1 5 C1.99 5.33 2.98 5.66 4 6 C2.02 6.33 0.04 6.66 -2 7 C-2 7.66 -2 8.32 -2 9 C-2.66 9 -3.32 9 -4 9 C-2.94124926 5.59687262 -1.99097846 2.98646769 0 0 Z " fill="#625BE3" transform="translate(83,117)"/>
<path d="M0 0 C8.91 0 17.82 0 27 0 C27 0.33 27 0.66 27 1 C18.09 1 9.18 1 0 1 C0 0.67 0 0.34 0 0 Z " fill="#F8F7FF" transform="translate(226,114)"/>
<path d="M0 0 C0.33 0 0.66 0 1 0 C1 8.58 1 17.16 1 26 C0.67 26 0.34 26 0 26 C0 17.42 0 8.84 0 0 Z " fill="#7670E8" transform="translate(136,140)"/>
<path d="M0 0 C4.95 0 9.9 0 15 0 C15 0.33 15 0.66 15 1 C14.40832031 1.04898438 13.81664062 1.09796875 13.20703125 1.1484375 C8.80895528 1.56456867 5.03071103 2.04965595 1 4 C0.67 2.68 0.34 1.36 0 0 Z " fill="#A8A3F0" transform="translate(214,132)"/>
<path d="M0 0 C2.31 0.33 4.62 0.66 7 1 C7.33 2.32 7.66 3.64 8 5 C4.7 5 1.4 5 -2 5 C-1.34 3.35 -0.68 1.7 0 0 Z " fill="#5E59D7" transform="translate(127,163)"/>
<path d="M0 0 C2.475 0.495 2.475 0.495 5 1 C4.34 3.64 3.68 6.28 3 9 C2.34 9 1.68 9 1 9 C0.67 6.03 0.34 3.06 0 0 Z " fill="#5A54DA" transform="translate(27,113)"/>
<path d="M0 0 C0.33 0 0.66 0 1 0 C1.33 4.62 1.66 9.24 2 14 C-0.87136623 11.12863377 -0.8308736 7.88990718 -1 4 C-0.5625 1.5 -0.5625 1.5 0 0 Z " fill="#7A73EF" transform="translate(230,146)"/>
<path d="M0 0 C0.99 0 1.98 0 3 0 C2.45276317 3.37462715 1.9451 5.08235 0 8 C0 7.34 0 6.68 0 6 C-0.66 6 -1.32 6 -2 6 C-1.34 4.02 -0.68 2.04 0 0 Z " fill="#8580EF" transform="translate(73,132)"/>
<path d="M0 0 C0.33 0 0.66 0 1 0 C1.33 2.31 1.66 4.62 2 7 C2.33 7 2.66 7 3 7 C3.33 8.98 3.66 10.96 4 13 C2.68 12.67 1.36 12.34 0 12 C0 8.04 0 4.08 0 0 Z " fill="#7671E5" transform="translate(126,115)"/>
<path d="M0 0 C1.3274855 3.98245651 -0.00092171 6.44789543 -1.4375 10.1875 C-1.80198242 11.16879883 -1.80198242 11.16879883 -2.17382812 12.16992188 C-2.7743293 13.78303286 -3.38609203 15.3919435 -4 17 C-5.3274855 13.01754349 -3.99907829 10.55210457 -2.5625 6.8125 C-2.19801758 5.83120117 -2.19801758 5.83120117 -1.82617188 4.83007812 C-1.2256707 3.21696714 -0.61390797 1.6080565 0 0 Z " fill="#413DAB" transform="translate(74,141)"/>
<path d="M0 0 C0.99 0 1.98 0 3 0 C2.25 6.75 2.25 6.75 0 9 C-1.125 2.25 -1.125 2.25 0 0 Z " fill="#918BEF" transform="translate(190,132)"/>
<path d="M0 0 C1.32 0 2.64 0 4 0 C4 3.63 4 7.26 4 11 C3.67 11 3.34 11 3 11 C0.85714286 3.57142857 0.85714286 3.57142857 0 0 Z " fill="#6E6AE3" transform="translate(167,115)"/>
<path d="M0 0 C0.33 0 0.66 0 1 0 C1 1.65 1 3.3 1 5 C-3.455 4.01 -3.455 4.01 -8 3 C-8 2.34 -8 1.68 -8 1 C-6.865625 1.020625 -5.73125 1.04125 -4.5625 1.0625 C-1.18424326 1.41577477 -1.18424326 1.41577477 0 0 Z " fill="#7973E6" transform="translate(63,115)"/>
<path d="M0 0 C1.98 0.495 1.98 0.495 4 1 C4 1.99 4 2.98 4 4 C3.34 4 2.68 4 2 4 C2 4.66 2 5.32 2 6 C1.01 6.33 0.02 6.66 -1 7 C-0.67 4.69 -0.34 2.38 0 0 Z " fill="#605BD8" transform="translate(38,113)"/>
<path d="M0 0 C0.33 0.66 0.66 1.32 1 2 C1.66 2 2.32 2 3 2 C4.75 4.0625 4.75 4.0625 6 7 C5.1875 10.8125 5.1875 10.8125 4 14 C3.67 14 3.34 14 3 14 C2.67 10.37 2.34 6.74 2 3 C1.34 3 0.68 3 0 3 C0 2.01 0 1.02 0 0 Z " fill="#817DF0" transform="translate(206,84)"/>
<path d="M0 0 C0 1.32 0 2.64 0 4 C-2.31 4 -4.62 4 -7 4 C-6.34 3.67 -5.68 3.34 -5 3 C-5 2.34 -5 1.68 -5 1 C-3 0 -3 0 0 0 Z " fill="#564FE7" transform="translate(16,162)"/>
<path d="M0 0 C0.99 0 1.98 0 3 0 C3 3.63 3 7.26 3 11 C2.67 11 2.34 11 2 11 C0 3.375 0 3.375 0 0 Z " fill="#635EE4" transform="translate(138,115)"/>
<path d="M0 0 C0.66 0 1.32 0 2 0 C2 1.32 2 2.64 2 4 C2.99 4.33 3.98 4.66 5 5 C4.67 6.98 4.34 8.96 4 11 C1.54176828 7.31265242 0.98757384 4.30300029 0 0 Z " fill="#7B77EB" transform="translate(46,139)"/>
<path d="M0 0 C0.33 0.66 0.66 1.32 1 2 C2.32 1.67 3.64 1.34 5 1 C5 2.32 5 3.64 5 5 C3.35 5 1.7 5 0 5 C0 3.35 0 1.7 0 0 Z " fill="#6863E7" transform="translate(192,121)"/>
<path d="M0 0 C0.66 0 1.32 0 2 0 C1.67 2.31 1.34 4.62 1 7 C0.01 6.67 -0.98 6.34 -2 6 C-2 4.68 -2 3.36 -2 2 C-1.34 2 -0.68 2 0 2 C0 1.34 0 0.68 0 0 Z " fill="#6560DF" transform="translate(133,140)"/>
<path d="M0 0 C0.99 0.33 1.98 0.66 3 1 C3.33 3.97 3.66 6.94 4 10 C1.81024227 6.71536341 1.00193437 3.79303725 0 0 Z " fill="#837EF1" transform="translate(148,96)"/>
<path d="M0 0 C0.99 0 1.98 0 3 0 C2.67 1.65 2.34 3.3 2 5 C1.01 5 0.02 5 -1 5 C-0.67 3.35 -0.34 1.7 0 0 Z " fill="#6B67E9" transform="translate(23,77)"/>
<path d="M0 0 C0.33 0 0.66 0 1 0 C1.84681133 5.08086796 2.09038099 9.84828377 2 15 C1.67 15 1.34 15 1 15 C0.15318867 9.91913204 -0.09038099 5.15171623 0 0 Z " fill="#7470CC" transform="translate(97,144)"/>
<path d="M0 0 C4.95 0 9.9 0 15 0 C15 0.33 15 0.66 15 1 C10.05 1 5.1 1 0 1 C0 0.67 0 0.34 0 0 Z " fill="#2119B1" transform="translate(0,123)"/>
<path d="M0 0 C4.95 0 9.9 0 15 0 C15 0.33 15 0.66 15 1 C10.05 1 5.1 1 0 1 C0 0.67 0 0.34 0 0 Z " fill="#F8F7FF" transform="translate(0,114)"/>
<path d="M0 0 C4.62 0 9.24 0 14 0 C14 0.33 14 0.66 14 1 C9.38 1 4.76 1 0 1 C0 0.67 0 0.34 0 0 Z " fill="#504ABD" transform="translate(219,167)"/>
<path d="M0 0 C4.62 0 9.24 0 14 0 C14 0.33 14 0.66 14 1 C9.38 1 4.76 1 0 1 C0 0.67 0 0.34 0 0 Z " fill="#1E0CCA" transform="translate(94,111)"/>
<path d="M0 0 C4.62 0 9.24 0 14 0 C14 0.33 14 0.66 14 1 C9.38 1 4.76 1 0 1 C0 0.67 0 0.34 0 0 Z " fill="#514CC7" transform="translate(140,71)"/>
<path d="M0 0 C4.62 0 9.24 0 14 0 C14 0.33 14 0.66 14 1 C9.38 1 4.76 1 0 1 C0 0.67 0 0.34 0 0 Z " fill="#5D57D4" transform="translate(23,71)"/>
<path d="M0 0 C4.29 0 8.58 0 13 0 C13 0.33 13 0.66 13 1 C8.71 1 4.42 1 0 1 C0 0.67 0 0.34 0 0 Z " fill="#F8F7FF" transform="translate(215,130)"/>
<path d="M0 0 C4.29 0 8.58 0 13 0 C13 0.33 13 0.66 13 1 C8.71 1 4.42 1 0 1 C0 0.67 0 0.34 0 0 Z " fill="#F8F7FF" transform="translate(162,130)"/>
<path d="M0 0 C4.29 0 8.58 0 13 0 C13 0.33 13 0.66 13 1 C8.71 1 4.42 1 0 1 C0 0.67 0 0.34 0 0 Z " fill="#F8F7FF" transform="translate(98,130)"/>
<path d="M0 0 C4.29 0 8.58 0 13 0 C13 0.33 13 0.66 13 1 C8.71 1 4.42 1 0 1 C0 0.67 0 0.34 0 0 Z " fill="#F8F7FF" transform="translate(44,130)"/>
<path d="M0 0 C4.29 0 8.58 0 13 0 C13 0.33 13 0.66 13 1 C8.71 1 4.42 1 0 1 C0 0.67 0 0.34 0 0 Z " fill="#1E0CCA" transform="translate(212,111)"/>
<path d="M0 0 C4.29 0 8.58 0 13 0 C13 0.33 13 0.66 13 1 C8.71 1 4.42 1 0 1 C0 0.67 0 0.34 0 0 Z " fill="#1C0CC3" transform="translate(153,111)"/>
<path d="M0 0 C4.29 0 8.58 0 13 0 C13 0.33 13 0.66 13 1 C8.71 1 4.42 1 0 1 C0 0.67 0 0.34 0 0 Z " fill="#1C0CC3" transform="translate(36,111)"/>
<path d="M0 0 C0.33 0 0.66 0 1 0 C1.17700355 4.60209225 1.10814567 6.78370866 -1 11 C-0.67 7.37 -0.34 3.74 0 0 Z " fill="#6A65CA" transform="translate(13,133)"/>
<path d="M0 0 C0.33 0 0.66 0 1 0 C1.33 3.3 1.66 6.6 2 10 C1.01 10.495 1.01 10.495 0 11 C0 7.37 0 3.74 0 0 Z " fill="#605ACF" transform="translate(142,115)"/>
<path d="M0 0 C2 3 2 3 1.625 6.1875 C1.41875 7.115625 1.2125 8.04375 1 9 C0.67 9 0.34 9 0 9 C0 6.03 0 3.06 0 0 Z " fill="#544BD6" transform="translate(25,84)"/>
<path d="M0 0 C0.33 0 0.66 0 1 0 C1 3.63 1 7.26 1 11 C0.67 11 0.34 11 0 11 C0 7.37 0 3.74 0 0 Z " fill="#1B0CBA" transform="translate(18,149)"/>
<path d="M0 0 C3.63 0 7.26 0 11 0 C11 0.33 11 0.66 11 1 C7.37 1 3.74 1 0 1 C0 0.67 0 0.34 0 0 Z " fill="#463EBE" transform="translate(94,127)"/>
<path d="M0 0 C0.33 0 0.66 0 1 0 C1 3.63 1 7.26 1 11 C0.67 11 0.34 11 0 11 C0 7.37 0 3.74 0 0 Z " fill="#736CE4" transform="translate(25,115)"/>
<path d="M0 0 C0.33 0 0.66 0 1 0 C1 3.63 1 7.26 1 11 C0.67 11 0.34 11 0 11 C0 7.37 0 3.74 0 0 Z " fill="#6B62D4" transform="translate(124,115)"/>
<path d="M0 0 C0.33 0 0.66 0 1 0 C1.625 3.375 1.625 3.375 2 7 C1.34 7.66 0.68 8.32 0 9 C0 6.03 0 3.06 0 0 Z " fill="#5249D2" transform="translate(78,115)"/>
<path d="M0 0 C0.33 0 0.66 0 1 0 C1 3.63 1 7.26 1 11 C0.67 11 0.34 11 0 11 C0 7.37 0 3.74 0 0 Z " fill="#6B64E1" transform="translate(43,115)"/>
<path d="M0 0 C3.63 0 7.26 0 11 0 C11 0.33 11 0.66 11 1 C7.37 1 3.74 1 0 1 C0 0.67 0 0.34 0 0 Z " fill="#4B44C5" transform="translate(94,113)"/>
<path d="M0 0 C1.15941038 3.47823115 0.70820884 5.45895578 0 9 C-0.33 9 -0.66 9 -1 9 C-1.09765625 2.84765625 -1.09765625 2.84765625 -1 1 C-0.67 0.67 -0.34 0.34 0 0 Z " fill="#6C66DB" transform="translate(143,86)"/>
<path d="M0 0 C3.3 0 6.6 0 10 0 C10 0.33 10 0.66 10 1 C6.7 1 3.4 1 0 1 C0 0.67 0 0.34 0 0 Z " fill="#443EB5" transform="translate(172,167)"/>
<path d="M0 0 C3.3 0 6.6 0 10 0 C10 0.33 10 0.66 10 1 C6.7 1 3.4 1 0 1 C0 0.67 0 0.34 0 0 Z " fill="#554FC2" transform="translate(55,167)"/>
<path d="M0 0 C3.3 0 6.6 0 10 0 C10 0.33 10 0.66 10 1 C6.7 1 3.4 1 0 1 C0 0.67 0 0.34 0 0 Z " fill="#443EB5" transform="translate(8,167)"/>
<path d="M0 0 C0.33 0 0.66 0 1 0 C1 3.3 1 6.6 1 10 C0.67 10 0.34 10 0 10 C0 6.7 0 3.4 0 0 Z " fill="#706BCB" transform="translate(19,136)"/>
<path d="M0 0 C3.3 0 6.6 0 10 0 C10 0.33 10 0.66 10 1 C6.7 1 3.4 1 0 1 C0 0.67 0 0.34 0 0 Z " fill="#635DCB" transform="translate(108,127)"/>
<path d="M0 0 C0.33 0 0.66 0 1 0 C1.625 3.375 1.625 3.375 2 7 C1.34 7.66 0.68 8.32 0 9 C0 6.03 0 3.06 0 0 Z " fill="#5C55D5" transform="translate(172,115)"/>
<path d="M0 0 C0.33 0 0.66 0 1 0 C1 2.64 1 5.28 1 8 C-0.42944945 5.64561267 -1.08661261 4.51967567 -0.625 1.75 C-0.41875 1.1725 -0.2125 0.595 0 0 Z " fill="#9793E0" transform="translate(92,115)"/>
<path d="M0 0 C3.3 0 6.6 0 10 0 C10 0.33 10 0.66 10 1 C6.7 1 3.4 1 0 1 C0 0.67 0 0.34 0 0 Z " fill="#6761D2" transform="translate(210,71)"/>
<path d="M0 0 C3.3 0 6.6 0 10 0 C10 0.33 10 0.66 10 1 C6.7 1 3.4 1 0 1 C0 0.67 0 0.34 0 0 Z " fill="#5F5ACE" transform="translate(93,71)"/>
<path d="M0 0 C0.33 0 0.66 0 1 0 C1 2.31 1 4.62 1 7 C-1 4 -1 4 -0.625 1.8125 C-0.41875 1.214375 -0.2125 0.61625 0 0 Z " fill="#7E79DC" transform="translate(201,117)"/>
<path d="M0 0 C0.33 0 0.66 0 1 0 C1 2.97 1 5.94 1 9 C0.67 9 0.34 9 0 9 C0 6.03 0 3.06 0 0 Z " fill="#5146D9" transform="translate(17,100)"/>
<path d="M0 0 C0.33 0 0.66 0 1 0 C1 2.97 1 5.94 1 9 C0.67 9 0.34 9 0 9 C0 6.03 0 3.06 0 0 Z " fill="#6E6AC7" transform="translate(141,95)"/>
<path d="M0 0 C0.33 0 0.66 0 1 0 C1 1.98 1 3.96 1 6 C0.34 6 -0.32 6 -1 6 C-0.67 4.02 -0.34 2.04 0 0 Z " fill="#5E56D1" transform="translate(90,93)"/>
<path d="M0 0 C0.33 0 0.66 0 1 0 C1 2.97 1 5.94 1 9 C0.67 9 0.34 9 0 9 C0 6.03 0 3.06 0 0 Z " fill="#7873D7" transform="translate(136,87)"/>
<path d="M0 0 C0.33 0 0.66 0 1 0 C1 2.64 1 5.28 1 8 C0.67 8 0.34 8 0 8 C0 5.36 0 2.72 0 0 Z " fill="#5E5ABA" transform="translate(114,140)"/>
<path d="M0 0 C2.64 0 5.28 0 8 0 C8 0.33 8 0.66 8 1 C5.36 1 2.72 1 0 1 C0 0.67 0 0.34 0 0 Z " fill="#8581DC" transform="translate(54,127)"/>
<path d="M0 0 C0.33 0 0.66 0 1 0 C1 2.64 1 5.28 1 8 C0.67 8 0.34 8 0 8 C0 5.36 0 2.72 0 0 Z " fill="#4537D6" transform="translate(216,115)"/>
<path d="M0 0 C0.33 0 0.66 0 1 0 C1 2.64 1 5.28 1 8 C0.67 8 0.34 8 0 8 C0 5.36 0 2.72 0 0 Z " fill="#827DE3" transform="translate(135,96)"/>
<path d="M0 0 C0.33 0 0.66 0 1 0 C1 2.64 1 5.28 1 8 C0.67 8 0.34 8 0 8 C0 5.36 0 2.72 0 0 Z " fill="#5B53CD" transform="translate(24,93)"/>
<path d="M0 0 C0.33 0 0.66 0 1 0 C1 2.64 1 5.28 1 8 C0.67 8 0.34 8 0 8 C0 5.36 0 2.72 0 0 Z " fill="#6760D3" transform="translate(18,92)"/>
<path d="M0 0 C0.33 0 0.66 0 1 0 C1 2.64 1 5.28 1 8 C0.67 8 0.34 8 0 8 C0 5.36 0 2.72 0 0 Z " fill="#7E78DC" transform="translate(224,87)"/>
<path d="M0 0 C0.33 0 0.66 0 1 0 C1 2.64 1 5.28 1 8 C0.67 8 0.34 8 0 8 C0 5.36 0 2.72 0 0 Z " fill="#483FCB" transform="translate(19,84)"/>
<path d="M0 0 C0.33 0 0.66 0 1 0 C1 2.64 1 5.28 1 8 C0.67 8 0.34 8 0 8 C0 5.36 0 2.72 0 0 Z " fill="#7671DB" transform="translate(137,79)"/>
<path d="M0 0 C0.33 0 0.66 0 1 0 C1 2.31 1 4.62 1 7 C0.67 7 0.34 7 0 7 C0 4.69 0 2.38 0 0 Z " fill="#8A85DC" transform="translate(116,155)"/>
<path d="M0 0 C0.33 0 0.66 0 1 0 C1 2.31 1 4.62 1 7 C0.67 7 0.34 7 0 7 C0 4.69 0 2.38 0 0 Z " fill="#7773D2" transform="translate(115,148)"/>
<path d="M0 0 C0.33 0 0.66 0 1 0 C1 2.31 1 4.62 1 7 C0.67 7 0.34 7 0 7 C0 4.69 0 2.38 0 0 Z " fill="#7774CF" transform="translate(96,137)"/>
<path d="M0 0 C0.33 0 0.66 0 1 0 C1 2.31 1 4.62 1 7 C0.67 7 0.34 7 0 7 C0 4.69 0 2.38 0 0 Z " fill="#8683CE" transform="translate(137,133)"/>
<path d="M0 0 C0.33 0 0.66 0 1 0 C1 2.31 1 4.62 1 7 C0.67 7 0.34 7 0 7 C0 4.69 0 2.38 0 0 Z " fill="#736FC8" transform="translate(113,133)"/>
<path d="M0 0 C0.33 0 0.66 0 1 0 C1 2.31 1 4.62 1 7 C0.67 7 0.34 7 0 7 C0 4.69 0 2.38 0 0 Z " fill="#7B76DD" transform="translate(226,102)"/>
<path d="M0 0 C0.33 0 0.66 0 1 0 C1 2.31 1 4.62 1 7 C0.67 7 0.34 7 0 7 C0 4.69 0 2.38 0 0 Z " fill="#726ECD" transform="translate(23,102)"/>
<path d="M0 0 C0.33 0 0.66 0 1 0 C1 2.31 1 4.62 1 7 C0.67 7 0.34 7 0 7 C0 4.69 0 2.38 0 0 Z " fill="#615BCE" transform="translate(91,100)"/>
<path d="M0 0 C0.33 0 0.66 0 1 0 C1 2.31 1 4.62 1 7 C0.67 7 0.34 7 0 7 C0 4.69 0 2.38 0 0 Z " fill="#7570D4" transform="translate(208,98)"/>
<path d="M0 0 C0.33 0 0.66 0 1 0 C1 2.31 1 4.62 1 7 C0.67 7 0.34 7 0 7 C0 4.69 0 2.38 0 0 Z " fill="#504BBC" transform="translate(108,97)"/>
<path d="M0 0 C0.33 0 0.66 0 1 0 C1 2.31 1 4.62 1 7 C0.67 7 0.34 7 0 7 C0 4.69 0 2.38 0 0 Z " fill="#6B66D2" transform="translate(225,95)"/>
<path d="M0 0 C0.625 1.875 0.625 1.875 1 4 C0.34 4.66 -0.32 5.32 -1 6 C-0.67 4.02 -0.34 2.04 0 0 Z " fill="#6D68CB" transform="translate(207,94)"/>
<path d="M0 0 C0.33 0 0.66 0 1 0 C1 2.31 1 4.62 1 7 C0.67 7 0.34 7 0 7 C0 4.69 0 2.38 0 0 Z " fill="#7773D2" transform="translate(223,80)"/>
<path d="M0 0 C0.33 0 0.66 0 1 0 C1 2.31 1 4.62 1 7 C0.67 7 0.34 7 0 7 C0 4.69 0 2.38 0 0 Z " fill="#726ECD" transform="translate(20,76)"/>
<path d="M0 0 C0.33 0 0.66 0 1 0 C1 2.31 1 4.62 1 7 C0.67 7 0.34 7 0 7 C0 4.69 0 2.38 0 0 Z " fill="#5951D7" transform="translate(222,73)"/>
<path d="M0 0 C0.33 0 0.66 0 1 0 C1 1.98 1 3.96 1 6 C0.67 6 0.34 6 0 6 C0 4.02 0 2.04 0 0 Z " fill="#807CDD" transform="translate(99,159)"/>
<path d="M0 0 C0.33 0 0.66 0 1 0 C1 1.98 1 3.96 1 6 C0.67 6 0.34 6 0 6 C0 4.02 0 2.04 0 0 Z " fill="#625EC4" transform="translate(216,156)"/>
<path d="M0 0 C0.33 0 0.66 0 1 0 C1 1.98 1 3.96 1 6 C0.67 6 0.34 6 0 6 C0 4.02 0 2.04 0 0 Z " fill="#5750CF" transform="translate(233,153)"/>
<path d="M0 0 C0.33 0 0.66 0 1 0 C1 1.98 1 3.96 1 6 C0.67 6 0.34 6 0 6 C0 4.02 0 2.04 0 0 Z " fill="#6E67D5" transform="translate(215,149)"/>
<path d="M0 0 C0.33 0 0.66 0 1 0 C1 1.98 1 3.96 1 6 C0.67 6 0.34 6 0 6 C0 4.02 0 2.04 0 0 Z " fill="#7E77DD" transform="translate(232,146)"/>
<path d="M0 0 C0.33 0.99 0.66 1.98 1 3 C0.01 3.495 0.01 3.495 -1 4 C-0.67 2.68 -0.34 1.36 0 0 Z " fill="#6965CA" transform="translate(183,146)"/>
<path d="M0 0 C0.33 0 0.66 0 1 0 C1 1.98 1 3.96 1 6 C0.67 6 0.34 6 0 6 C0 4.02 0 2.04 0 0 Z " fill="#423BB9" transform="translate(214,142)"/>
<path d="M0 0 C0.33 0 0.66 0 1 0 C1 1.98 1 3.96 1 6 C0.67 6 0.34 6 0 6 C0 4.02 0 2.04 0 0 Z " fill="#655ED3" transform="translate(231,139)"/>
<path d="M0 0 C0.33 0 0.66 0 1 0 C1 1.98 1 3.96 1 6 C0.67 6 0.34 6 0 6 C0 4.02 0 2.04 0 0 Z " fill="#7B78CE" transform="translate(213,134)"/>
<path d="M0 0 C1.98 0 3.96 0 6 0 C6 0.33 6 0.66 6 1 C4.02 1 2.04 1 0 1 C0 0.67 0 0.34 0 0 Z " fill="#4F48C5" transform="translate(147,127)"/>
<path d="M0 0 C0.66 0.66 1.32 1.32 2 2 C1.67 2.99 1.34 3.98 1 5 C0.67 3.35 0.34 1.7 0 0 Z " fill="#5F5ABB" transform="translate(48,100)"/>
<path d="M0 0 C0.33 0 0.66 0 1 0 C1 1.98 1 3.96 1 6 C0.67 6 0.34 6 0 6 C0 4.02 0 2.04 0 0 Z " fill="#605ACD" transform="translate(107,91)"/>
<path d="M0 0 C0.33 0 0.66 0 1 0 C1 1.98 1 3.96 1 6 C0.67 6 0.34 6 0 6 C0 4.02 0 2.04 0 0 Z " fill="#433EB2" transform="translate(105,76)"/>
<path d="M0 0 C0.33 0 0.66 0 1 0 C1 1.98 1 3.96 1 6 C0.67 6 0.34 6 0 6 C0 4.02 0 2.04 0 0 Z " fill="#6660D0" transform="translate(138,73)"/>
<path d="M0 0 C0.33 0 0.66 0 1 0 C1 1.65 1 3.3 1 5 C0.67 5 0.34 5 0 5 C0 3.35 0 1.7 0 0 Z " fill="#837FCE" transform="translate(234,161)"/>
<path d="M0 0 C0.33 0 0.66 0 1 0 C1 1.65 1 3.3 1 5 C0.67 5 0.34 5 0 5 C0 3.35 0 1.7 0 0 Z " fill="#736ED4" transform="translate(11,144)"/>
<path d="M0 0 C0.33 0 0.66 0 1 0 C1 1.65 1 3.3 1 5 C0.67 5 0.34 5 0 5 C0 3.35 0 1.7 0 0 Z " fill="#433ACB" transform="translate(230,133)"/>
<path d="M0 0 C0.66 0.66 1.32 1.32 2 2 C1.34 2.66 0.68 3.32 0 4 C0 2.68 0 1.36 0 0 Z " fill="#4B46BF" transform="translate(163,122)"/>
<path d="M0 0 C0.33 0 0.66 0 1 0 C1 1.65 1 3.3 1 5 C0.67 5 0.34 5 0 5 C0 3.35 0 1.7 0 0 Z " fill="#C5C4E3" transform="translate(223,117)"/>
<path d="M0 0 C0.33 0 0.66 0 1 0 C1 1.65 1 3.3 1 5 C0.67 5 0.34 5 0 5 C0 3.35 0 1.7 0 0 Z " fill="#140AB2" transform="translate(16,117)"/>
<path d="M0 0 C1.65 0 3.3 0 5 0 C5 0.33 5 0.66 5 1 C3.35 1 1.7 1 0 1 C0 0.67 0 0.34 0 0 Z " fill="#9793E1" transform="translate(83,113)"/>
<path d="M0 0 C0.33 0 0.66 0 1 0 C1 1.65 1 3.3 1 5 C0.67 5 0.34 5 0 5 C0 3.35 0 1.7 0 0 Z " fill="#4942C7" transform="translate(140,104)"/>
<path d="M0 0 C0.33 0 0.66 0 1 0 C1 1.65 1 3.3 1 5 C0.67 5 0.34 5 0 5 C0 3.35 0 1.7 0 0 Z " fill="#7A75D1" transform="translate(109,104)"/>
<path d="M0 0 C0.33 0 0.66 0 1 0 C1 1.65 1 3.3 1 5 C0.67 5 0.34 5 0 5 C0 3.35 0 1.7 0 0 Z " fill="#726FC9" transform="translate(134,104)"/>
<path d="M0 0 C0.33 0 0.66 0 1 0 C1 1.65 1 3.3 1 5 C0.67 5 0.34 5 0 5 C0 3.35 0 1.7 0 0 Z " fill="#837FDA" transform="translate(106,84)"/>
<path d="M0 0 C1 4 1 4 1 4 Z " fill="#A2A0D4" transform="translate(117,162)"/>
<path d="M0 0 C1 4 1 4 1 4 Z " fill="#6663B7" transform="translate(19,162)"/>
<path d="M0 0 C1 4 1 4 1 4 Z " fill="#6D69C3" transform="translate(6,162)"/>
<path d="M0 0 C1 4 1 4 1 4 Z " fill="#534AD7" transform="translate(9,152)"/>
<path d="M0 0 C1 4 1 4 1 4 Z " fill="#8982E5" transform="translate(129,142)"/>
<path d="M0 0 C1 4 1 4 1 4 Z " fill="#6A65CD" transform="translate(130,137)"/>
<path d="M0 0 C1 4 1 4 1 4 Z " fill="#8983E2" transform="translate(95,133)"/>
<path d="M0 0 C4 1 4 1 4 1 Z " fill="#3B34B7" transform="translate(192,127)"/>
<path d="M0 0 C4 1 4 1 4 1 Z " fill="#6A61CF" transform="translate(183,127)"/>
<path d="M0 0 C4 1 4 1 4 1 Z " fill="#6761C8" transform="translate(173,127)"/>
<path d="M0 0 C4 1 4 1 4 1 Z " fill="#4E45C8" transform="translate(73,127)"/>
<path d="M0 0 C4 1 4 1 4 1 Z " fill="#3327C2" transform="translate(27,127)"/>
<path d="M0 0 C0.66 0.66 1.32 1.32 2 2 C1.01 2.495 1.01 2.495 0 3 C0 2.01 0 1.02 0 0 Z " fill="#6258D8" transform="translate(50,115)"/>
<path d="M0 0 C4 1 4 1 4 1 Z " fill="#A7A4E6" transform="translate(211,113)"/>
<path d="M0 0 C4 1 4 1 4 1 Z " fill="#7169D9" transform="translate(197,113)"/>
<path d="M0 0 C4 1 4 1 4 1 Z " fill="#6D66E3" transform="translate(178,113)"/>
<path d="M0 0 C4 1 4 1 4 1 Z " fill="#6D69C3" transform="translate(152,113)"/>
<path d="M0 0 C4 1 4 1 4 1 Z " fill="#A7A4E6" transform="translate(137,113)"/>
<path d="M0 0 C4 1 4 1 4 1 Z " fill="#8A85E5" transform="translate(126,113)"/>
<path d="M0 0 C1 4 1 4 1 4 Z " fill="#5650D2" transform="translate(209,105)"/>
<path d="" fill="#1A0BC0" transform="translate(0,0)"/>
<path d="" fill="#887FEB" transform="translate(0,0)"/>
<path d="" fill="#4E47D1" transform="translate(0,0)"/>
<path d="" fill="#706CB9" transform="translate(0,0)"/>
<path d="" fill="#4B46BC" transform="translate(0,0)"/>
<path d="" fill="#7571BF" transform="translate(0,0)"/>
<path d="" fill="#4943B7" transform="translate(0,0)"/>
<path d="" fill="#4E48BD" transform="translate(0,0)"/>
<path d="" fill="#9D99E4" transform="translate(0,0)"/>
<path d="" fill="#817FC8" transform="translate(0,0)"/>
<path d="" fill="#4E47D1" transform="translate(0,0)"/>
<path d="" fill="#706CB9" transform="translate(0,0)"/>
<path d="" fill="#4E43D4" transform="translate(0,0)"/>
<path d="" fill="#5248DB" transform="translate(0,0)"/>
<path d="" fill="#9D99E4" transform="translate(0,0)"/>
<path d="" fill="#5F5BBF" transform="translate(0,0)"/>
<path d="" fill="#4E48BD" transform="translate(0,0)"/>
<path d="" fill="#4B46AF" transform="translate(0,0)"/>
<path d="" fill="#4B46AF" transform="translate(0,0)"/>
<path d="" fill="#5248DB" transform="translate(0,0)"/>
<path d="" fill="#3F3AAF" transform="translate(0,0)"/>
<path d="" fill="#4943B7" transform="translate(0,0)"/>
<path d="" fill="#625EC7" transform="translate(0,0)"/>
<path d="" fill="#7A73D8" transform="translate(0,0)"/>
<path d="" fill="#5C58D1" transform="translate(0,0)"/>
<path d="" fill="#7570D3" transform="translate(0,0)"/>
<path d="" fill="#3F3AAF" transform="translate(0,0)"/>
<path d="" fill="#5248DB" transform="translate(0,0)"/>
<path d="" fill="#8C88DE" transform="translate(0,0)"/>
<path d="" fill="#7570D3" transform="translate(0,0)"/>
<path d="" fill="#7570D3" transform="translate(0,0)"/>
<path d="" fill="#8C88DE" transform="translate(0,0)"/>
<path d="" fill="#5248DB" transform="translate(0,0)"/>
<path d="" fill="#9D99E4" transform="translate(0,0)"/>
<path d="" fill="#7971DD" transform="translate(0,0)"/>
<path d="" fill="#7570D3" transform="translate(0,0)"/>
<path d="" fill="#7570D3" transform="translate(0,0)"/>
<path d="" fill="#4B46BC" transform="translate(0,0)"/>
<path d="" fill="#4B46AF" transform="translate(0,0)"/>
<path d="" fill="#4E48BD" transform="translate(0,0)"/>
<path d="" fill="#7570D3" transform="translate(0,0)"/>
<path d="" fill="#5248DB" transform="translate(0,0)"/>
<path d="" fill="#5248DB" transform="translate(0,0)"/>
<path d="" fill="#7570D3" transform="translate(0,0)"/>
<path d="" fill="#4E48BD" transform="translate(0,0)"/>
<path d="" fill="#443ACC" transform="translate(0,0)"/>
<path d="" fill="#7971DD" transform="translate(0,0)"/>
<path d="" fill="#4E48BD" transform="translate(0,0)"/>
<path d="" fill="#7571BF" transform="translate(0,0)"/>
<path d="" fill="#2D22C1" transform="translate(0,0)"/>
<path d="" fill="#7570D3" transform="translate(0,0)"/>
<path d="M0 0 C3 1 3 1 3 1 Z " fill="#3B34BC" transform="translate(168,127)"/>
<path d="M0 0 C3 1 3 1 3 1 Z " fill="#524CC7" transform="translate(159,127)"/>
<path d="M0 0 C3 1 3 1 3 1 Z " fill="#5C55CF" transform="translate(138,127)"/>
<path d="M0 0 C3 1 3 1 3 1 Z " fill="#524CC7" transform="translate(89,127)"/>
<path d="M0 0 C3 1 3 1 3 1 Z " fill="#4D47C1" transform="translate(79,127)"/>
<path d="M0 0 C3 1 3 1 3 1 Z " fill="#5C55CF" transform="translate(45,127)"/>
<path d="M0 0 C3 1 3 1 3 1 Z " fill="#362FB6" transform="translate(39,127)"/>
<path d="M0 0 C0.33 0.66 0.66 1.32 1 2 C0.34 1.67 -0.32 1.34 -1 1 C-0.67 0.67 -0.34 0.34 0 0 Z " fill="#110B98" transform="translate(154,125)"/>
<path d="" fill="#4A47A9" transform="translate(0,0)"/>
<path d="" fill="#2822A4" transform="translate(0,0)"/>
<path d="" fill="#3123CB" transform="translate(0,0)"/>
<path d="M0 0 C0.66 0 1.32 0 2 0 C1.67 0.66 1.34 1.32 1 2 C0.67 1.34 0.34 0.68 0 0 Z " fill="#8883D8" transform="translate(164,116)"/>
<path d="M0 0 C3 1 3 1 3 1 Z " fill="#7670E2" transform="translate(203,113)"/>
<path d="M0 0 C3 1 3 1 3 1 Z " fill="#655FDC" transform="translate(188,113)"/>
<path d="M0 0 C3 1 3 1 3 1 Z " fill="#746DEA" transform="translate(168,113)"/>
<path d="M0 0 C3 1 3 1 3 1 Z " fill="#5751CE" transform="translate(159,113)"/>
<path d="M0 0 C3 1 3 1 3 1 Z " fill="#655FDC" transform="translate(144,113)"/>
<path d="M0 0 C3 1 3 1 3 1 Z " fill="#655FDC" transform="translate(108,113)"/>
<path d="M0 0 C3 1 3 1 3 1 Z " fill="#8C88DE" transform="translate(74,113)"/>
<path d="M0 0 C3 1 3 1 3 1 Z " fill="#443ACC" transform="translate(65,113)"/>
<path d="M0 0 C3 1 3 1 3 1 Z " fill="#655FDC" transform="translate(45,113)"/>
<path d="" fill="#8C88DE" transform="translate(0,0)"/>
<path d="" fill="#7570D3" transform="translate(0,0)"/>
<path d="" fill="#4E48BD" transform="translate(0,0)"/>
<path d="" fill="#2D22C1" transform="translate(0,0)"/>
<path d="" fill="#4E43D4" transform="translate(0,0)"/>
<path d="" fill="#4B46BC" transform="translate(0,0)"/>
<path d="" fill="#8C88DE" transform="translate(0,0)"/>
<path d="" fill="#7571BF" transform="translate(0,0)"/>
<path d="" fill="#4943B7" transform="translate(0,0)"/>
<path d="" fill="#4E48BD" transform="translate(0,0)"/>
<path d="" fill="#2D22C1" transform="translate(0,0)"/>
<path d="" fill="#5248DB" transform="translate(0,0)"/>
<path d="" fill="#8C88DE" transform="translate(0,0)"/>
<path d="" fill="#4943B7" transform="translate(0,0)"/>
<path d="" fill="#5248DB" transform="translate(0,0)"/>
<path d="" fill="#5248DB" transform="translate(0,0)"/>
<path d="" fill="#2822A4" transform="translate(0,0)"/>
<path d="" fill="#4B46AF" transform="translate(0,0)"/>
<path d="" fill="#7570D3" transform="translate(0,0)"/>
<path d="" fill="#4E47D1" transform="translate(0,0)"/>
<path d="" fill="#7570D3" transform="translate(0,0)"/>
<path d="" fill="#5248DB" transform="translate(0,0)"/>
<path d="" fill="#4B46AF" transform="translate(0,0)"/>
<path d="" fill="#2822A4" transform="translate(0,0)"/>
<path d="" fill="#4E47D1" transform="translate(0,0)"/>
<path d="" fill="#8C88DE" transform="translate(0,0)"/>
<path d="" fill="#8C88DE" transform="translate(0,0)"/>
<path d="" fill="#5248DB" transform="translate(0,0)"/>
<path d="" fill="#443ACC" transform="translate(0,0)"/>
<path d="" fill="#4E47D1" transform="translate(0,0)"/>
<path d="" fill="#8C88DE" transform="translate(0,0)"/>
<path d="" fill="#7570D3" transform="translate(0,0)"/>
<path d="" fill="#3F3AAF" transform="translate(0,0)"/>
<path d="" fill="#4E47D1" transform="translate(0,0)"/>
<path d="" fill="#9D99E4" transform="translate(0,0)"/>
<path d="" fill="#4A47A9" transform="translate(0,0)"/>
<path d="" fill="#4B46BC" transform="translate(0,0)"/>
<path d="" fill="#4E48BD" transform="translate(0,0)"/>
<path d="" fill="#7971DD" transform="translate(0,0)"/>
<path d="" fill="#8C88DE" transform="translate(0,0)"/>
<path d="" fill="#7571BF" transform="translate(0,0)"/>
<path d="" fill="#7571BF" transform="translate(0,0)"/>
<path d="" fill="#4B46BC" transform="translate(0,0)"/>
<path d="" fill="#8C88DE" transform="translate(0,0)"/>
<path d="" fill="#7570D3" transform="translate(0,0)"/>
<path d="" fill="#7570D3" transform="translate(0,0)"/>
<path d="" fill="#7570D3" transform="translate(0,0)"/>
<path d="" fill="#443ACC" transform="translate(0,0)"/>
<path d="" fill="#7570D3" transform="translate(0,0)"/>
<path d="" fill="#2D22C1" transform="translate(0,0)"/>
<path d="" fill="#443ACC" transform="translate(0,0)"/>
<path d="" fill="#444396" transform="translate(0,0)"/>
<path d="" fill="#332FA0" transform="translate(0,0)"/>
<path d="" fill="#342DBD" transform="translate(0,0)"/>
<path d="" fill="#6D66E3" transform="translate(0,0)"/>
<path d="" fill="#615DBB" transform="translate(0,0)"/>
<path d="" fill="#6D66E3" transform="translate(0,0)"/>
<path d="" fill="#6D66E3" transform="translate(0,0)"/>
<path d="" fill="#5751CE" transform="translate(0,0)"/>
<path d="" fill="#6D66E3" transform="translate(0,0)"/>
<path d="" fill="#6F6BD7" transform="translate(0,0)"/>
<path d="" fill="#6F6BD7" transform="translate(0,0)"/>
<path d="" fill="#6D66E3" transform="translate(0,0)"/>
<path d="" fill="#6D66E3" transform="translate(0,0)"/>
<path d="" fill="#6D66E3" transform="translate(0,0)"/>
<path d="" fill="#6D66E3" transform="translate(0,0)"/>
<path d="" fill="#6D66E3" transform="translate(0,0)"/>
<path d="" fill="#6D66E3" transform="translate(0,0)"/>
<path d="" fill="#6D66E3" transform="translate(0,0)"/>
<path d="" fill="#5043E1" transform="translate(0,0)"/>
<path d="" fill="#444396" transform="translate(0,0)"/>
<path d="" fill="#6F6BD7" transform="translate(0,0)"/>
<path d="M0 0 C2 1 2 1 2 1 Z " fill="#F8F7FF" transform="translate(190,130)"/>
<path d="M0 0 C2 1 2 1 2 1 Z " fill="#F8F7FF" transform="translate(134,130)"/>
<path d="M0 0 C2 1 2 1 2 1 Z " fill="#F8F7FF" transform="translate(73,130)"/>
<path d="M0 0 C2 1 2 1 2 1 Z " fill="#F8F7FF" transform="translate(16,130)"/>
<path d="M0 0 C2 1 2 1 2 1 Z " fill="#3327C2" transform="translate(133,127)"/>
<path d="" fill="#4D47C6" transform="translate(0,0)"/>
<path d="" fill="#F8F7FF" transform="translate(0,0)"/>
<path d="" fill="#665EDA" transform="translate(0,0)"/>
<path d="" fill="#F8F7FF" transform="translate(0,0)"/>
<path d="" fill="#A7A4E6" transform="translate(0,0)"/>
<path d="" fill="#A7A4E6" transform="translate(0,0)"/>
<path d="" fill="#332FA0" transform="translate(0,0)"/>
<path d="" fill="#A7A4E6" transform="translate(0,0)"/>
<path d="" fill="#4A42D2" transform="translate(0,0)"/>
<path d="" fill="#5049C4" transform="translate(0,0)"/>
<path d="" fill="#A7A4E6" transform="translate(0,0)"/>
<path d="" fill="#5751CE" transform="translate(0,0)"/>
<path d="" fill="#4A42D2" transform="translate(0,0)"/>
<path d="" fill="#8E89EE" transform="translate(0,0)"/>
<path d="" fill="#3A2ECC" transform="translate(0,0)"/>
<path d="" fill="#332FA0" transform="translate(0,0)"/>
<path d="" fill="#4944B5" transform="translate(0,0)"/>
<path d="" fill="#A7A4E6" transform="translate(0,0)"/>
<path d="" fill="#8580D5" transform="translate(0,0)"/>
<path d="" fill="#342DBD" transform="translate(0,0)"/>
<path d="" fill="#332FA0" transform="translate(0,0)"/>
<path d="" fill="#A7A4E6" transform="translate(0,0)"/>
<path d="" fill="#1E0CCA" transform="translate(0,0)"/>
<path d="" fill="#A09CDD" transform="translate(0,0)"/>
<path d="M0 0 C2 1 2 1 2 1 Z " fill="#1E0CCA" transform="translate(199,111)"/>
<path d="M0 0 C2 1 2 1 2 1 Z " fill="#1E0CCA" transform="translate(81,111)"/>
<path d="M0 0 C2 1 2 1 2 1 Z " fill="#1E0CCA" transform="translate(19,111)"/>
<path d="" fill="#332FA0" transform="translate(0,0)"/>
<path d="" fill="#7979BB" transform="translate(0,0)"/>
<path d="" fill="#5751CE" transform="translate(0,0)"/>
<path d="" fill="#6D66E3" transform="translate(0,0)"/>
<path d="" fill="#6F6BD7" transform="translate(0,0)"/>
<path d="" fill="#6D66E3" transform="translate(0,0)"/>
<path d="" fill="#A09CDD" transform="translate(0,0)"/>
<path d="" fill="#6D66E3" transform="translate(0,0)"/>
<path d="" fill="#6863CE" transform="translate(0,0)"/>
<path d="" fill="#615DBB" transform="translate(0,0)"/>
<path d="" fill="#6863CE" transform="translate(0,0)"/>
<path d="" fill="#665EDA" transform="translate(0,0)"/>
<path d="" fill="#6D66E3" transform="translate(0,0)"/>
<path d="" fill="#6D66E3" transform="translate(0,0)"/>
<path d="" fill="#A09CDD" transform="translate(0,0)"/>
<path d="" fill="#6D66E3" transform="translate(0,0)"/>
<path d="" fill="#6D66E3" transform="translate(0,0)"/>
<path d="" fill="#180BBB" transform="translate(0,0)"/>
<path d="" fill="#1E0CCA" transform="translate(0,0)"/>
<path d="" fill="#120AAC" transform="translate(0,0)"/>
<path d="" fill="#120AAC" transform="translate(0,0)"/>
<path d="" fill="#F8F7FF" transform="translate(0,0)"/>
<path d="" fill="#120AAC" transform="translate(0,0)"/>
<path d="" fill="#120AAC" transform="translate(0,0)"/>
<path d="" fill="#100D72" transform="translate(0,0)"/>
<path d="" fill="#837BF9" transform="translate(0,0)"/>
<path d="" fill="#100D72" transform="translate(0,0)"/>
<path d="" fill="#F8F7FF" transform="translate(0,0)"/>
<path d="" fill="#100D72" transform="translate(0,0)"/>
<path d="" fill="#100D72" transform="translate(0,0)"/>
<path d="" fill="#8885E1" transform="translate(0,0)"/>
<path d="" fill="#120AAC" transform="translate(0,0)"/>
<path d="" fill="#F8F7FF" transform="translate(0,0)"/>
<path d="" fill="#5751CE" transform="translate(0,0)"/>
<path d="" fill="#5751CE" transform="translate(0,0)"/>
<path d="" fill="#5751CE" transform="translate(0,0)"/>
<path d="" fill="#7C79E8" transform="translate(0,0)"/>
<path d="" fill="#5751CE" transform="translate(0,0)"/>
<path d="" fill="#4942BB" transform="translate(0,0)"/>
<path d="" fill="#5751CE" transform="translate(0,0)"/>
<path d="" fill="#1E0CCA" transform="translate(0,0)"/>
<path d="" fill="#100D72" transform="translate(0,0)"/>
<path d="" fill="#1E0CCA" transform="translate(0,0)"/>
<path d="" fill="#837BF9" transform="translate(0,0)"/>
<path d="" fill="#F8F7FF" transform="translate(0,0)"/>
<path d="" fill="#1E0CCA" transform="translate(0,0)"/>
<path d="" fill="#837BF9" transform="translate(0,0)"/>
<path d="" fill="#1E0CCA" transform="translate(0,0)"/>
<path d="" fill="#100D72" transform="translate(0,0)"/>
<path d="" fill="#8885E1" transform="translate(0,0)"/>
<path d="" fill="#120AAC" transform="translate(0,0)"/>
<path d="" fill="#F8F7FF" transform="translate(0,0)"/>
<path d="" fill="#F8F7FF" transform="translate(0,0)"/>
<path d="" fill="#1E0CCA" transform="translate(0,0)"/>
</svg>
