<?xml version="1.0" encoding="UTF-8"?>
<svg version="1.1" xmlns="http://www.w3.org/2000/svg" width="500" height="500">
<path d="M0 0 C165 0 330 0 500 0 C500 165 500 330 500 500 C335 500 170 500 0 500 C0 335 0 170 0 0 Z " fill="#FEFEFE" transform="translate(0,0)"/>
<path d="M0 0 C8.58 0 17.16 0 26 0 C27.20442708 3.48307292 28.40885417 6.96614583 29.61328125 10.44921875 C30.85770355 13.92971971 30.85770355 13.92971971 32.57421875 16.6171875 C34.13074798 19.21851033 34.7992475 21.4968422 35.5 24.4375 C36.309988 27.61384038 37.08932145 30.1786429 38.5625 33.125 C40.47370629 36.94741257 41.21078598 40.8218081 42 45 C42.66 45 43.32 45 44 45 C44.10957031 45.61746094 44.21914063 46.23492187 44.33203125 46.87109375 C45.30561186 52.07143894 46.5381256 56.94465814 48.4140625 61.89453125 C49 64 49 64 49 69 C40.75 69 32.5 69 24 69 C23.01 66.03 23.01 66.03 22 63 C21.2265625 61.99259766 21.2265625 61.99259766 20.4375 60.96484375 C18.63116543 58.49585928 18.40141613 56.57730241 18 53.5625 C17.32216234 49.28082547 16.27123232 46.69075252 14 43 C13.40064669 40.41244709 12.94033546 37.83051192 12.52734375 35.20703125 C12.15787022 32.80892481 12.15787022 32.80892481 10 31 C9.30741771 29.00882592 8.64252365 27.0078864 8 25 C7.67257812 24.40445313 7.34515625 23.80890625 7.0078125 23.1953125 C5.72927971 20.41029147 5.33535693 17.77520269 4.875 14.75 C4.70742188 13.67234375 4.53984375 12.5946875 4.3671875 11.484375 C4.18542969 10.25460938 4.18542969 10.25460938 4 9 C3.34 9 2.68 9 2 9 C1.84180786 10.66047363 1.84180786 10.66047363 1.68041992 12.35449219 C-2.19269739 52.83674254 -2.19269739 52.83674254 -5 69 C-5.99 69 -6.98 69 -8 69 C-7.90912109 67.84951172 -7.90912109 67.84951172 -7.81640625 66.67578125 C-7.3824796 60.92792206 -6.99660049 55.18839529 -6.74609375 49.4296875 C-6.70476318 48.48053467 -6.66343262 47.53138184 -6.62084961 46.5534668 C-6.54064735 44.65145799 -6.46459963 42.7492692 -6.39282227 40.84692383 C-6.35600342 39.97318115 -6.31918457 39.09943848 -6.28125 38.19921875 C-6.25095703 37.41377686 -6.22066406 36.62833496 -6.18945312 35.8190918 C-6 34 -6 34 -5 33 C-4.55581315 30.56161308 -4.16506424 28.13517022 -3.80859375 25.68359375 C-3.69902847 24.95253922 -3.5894632 24.22148468 -3.47657776 23.46827698 C-3.12633534 21.12524413 -2.78186048 18.78140384 -2.4375 16.4375 C-2.20155027 14.85215718 -1.96522703 13.2668699 -1.72851562 11.68164062 C-1.14729454 7.78847905 -0.57387163 3.89428019 0 0 Z " fill="#343434" transform="translate(275,144)"/>
<path d="M0 0 C1.87939453 -0.34057617 1.87939453 -0.34057617 4.1328125 -0.29296875 C4.93847656 -0.28330078 5.74414062 -0.27363281 6.57421875 -0.26367188 C7.83685547 -0.2259668 7.83685547 -0.2259668 9.125 -0.1875 C9.97449219 -0.17396484 10.82398438 -0.16042969 11.69921875 -0.14648438 C13.79974837 -0.11108219 15.89995293 -0.05727401 18 0 C19.26696084 6.24045605 20.22426148 12.4857688 20.9375 18.8125 C21.73146511 25.84487801 22.61666761 32.86136859 23.5625 39.875 C23.68939209 40.83253174 23.81628418 41.79006348 23.94702148 42.77661133 C24.06891846 43.67275146 24.19081543 44.5688916 24.31640625 45.4921875 C24.42412354 46.28995605 24.53184082 47.08772461 24.64282227 47.90966797 C24.97700357 50.18421592 24.97700357 50.18421592 26 53 C26.14403348 54.33363703 26.24590423 55.67218046 26.31640625 57.01171875 C26.35830078 57.76904297 26.40019531 58.52636719 26.44335938 59.30664062 C26.48267578 60.09232422 26.52199219 60.87800781 26.5625 61.6875 C26.60568359 62.48478516 26.64886719 63.28207031 26.69335938 64.10351562 C26.79927368 66.06881447 26.90012551 68.03438496 27 70 C22.85418113 70.02886751 18.70838784 70.04675327 14.5625 70.0625 C13.37849609 70.07087891 12.19449219 70.07925781 10.97460938 70.08789062 C9.84990234 70.09111328 8.72519531 70.09433594 7.56640625 70.09765625 C6.00321655 70.10551147 6.00321655 70.10551147 4.40844727 70.11352539 C2 70 2 70 1 69 C0.62523502 66.52010985 0.29424021 64.05204807 0 61.5625 C-0.44361467 56.63342275 -0.44361467 56.63342275 -2 52 C-2.07116382 49.62597499 -2.08409085 47.24999323 -2.0625 44.875 C-2.05347656 43.59367187 -2.04445313 42.31234375 -2.03515625 40.9921875 C-2.02355469 40.00476563 -2.01195312 39.01734375 -2 38 C-2.66 38 -3.32 38 -4 38 C-4.33 35.03 -4.66 32.06 -5 29 C-7.60476711 35.61133636 -10.14206236 42.13992255 -12 49 C-12.350625 49.825 -12.70125 50.65 -13.0625 51.5 C-14.23647514 54.63060038 -14.61052675 57.68947735 -15 61 C-16.485 61.495 -16.485 61.495 -18 62 C-18.33 64.31 -18.66 66.62 -19 69 C-20.98 69.495 -20.98 69.495 -23 70 C-22.50272781 64.33109708 -21.33985567 60.2412767 -19 55 C-18.55267567 53.05094401 -18.10544078 51.10186677 -17.66015625 49.15234375 C-16.89571796 46.66000353 -15.79362499 44.54687498 -14.5625 42.25 C-12.11475079 37.58353074 -10.9020954 33.05786891 -9.74609375 27.9375 C-9.03726124 25.14670394 -8.12391546 22.64650283 -7 20 C-5.00205742 15.29492149 -3.81552074 10.55002592 -2.7109375 5.56640625 C-2 3 -2 3 0 0 Z " fill="#343434" transform="translate(412,143)"/>
<path d="M0 0 C1.5631897 0.00785522 1.5631897 0.00785522 3.15795898 0.01586914 C4.28266602 0.0190918 5.40737305 0.02231445 6.56616211 0.02563477 C7.75016602 0.03401367 8.93416992 0.04239258 10.15405273 0.05102539 C11.34192383 0.05553711 12.52979492 0.06004883 13.75366211 0.06469727 C16.69967499 0.07652864 19.64558954 0.09301252 22.59155273 0.11352539 C22.77331055 0.77739258 22.95506836 1.44125977 23.14233398 2.12524414 C24.51308932 6.94046159 26.0118549 10.82064362 28.59155273 15.11352539 C29.85062832 18.59302849 30.89999805 22.13352956 31.96655273 25.67602539 C34.18564167 32.87526538 36.55591471 39.80303634 39.59936523 46.69555664 C40.55046063 49.0133836 41.21038243 51.23949186 41.77905273 53.67602539 C42.40322718 57.20850609 42.40322718 57.20850609 44.59155273 60.11352539 C45.00561523 62.37524414 45.00561523 62.37524414 45.21655273 64.80102539 C45.29131836 65.60926758 45.36608398 66.41750977 45.44311523 67.25024414 C45.49209961 67.86512695 45.54108398 68.48000977 45.59155273 69.11352539 C41.6541144 69.17150104 37.71678555 69.20711328 33.77905273 69.23852539 C32.65950195 69.2552832 31.53995117 69.27204102 30.38647461 69.28930664 C29.31333008 69.29575195 28.24018555 69.30219727 27.13452148 69.30883789 C25.64988403 69.32454834 25.64988403 69.32454834 24.13525391 69.34057617 C21.59155273 69.11352539 21.59155273 69.11352539 18.59155273 67.11352539 C16.98274156 63.82933154 16.25416221 60.71221736 15.71655273 57.11352539 C14.00854595 47.2494552 10.73761808 38.02123553 6.73999023 28.86743164 C4.61536508 23.77266724 3.32690376 19.67115391 3.59155273 14.11352539 C2.60155273 13.78352539 1.61155273 13.45352539 0.59155273 13.11352539 C0.26155273 12.12352539 -0.06844727 11.13352539 -0.40844727 10.11352539 C-1.06844727 9.78352539 -1.72844727 9.45352539 -2.40844727 9.11352539 C-2.3968457 9.74000977 -2.38524414 10.36649414 -2.37329102 11.01196289 C-2.36426758 11.82922852 -2.35524414 12.64649414 -2.34594727 13.48852539 C-2.3343457 14.30063477 -2.32274414 15.11274414 -2.31079102 15.94946289 C-2.40844727 18.11352539 -2.40844727 18.11352539 -3.40844727 20.11352539 C-3.61560063 22.59648865 -3.78210493 25.06395307 -3.90844727 27.55102539 C-4.27422939 34.71087176 -4.27422939 34.71087176 -5.40844727 38.11352539 C-5.58996823 40.36092778 -5.72956114 42.61181013 -5.84594727 44.86352539 C-6.29294235 52.68062954 -7.27673081 60.36731079 -8.40844727 68.11352539 C-9.06844727 68.11352539 -9.72844727 68.11352539 -10.40844727 68.11352539 C-10.9092105 55.50171059 -9.49084376 43.40132269 -7.76831055 30.9230957 C-7.30665523 27.31880165 -6.97365221 23.70834547 -6.66992188 20.08764648 C-6.40844727 18.11352539 -6.40844727 18.11352539 -5.40844727 16.11352539 C-4.9403043 12.89138516 -4.54056114 9.66883265 -4.15844727 6.43579102 C-3.37921065 0.15928362 -3.37921065 0.15928362 0 0 Z " fill="#373737" transform="translate(49.408447265625,143.886474609375)"/>
<path d="M0 0 C1.19012695 0.00580078 1.19012695 0.00580078 2.40429688 0.01171875 C3.19384766 0.00785156 3.98339844 0.00398437 4.796875 0 C10.71353554 0.01008808 10.71353554 0.01008808 12.96679688 1.13671875 C13.02738281 2.40128906 13.08796875 3.66585937 13.15039062 4.96875 C13.23480592 6.62891746 13.31945343 8.28907312 13.40429688 9.94921875 C13.44361328 10.78259766 13.48292969 11.61597656 13.5234375 12.47460938 C13.56533203 13.27705078 13.60722656 14.07949219 13.65039062 14.90625 C13.7053772 16.01383667 13.7053772 16.01383667 13.76147461 17.14379883 C13.91521829 19.34421375 13.91521829 19.34421375 14.96679688 22.13671875 C15.12143288 23.86348743 15.24153117 25.59344171 15.34179688 27.32421875 C15.73596768 32.46095262 16.45894047 37.45400344 17.40429688 42.51171875 C17.52659668 43.1771167 17.64889648 43.84251465 17.77490234 44.52807617 C18.34962441 47.50444892 19.02534487 50.29872253 20.05664062 53.15234375 C21.14728243 56.72852548 21.16218462 59.78116852 21.09179688 63.51171875 C21.07375 64.75695312 21.05570313 66.0021875 21.03710938 67.28515625 C21.01390625 68.22617188 20.99070313 69.1671875 20.96679688 70.13671875 C17.17527354 70.22351695 13.38400391 70.27704082 9.59179688 70.32421875 C8.5115625 70.34935547 7.43132812 70.37449219 6.31835938 70.40039062 C5.28710938 70.41005859 4.25585938 70.41972656 3.19335938 70.4296875 C2.24025879 70.44539795 1.2871582 70.4611084 0.30517578 70.47729492 C-0.46648926 70.36490479 -1.2381543 70.25251465 -2.03320312 70.13671875 C-4.0849554 67.05909034 -4.49210786 65.4576662 -5.06835938 61.8828125 C-5.23787109 60.86380859 -5.40738281 59.84480469 -5.58203125 58.79492188 C-5.75154297 57.73208984 -5.92105469 56.66925781 -6.09570312 55.57421875 C-6.43799454 53.46829943 -6.78291566 51.36280532 -7.13085938 49.2578125 C-7.3552771 47.85680298 -7.3552771 47.85680298 -7.58422852 46.42749023 C-7.93088905 44.11898386 -7.93088905 44.11898386 -9.03320312 42.13671875 C-9.10385929 40.0961687 -9.11742288 38.05337618 -9.09570312 36.01171875 C-9.08667969 34.91601562 -9.07765625 33.8203125 -9.06835938 32.69140625 C-9.05675781 31.84835938 -9.04515625 31.0053125 -9.03320312 30.13671875 C-10.02320313 30.13671875 -11.01320312 30.13671875 -12.03320312 30.13671875 C-12.16339844 30.86503906 -12.29359375 31.59335938 -12.42773438 32.34375 C-12.99825645 34.97551311 -13.76191658 37.31195527 -14.72070312 39.82421875 C-16.64049709 45.00483923 -18.45491175 50.21454803 -20.22070312 55.44921875 C-20.61358521 56.59620239 -20.61358521 56.59620239 -21.0144043 57.76635742 C-22.39350951 61.87760982 -23.46332337 65.81799148 -24.03320312 70.13671875 C-25.68320313 70.13671875 -27.33320313 70.13671875 -29.03320312 70.13671875 C-28.58111868 65.70629116 -27.71726785 62.11037289 -25.84570312 58.0703125 C-24.92399702 55.87682921 -24.29547191 53.67871388 -23.65820312 51.38671875 C-22.58481858 47.64682101 -21.22008895 44.26680488 -19.53320312 40.76171875 C-17.24900182 35.9197591 -15.90524994 31.17484429 -14.70898438 25.96875 C-13.94287403 22.75817196 -12.94141003 19.69244017 -11.85742188 16.578125 C-10.42698377 12.34104531 -9.17984171 8.04639216 -7.90039062 3.76171875 C-6.37801393 -0.84655664 -4.60729424 0.00786899 0 0 Z " fill="#373737" transform="translate(188.033203125,142.86328125)"/>
<path d="M0 0 C4.12486838 -0.08676908 8.24950384 -0.14031295 12.375 -0.1875 C13.550625 -0.21263672 14.72625 -0.23777344 15.9375 -0.26367188 C17.61972656 -0.27817383 17.61972656 -0.27817383 19.3359375 -0.29296875 C20.37282715 -0.3086792 21.4097168 -0.32438965 22.47802734 -0.34057617 C23.31027832 -0.22818604 24.1425293 -0.1157959 25 0 C26.94992893 2.9248934 27.5213928 5.12508732 28.3046875 8.48828125 C30.13420611 15.09716029 32.81893251 21.55577363 35.75 27.75 C37.31471364 31.81825547 37.71560084 35.67517144 38 40 C38.99 39.67 39.98 39.34 41 39 C42.03316488 36.20827761 42.03316488 36.20827761 42.6875 32.9375 C43.06455078 31.28041016 43.06455078 31.28041016 43.44921875 29.58984375 C43.63097656 28.73519531 43.81273437 27.88054687 44 27 C44.66 27 45.32 27 46 27 C46 25.68 46 24.36 46 23 C46.66 23 47.32 23 48 23 C48.08636719 22.26136719 48.17273438 21.52273438 48.26171875 20.76171875 C49.32088863 13.11431791 51.46661332 6.85099402 55 0 C55.99 0 56.98 0 58 0 C58.35767859 5.00750031 57.21073867 7.57852267 55 12 C54.41207625 14.41559977 53.97201346 16.84004959 53.5234375 19.28515625 C52.18307488 26.23703701 50.39061253 32.65597394 47.04296875 38.90234375 C43.88554169 45.25267459 41.84951015 52.17103945 40 59 C39.67 59.99 39.34 60.98 39 62 C32.73 62 26.46 62 20 62 C18.99088542 58.64713542 17.98177083 55.29427083 16.97265625 51.94140625 C16.29110858 49.14132455 16.29110858 49.14132455 15 48 C14.95919217 46.00041636 14.95745644 43.99954746 15 42 C14.34 42 13.68 42 13 42 C11.04068328 38.50122015 10.04757651 34.84111388 9 31 C7.48910515 25.50583692 5.95912489 20.88898894 3 16 C1.42576086 10.66507846 0.65686605 5.51421764 0 0 Z " fill="#363636" transform="translate(317,260)"/>
<path d="M0 0 C8.58 0 17.16 0 26 0 C27.86127779 3.72255557 28.90731821 7.00319435 30 11 C30.79144601 13.7148672 31.6117991 16.4203822 32.4375 19.125 C32.64181641 19.81464844 32.84613281 20.50429688 33.05664062 21.21484375 C34.28047058 25.20277561 35.85463984 28.45008084 38 32 C38.73046875 34.67578125 38.73046875 34.67578125 39.1875 37.3125 C39.34605469 38.19550781 39.50460938 39.07851563 39.66796875 39.98828125 C39.77753906 40.65214844 39.88710937 41.31601562 40 42 C43.07861376 39.48579876 43.66963753 37.20059854 44.5 33.375 C45.7152416 28.11528246 47.21720419 23.08974347 49 18 C49.52396244 16.45939401 50.04479164 14.91771888 50.5625 13.375 C50.81 12.63894531 51.0575 11.90289062 51.3125 11.14453125 C51.95861675 9.12908752 52.52043951 7.10793139 53.0625 5.0625 C54 2 54 2 56 0 C56.99 0 57.98 0 59 0 C58.54122896 5.13823565 57.63051325 9.29056847 55.6875 14.0546875 C54.83954061 16.24401012 54.83954061 16.24401012 54.5 19.6875 C53.96820417 23.21064734 52.87688217 25.0282699 51 28 C50.29329272 30.69254991 50.29329272 30.69254991 50 33 C49.34 33 48.68 33 48 33 C48.1546875 34.423125 48.1546875 34.423125 48.3125 35.875 C48.3400468 40.41104045 46.34696862 43.6597822 44.23828125 47.57421875 C42.68458461 50.61789576 41.84207872 53.69646039 41 57 C40.34 58.65 39.68 60.3 39 62 C33.06 62 27.12 62 21 62 C16.42857143 49.28571429 16.42857143 49.28571429 17 43 C16.34 43 15.68 43 15 43 C11.62632866 35.777723 8.60261156 29.14646295 9 21 C8.34 21 7.68 21 7 21 C7 19.68 7 18.36 7 17 C6.34 17 5.68 17 5 17 C4.16080602 14.73117913 3.32848276 12.46022973 2.5 10.1875 C2.26152344 9.54490234 2.02304688 8.90230469 1.77734375 8.24023438 C0.72931254 5.35066261 0 3.09923939 0 0 Z " fill="#353535" transform="translate(87,260)"/>
<path d="M0 0 C8.25 0 16.5 0 25 0 C25.34933594 2.63613281 25.69867188 5.27226562 26.05859375 7.98828125 C26.39879111 10.54005244 26.73999586 13.09168703 27.08129883 15.64331055 C27.31803076 17.41725864 27.55371451 19.19134694 27.78833008 20.96557617 C28.12566321 23.51518708 28.46675772 26.06427066 28.80859375 28.61328125 C28.91280136 29.40712723 29.01700897 30.20097321 29.12437439 31.01887512 C29.54547886 34.13644727 30.00259845 37.00779534 31 40 C31.06802967 41.72795352 31.08495645 43.45835365 31.0625 45.1875 C31.05347656 46.08855469 31.04445312 46.98960937 31.03515625 47.91796875 C31.02355469 48.60503906 31.01195312 49.29210937 31 50 C31.66 50 32.32 50 33 50 C33 54.62 33 59.24 33 64 C24.42 64 15.84 64 7 64 C6.82984375 62.17339844 6.6596875 60.34679687 6.484375 58.46484375 C5.22878222 45.45577626 3.86975933 32.5875727 1.27050781 19.76342773 C-0.07548373 12.83209605 0 7.39146246 0 0 Z " fill="#343434" transform="translate(192,260)"/>
<path d="M0 0 C8.25 0 16.5 0 25 0 C25.85524588 4.27622942 26.1933846 8.04217543 26.375 12.375 C26.72417848 19.15015123 27.79383081 25.55037032 29.2421875 32.1875 C30.3069997 37.54449335 30.89343293 42.91560001 31.47265625 48.34375 C32.00489621 52.03394707 32.97340756 55.42183547 34 59 C34 60.32 34 61.64 34 63 C29.87501462 63.02892385 25.75005515 63.04677267 21.625 63.0625 C19.8615625 63.07506836 19.8615625 63.07506836 18.0625 63.08789062 C16.94101562 63.09111328 15.81953125 63.09433594 14.6640625 63.09765625 C13.10872803 63.10551147 13.10872803 63.10551147 11.52197266 63.11352539 C9 63 9 63 7 62 C5.06386923 53.69868114 4.70565303 45.00553937 4.34155273 36.51171875 C4.23292588 32.62802362 4.23292588 32.62802362 3 29 C2.68879716 26.44122107 2.49035334 23.88148388 2.28125 21.3125 C2.12863953 18.97731545 2.12863953 18.97731545 1 17 C0.76713087 14.11932263 0.5805406 11.25987481 0.4375 8.375 C0.293125 5.61125 0.14875 2.8475 0 0 Z " fill="#333333" transform="translate(421,260)"/>
<path d="M0 0 C0.99 0 1.98 0 3 0 C2.93433838 0.87076172 2.86867676 1.74152344 2.80102539 2.63867188 C1.92548331 15.25162334 1.67283196 27.86123314 1.4375 40.5 C1.39419081 42.69141241 1.35057315 44.88281875 1.30664062 47.07421875 C1.20087697 52.38274931 1.09926599 57.69134413 1 63 C-4.28 63 -9.56 63 -15 63 C-13.52808989 52.69662921 -13.52808989 52.69662921 -10.9375 48.125 C-9.784349 45.51119106 -9.6328181 42.98857038 -9.33959961 40.16943359 C-8.99784614 37.98624068 -8.40598663 36.16621034 -7.62890625 34.1015625 C-5.49871253 27.89970847 -4.49370207 21.50884802 -3.375 15.0625 C-2.94795989 12.6362513 -2.51840479 10.21044346 -2.0859375 7.78515625 C-1.9007959 6.72176025 -1.7156543 5.65836426 -1.52490234 4.56274414 C-1 2 -1 2 0 0 Z " fill="#393939" transform="translate(261,260)"/>
<path d="M0 0 C0.99 0 1.98 0 3 0 C2.93433838 1.10255127 2.86867676 2.20510254 2.80102539 3.34106445 C2.05921658 16.28643691 1.69986349 29.22460177 1.4375 42.1875 C1.39415042 44.2207089 1.35053197 46.25391209 1.30664062 48.28710938 C1.20134189 53.19134622 1.09963123 58.09564488 1 63 C-4.61 63 -10.22 63 -16 63 C-15 58 -15 58 -13 56 C-12.39769437 54.16686173 -12.39769437 54.16686173 -12 52.125 C-11.53258556 49.92982145 -11.08819638 48.16274333 -10.015625 46.18359375 C-8.61042528 43.16241436 -8.26411599 40.22981972 -7.75 36.9375 C-5.71544462 24.51474419 -2.79499736 12.26896706 0 0 Z " fill="#383838" transform="translate(32,260)"/>
<path d="M0 0 C16.83 0 33.66 0 51 0 C51 2.31 51 4.62 51 7 C34.17 7 17.34 7 0 7 C0 4.69 0 2.38 0 0 Z " fill="#3B3B3B" transform="translate(442,229)"/>
<path d="M0 0 C6.6 0 13.2 0 20 0 C20 1.32 20 2.64 20 4 C15.05 4 10.1 4 5 4 C5 4.99 5 5.98 5 7 C9.29 7 13.58 7 18 7 C18 8.65 18 10.3 18 12 C17.67 12.33 17.34 12.66 17 13 C18.32 13.33 19.64 13.66 21 14 C20.67 15.98 20.34 17.96 20 20 C13.4 20 6.8 20 0 20 C0 13.4 0 6.8 0 0 Z " fill="#989898" transform="translate(185,226)"/>
<path d="M0 0 C1.66611905 -0.042721 3.33382885 -0.04063832 5 0 C6.58937556 1.58937556 6.12981143 3.23899846 6.1328125 5.4375 C6.13474609 6.77941406 6.13474609 6.77941406 6.13671875 8.1484375 C6.13285156 9.08945313 6.12898438 10.03046875 6.125 11 C6.13080078 12.41152344 6.13080078 12.41152344 6.13671875 13.8515625 C6.13542969 14.74617187 6.13414062 15.64078125 6.1328125 16.5625 C6.13168457 17.38878906 6.13055664 18.21507812 6.12939453 19.06640625 C6 21 6 21 5 22 C3.33382885 22.04063832 1.66611905 22.042721 0 22 C0 19.36 0 16.72 0 14 C-3.63 14 -7.26 14 -11 14 C-11 16.64 -11 19.28 -11 22 C-12.66611905 22.042721 -14.33382885 22.04063832 -16 22 C-17 21 -17 21 -17.11352539 19.14233398 C-17.10828857 18.35157471 -17.10305176 17.56081543 -17.09765625 16.74609375 C-17.09443359 15.89208984 -17.09121094 15.03808594 -17.08789062 14.15820312 C-17.07951172 13.26037109 -17.07113281 12.36253906 -17.0625 11.4375 C-17.05798828 10.53580078 -17.05347656 9.63410156 -17.04882812 8.70507812 C-17.03700225 6.46998686 -17.0205222 4.23502563 -17 2 C-15.34385343 1.61781233 -13.67542976 1.28604898 -12 1 C-11 2 -11 2 -10.9375 5.5625 C-10.958125 6.696875 -10.97875 7.83125 -11 9 C-7.37 9 -3.74 9 0 9 C0 6.03 0 3.06 0 0 Z " fill="#AFAFAF" transform="translate(144,224)"/>
<path d="M0 0 C1.4540625 0.0309375 1.4540625 0.0309375 2.9375 0.0625 C3.77569158 1.68499941 4.6079116 3.31058497 5.4375 4.9375 C5.9015625 5.84242188 6.365625 6.74734375 6.84375 7.6796875 C7.9375 10.0625 7.9375 10.0625 7.9375 12.0625 C8.5975 12.0625 9.2575 12.0625 9.9375 12.0625 C9.9375 11.4025 9.9375 10.7425 9.9375 10.0625 C10.5975 10.0625 11.2575 10.0625 11.9375 10.0625 C12.040625 9.505625 12.14375 8.94875 12.25 8.375 C13.1702252 5.27969704 14.63143133 2.36856867 16.9375 0.0625 C18.5875 0.0625 20.2375 0.0625 21.9375 0.0625 C21.9375 6.3325 21.9375 12.6025 21.9375 19.0625 C20.6175 19.0625 19.2975 19.0625 17.9375 19.0625 C17.6075 15.4325 17.2775 11.8025 16.9375 8.0625 C14.6275 11.3625 12.3175 14.6625 9.9375 18.0625 C5.9375 17.0625 5.9375 17.0625 4.671875 15.43359375 C3.76041667 13.64322917 2.84895833 11.85286458 1.9375 10.0625 C1.6075 13.3625 1.2775 16.6625 0.9375 20.0625 C-0.7125 20.0625 -2.3625 20.0625 -4.0625 20.0625 C-4.09138514 16.91668577 -4.10925923 13.77090531 -4.125 10.625 C-4.13337891 9.72716797 -4.14175781 8.82933594 -4.15039062 7.90429688 C-4.15361328 7.05029297 -4.15683594 6.19628906 -4.16015625 5.31640625 C-4.16801147 4.13026733 -4.16801147 4.13026733 -4.17602539 2.92016602 C-3.98010202 -0.28581445 -3.26361999 0.06660449 0 0 Z " fill="#5A5A5A" transform="translate(58.0625,225.9375)"/>
<path d="M0 0 C1.65 0 3.3 0 5 0 C5.33 1.32 5.66 2.64 6 4 C6.66 4 7.32 4 8 4 C9.32 6.31 10.64 8.62 12 11 C12.66 11 13.32 11 14 11 C15.5531384 8.49038341 16.8986632 5.89825863 18.26953125 3.28515625 C20 1 20 1 22.63671875 0.12109375 C23.80654297 0.06115234 23.80654297 0.06115234 25 0 C26 1 26 1 26.11352539 2.76586914 C26.10828857 3.51473389 26.10305176 4.26359863 26.09765625 5.03515625 C26.09443359 5.84404297 26.09121094 6.65292969 26.08789062 7.48632812 C26.07951172 8.33646484 26.07113281 9.18660156 26.0625 10.0625 C26.05798828 10.91650391 26.05347656 11.77050781 26.04882812 12.65039062 C26.03700373 14.76695663 26.01906769 16.88348685 26 19 C24.68 19 23.36 19 22 19 C22 15.04 22 11.08 22 7 C18.91330796 10.08669204 18.55144911 10.91927658 18 15 C17.34 15 16.68 15 16 15 C15.67 15.99 15.34 16.98 15 18 C12.75 18 12.75 18 10 17 C8.73027122 15.00286727 7.80973616 12.99341384 6.89453125 10.8125 C6.13637029 8.81645992 6.13637029 8.81645992 4 8 C4 11.63 4 15.26 4 19 C2.68 19 1.36 19 0 19 C0 12.73 0 6.46 0 0 Z " fill="#747474" transform="translate(248,226)"/>
<path d="M0 0 C5 0 5 0 7.60546875 2.15234375 C8.45753906 3.07144531 9.30960937 3.99054688 10.1875 4.9375 C13.25229654 8.42095412 13.25229654 8.42095412 17 11 C17 7.37 17 3.74 17 0 C18.98 0 20.96 0 23 0 C23.02888514 3.14581423 23.04675923 6.29159469 23.0625 9.4375 C23.07087891 10.33533203 23.07925781 11.23316406 23.08789062 12.15820312 C23.09272461 13.43920898 23.09272461 13.43920898 23.09765625 14.74609375 C23.10551147 15.93223267 23.10551147 15.93223267 23.11352539 17.14233398 C23 19 23 19 22 20 C19.6875 20.4375 19.6875 20.4375 17 20 C15.59431196 18.05017465 14.2704964 16.04049422 13 14 C11.43573767 12.57576559 11.43573767 12.57576559 9.75 11.3125 C8.8425 10.549375 7.935 9.78625 7 9 C7 8.01 7 7.02 7 6 C6.01 6 5.02 6 4 6 C4 10.29 4 14.58 4 19 C2.68 19 1.36 19 0 19 C0 12.73 0 6.46 0 0 Z " fill="#6C6C6C" transform="translate(311,226)"/>
<path d="M0 0 C2.97 0 5.94 0 9 0 C9 0.99 9 1.98 9 3 C9.66 3 10.32 3 11 3 C11 4.32 11 5.64 11 7 C11.66 7 12.32 7 13 7 C13 8.32 13 9.64 13 11 C13.66 11 14.32 11 15 11 C15.33 13.64 15.66 16.28 16 19 C13.13275314 18.42655063 12.1385485 18.1385485 10 16 C7.33757179 15.53709779 7.33757179 15.53709779 4.375 15.375 C3.37210937 15.30023438 2.36921875 15.22546875 1.3359375 15.1484375 C0.56507813 15.09945312 -0.20578125 15.05046875 -1 15 C-1.66 16.32 -2.32 17.64 -3 19 C-4.32 19 -5.64 19 -7 19 C-6.40481777 15.21924012 -5.29305023 12.30989388 -3.5 8.9375 C-1.85103556 5.82651767 -0.86729948 3.46919791 0 0 Z " fill="#5A5A5A" transform="translate(347,226)"/>
<path d="M0 0 C2.375 0.8125 2.375 0.8125 5 3 C6.88421367 8.82307239 7.27028617 14.91856124 7 21 C7.66 21 8.32 21 9 21 C9.33 29.25 9.66 37.5 10 46 C9.67 46 9.34 46 9 46 C8.80083984 44.41058594 8.80083984 44.41058594 8.59765625 42.7890625 C8.41946125 41.40101721 8.2410654 40.01299769 8.0625 38.625 C7.97548828 37.92632812 7.88847656 37.22765625 7.79882812 36.5078125 C7.33681872 32.63216425 7.33681872 32.63216425 6 29 C5.92883618 26.62597499 5.91590915 24.24999323 5.9375 21.875 C5.94652344 20.59367187 5.95554687 19.31234375 5.96484375 17.9921875 C5.97644531 17.00476563 5.98804688 16.01734375 6 15 C5.34 15 4.68 15 4 15 C3.67 12.03 3.34 9.06 3 6 C0.39523289 12.61133636 -2.14206236 19.13992255 -4 26 C-4.350625 26.825 -4.70125 27.65 -5.0625 28.5 C-6.23647514 31.63060038 -6.61052675 34.68947735 -7 38 C-8.485 38.495 -8.485 38.495 -10 39 C-10.33 41.31 -10.66 43.62 -11 46 C-12.98 46.495 -12.98 46.495 -15 47 C-14.50272781 41.33109708 -13.33985567 37.2412767 -11 32 C-10.55267567 30.05094401 -10.10544078 28.10186677 -9.66015625 26.15234375 C-8.89571796 23.66000353 -7.79362499 21.54687498 -6.5625 19.25 C-4.0426455 14.46301978 -2.7452183 9.73424069 -1.578125 4.46875 C-1 2 -1 2 0 0 Z " fill="#626262" transform="translate(404,166)"/>
<path d="M0 0 C8.58 0 17.16 0 26 0 C26.495 2.475 26.495 2.475 27 5 C26.34 4.67 25.68 4.34 25 4 C25 3.01 25 2.02 25 1 C17.08 1 9.16 1 1 1 C1 3.31 1 5.62 1 8 C2.32 8 3.64 8 5 8 C4.67 9.32 4.34 10.64 4 12 C4 11.01 4 10.02 4 9 C3.34 9 2.68 9 2 9 C1.84180786 10.66047363 1.84180786 10.66047363 1.68041992 12.35449219 C-2.19269739 52.83674254 -2.19269739 52.83674254 -5 69 C-5.99 69 -6.98 69 -8 69 C-7.90912109 67.84951172 -7.90912109 67.84951172 -7.81640625 66.67578125 C-7.3824796 60.92792206 -6.99660049 55.18839529 -6.74609375 49.4296875 C-6.70476318 48.48053467 -6.66343262 47.53138184 -6.62084961 46.5534668 C-6.54064735 44.65145799 -6.46459963 42.7492692 -6.39282227 40.84692383 C-6.35600342 39.97318115 -6.31918457 39.09943848 -6.28125 38.19921875 C-6.25095703 37.41377686 -6.22066406 36.62833496 -6.18945312 35.8190918 C-6 34 -6 34 -5 33 C-4.55581315 30.56161308 -4.16506424 28.13517022 -3.80859375 25.68359375 C-3.69902847 24.95253922 -3.5894632 24.22148468 -3.47657776 23.46827698 C-3.12633534 21.12524413 -2.78186048 18.78140384 -2.4375 16.4375 C-2.20155027 14.85215718 -1.96522703 13.2668699 -1.72851562 11.68164062 C-1.14729454 7.78847905 -0.57387163 3.89428019 0 0 Z " fill="#6F6F6F" transform="translate(275,144)"/>
<path d="M0 0 C9.24 0 18.48 0 28 0 C28 2.64 28 5.28 28 8 C27 9 27 9 24.40795898 9.11352539 C23.28204346 9.10828857 22.15612793 9.10305176 20.99609375 9.09765625 C19.78115234 9.09443359 18.56621094 9.09121094 17.31445312 9.08789062 C16.03505859 9.07951172 14.75566406 9.07113281 13.4375 9.0625 C12.15423828 9.05798828 10.87097656 9.05347656 9.54882812 9.04882812 C6.36583978 9.03699545 3.18294238 9.02051068 0 9 C0 6.03 0 3.06 0 0 Z " fill="#494949" transform="translate(0,229)"/>
<path d="M0 0 C3 0.25 3 0.25 5 2.25 C5.8563027 4.88233792 6.38929927 7.54546818 7 10.25 C7.66 10.25 8.32 10.25 9 10.25 C12 15.875 12 15.875 12 19.25 C9.625 19.4375 9.625 19.4375 7 19.25 C6.34 18.26 5.68 17.27 5 16.25 C2.63500496 15.80982299 2.63500496 15.80982299 0 15.9375 C-1.3303125 15.94330078 -1.3303125 15.94330078 -2.6875 15.94921875 C-5.19264055 16.03597593 -5.19264055 16.03597593 -7 18.25 C-8.32 18.25 -9.64 18.25 -11 18.25 C-9.79888674 14.44647466 -8.44367385 10.71692147 -7 7 C-6.67 6.14921875 -6.34 5.2984375 -6 4.421875 C-4.4699398 1.09877551 -3.70426896 0.30868908 0 0 Z " fill="#535353" transform="translate(167,225.75)"/>
<path d="M0 0 C7.52970132 -0.02464032 15.05937939 -0.04283141 22.58911133 -0.05493164 C25.15291757 -0.0599737 27.71672091 -0.06680714 30.28051758 -0.07543945 C33.95655021 -0.08751064 37.63254498 -0.09322942 41.30859375 -0.09765625 C42.46274277 -0.10281754 43.61689178 -0.10797882 44.80601501 -0.11329651 C46.3975515 -0.11340981 46.3975515 -0.11340981 48.02124023 -0.11352539 C48.96055893 -0.115746 49.89987762 -0.11796661 50.86766052 -0.12025452 C53 0 53 0 54 1 C54 4.3 54 7.6 54 11 C36.18 11 18.36 11 0 11 C0 7.37 0 3.74 0 0 Z M1 1 C1 3.31 1 5.62 1 8 C17.83 8 34.66 8 52 8 C52 5.69 52 3.38 52 1 C35.17 1 18.34 1 1 1 Z " fill="#A09F9F" transform="translate(441,228)"/>
<path d="M0 0 C0.33 0.99 0.66 1.98 1 3 C2.32 3 3.64 3 5 3 C7.48260659 10.60298267 7.18508331 18.10311193 7 26 C4.76681005 21.53362009 3.88335856 18.96429512 3.9375 13.875 C3.94652344 12.77929688 3.95554688 11.68359375 3.96484375 10.5546875 C3.97644531 9.71164063 3.98804688 8.86859375 4 8 C3.01 8 2.02 8 1 8 C0.86980469 8.72832031 0.73960937 9.45664063 0.60546875 10.20703125 C0.03494668 12.83879436 -0.72871346 15.17523652 -1.6875 17.6875 C-3.60729396 22.86812048 -5.42170863 28.07782928 -7.1875 33.3125 C-7.58038208 34.45948364 -7.58038208 34.45948364 -7.98120117 35.62963867 C-9.36030639 39.74089107 -10.43012025 43.68127273 -11 48 C-12.65 48 -14.3 48 -16 48 C-15.54791555 43.56957241 -14.68406473 39.97365414 -12.8125 35.93359375 C-11.89079389 33.74011046 -11.26226879 31.54199513 -10.625 29.25 C-9.55161545 25.51010226 -8.18688583 22.13008613 -6.5 18.625 C-4.13692108 13.64260468 -2.76623813 8.71007711 -1.578125 3.3359375 C-1 1 -1 1 0 0 Z " fill="#666666" transform="translate(175,165)"/>
<path d="M0 0 C1.98 0 3.96 0 6 0 C6 4.29 6 8.58 6 13 C6.66 13 7.32 13 8 13 C8 13.66 8 14.32 8 15 C10.64 14.67 13.28 14.34 16 14 C16.33 9.38 16.66 4.76 17 0 C18.32 0 19.64 0 21 0 C21.0809313 2.60478883 21.14045434 5.20706653 21.1875 7.8125 C21.21263672 8.55048828 21.23777344 9.28847656 21.26367188 10.04882812 C21.33803286 15.526754 21.33803286 15.526754 19.59375 17.96875 C15.5883469 20.56048142 10.64137279 20.67226233 6 20 C1.46332046 17.2972973 1.46332046 17.2972973 0.375 14.25 C-0.10192432 11.38845407 -0.09401869 8.64971902 -0.0625 5.75 C-0.04896484 4.13351563 -0.04896484 4.13351563 -0.03515625 2.484375 C-0.02355469 1.66453125 -0.01195312 0.8446875 0 0 Z " fill="#7E7E7E" transform="translate(397,226)"/>
<path d="M0 0 C0.69287109 0.01804688 1.38574219 0.03609375 2.09960938 0.0546875 C3.79617664 0.10148936 5.49202476 0.17322376 7.1875 0.25 C7.5175 1.9 7.8475 3.55 8.1875 5.25 C3.2375 5.58 -1.7125 5.91 -6.8125 6.25 C-6.8125 8.56 -6.8125 10.87 -6.8125 13.25 C-3.39155758 15.53062828 -2.13062778 15.46925007 1.875 15.375 C2.86886719 15.35695312 3.86273438 15.33890625 4.88671875 15.3203125 C5.64597656 15.29710937 6.40523437 15.27390625 7.1875 15.25 C6.8125 17.1875 6.8125 17.1875 6.1875 19.25 C2.41164664 21.13792668 -1.70964355 20.86756856 -5.8125 20.25 C-8.99064643 18.83188528 -10.97868894 17.21680261 -12.8125 14.25 C-13.65862278 10.75562281 -13.88287397 7.700248 -12.8125 4.25 C-8.983311 -0.00788379 -5.44190301 -0.27079326 0 0 Z " fill="#404040" transform="translate(113.8125,225.75)"/>
<path d="M0 0 C0.99 0 1.98 0 3 0 C3.35767859 5.00750031 2.21073867 7.57852267 0 12 C-0.58792375 14.41559977 -1.02798654 16.84004959 -1.4765625 19.28515625 C-3.22232117 28.33965082 -5.8745175 36.31177625 -11 44 C-10.67 41.69 -10.34 39.38 -10 37 C-10.66 37 -11.32 37 -12 37 C-12 38.98 -12 40.96 -12 43 C-13.32 43 -14.64 43 -16 43 C-16 42.01 -16 41.02 -16 40 C-15.01 39.505 -15.01 39.505 -14 39 C-13.08514427 36.19521805 -13.08514427 36.19521805 -12.375 32.9375 C-12.11460937 31.83277344 -11.85421875 30.72804688 -11.5859375 29.58984375 C-11.39257812 28.73519531 -11.19921875 27.88054687 -11 27 C-10.34 27 -9.68 27 -9 27 C-9 25.68 -9 24.36 -9 23 C-8.34 23 -7.68 23 -7 23 C-6.91363281 22.26136719 -6.82726562 21.52273438 -6.73828125 20.76171875 C-5.67911137 13.11431791 -3.53338668 6.85099402 0 0 Z " fill="#555555" transform="translate(372,260)"/>
<path d="M0 0 C1.65 0.33 3.3 0.66 5 1 C5 5.62 5 10.24 5 15 C9.62 15 14.24 15 19 15 C19 16.98 19 18.96 19 21 C15.85418577 21.02888514 12.70840531 21.04675923 9.5625 21.0625 C8.66466797 21.07087891 7.76683594 21.07925781 6.84179688 21.08789062 C5.56079102 21.09272461 5.56079102 21.09272461 4.25390625 21.09765625 C3.46314697 21.10289307 2.6723877 21.10812988 1.85766602 21.11352539 C0 21 0 21 -1 20 C-1.09860131 18.59651265 -1.13078937 17.18819523 -1.1328125 15.78125 C-1.13410156 14.93175781 -1.13539063 14.08226562 -1.13671875 13.20703125 C-1.13285156 12.31371094 -1.12898437 11.42039063 -1.125 10.5 C-1.12886719 9.60667969 -1.13273438 8.71335938 -1.13671875 7.79296875 C-1.13542969 6.94347656 -1.13414062 6.09398437 -1.1328125 5.21875 C-1.13168457 4.43435547 -1.13055664 3.64996094 -1.12939453 2.84179688 C-1 1 -1 1 0 0 Z " fill="#ACACAC" transform="translate(212,225)"/>
<path d="M0 0 C0.99 0.33 1.98 0.66 3 1 C3.33 1.99 3.66 2.98 4 4 C4.66 4.33 5.32 4.66 6 5 C6.74609375 7.51171875 6.74609375 7.51171875 7.4375 10.6875 C8.49788695 15.21679101 9.88417283 18.85650513 12 23 C12.81486447 25.73743532 13.53011515 28.4919736 14.2421875 31.2578125 C14.90909762 33.67106459 15.69482946 35.92908903 16.625 38.25 C17.9959616 41.98898617 18.59085957 45.0722519 19 49 C17 48 17 48 16.25390625 45.9609375 C16.02574219 45.10757813 15.79757813 44.25421875 15.5625 43.375 C14.68877808 40.27526294 13.77330631 37.47104807 12.5 34.5 C10.94712945 30.87663539 9.85089368 27.27133791 8.75390625 23.4921875 C7.3801894 18.95109241 5.65771907 14.55775568 3.8125 10.1875 C3 8 3 8 3 5 C2.34 5 1.68 5 1 5 C0.9575415 5.91716797 0.91508301 6.83433594 0.87133789 7.77929688 C0.26434975 19.10225709 -1.06392203 30.26431518 -2.5625 41.5 C-2.79931872 43.30592532 -3.03564955 45.11191468 -3.27148438 46.91796875 C-3.84205632 51.2794018 -4.41914734 55.63992474 -5 60 C-6.65 60 -8.3 60 -10 60 C-10.05422947 58.5629191 -10.09289723 57.12524538 -10.125 55.6875 C-10.14820313 54.88699219 -10.17140625 54.08648437 -10.1953125 53.26171875 C-10 51 -10 51 -8 48 C-8 51.63 -8 55.26 -8 59 C-7.34 59 -6.68 59 -6 59 C-6.01160156 58.33613281 -6.02320313 57.67226562 -6.03515625 56.98828125 C-6.04869141 55.66376953 -6.04869141 55.66376953 -6.0625 54.3125 C-6.07410156 53.44238281 -6.08570313 52.57226562 -6.09765625 51.67578125 C-6 49 -6 49 -5.52734375 46.64453125 C-4.59191144 41.95351143 -4.5435518 37.16670954 -4.28125 32.3984375 C-4 29 -4 29 -3 26 C-2.74209367 22.786917 -2.55803856 19.57999983 -2.39453125 16.36132812 C-2.10085306 11.20170612 -2.10085306 11.20170612 -1 9 C-0.77532169 7.46331135 -0.59203195 5.92031946 -0.4375 4.375 C-0.35371094 3.55773437 -0.26992188 2.74046875 -0.18359375 1.8984375 C-0.12300781 1.27195313 -0.06242187 0.64546875 0 0 Z " fill="#ACACAC" transform="translate(47,153)"/>
<path d="M0 0 C0.99 0 1.98 0 3 0 C2.54122896 5.13823565 1.63051325 9.29056847 -0.3125 14.0546875 C-1.16045939 16.24401012 -1.16045939 16.24401012 -1.5 19.6875 C-2.03179583 23.21064734 -3.12311783 25.0282699 -5 28 C-5.70670728 30.69254991 -5.70670728 30.69254991 -6 33 C-6.66 33 -7.32 33 -8 33 C-7.9175 33.99 -7.835 34.98 -7.75 36 C-7.71209308 40.63412067 -9.71714715 44.07634666 -12 48 C-12.5625 46.0625 -12.5625 46.0625 -13 44 C-12.505 43.505 -12.505 43.505 -12 43 C-12.04125 41.845 -12.0825 40.69 -12.125 39.5 C-12.17560337 35.42281433 -11.25759906 32.2989484 -9.859375 28.5 C-8.54210223 24.66793375 -7.66913904 20.73937355 -6.74609375 16.796875 C-6.02194778 14.08227544 -5.06492898 11.59603169 -4 9 C-3.67 7.783125 -3.34 6.56625 -3 5.3125 C-2 2 -2 2 0 0 Z " fill="#6B6B6B" transform="translate(143,260)"/>
<path d="M0 0 C1.65 0 3.3 0 5 0 C5 5.28 5 10.56 5 16 C-1.83076923 19.41538462 -1.83076923 19.41538462 -6.125 19.375 C-6.95257813 19.38273437 -7.78015625 19.39046875 -8.6328125 19.3984375 C-11.67956245 18.8856182 -12.95128785 18.34338992 -15 16 C-15.29642569 13.28770497 -15.38061189 11.00260268 -15.25 8.3125 C-15.23195313 7.61060547 -15.21390625 6.90871094 -15.1953125 6.18554688 C-15.14826213 4.45644564 -15.07651873 2.72804795 -15 1 C-14.01 1 -13.02 1 -12 1 C-11.86722656 1.92683594 -11.73445313 2.85367188 -11.59765625 3.80859375 C-11.42105469 5.00613281 -11.24445313 6.20367187 -11.0625 7.4375 C-10.88847656 8.63246094 -10.71445312 9.82742187 -10.53515625 11.05859375 C-10.31014787 13.87955676 -10.31014787 13.87955676 -9 15 C-6.04195427 15.33340471 -6.04195427 15.33340471 -3 15 C-0.73045369 11.59568053 -0.63450051 9.83475798 -0.375 5.8125 C-0.30023438 4.72582031 -0.22546875 3.63914063 -0.1484375 2.51953125 C-0.09945313 1.68808594 -0.05046875 0.85664063 0 0 Z " fill="#6B6B6B" transform="translate(298,226)"/>
<path d="M0 0 C0.99 0 1.98 0 3 0 C2.93433838 1.10255127 2.86867676 2.20510254 2.80102539 3.34106445 C2.05921658 16.28643691 1.69986349 29.22460177 1.4375 42.1875 C1.39415042 44.2207089 1.35053197 46.25391209 1.30664062 48.28710938 C1.20134189 53.19134622 1.09963123 58.09564488 1 63 C-4.61 63 -10.22 63 -16 63 C-15.67 61.35 -15.34 59.7 -15 58 C-14.67 59.32 -14.34 60.64 -14 62 C-7.565 61.505 -7.565 61.505 -1 61 C-1.01740234 57.77863281 -1.01740234 57.77863281 -1.03515625 54.4921875 C-1.04300448 52.36051582 -1.04904823 50.22884588 -1.05493164 48.09716797 C-1.05989187 46.64078016 -1.06666215 45.18439715 -1.07543945 43.72802734 C-1.13194643 34.09524918 -0.84225236 24.60376594 0 15 C-0.66 15 -1.32 15 -2 15 C-1.938125 16.423125 -1.938125 16.423125 -1.875 17.875 C-2 21 -2 21 -4 23 C-3.48400816 15.1177798 -1.9078547 7.65541695 0 0 Z " fill="#727272" transform="translate(32,260)"/>
<path d="M0 0 C0.33 0 0.66 0 1 0 C1 1.65 1 3.3 1 5 C2.32 5.33 3.64 5.66 5 6 C5 7.98 5 9.96 5 12 C3.68 10.68 2.36 9.36 1 8 C1.01160156 8.62648437 1.02320313 9.25296875 1.03515625 9.8984375 C1.04417969 10.71570313 1.05320312 11.53296875 1.0625 12.375 C1.07410156 13.18710938 1.08570313 13.99921875 1.09765625 14.8359375 C1 17 1 17 0 19 C-0.20715337 21.48296326 -0.37365766 23.95042768 -0.5 26.4375 C-0.86578212 33.59734637 -0.86578212 33.59734637 -2 37 C-2.18152096 39.24740239 -2.32111387 41.49828474 -2.4375 43.75 C-2.88449509 51.56710415 -3.86828354 59.2537854 -5 67 C-5.66 67 -6.32 67 -7 67 C-7.50076323 54.3881852 -6.0823965 42.2877973 -4.35986328 29.80957031 C-3.89820796 26.20527626 -3.56520495 22.59482008 -3.26147461 18.97412109 C-3 17 -3 17 -2 15 C-1.6087065 12.45802036 -1.25520881 9.92608411 -0.9375 7.375 C-0.80118164 6.31539062 -0.80118164 6.31539062 -0.66210938 5.234375 C-0.43816881 3.4899959 -0.21866182 1.74504866 0 0 Z " fill="#616161" transform="translate(46,145)"/>
<path d="M0 0 C1.32 0 2.64 0 4 0 C4 1.98 4 3.96 4 6 C3.34 6 2.68 6 2 6 C2 6.99 2 7.98 2 9 C1.34 9 0.68 9 0 9 C-0.268125 9.886875 -0.53625 10.77375 -0.8125 11.6875 C-2.86157518 17.40334129 -2.86157518 17.40334129 -5 20 C-8.1875 20.3125 -8.1875 20.3125 -11 20 C-13.03435531 16.27034861 -14 14.33094958 -14 10 C-14.66 10 -15.32 10 -16 10 C-17.25664978 7.09399739 -18 5.20395416 -18 2 C-16.68 2 -15.36 2 -14 2 C-13.16209211 3.78953185 -12.32980604 5.58169695 -11.5 7.375 C-11.0359375 8.37273437 -10.571875 9.37046875 -10.09375 10.3984375 C-9 13 -9 13 -9 15 C-8.01 15 -7.02 15 -6 15 C-6 13.68 -6 12.36 -6 11 C-5.34 11 -4.68 11 -4 11 C-3.87882812 10.37351563 -3.75765625 9.74703125 -3.6328125 9.1015625 C-3.46523438 8.28429687 -3.29765625 7.46703125 -3.125 6.625 C-2.96257812 5.81289062 -2.80015625 5.00078125 -2.6328125 4.1640625 C-2 2 -2 2 0 0 Z " fill="#767676" transform="translate(387,225)"/>
<path d="M0 0 C5.94 0 11.88 0 18 0 C19.23297713 6.25295545 20.22361226 12.48000988 20.9375 18.8125 C21.73146511 25.84487801 22.61666761 32.86136859 23.5625 39.875 C23.68939209 40.83253174 23.81628418 41.79006348 23.94702148 42.77661133 C24.06891846 43.67275146 24.19081543 44.5688916 24.31640625 45.4921875 C24.42412354 46.28995605 24.53184082 47.08772461 24.64282227 47.90966797 C24.97700357 50.18421592 24.97700357 50.18421592 26 53 C26.14403348 54.33363703 26.24590423 55.67218046 26.31640625 57.01171875 C26.37356812 58.03591919 26.37356812 58.03591919 26.43188477 59.08081055 C26.47498779 59.94101807 26.51809082 60.80122559 26.5625 61.6875 C26.7790625 65.8021875 26.7790625 65.8021875 27 70 C18.75 70 10.5 70 2 70 C2 69.67 2 69.34 2 69 C9.59 69 17.18 69 25 69 C24.59052292 57.95536634 24.59052292 57.95536634 21.6953125 47.40234375 C20.41823067 42.98995428 20.41588704 38.41119692 20.2109375 33.84375 C20.31862435 31.10100336 20.31862435 31.10100336 19 30 C18.78740899 27.57882455 18.62335401 25.17596222 18.5 22.75 C18.25679422 17.60169869 18.25679422 17.60169869 17.46875 12.515625 C17 10 17 10 17 2 C11.39 2 5.78 2 0 2 C0 1.34 0 0.68 0 0 Z " fill="#868686" transform="translate(412,143)"/>
<path d="M0 0 C0.33 0 0.66 0 1 0 C2.73955334 6.43013467 3.24991456 12.34949576 3 19 C3.66 19 4.32 19 5 19 C5 23.62 5 28.24 5 33 C-3.58 33 -12.16 33 -21 33 C-21.33 27.72 -21.66 22.44 -22 17 C-21.34 17 -20.68 17 -20 17 C-20 21.29 -20 25.58 -20 30 C-12.74 29.67 -5.48 29.34 2 29 C2 24.05 2 19.1 2 14 C1.34 14 0.68 14 0 14 C0 9.38 0 4.76 0 0 Z " fill="#848484" transform="translate(220,291)"/>
<path d="M0 0 C1.98 0 3.96 0 6 0 C6 7.26 6 14.52 6 22 C4.02 22 2.04 22 0 22 C-1.55073147 20.44926853 -1.12969128 18.96937747 -1.1328125 16.81640625 C-1.13410156 15.97142578 -1.13539062 15.12644531 -1.13671875 14.25585938 C-1.13091797 12.92264648 -1.13091797 12.92264648 -1.125 11.5625 C-1.12886719 10.67755859 -1.13273437 9.79261719 -1.13671875 8.88085938 C-1.13478516 7.61145508 -1.13478516 7.61145508 -1.1328125 6.31640625 C-1.13168457 5.53724854 -1.13055664 4.75809082 -1.12939453 3.95532227 C-1 2 -1 2 0 0 Z " fill="#BDBDBD" transform="translate(88,224)"/>
<path d="M0 0 C0.99 0 1.98 0 3 0 C3 2.31 3 4.62 3 7 C7.29 7 11.58 7 16 7 C16 4.69 16 2.38 16 0 C16.99 0 17.98 0 19 0 C19 5.28 19 10.56 19 16 C18.34 16 17.68 16 17 16 C16.67 14.02 16.34 12.04 16 10 C12.04 10 8.08 10 4 10 C4 12.31 4 14.62 4 17 C2.68 17 1.36 17 0 17 C0 11.39 0 5.78 0 0 Z " fill="#595959" transform="translate(129,227)"/>
<path d="M0 0 C2.4837537 2.4837537 2.32803116 3.56777522 2.5625 7 C2.77217523 10.63718775 2.77217523 10.63718775 4 14 C4.20873282 16.77440712 4.37466621 19.53426764 4.5 22.3125 C4.7063956 27.93298251 4.7063956 27.93298251 5.53125 33.48046875 C6.23416905 37.25865865 6 41.15697852 6 45 C19.365 45.495 19.365 45.495 33 46 C32.505 46.99 32.505 46.99 32 48 C27.68751391 48.02886537 23.37505238 48.04675255 19.0625 48.0625 C17.21495117 48.07506836 17.21495117 48.07506836 15.33007812 48.08789062 C14.16025391 48.09111328 12.99042969 48.09433594 11.78515625 48.09765625 C10.15912476 48.10551147 10.15912476 48.10551147 8.50024414 48.11352539 C6 48 6 48 5 47 C3.10366452 39.86851375 2.48867642 32.58304274 1.9375 25.25 C1.48547775 19.44468939 0.99470242 13.74135255 0 8 C-0.11196073 5.32189925 -0.04625299 2.68267314 0 0 Z " fill="#B7B7B7" transform="translate(422,277)"/>
<path d="M0 0 C0.33 0 0.66 0 1 0 C2.1503105 14.80294495 1.82817342 28.41173821 -1 43 C-1.99 43 -2.98 43 -4 43 C-3.93941406 42.23300781 -3.87882812 41.46601563 -3.81640625 40.67578125 C-3.3824796 34.92792206 -2.99660049 29.18839529 -2.74609375 23.4296875 C-2.70476318 22.48053467 -2.66343262 21.53138184 -2.62084961 20.5534668 C-2.54064735 18.65145799 -2.46459963 16.7492692 -2.39282227 14.84692383 C-2.35600342 13.97318115 -2.31918457 13.09943848 -2.28125 12.19921875 C-2.25095703 11.41377686 -2.22066406 10.62833496 -2.18945312 9.8190918 C-2 8 -2 8 -1 7 C-0.63239269 4.67182036 -0.29758419 2.3381615 0 0 Z " fill="#696969" transform="translate(271,170)"/>
<path d="M0 0 C5.61 0 11.22 0 17 0 C17 0.66 17 1.32 17 2 C12.38 2 7.76 2 3 2 C3.33 3.65 3.66 5.3 4 7 C7.3 7.33 10.6 7.66 14 8 C14 8.33 14 8.66 14 9 C10.7 9.33 7.4 9.66 4 10 C3.67 11.65 3.34 13.3 3 15 C7.95 15 12.9 15 18 15 C18 15.66 18 16.32 18 17 C12.06 17 6.12 17 0 17 C0 11.39 0 5.78 0 0 Z " fill="#535353" transform="translate(186,227)"/>
<path d="M0 0 C0.99 0.33 1.98 0.66 3 1 C3 2.65 3 4.3 3 6 C3.66 6 4.32 6 5 6 C5.226875 7.051875 5.45375 8.10375 5.6875 9.1875 C7.20426183 15.33204608 9.67458899 21.12527746 12 27 C18.93 27.33 25.86 27.66 33 28 C33 26.02 33 24.04 33 22 C35 25 35 25 35 30 C26.75 30 18.5 30 10 30 C9.34 28.02 8.68 26.04 8 24 C7.484375 23.32839844 6.96875 22.65679687 6.4375 21.96484375 C4.63116543 19.49585928 4.40141613 17.57730241 4 14.5625 C3.33826336 10.34533092 2.3869125 7.58036875 0 4 C0 2.68 0 1.36 0 0 Z " fill="#5F5F5F" transform="translate(289,183)"/>
<path d="M0 0 C1.65 0.33 3.3 0.66 5 1 C5 6.94 5 12.88 5 19 C3.68 19 2.36 19 1 19 C1 15.04 1 11.08 1 7 C-1.94729537 9.63106761 -1.94729537 9.63106761 -3 12 C-3.66 12 -4.32 12 -5 12 C-4.52389341 7.00088076 -2.96837781 4.02167317 0 0 Z " fill="#6A6A6A" transform="translate(269,226)"/>
<path d="M0 0 C3 0.25 3 0.25 5 2.25 C5.8563027 4.88233792 6.38929927 7.54546818 7 10.25 C6.01 9.92 5.02 9.59 4 9.25 C4 10.24 4 11.23 4 12.25 C1.69 12.25 -0.62 12.25 -3 12.25 C-3 10.27 -3 8.29 -3 6.25 C-4.98 7.24 -4.98 7.24 -7 8.25 C-4.60594796 0.383829 -4.60594796 0.383829 0 0 Z " fill="#5B5B5B" transform="translate(167,225.75)"/>
<path d="M0 0 C1.16080078 -0.00128906 2.32160156 -0.00257813 3.51757812 -0.00390625 C4.74025391 -0.00003906 5.96292969 0.00382813 7.22265625 0.0078125 C8.44146484 0.00394531 9.66027344 0.00007812 10.91601562 -0.00390625 C12.65915039 -0.00197266 12.65915039 -0.00197266 14.4375 0 C15.50991943 0.00112793 16.58233887 0.00225586 17.68725586 0.00341797 C20.28515625 0.1328125 20.28515625 0.1328125 22.28515625 1.1328125 C22.28515625 2.4528125 22.28515625 3.7728125 22.28515625 5.1328125 C22.94515625 5.1328125 23.60515625 5.1328125 24.28515625 5.1328125 C24.28515625 6.7828125 24.28515625 8.4328125 24.28515625 10.1328125 C24.94515625 10.1328125 25.60515625 10.1328125 26.28515625 10.1328125 C26.28515625 12.1128125 26.28515625 14.0928125 26.28515625 16.1328125 C22.47743343 11.45969813 21.28515625 8.22743517 21.28515625 2.1328125 C8.91015625 2.6278125 8.91015625 2.6278125 -3.71484375 3.1328125 C-4.29243196 7.97815229 -4.29243196 7.97815229 -4.85107422 12.82568359 C-5.49262153 17.91059028 -5.49262153 17.91059028 -7.71484375 20.1328125 C-7.57662176 16.98659568 -7.42799291 13.84095684 -7.27734375 10.6953125 C-7.23802734 9.79748047 -7.19871094 8.89964844 -7.15820312 7.97460938 C-7.11630859 7.12060547 -7.07441406 6.26660156 -7.03125 5.38671875 C-6.99459229 4.59595947 -6.95793457 3.8052002 -6.92016602 2.99047852 C-6.47310437 -1.05433966 -3.43335939 0.00361488 0 0 Z " fill="#B8B8B8" transform="translate(50.71484375,141.8671875)"/>
<path d="M0 0 C2.97 0 5.94 0 9 0 C9 0.99 9 1.98 9 3 C9.66 3 10.32 3 11 3 C11 4.32 11 5.64 11 7 C11.66 7 12.32 7 13 7 C13 8.32 13 9.64 13 11 C13.66 11 14.32 11 15 11 C15.33 13.64 15.66 16.28 16 19 C13.13275314 18.42655063 12.1385485 18.1385485 10 16 C7.33757179 15.53709779 7.33757179 15.53709779 4.375 15.375 C3.37210937 15.30023438 2.36921875 15.22546875 1.3359375 15.1484375 C0.56507813 15.09945312 -0.20578125 15.05046875 -1 15 C-1.66 16.32 -2.32 17.64 -3 19 C-4.32 19 -5.64 19 -7 19 C-6.46930939 15.17902761 -5.50298434 12.93828597 -3 10 C-3 11.32 -3 12.64 -3 14 C1.62 14 6.24 14 11 14 C10.23137573 9.38825436 9.9207712 7.71349098 8 4 C8 3.01 8 2.02 8 1 C5.69 1 3.38 1 1 1 C1 2.65 1 4.3 1 6 C0.34 6 -0.32 6 -1 6 C-0.67 4.02 -0.34 2.04 0 0 Z " fill="#929292" transform="translate(347,226)"/>
<path d="M0 0 C8.25 0 16.5 0 25 0 C25.71113221 3.55566105 26.16358474 6.52347325 26.31640625 10.08203125 C26.35830078 11.01337891 26.40019531 11.94472656 26.44335938 12.90429688 C26.48267578 13.86400391 26.52199219 14.82371094 26.5625 15.8125 C26.60568359 16.79154297 26.64886719 17.77058594 26.69335938 18.77929688 C26.7990226 21.18607027 26.90112327 23.59293983 27 26 C25.33359937 22.84010347 24.65672173 20.45390944 24.375 16.875 C24.30023438 16.00617188 24.22546875 15.13734375 24.1484375 14.2421875 C23.94654668 9.83246687 24 5.41433981 24 1 C13.11 1.495 13.11 1.495 2 2 C1.86779854 8.03652664 1.86779854 8.03652664 4 13 C4.15582303 14.34015221 4.25044142 15.68758903 4.31640625 17.03515625 C4.35830078 17.84404297 4.40019531 18.65292969 4.44335938 19.48632812 C4.48267578 20.33646484 4.52199219 21.18660156 4.5625 22.0625 C4.60568359 22.91650391 4.64886719 23.77050781 4.69335938 24.65039062 C4.79976702 26.76672037 4.90041731 28.88333813 5 31 C2.5162463 28.5162463 2.67196884 27.43222478 2.4375 24 C2.22782477 20.36281225 2.22782477 20.36281225 1 17 C0.76713087 14.11932263 0.5805406 11.25987481 0.4375 8.375 C0.293125 5.61125 0.14875 2.8475 0 0 Z " fill="#5E5E5E" transform="translate(421,260)"/>
<path d="M0 0 C8.58 0 17.16 0 26 0 C28 4 28 4 28 8 C27.34 8 26.68 8 26 8 C26 6.02 26 4.04 26 2 C15.605 2.495 15.605 2.495 5 3 C4.91845243 8.67106263 4.91845243 8.67106263 7 13 C7 14.32 7 15.64 7 17 C6.34 17 5.68 17 5 17 C4.16080602 14.73117913 3.32848276 12.46022973 2.5 10.1875 C2.26152344 9.54490234 2.02304688 8.90230469 1.77734375 8.24023438 C0.72931254 5.35066261 0 3.09923939 0 0 Z " fill="#616161" transform="translate(87,260)"/>
<path d="M0 0 C5 0 5 0 7.25 1.75 C8.95663677 3.94424728 9.61205523 5.28438663 10 8 C8.02 7.34 6.04 6.68 4 6 C4 10.29 4 14.58 4 19 C2.68 19 1.36 19 0 19 C0 12.73 0 6.46 0 0 Z " fill="#6B6B6B" transform="translate(311,226)"/>
<path d="M0 0 C0.99 0.495 0.99 0.495 2 1 C2.37400786 3.32716 2.70764733 5.66117862 3 8 C3.33 8.33 3.66 8.66 4 9 C4 11.64 4 14.28 4 17 C11.26 17 18.52 17 26 17 C26 14.03 26 11.06 26 8 C27.95216435 11.90432869 28.50639991 14.72213252 29 19 C24.87501462 19.02892385 20.75005515 19.04677267 16.625 19.0625 C14.8615625 19.07506836 14.8615625 19.07506836 13.0625 19.08789062 C11.38027344 19.09272461 11.38027344 19.09272461 9.6640625 19.09765625 C8.10872803 19.10551147 8.10872803 19.10551147 6.52197266 19.11352539 C4 19 4 19 2 18 C1.58935547 16.23413086 1.58935547 16.23413086 1.3671875 13.96484375 C1.28339844 13.15595703 1.19960938 12.34707031 1.11328125 11.51367188 C1.03464844 10.66353516 0.95601563 9.81339844 0.875 8.9375 C0.78863281 8.08349609 0.70226562 7.22949219 0.61328125 6.34960938 C0.40052772 4.23389367 0.19920047 2.11703476 0 0 Z " fill="#6E6E6E" transform="translate(426,304)"/>
<path d="M0 0 C0.33 0.99 0.66 1.98 1 3 C2.32 3 3.64 3 5 3 C7.48260659 10.60298267 7.18508331 18.10311193 7 26 C4.76681005 21.53362009 3.88335856 18.96429512 3.9375 13.875 C3.94652344 12.77929688 3.95554688 11.68359375 3.96484375 10.5546875 C3.97644531 9.71164063 3.98804688 8.86859375 4 8 C3.01 8 2.02 8 1 8 C0.87625 8.763125 0.7525 9.52625 0.625 10.3125 C0 13 0 13 -2 16 C-3.43680971 9.86090397 -2.32637691 5.79622721 0 0 Z " fill="#626262" transform="translate(175,165)"/>
<path d="M0 0 C2.23768005 4.4753601 -1.49876812 11.47648612 -3 16 C-4.64536043 19.92173723 -6.63762424 23.45643636 -9 27 C-8.67 24.69 -8.34 22.38 -8 20 C-8.66 20 -9.32 20 -10 20 C-10 21.98 -10 23.96 -10 26 C-11.32 26 -12.64 26 -14 26 C-14 25.01 -14 24.02 -14 23 C-13.34 22.67 -12.68 22.34 -12 22 C-11.08514427 19.19521805 -11.08514427 19.19521805 -10.375 15.9375 C-10.11460937 14.83277344 -9.85421875 13.72804688 -9.5859375 12.58984375 C-9.39257812 11.73519531 -9.19921875 10.88054687 -9 10 C-8.34 10 -7.68 10 -7 10 C-7 8.68 -7 7.36 -7 6 C-6.34 6 -5.68 6 -5 6 C-4.67 5.34 -4.34 4.68 -4 4 C-4 5.32 -4 6.64 -4 8 C-4.66 8 -5.32 8 -6 8 C-6 8.94875 -6 9.8975 -6 10.875 C-6 12.58333333 -6 14.29166667 -6 16 C-4.48364739 13.40053839 -3.68301707 10.90553294 -3 8 C-2.31698293 5.09446706 -1.51635261 2.59946161 0 0 Z " fill="#969696" transform="translate(370,277)"/>
<path d="M0 0 C-0.45877104 5.13823565 -1.36948675 9.29056847 -3.3125 14.0546875 C-4.16045939 16.24401012 -4.16045939 16.24401012 -4.5 19.6875 C-5.02356754 23.15613498 -6.01249751 25.14836599 -8 28 C-9 26 -9 26 -8.0625 23.125 C-7.711875 22.09375 -7.36125 21.0625 -7 20 C-7 18.68 -7 17.36 -7 16 C-7.66 16 -8.32 16 -9 16 C-8.57620166 13.89303095 -8.1354597 11.78946473 -7.6875 9.6875 C-7.44386719 8.51574219 -7.20023438 7.34398437 -6.94921875 6.13671875 C-5.62320183 1.75486038 -4.7021326 0 0 0 Z " fill="#898989" transform="translate(146,260)"/>
<path d="M0 0 C1.98 0 3.96 0 6 0 C9.42857143 7.28571429 9.42857143 7.28571429 9 12 C7.02 10.35 5.04 8.7 3 7 C3 10.63 3 14.26 3 18 C2.01 18 1.02 18 0 18 C0 12.06 0 6.12 0 0 Z " fill="#484848" transform="translate(55,226)"/>
<path d="M0 0 C3.125 0.3125 3.125 0.3125 5 2.1875 C6.125 4.3125 6.125 4.3125 6.125 6.3125 C5.465 6.3125 4.805 6.3125 4.125 6.3125 C3.795 5.3225 3.465 4.3325 3.125 3.3125 C1.475 2.9825 -0.175 2.6525 -1.875 2.3125 C-1.875 8.5825 -1.875 14.8525 -1.875 21.3125 C-0.555 21.3125 0.765 21.3125 2.125 21.3125 C2.125 17.6825 2.125 14.0525 2.125 10.3125 C3.445 10.9725 4.765 11.6325 6.125 12.3125 C5.81701674 13.79261371 5.503482 15.27157325 5.1875 16.75 C5.01347656 17.57371094 4.83945313 18.39742187 4.66015625 19.24609375 C4.125 21.3125 4.125 21.3125 3.125 22.3125 C0.79202567 22.35342937 -1.54205225 22.35491723 -3.875 22.3125 C-3.90387814 18.83335059 -3.92175687 15.35423169 -3.9375 11.875 C-3.94587891 10.88177734 -3.95425781 9.88855469 -3.96289062 8.86523438 C-3.96611328 7.92099609 -3.96933594 6.97675781 -3.97265625 6.00390625 C-3.97789307 5.12935791 -3.98312988 4.25480957 -3.98852539 3.35375977 C-3.80895522 0.12497232 -3.27045559 0.3554843 0 0 Z " fill="#D9D9D9" transform="translate(249.875,223.6875)"/>
<path d="M0 0 C0.33 0 0.66 0 1 0 C1 14.19 1 28.38 1 43 C-4.28 43 -9.56 43 -15 43 C-13.296875 31.078125 -13.296875 31.078125 -9 26 C-9.29112169 32.41923331 -10.45215029 36.62100206 -14 42 C-9.38 42 -4.76 42 0 42 C0 28.14 0 14.28 0 0 Z " fill="#7C7C7C" transform="translate(261,280)"/>
<path d="M0 0 C0.69287109 0.01804688 1.38574219 0.03609375 2.09960938 0.0546875 C3.79617664 0.10148936 5.49202476 0.17322376 7.1875 0.25 C7.5175 1.9 7.8475 3.55 8.1875 5.25 C3.2375 5.58 -1.7125 5.91 -6.8125 6.25 C-6.8125 8.89 -6.8125 11.53 -6.8125 14.25 C-7.4725 14.25 -8.1325 14.25 -8.8125 14.25 C-9.10030586 11.19925785 -9.27037911 8.28816258 -8.8125 5.25 C-6.3125 3.1875 -6.3125 3.1875 -3.8125 2.25 C-5.7925 2.58 -7.7725 2.91 -9.8125 3.25 C-9.8125 3.91 -9.8125 4.57 -9.8125 5.25 C-10.4725 5.25 -11.1325 5.25 -11.8125 5.25 C-11.8125 8.22 -11.8125 11.19 -11.8125 14.25 C-12.1425 14.25 -12.4725 14.25 -12.8125 14.25 C-12.9482675 12.66906283 -13.04484745 11.08473048 -13.125 9.5 C-13.18300781 8.61828125 -13.24101563 7.7365625 -13.30078125 6.828125 C-12.8125 4.25 -12.8125 4.25 -10.78125 1.9375 C-7.10065977 -0.15462497 -4.10487317 -0.20426163 0 0 Z " fill="#969696" transform="translate(113.8125,225.75)"/>
<path d="M0 0 C0.99 0 1.98 0 3 0 C2.03644647 19.96810934 2.03644647 19.96810934 1 29 C0.67 29 0.34 29 0 29 C0 24.38 0 19.76 0 15 C-0.66 15 -1.32 15 -2 15 C-1.938125 16.423125 -1.938125 16.423125 -1.875 17.875 C-2 21 -2 21 -4 23 C-3.48400816 15.1177798 -1.9078547 7.65541695 0 0 Z " fill="#686868" transform="translate(32,260)"/>
<path d="M0 0 C0.99 0.33 1.98 0.66 3 1 C3 2.65 3 4.3 3 6 C3.66 6 4.32 6 5 6 C5 6.99 5 7.98 5 9 C12.26 9 19.52 9 27 9 C26.67 6.36 26.34 3.72 26 1 C26.66 1.33 27.32 1.66 28 2 C28.4140625 4.06640625 28.4140625 4.06640625 28.625 6.5625 C28.69976562 7.38878906 28.77453125 8.21507812 28.8515625 9.06640625 C28.90054688 9.70449219 28.94953125 10.34257812 29 11 C25.06256167 11.05797565 21.12523281 11.09358789 17.1875 11.125 C16.06794922 11.14175781 14.94839844 11.15851563 13.79492188 11.17578125 C12.72177734 11.18222656 11.64863281 11.18867188 10.54296875 11.1953125 C9.0583313 11.21102295 9.0583313 11.21102295 7.54370117 11.22705078 C5 11 5 11 2 9 C0.32358826 5.64717651 0 3.83880578 0 0 Z " fill="#6D6D6D" transform="translate(66,202)"/>
<path d="M0 0 C0.66 0 1.32 0 2 0 C2.18175781 0.79664063 2.36351562 1.59328125 2.55078125 2.4140625 C3.88427682 8.03525919 5.36910617 12.84783292 8 18 C8.81486447 20.73743532 9.53011515 23.4919736 10.2421875 26.2578125 C10.90909762 28.67106459 11.69482946 30.92908903 12.625 33.25 C13.9959616 36.98898617 14.59085957 40.0722519 15 44 C13 43 13 43 12.25390625 40.9609375 C12.02574219 40.10757813 11.79757813 39.25421875 11.5625 38.375 C10.68877808 35.27526294 9.77330631 32.47104807 8.5 29.5 C6.94544646 25.87270841 5.84615783 22.26676488 4.7578125 18.48046875 C4.06679094 16.21861982 3.26161921 14.06572417 2.375 11.875 C0.83940631 7.9355188 0.37522224 4.20248911 0 0 Z " fill="#9D9D9D" transform="translate(51,158)"/>
<path d="M0 0 C0.99 0 1.98 0 3 0 C3.33 4.62 3.66 9.24 4 14 C8.29 14.33 12.58 14.66 17 15 C17 15.66 17 16.32 17 17 C11.39 17 5.78 17 0 17 C0 11.39 0 5.78 0 0 Z " fill="#4F4F4F" transform="translate(213,227)"/>
<path d="M0 0 C1.19012695 0.00580078 1.19012695 0.00580078 2.40429688 0.01171875 C3.19384766 0.00785156 3.98339844 0.00398437 4.796875 0 C10.71353554 0.01008808 10.71353554 0.01008808 12.96679688 1.13671875 C12.96679688 3.11671875 12.96679688 5.09671875 12.96679688 7.13671875 C12.63679688 7.13671875 12.30679688 7.13671875 11.96679688 7.13671875 C11.96679688 5.48671875 11.96679688 3.83671875 11.96679688 2.13671875 C6.02679688 2.13671875 0.08679688 2.13671875 -6.03320312 2.13671875 C-6.03320312 4.44671875 -6.03320312 6.75671875 -6.03320312 9.13671875 C-6.83789062 11.71875 -6.83789062 11.71875 -7.90820312 13.94921875 C-8.25625 14.69816406 -8.60429687 15.44710937 -8.96289062 16.21875 C-10.03320312 18.13671875 -10.03320312 18.13671875 -12.03320312 20.13671875 C-11.38958547 15.71855172 -10.35810994 11.58632706 -9.03320312 7.32421875 C-8.68257812 6.18339844 -8.33195313 5.04257813 -7.97070312 3.8671875 C-6.36400624 -0.81231717 -4.72879903 0.00807651 0 0 Z " fill="#8D8D8D" transform="translate(188.033203125,142.86328125)"/>
<path d="M0 0 C4.12486838 -0.08676908 8.24950384 -0.14031295 12.375 -0.1875 C13.550625 -0.21263672 14.72625 -0.23777344 15.9375 -0.26367188 C17.61972656 -0.27817383 17.61972656 -0.27817383 19.3359375 -0.29296875 C20.37282715 -0.3086792 21.4097168 -0.32438965 22.47802734 -0.34057617 C23.31027832 -0.22818604 24.1425293 -0.1157959 25 0 C27.29013653 3.4352048 27.17842973 4.985331 27 9 C25 6 25 6 24 1 C16.74 1 9.48 1 2 1 C2 2.98 2 4.96 2 7 C2.66 7 3.32 7 4 7 C4 8.98 4 10.96 4 13 C4.66 13 5.32 13 6 13 C6.33 15.64 6.66 18.28 7 21 C3.7721509 18.39182394 2.97958479 15.533169 1.8125 11.625 C1.46832031 10.50351562 1.12414062 9.38203125 0.76953125 8.2265625 C0.07211689 5.30237845 -0.06228825 2.97655613 0 0 Z " fill="#6A6A6A" transform="translate(317,260)"/>
<path d="M0 0 C8.25 0 16.5 0 25 0 C25.495 3.63 25.99 7.26 26.5 11 C26.65662109 12.12792969 26.81324219 13.25585938 26.97460938 14.41796875 C27.71891747 20.00224851 28.16248895 25.36704956 28 31 C26 29 26 29 25.8046875 26.1796875 C25.82789063 25.08914063 25.85109375 23.99859375 25.875 22.875 C25.89304688 21.77929688 25.91109375 20.68359375 25.9296875 19.5546875 C25.95289063 18.71164062 25.97609375 17.86859375 26 17 C25.34 17 24.68 17 24 17 C23.67 12.05 23.34 7.1 23 2 C11.615 1.505 11.615 1.505 0 1 C0 0.67 0 0.34 0 0 Z " fill="#6C6C6C" transform="translate(192,260)"/>
<path d="M0 0 C0.66 0 1.32 0 2 0 C3.22899346 6.06815522 4.27560214 11.79895188 4 18 C4.66 18 5.32 18 6 18 C6.33 26.25 6.66 34.5 7 43 C6.67 43 6.34 43 6 43 C5.86722656 41.94039062 5.73445313 40.88078125 5.59765625 39.7890625 C5.41946125 38.40101721 5.2410654 37.01299769 5.0625 35.625 C4.97548828 34.92632812 4.88847656 34.22765625 4.79882812 33.5078125 C4.33681872 29.63216425 4.33681872 29.63216425 3 26 C2.92883618 23.62597499 2.91590915 21.24999323 2.9375 18.875 C2.94652344 17.59367187 2.95554687 16.31234375 2.96484375 14.9921875 C2.97644531 14.00476563 2.98804688 13.01734375 3 12 C2.34 12 1.68 12 1 12 C0.83126522 10.56274129 0.66509263 9.12518162 0.5 7.6875 C0.4071875 6.88699219 0.314375 6.08648437 0.21875 5.26171875 C0 3 0 3 0 0 Z " fill="#7F7F7F" transform="translate(407,169)"/>
<path d="M0 0 C6.80393551 10.20590326 6.18076749 27.12960157 6 39 C5.67 39 5.34 39 5 39 C3.27644352 30.45809746 1.71605732 22.07479897 1.2109375 13.35546875 C1.07763085 10.84897716 1.07763085 10.84897716 0 8 C-0.12781786 5.32605036 -0.04391871 2.67904143 0 0 Z " fill="#9C9C9C" transform="translate(201,154)"/>
<path d="M0 0 C1.32 0 2.64 0 4 0 C4.83790789 1.78953185 5.67019396 3.58169695 6.5 5.375 C6.9640625 6.37273437 7.428125 7.37046875 7.90625 8.3984375 C9 11 9 11 9 13 C9.99 13.33 10.98 13.66 12 14 C10.68 14 9.36 14 8 14 C8 14.99 8 15.98 8 17 C9.65 17 11.3 17 13 17 C13 17.33 13 17.66 13 18 C11.02 18 9.04 18 7 18 C4.96564469 14.27034861 4 12.33094958 4 8 C3.34 8 2.68 8 2 8 C0.74335022 5.09399739 0 3.20395416 0 0 Z " fill="#757575" transform="translate(369,227)"/>
<path d="M0 0 C4.70588235 0.70588235 4.70588235 0.70588235 6 2 C6.07244053 4.01964199 6.08377188 6.04167124 6.0625 8.0625 C6.05347656 9.16722656 6.04445313 10.27195313 6.03515625 11.41015625 C6.02355469 12.26480469 6.01195312 13.11945313 6 14 C6.66 14 7.32 14 8 14 C8 14.66 8 15.32 8 16 C9.65 16 11.3 16 13 16 C13 16.33 13 16.66 13 17 C10.1875 17.3125 10.1875 17.3125 7 17 C3.87362554 13.87362554 3.83045322 10.9065061 3.8125 6.6875 C3.86041725 5.12448483 3.91812945 3.56160485 4 2 C3.01 2 2.02 2 1 2 C1 5.96 1 9.92 1 14 C0.34 14 -0.32 14 -1 14 C-1.02685938 11.85423363 -1.04633088 9.70837355 -1.0625 7.5625 C-1.07410156 6.36753906 -1.08570313 5.17257813 -1.09765625 3.94140625 C-1 1 -1 1 0 0 Z " fill="#B0B0B0" transform="translate(282,225)"/>
<path d="M0 0 C1.98 0 3.96 0 6 0 C6.02888514 3.14581423 6.04675923 6.29159469 6.0625 9.4375 C6.07087891 10.33533203 6.07925781 11.23316406 6.08789062 12.15820312 C6.09111328 13.01220703 6.09433594 13.86621094 6.09765625 14.74609375 C6.10289307 15.53685303 6.10812988 16.3276123 6.11352539 17.14233398 C6 19 6 19 5 20 C3.33382885 20.04063832 1.66611905 20.042721 0 20 C0 19.01 0 18.02 0 17 C1.32 17.33 2.64 17.66 4 18 C4 12.39 4 6.78 4 1 C3.01 1 2.02 1 1 1 C1 4.63 1 8.26 1 12 C0.01 11.67 -0.98 11.34 -2 11 C-1.34 11 -0.68 11 0 11 C0 7.37 0 3.74 0 0 Z " fill="#A6A6A6" transform="translate(328,226)"/>
<path d="M0 0 C0.33 0 0.66 0 1 0 C1 5.61 1 11.22 1 17 C1.99 17 2.98 17 4 17 C4 13.37 4 9.74 4 6 C8 8 8 8 9 9 C9.66 8.34 10.32 7.68 11 7 C12.04005702 10.38018531 12.08004482 13.4780279 12 17 C9.16763009 14.35645475 7.78155733 12.56311466 6 9 C5.67 12.3 5.34 15.6 5 19 C3.35 19 1.7 19 0 19 C0 12.73 0 6.46 0 0 Z " fill="#A0A0A0" transform="translate(54,227)"/>
<path d="M0 0 C0.66 0 1.32 0 2 0 C2.07347656 1.13888672 2.07347656 1.13888672 2.1484375 2.30078125 C2.22320312 3.29464844 2.29796875 4.28851563 2.375 5.3125 C2.44460938 6.29863281 2.51421875 7.28476563 2.5859375 8.30078125 C2.83865472 11.21528433 2.83865472 11.21528433 5 14 C6.97747122 14.36297936 6.97747122 14.36297936 9.125 14.1875 C10.40375 14.125625 11.6825 14.06375 13 14 C13 14.66 13 15.32 13 16 C13.66 16.33 14.32 16.66 15 17 C10.71 17 6.42 17 2 17 C2 16.01 2 15.02 2 14 C1.34 14 0.68 14 0 14 C0 9.38 0 4.76 0 0 Z " fill="#454545" transform="translate(399,227)"/>
<path d="M0 0 C0.33 0 0.66 0 1 0 C1 3.3 1 6.6 1 10 C1.66 10 2.32 10 3 10 C3.09087891 11.48113281 3.09087891 11.48113281 3.18359375 12.9921875 C3.26738281 14.27351562 3.35117187 15.55484375 3.4375 16.875 C3.51871094 18.15117187 3.59992188 19.42734375 3.68359375 20.7421875 C3.79206027 23.88300152 3.79206027 23.88300152 5 26 C5.13415472 28.6723621 5.04318541 31.32250488 5 34 C4.67 34 4.34 34 4 34 C2.14375181 27.50313132 1.2770352 20.98515777 0.46484375 14.29296875 C0.10160656 11.0039538 0.10160656 11.0039538 -1 8 C-1.33 8.66 -1.66 9.32 -2 10 C-2.66 10 -3.32 10 -4 10 C-3.52449439 8.51965236 -3.04448784 7.04074979 -2.5625 5.5625 C-2.29566406 4.73878906 -2.02882813 3.91507813 -1.75390625 3.06640625 C-1 1 -1 1 0 0 Z " fill="#DADADA" transform="translate(407,171)"/>
<path d="M0 0 C0.33 0 0.66 0 1 0 C1 6.27 1 12.54 1 19 C2.32 19 3.64 19 5 19 C5 14.71 5 10.42 5 6 C5.99 6 6.98 6 8 6 C8 6.99 8 7.98 8 9 C8.99 9.33 9.98 9.66 11 10 C10.01 10.33 9.02 10.66 8 11 C7.855625 12.299375 7.71125 13.59875 7.5625 14.9375 C7.125 18.875 7.125 18.875 6 20 C4.02 20 2.04 20 0 20 C0 13.4 0 6.8 0 0 Z " fill="#C2C2C2" transform="translate(310,226)"/>
<path d="M0 0 C2.31 0 4.62 0 7 0 C7.02887814 3.47914941 7.04675687 6.95826831 7.0625 10.4375 C7.07087891 11.43072266 7.07925781 12.42394531 7.08789062 13.44726562 C7.09111328 14.39150391 7.09433594 15.33574219 7.09765625 16.30859375 C7.10289307 17.18314209 7.10812988 18.05769043 7.11352539 18.95874023 C7 21 7 21 6 22 C4.33382885 22.04063832 2.66611905 22.042721 1 22 C2.32 21.67 3.64 21.34 5 21 C5 14.73 5 8.46 5 2 C3.02 2.33 1.04 2.66 -1 3 C-0.67 2.01 -0.34 1.02 0 0 Z " fill="#C9C9C9" transform="translate(75,224)"/>
<path d="M0 0 C2.375 -0.125 2.375 -0.125 5 0 C7 2 7 2 7 5 C7.66 5 8.32 5 9 5 C9 6.32 9 7.64 9 9 C9.66 9 10.32 9 11 9 C11.33 10.65 11.66 12.3 12 14 C12.66 14 13.32 14 14 14 C14 14.66 14 15.32 14 16 C13.01 16 12.02 16 11 16 C10.15930585 14.39967863 9.32768495 12.79458829 8.5 11.1875 C8.0359375 10.29417969 7.571875 9.40085938 7.09375 8.48046875 C6 6 6 6 6 3 C4.68 3 3.36 3 2 3 C2.66 4.98 3.32 6.96 4 9 C1.4375 6.75 1.4375 6.75 -1 4 C-0.8125 1.6875 -0.8125 1.6875 0 0 Z " fill="#C1C1C1" transform="translate(367,224)"/>
<path d="M0 0 C0.66 0 1.32 0 2 0 C2.23698384 19.7486535 2.23698384 19.7486535 1 25 C0.34 25.33 -0.32 25.66 -1 26 C-1.02724423 23.16660035 -1.04695589 20.33346883 -1.0625 17.5 C-1.07087891 16.70851562 -1.07925781 15.91703125 -1.08789062 15.1015625 C-1.10891185 9.97238283 -0.73937287 5.07663894 0 0 Z " fill="#616161" transform="translate(273,158)"/>
<path d="M0 0 C13.86 0.495 13.86 0.495 28 1 C27.67 1.66 27.34 2.32 27 3 C18.42 3 9.84 3 1 3 C0.67 2.01 0.34 1.02 0 0 Z " fill="#D5D5D5" transform="translate(427,322)"/>
<path d="M0 0 C4.95 0 9.9 0 15 0 C15 0.66 15 1.32 15 2 C10.38 2 5.76 2 1 2 C1.33 3.65 1.66 5.3 2 7 C5.3 7.33 8.6 7.66 12 8 C12 8.33 12 8.66 12 9 C8.7 9.33 5.4 9.66 2 10 C1.67 11.98 1.34 13.96 1 16 C0.67 16 0.34 16 0 16 C0 10.72 0 5.44 0 0 Z " fill="#434343" transform="translate(188,227)"/>
<path d="M0 0 C2.31 0 4.62 0 7 0 C7 1.98 7 3.96 7 6 C6.34 5.67 5.68 5.34 5 5 C5 4.34 5 3.68 5 3 C4.01 3 3.02 3 2 3 C1.81824219 3.63808594 1.63648438 4.27617187 1.44921875 4.93359375 C1.19785156 5.75988281 0.94648438 6.58617187 0.6875 7.4375 C0.44386719 8.26121094 0.20023437 9.08492187 -0.05078125 9.93359375 C-0.36402344 10.61550781 -0.67726563 11.29742187 -1 12 C-1.99 12.33 -2.98 12.66 -4 13 C-4.125 7.25 -4.125 7.25 -3 5 C-2.01 5 -1.02 5 0 5 C0 3.35 0 1.7 0 0 Z " fill="#4F4F4F" transform="translate(348,227)"/>
<path d="M0 0 C0 0.99 0 1.98 0 3 C0.05929688 3.78761719 0.11859375 4.57523438 0.1796875 5.38671875 C-0.0421309 8.61272989 -1.04435097 10.17163549 -2.875 12.8125 C-3.40867187 13.60269531 -3.94234375 14.39289063 -4.4921875 15.20703125 C-5.23855469 16.09455078 -5.23855469 16.09455078 -6 17 C-6.66 17 -7.32 17 -8 17 C-8.33 15.02 -8.66 13.04 -9 11 C-8.01 11 -7.02 11 -6 11 C-6 10.34 -6 9.68 -6 9 C-5.34 9 -4.68 9 -4 9 C-3.8453125 8.1646875 -3.8453125 8.1646875 -3.6875 7.3125 C-2.86866423 4.55823422 -1.54146219 2.41272343 0 0 Z " fill="#6D6D6D" transform="translate(74,227)"/>
<path d="M0 0 C0.99 0 1.98 0 3 0 C3 5.28 3 10.56 3 16 C2.34 16 1.68 16 1 16 C0.34 14.02 -0.32 12.04 -1 10 C-3.31 9.67 -5.62 9.34 -8 9 C-8 8.67 -8 8.34 -8 8 C-4.535 7.505 -4.535 7.505 -1 7 C-0.67 4.69 -0.34 2.38 0 0 Z " fill="#404040" transform="translate(145,227)"/>
<path d="M0 0 C0.99 0 1.98 0 3 0 C3 5.94 3 11.88 3 18 C2.01 18 1.02 18 0 18 C0 12.06 0 6.12 0 0 Z " fill="#545454" transform="translate(90,227)"/>
<path d="M0 0 C0.99 0.33 1.98 0.66 3 1 C4.89470816 1.0685495 6.7916834 1.08480372 8.6875 1.0625 C9.68136719 1.05347656 10.67523438 1.04445312 11.69921875 1.03515625 C12.45847656 1.02355469 13.21773437 1.01195312 14 1 C13.625 2.9375 13.625 2.9375 13 5 C10.47524538 6.26237731 8.68799534 6.09856404 5.875 6.0625 C4.96492188 6.05347656 4.05484375 6.04445312 3.1171875 6.03515625 C2.41851562 6.02355469 1.71984375 6.01195312 1 6 C0.67 5.34 0.34 4.68 0 4 C0.66 3.67 1.32 3.34 2 3 C1.34 2.01 0.68 1.02 0 0 Z " fill="#797979" transform="translate(107,240)"/>
<path d="M0 0 C0.66 0 1.32 0 2 0 C2.042721 1.66611905 2.04063832 3.33382885 2 5 C1.67 5.33 1.34 5.66 1 6 C2.32 6.33 3.64 6.66 5 7 C4.67 8.32 4.34 9.64 4 11 C4 10.01 4 9.02 4 8 C-0.95 8 -5.9 8 -11 8 C-11 6.68 -11 5.36 -11 4 C-7.37 4 -3.74 4 0 4 C0 2.68 0 1.36 0 0 Z " fill="#CDCDCD" transform="translate(201,233)"/>
<path d="M0 0 C0.99 0 1.98 0 3 0 C2.67 5.28 2.34 10.56 2 16 C1.67 16 1.34 16 1 16 C0.67 14.02 0.34 12.04 0 10 C-0.33 11.65 -0.66 13.3 -1 15 C-1.66 15 -2.32 15 -3 15 C-2.44854729 9.76119922 -1.57077907 5.02649303 0 0 Z " fill="#747474" transform="translate(261,260)"/>
<path d="M0 0 C0.99 0 1.98 0 3 0 C3.34833144 4.87664009 2.41685712 7.77050005 0 12 C-0.33 11.01 -0.66 10.02 -1 9 C-1.99 10.98 -2.98 12.96 -4 15 C-5.11346788 12.19966161 -5.03510273 11.09856297 -4.00390625 8.203125 C-3.52824219 7.22859375 -3.05257813 6.2540625 -2.5625 5.25 C-2.08941406 4.26515625 -1.61632812 3.2803125 -1.12890625 2.265625 C-0.75636719 1.51796875 -0.38382812 0.7703125 0 0 Z " fill="#6F6F6F" transform="translate(372,260)"/>
<path d="M0 0 C2 1 2 1 2.81640625 3.14453125 C3.06261719 4.02496094 3.30882812 4.90539062 3.5625 5.8125 C3.81128906 6.68519531 4.06007813 7.55789062 4.31640625 8.45703125 C4.90134027 10.63298581 5.46434428 12.81146376 6 15 C6.66 15 7.32 15 8 15 C8.33 18.3 8.66 21.6 9 25 C8.34 24.67 7.68 24.34 7 24 C7 22.68 7 21.36 7 20 C6.34 20 5.68 20 5 20 C3.57741188 16.17679443 2.75957724 13.08718695 3 9 C2.34 9 1.68 9 1 9 C0.67 6.03 0.34 3.06 0 0 Z " fill="#8E8E8E" transform="translate(311,174)"/>
<path d="M0 0 C0.99 0 1.98 0 3 0 C3.0810206 2.10353495 3.13919907 4.20795952 3.1875 6.3125 C3.22230469 7.48425781 3.25710938 8.65601563 3.29296875 9.86328125 C3 13 3 13 1.61328125 14.91796875 C0 16 0 16 -2 16 C-1.67 15.01 -1.34 14.02 -1 13 C-0.77548542 10.77425665 -0.59217122 8.54418481 -0.4375 6.3125 C-0.35371094 5.13300781 -0.26992188 3.95351562 -0.18359375 2.73828125 C-0.12300781 1.83464844 -0.06242187 0.93101562 0 0 Z " fill="#474747" transform="translate(299,227)"/>
<path d="M0 0 C1.32 0 2.64 0 4 0 C4 1.32 4 2.64 4 4 C4.66 4 5.32 4 6 4 C5.67 4.66 5.34 5.32 5 6 C4.34 6 3.68 6 3 6 C2.67 9.63 2.34 13.26 2 17 C1.34 17 0.68 17 0 17 C0 11.39 0 5.78 0 0 Z " fill="#414141" transform="translate(249,227)"/>
<path d="M0 0 C0.99 0.33 1.98 0.66 3 1 C3 2.65 3 4.3 3 6 C3.66 6 4.32 6 5 6 C5.5321441 8.08047297 6.05031786 10.16452293 6.5625 12.25 C6.85253906 13.41015625 7.14257812 14.5703125 7.44140625 15.765625 C7.95179964 18.72090983 8.02996165 20.24434101 7 23 C4.91598056 19.87397084 4.58581096 18.26325715 4.0625 14.625 C3.36716784 10.40294312 2.39107848 7.58661773 0 4 C0 2.68 0 1.36 0 0 Z " fill="#6C6C6C" transform="translate(289,183)"/>
<path d="M0 0 C4.48875434 7.80816932 4.356999 18.21385784 4 27 C3.34 26.67 2.68 26.34 2 26 C1.718235 23.67616498 1.54828316 21.33823176 1.4375 19 C1.61583954 14.67859865 1.61583954 14.67859865 0 11 C-0.07226502 9.14712498 -0.0838122 7.29166122 -0.0625 5.4375 C-0.05347656 4.42558594 -0.04445313 3.41367188 -0.03515625 2.37109375 C-0.02355469 1.58863281 -0.01195312 0.80617187 0 0 Z " fill="#696969" transform="translate(431,162)"/>
<path d="M0 0 C0.99 0.495 0.99 0.495 2 1 C2 1.99 2 2.98 2 4 C2.66 4 3.32 4 4 4 C4.18175781 4.92232422 4.18175781 4.92232422 4.3671875 5.86328125 C4.53476562 6.67152344 4.70234375 7.47976563 4.875 8.3125 C5.11863281 9.51326172 5.11863281 9.51326172 5.3671875 10.73828125 C5.94478999 13.25301118 5.94478999 13.25301118 8 16 C8.125 18.6875 8.125 18.6875 8 21 C8.66 21 9.32 21 10 21 C10 22.98 10 24.96 10 27 C7.64551835 24.44931155 7.01672076 23.28982642 6.8125 19.75 C6.874375 18.8425 6.93625 17.935 7 17 C6.34 17 5.68 17 5 17 C2.0449269 11.72308374 0.86845868 5.93446764 0 0 Z " fill="#686868" transform="translate(325,285)"/>
<path d="M0 0 C0.66 0 1.32 0 2 0 C2 5.61 2 11.22 2 17 C0.35 16.67 -1.3 16.34 -3 16 C-3 15.01 -3 14.02 -3 13 C-2.01 13 -1.02 13 0 13 C0 8.71 0 4.42 0 0 Z " fill="#4A4A4A" transform="translate(330,227)"/>
<path d="M0 0 C1.34419511 2.68839022 0.46713786 4.10666026 -0.39453125 6.859375 C-1.31552111 10.11551981 -1.85810666 13.43411331 -2.4375 16.765625 C-3 19 -3 19 -5 22 C-5.38499891 23.65549531 -5.72793135 25.3222433 -6 27 C-6.33 27 -6.66 27 -7 27 C-7.34781014 22.36253142 -6.44895394 19.2326396 -4.734375 15.03515625 C-3.65446312 12.04242173 -3.32886742 9.1571272 -3 6 C-2.34 6 -1.68 6 -1 6 C-1.020625 5.195625 -1.04125 4.39125 -1.0625 3.5625 C-1 1 -1 1 0 0 Z " fill="#CECECE" transform="translate(254,289)"/>
<path d="M0 0 C4 6 4 6 4 9 C1.625 9.1875 1.625 9.1875 -1 9 C-1.66 8.01 -2.32 7.02 -3 6 C-5.36704913 5.59761155 -5.36704913 5.59761155 -8 5.75 C-8.886875 5.76546875 -9.77375 5.7809375 -10.6875 5.796875 C-13.02519411 5.85958244 -13.02519411 5.85958244 -15 7 C-14.67 6.01 -14.34 5.02 -14 4 C-12.04174127 3.97305149 -10.08337774 3.95362782 -8.125 3.9375 C-7.03445312 3.92589844 -5.94390625 3.91429687 -4.8203125 3.90234375 C-2 4 -2 4 0 5 C0 3.35 0 1.7 0 0 Z " fill="#868686" transform="translate(175,236)"/>
<path d="M0 0 C1.2065625 0.0309375 1.2065625 0.0309375 2.4375 0.0625 C2.4375 0.7225 2.4375 1.3825 2.4375 2.0625 C1.1175 2.0625 -0.2025 2.0625 -1.5625 2.0625 C-1.5625 6.6825 -1.5625 11.3025 -1.5625 16.0625 C-2.5525 16.3925 -3.5425 16.7225 -4.5625 17.0625 C-4.42228195 14.41625716 -4.27560224 11.77065422 -4.125 9.125 C-4.08568359 8.37025391 -4.04636719 7.61550781 -4.00585938 6.83789062 C-3.61237421 0.08810669 -3.61237421 0.08810669 0 0 Z " fill="#CDCDCD" transform="translate(415.5625,223.9375)"/>
<path d="M0 0 C0.99 0 1.98 0 3 0 C4.25664978 2.90600261 5 4.79604584 5 8 C2.69 8 0.38 8 -2 8 C-1.125 2.25 -1.125 2.25 0 0 Z " fill="#B2B2B2" transform="translate(350,230)"/>
<path d="M0 0 C0.33 0 0.66 0 1 0 C3.46554458 8.87596049 3.62476926 17.84634482 4 27 C2 25 2 25 1.8046875 22.3984375 C1.82789063 21.40070313 1.85109375 20.40296875 1.875 19.375 C1.89304688 18.37210937 1.91109375 17.36921875 1.9296875 16.3359375 C1.95289063 15.56507813 1.97609375 14.79421875 2 14 C1.34 14 0.68 14 0 14 C0 9.38 0 4.76 0 0 Z " fill="#757575" transform="translate(220,291)"/>
<path d="M0 0 C0.33 0 0.66 0 1 0 C3.13031092 8.60397419 3.58440013 17.1849081 4 26 C3.34 26 2.68 26 2 26 C1.93941406 25.16855469 1.87882812 24.33710938 1.81640625 23.48046875 C1.73261719 22.39378906 1.64882813 21.30710937 1.5625 20.1875 C1.48128906 19.10855469 1.40007812 18.02960938 1.31640625 16.91796875 C1.09787539 13.94010095 1.09787539 13.94010095 0 11 C-0.0685495 9.10529184 -0.08480372 7.2083166 -0.0625 5.3125 C-0.05347656 4.31863281 -0.04445313 3.32476562 -0.03515625 2.30078125 C-0.02355469 1.54152344 -0.01195312 0.78226562 0 0 Z " fill="#5A5A5A" transform="translate(448,286)"/>
<path d="M0 0 C0.66 0 1.32 0 2 0 C2 4.62 2 9.24 2 14 C1.34 12.68 0.68 11.36 0 10 C-0.66 11.98 -1.32 13.96 -2 16 C-2.66 16 -3.32 16 -4 16 C-3.67 13.36 -3.34 10.72 -3 8 C-2.34 8 -1.68 8 -1 8 C-0.67 5.36 -0.34 2.72 0 0 Z " fill="#4D4D4D" transform="translate(30,275)"/>
<path d="M0 0 C0.33 0 0.66 0 1 0 C1.6319296 6.00333124 -0.62455877 10.63404795 -3 16 C-3.33 16 -3.66 16 -4 16 C-4.05437607 14.41705218 -4.09296271 12.83355744 -4.125 11.25 C-4.14820313 10.36828125 -4.17140625 9.4865625 -4.1953125 8.578125 C-3.99139502 5.8864142 -3.36551721 4.30095026 -2 2 C-1.34 2 -0.68 2 0 2 C0 1.34 0 0.68 0 0 Z " fill="#636363" transform="translate(139,274)"/>
<path d="M0 0 C0.33 0 0.66 0 1 0 C1 3.96 1 7.92 1 12 C0.67 12 0.34 12 0 12 C0 9.36 0 6.72 0 4 C-0.66 4 -1.32 4 -2 4 C-2.12375 4.556875 -2.2475 5.11375 -2.375 5.6875 C-3.07760904 8.28715346 -3.76657238 10.598062 -5 13 C-7.125 13.8125 -7.125 13.8125 -9 14 C-9 11 -9 11 -6.6875 8.625 C-5.800625 7.75875 -4.91375 6.8925 -4 6 C-2.95650161 4.36021682 -1.94392019 2.69905634 -1 1 C-0.67 0.67 -0.34 0.34 0 0 Z " fill="#CACACA" transform="translate(75,233)"/>
<path d="M0 0 C2.33020062 4.66040125 2.06760355 9.01785011 1 14 C-0.65 14 -2.3 14 -4 14 C-3.46148032 8.72250715 -2.22656164 4.74354436 0 0 Z " fill="#7A7A7A" transform="translate(163,199)"/>
<path d="M0 0 C3.375 -0.125 3.375 -0.125 7 0 C9 2 9 2 9.125 4.625 C9.08375 5.40875 9.0425 6.1925 9 7 C9.66 7 10.32 7 11 7 C14.125 13.625 14.125 13.625 13 17 C12.67 15.35 12.34 13.7 12 12 C11.34 12 10.68 12 10 12 C9.67128906 11.04287109 9.67128906 11.04287109 9.3359375 10.06640625 C8.3728723 7.55695588 7.42196269 5.28375825 6 3 C2.883975 1.78209281 2.883975 1.78209281 0 2 C0 1.34 0 0.68 0 0 Z " fill="#D6D5D5" transform="translate(164,224)"/>
<path d="M0 0 C0.33 0 0.66 0 1 0 C1.5326514 6.258654 -0.18150494 10.45108785 -3 16 C-3.33 16 -3.66 16 -4 16 C-4.54330269 9.34454208 -3.77304004 5.54165256 0 0 Z " fill="#545454" transform="translate(399,183)"/>
<path d="M0 0 C0.99 0 1.98 0 3 0 C2.61271765 5.71241466 2.12989477 8.73688282 -2 13 C-2.05447047 11.58376784 -2.09300508 10.16691809 -2.125 8.75 C-2.14820313 7.96109375 -2.17140625 7.1721875 -2.1953125 6.359375 C-1.9828378 3.79268059 -1.28654105 2.2083933 0 0 Z " fill="#727272" transform="translate(143,260)"/>
<path d="M0 0 C0.99 0.33 1.98 0.66 3 1 C3.33 3.31 3.66 5.62 4 8 C2.02 8 0.04 8 -2 8 C-1.125 1.125 -1.125 1.125 0 0 Z " fill="#9A9A9A" transform="translate(166,230)"/>
<path d="M0 0 C0.33 0 0.66 0 1 0 C1.66 2.31 2.32 4.62 3 7 C10.59 7.33 18.18 7.66 26 8 C26 8.33 26 8.66 26 9 C17.42 9 8.84 9 0 9 C0 6.03 0 3.06 0 0 Z " fill="#C7C7C7" transform="translate(183,205)"/>
<path d="M0 0 C4.42272046 6.63408069 8 14.86267457 8 23 C7.34 23 6.68 23 6 23 C5.938125 22.05125 5.87625 21.1025 5.8125 20.125 C5.34533542 16.63542218 4.09424688 14.0310302 2.4375 10.9375 C0.39973553 7.1020525 -0.58306679 4.43130759 0 0 Z " fill="#878787" transform="translate(347,276)"/>
<path d="M0 0 C1.32 0 2.64 0 4 0 C7.42857143 7.28571429 7.42857143 7.28571429 7 12 C6.34 11.67 5.68 11.34 5 11 C5 9.68 5 8.36 5 7 C4.01 6.67 3.02 6.34 2 6 C0 3 0 3 0 0 Z " fill="#545454" transform="translate(369,227)"/>
<path d="M0 0 C0.66 1.32 1.32 2.64 2 4 C2.99 2.68 3.98 1.36 5 0 C4.855625 0.680625 4.71125 1.36125 4.5625 2.0625 C3.93054091 5.36273082 3.45686059 8.67144426 3 12 C2.01 12.33 1.02 12.66 0 13 C-0.83796731 8.34462607 -1.0161692 4.62921525 0 0 Z " fill="#838383" transform="translate(394,192)"/>
<path d="M0 0 C1.98 0 3.96 0 6 0 C9.42857143 7.28571429 9.42857143 7.28571429 9 12 C6.95880212 10.38405168 4.95927063 8.7143618 3 7 C3 6.34 3 5.68 3 5 C3.66 5 4.32 5 5 5 C5 3.68 5 2.36 5 1 C3.35 1 1.7 1 0 1 C0 0.67 0 0.34 0 0 Z " fill="#717171" transform="translate(55,226)"/>
<path d="M0 0 C0.33 0 0.66 0 1 0 C1 4.95 1 9.9 1 15 C0.34 15 -0.32 15 -1 15 C-1.33 16.32 -1.66 17.64 -2 19 C-2.02687279 17.18757948 -2.04633715 15.37504767 -2.0625 13.5625 C-2.07410156 12.55316406 -2.08570313 11.54382813 -2.09765625 10.50390625 C-2 8 -2 8 -1 7 C-0.63239269 4.67182036 -0.29758419 2.3381615 0 0 Z " fill="#A2A2A2" transform="translate(271,170)"/>
<path d="M0 0 C0.33 0 0.66 0 1 0 C1 2.31 1 4.62 1 7 C1.61875 7.28875 2.2375 7.5775 2.875 7.875 C5 9 5 9 7 11 C1.56193353 11.36253776 1.56193353 11.36253776 -0.9375 9.75 C-2 8 -2 8 -1.75 6.0625 C-1.5025 5.381875 -1.255 4.70125 -1 4 C-0.814375 3.2575 -0.62875 2.515 -0.4375 1.75 C-0.293125 1.1725 -0.14875 0.595 0 0 Z " fill="#585858" transform="translate(104,233)"/>
<path d="M0 0 C1 2 1 2 -1 9 C-6.94 9 -12.88 9 -19 9 C-19 8.67 -19 8.34 -19 8 C-13.72 8 -8.44 8 -3 8 C-2.34 5.69 -1.68 3.38 -1 1 C-0.67 0.67 -0.34 0.34 0 0 Z " fill="#D7D7D7" transform="translate(128,316)"/>
<path d="M0 0 C2 1 2 1 3.125 3.375 C4 6 4 6 4 9 C4.66 9 5.32 9 6 9 C6.33 11.97 6.66 14.94 7 18 C6.34 18 5.68 18 5 18 C4.87882812 17.43410156 4.75765625 16.86820312 4.6328125 16.28515625 C4.46523437 15.55167969 4.29765625 14.81820313 4.125 14.0625 C3.96257812 13.33160156 3.80015625 12.60070312 3.6328125 11.84765625 C3.17038477 9.79299706 3.17038477 9.79299706 1 9 C0.5859375 6.93359375 0.5859375 6.93359375 0.375 4.4375 C0.30023438 3.61121094 0.22546875 2.78492188 0.1484375 1.93359375 C0.09945312 1.29550781 0.05046875 0.65742188 0 0 Z " fill="#A7A7A7" transform="translate(98,294)"/>
<path d="M0 0 C0.66 0 1.32 0 2 0 C2 1.32 2 2.64 2 4 C2.66 4 3.32 4 4 4 C5.45184478 8.53701494 6.23509196 12.18061476 6 17 C3.87491756 13.81237635 3.4979837 11.73487777 3 8 C2.34 8 1.68 8 1 8 C0.67 5.36 0.34 2.72 0 0 Z " fill="#A7A7A7" transform="translate(92,277)"/>
<path d="M0 0 C0.99 0.495 0.99 0.495 2 1 C2 1.99 2 2.98 2 4 C2.66 4 3.32 4 4 4 C4 5.98 4 7.96 4 10 C4.66 10 5.32 10 6 10 C6.33 12.64 6.66 15.28 7 18 C3.70846643 15.36865941 2.96894352 12.40308219 1.8125 8.4375 C1.46832031 7.28121094 1.12414062 6.12492187 0.76953125 4.93359375 C0 2 0 2 0 0 Z " fill="#7C7C7C" transform="translate(317,263)"/>
<path d="M0 0 C0.33 0 0.66 0 1 0 C3.48260659 7.60298267 3.18508331 15.10311193 3 23 C2.67 23 2.34 23 2 23 C0.76892281 15.27279225 -0.2700558 7.8316181 0 0 Z " fill="#D7D7D7" transform="translate(217,260)"/>
<path d="M0 0 C0.66 0 1.32 0 2 0 C1.34 1.65 0.68 3.3 0 5 C1.32 4.67 2.64 4.34 4 4 C3.67 4.66 3.34 5.32 3 6 C-0.01490557 7.00496852 -2.04181692 7.10335303 -5.1875 7.0625 C-6.53908203 7.04896484 -6.53908203 7.04896484 -7.91796875 7.03515625 C-8.60503906 7.02355469 -9.29210937 7.01195312 -10 7 C-7.27588872 4.00674001 -4.83322658 3.24996519 -1 2 C-0.67 1.34 -0.34 0.68 0 0 Z " fill="#747474" transform="translate(297,238)"/>
<path d="M0 0 C2.09749995 2.35968744 2.96905704 3.54616994 3.1875 6.75 C3.0946875 7.86375 3.0946875 7.86375 3 9 C3.66 9 4.32 9 5 9 C5 10.65 5 12.3 5 14 C5.66 14 6.32 14 7 14 C7 15.98 7 17.96 7 20 C4.45102248 16.9739792 3.34011487 14.38583967 2.375 10.5625 C2.13523437 9.63566406 1.89546875 8.70882813 1.6484375 7.75390625 C1.04185872 5.17777346 0.49993753 2.59873188 0 0 Z " fill="#CFCFCF" transform="translate(117,271)"/>
<path d="M0 0 C1.32 0.66 2.64 1.32 4 2 C3.69201674 3.48011371 3.378482 4.95907325 3.0625 6.4375 C2.88847656 7.26121094 2.71445313 8.08492187 2.53515625 8.93359375 C2 11 2 11 1 12 C-0.66617115 12.04063832 -2.33388095 12.042721 -4 12 C-2.68 11.67 -1.36 11.34 0 11 C0 7.37 0 3.74 0 0 Z " fill="#CDCDCD" transform="translate(252,234)"/>
<path d="M0 0 C0.66 0 1.32 0 2 0 C2 4.62 2 9.24 2 14 C2.66 14 3.32 14 4 14 C4 15.32 4 16.64 4 18 C3.01 18 2.02 18 1 18 C0.67 12.06 0.34 6.12 0 0 Z " fill="#D9D9D9" transform="translate(208,195)"/>
<path d="M0 0 C0.89234179 2.48946307 1.08442558 3.72666635 0.29296875 6.2890625 C-0.25423828 7.44535156 -0.25423828 7.44535156 -0.8125 8.625 C-1.34810547 9.78902344 -1.34810547 9.78902344 -1.89453125 10.9765625 C-3 13 -3 13 -5 15 C-4.42479715 10.39837718 -3.41785936 3.41785936 0 0 Z " fill="#787878" transform="translate(181,148)"/>
<path d="M0 0 C1.37478516 0.01740234 1.37478516 0.01740234 2.77734375 0.03515625 C3.69644531 0.04417969 4.61554688 0.05320313 5.5625 0.0625 C6.27277344 0.07410156 6.98304688 0.08570313 7.71484375 0.09765625 C7.71484375 0.42765625 7.71484375 0.75765625 7.71484375 1.09765625 C4.74484375 1.09765625 1.77484375 1.09765625 -1.28515625 1.09765625 C-1.61515625 2.08765625 -1.94515625 3.07765625 -2.28515625 4.09765625 C-4.59515625 4.42765625 -6.90515625 4.75765625 -9.28515625 5.09765625 C-8.95515625 3.77765625 -8.62515625 2.45765625 -8.28515625 1.09765625 C-8.28515625 1.75765625 -8.28515625 2.41765625 -8.28515625 3.09765625 C-0.26015625 0.01111779 -0.26015625 0.01111779 0 0 Z " fill="#CBCBCB" transform="translate(164.28515625,240.90234375)"/>
<path d="M0 0 C0.99 0 1.98 0 3 0 C3 4.62 3 9.24 3 14 C0 11 0 11 -0.29296875 8.30078125 C-0.25816406 7.31464844 -0.22335938 6.32851562 -0.1875 5.3125 C-0.16042969 4.31863281 -0.13335937 3.32476562 -0.10546875 2.30078125 C-0.07066406 1.54152344 -0.03585938 0.78226563 0 0 Z " fill="#565656" transform="translate(213,227)"/>
<path d="M0 0 C0.99 0.33 1.98 0.66 3 1 C3 2.65 3 4.3 3 6 C3.66 6 4.32 6 5 6 C5.33 8.97 5.66 11.94 6 15 C4 14 4 14 3 11.1875 C2.505 9.6096875 2.505 9.6096875 2 8 C1.62875 7.29875 1.2575 6.5975 0.875 5.875 C0 4 0 4 0 0 Z " fill="#7E7E7E" transform="translate(281,161)"/>
<path d="M0 0 C0.33 1.32 0.66 2.64 1 4 C0.34 4 -0.32 4 -1 4 C-0.9175 4.9075 -0.835 5.815 -0.75 6.75 C-1 10 -1 10 -3 12.375 C-3.66 12.91125 -4.32 13.4475 -5 14 C-4.67 11.36 -4.34 8.72 -4 6 C-3.34 6 -2.68 6 -2 6 C-2 4.68 -2 3.36 -2 2 C-1.34 2 -0.68 2 0 2 C0 1.34 0 0.68 0 0 Z " fill="#868686" transform="translate(365,281)"/>
<path d="M0 0 C0.66 0 1.32 0 2 0 C1.67 3.3 1.34 6.6 1 10 C0.01 10.33 -0.98 10.66 -2 11 C-1.125 3.375 -1.125 3.375 0 0 Z " fill="#555555" transform="translate(165,195)"/>
<path d="M0 0 C2 1 2 1 3 3.875 C3.33 4.90625 3.66 5.9375 4 7 C4.99 8.485 4.99 8.485 6 10 C6 11.32 6 12.64 6 14 C5.01 13.67 4.02 13.34 3 13 C2.05078125 11.07421875 2.05078125 11.07421875 1.3125 8.6875 C0.93544922 7.51767578 0.93544922 7.51767578 0.55078125 6.32421875 C0 4 0 4 0 0 Z " fill="#C0C0C0" transform="translate(283,169)"/>
<path d="M0 0 C2.77704031 1.38852015 3.03382737 2.96788482 4.1875 5.8125 C4.55230469 6.68519531 4.91710937 7.55789062 5.29296875 8.45703125 C6.04115271 11.14801336 5.9458895 12.415372 5 15 C2.56158876 12.56158876 2.23847249 10.81433885 1.375 7.5 C1.11460937 6.5203125 0.85421875 5.540625 0.5859375 4.53125 C0 2 0 2 0 0 Z " fill="#878787" transform="translate(305,158)"/>
<path d="M0 0 C0.33 0 0.66 0 1 0 C0.67 5.28 0.34 10.56 0 16 C-0.99 16 -1.98 16 -3 16 C-2.152874 10.63486869 -1.08318169 5.3212615 0 0 Z " fill="#707070" transform="translate(257,279)"/>
<path d="M0 0 C0.94875 0.04125 1.8975 0.0825 2.875 0.125 C2.875 0.455 2.875 0.785 2.875 1.125 C1.225 1.125 -0.425 1.125 -2.125 1.125 C-1.815625 2.053125 -1.815625 2.053125 -1.5 3 C-1.37625 3.70125 -1.2525 4.4025 -1.125 5.125 C-3.2635485 7.2635485 -4.25775314 7.55155063 -7.125 8.125 C-4.70950704 0.18838028 -4.70950704 0.18838028 0 0 Z " fill="#808080" transform="translate(167.125,225.875)"/>
<path d="M0 0 C2 1 2 1 2.81640625 2.85546875 C4.2138821 7.22349536 5.41438004 11.43216431 6 16 C1.15249704 11.15249704 0.41690592 6.59861444 0 0 Z " fill="#7F7F7F" transform="translate(84,181)"/>
<path d="M0 0 C0.10251672 5.12583611 0.03590199 9.94997778 -1 15 C-1.33 15 -1.66 15 -2 15 C-2.33 10.38 -2.66 5.76 -3 1 C-1 0 -1 0 0 0 Z " fill="#747474" transform="translate(273,184)"/>
<path d="M0 0 C0.93045933 2.55144824 1.08564091 3.74006478 0.22265625 6.359375 C-0.16019531 7.14828125 -0.54304687 7.9371875 -0.9375 8.75 C-1.50791016 9.94882813 -1.50791016 9.94882813 -2.08984375 11.171875 C-2.39019531 11.77515625 -2.69054687 12.3784375 -3 13 C-3.33 13 -3.66 13 -4 13 C-4 11.02 -4 9.04 -4 7 C-3.34 7 -2.68 7 -2 7 C-2 5.02 -2 3.04 -2 1 C-1.34 0.67 -0.68 0.34 0 0 Z " fill="#BFBFBF" transform="translate(171,174)"/>
<path d="M0 0 C0.99 0.33 1.98 0.66 3 1 C3.73046875 2.84765625 3.73046875 2.84765625 4.1875 5.0625 C4.34605469 5.79597656 4.50460938 6.52945313 4.66796875 7.28515625 C4.83232422 8.13400391 4.83232422 8.13400391 5 9 C4.34 8.67 3.68 8.34 3 8 C3 7.01 3 6.02 3 5 C2.34 5 1.68 5 1 5 C1 6.98 1 8.96 1 11 C0.67 11 0.34 11 0 11 C0 7.37 0 3.74 0 0 Z " fill="#C2C2C2" transform="translate(47,153)"/>
<path d="M0 0 C1.18771723 3.42943519 0.80226223 5.37784675 -0.4375 8.75 C-0.86869141 9.94882812 -0.86869141 9.94882812 -1.30859375 11.171875 C-1.65083984 12.07679688 -1.65083984 12.07679688 -2 13 C-2.33 13 -2.66 13 -3 13 C-3.27429625 7.60550707 -3.36055646 4.48074195 0 0 Z " fill="#656565" transform="translate(251,306)"/>
<path d="M0 0 C0.66 0 1.32 0 2 0 C3.4606285 2.64738916 4 3.89448334 4 7 C2.125 6.75 2.125 6.75 0 6 C-1.25 3.9375 -1.25 3.9375 -2 2 C-1.34 1.34 -0.68 0.68 0 0 Z " fill="#6E6E6E" transform="translate(359,238)"/>
<path d="M0 0 C0.66 0 1.32 0 2 0 C2 3.96 2 7.92 2 12 C3.32 12.33 4.64 12.66 6 13 C4.35 13 2.7 13 1 13 C1 10.03 1 7.06 1 4 C0.01 3.67 -0.98 3.34 -2 3 C-1.34 2.01 -0.68 1.02 0 0 Z " fill="#BEBDBD" transform="translate(268,233)"/>
<path d="M0 0 C0.66 0 1.32 0 2 0 C2.33 5.61 2.66 11.22 3 17 C1 15 1 15 0.8046875 12.1796875 C0.83949219 10.54386719 0.83949219 10.54386719 0.875 8.875 C0.89304688 7.77929688 0.91109375 6.68359375 0.9296875 5.5546875 C0.96449219 4.29011719 0.96449219 4.29011719 1 3 C0.01 2.67 -0.98 2.34 -2 2 C-1.34 1.34 -0.68 0.68 0 0 Z " fill="#AAAAAA" transform="translate(178,170)"/>
<path d="M0 0 C0.66 0.33 1.32 0.66 2 1 C1.55065113 3.12691797 1.09023527 5.25150039 0.625 7.375 C0.36976563 8.55835938 0.11453125 9.74171875 -0.1484375 10.9609375 C-1 14 -1 14 -3 16 C-2.67 12.37 -2.34 8.74 -2 5 C-1.34 5 -0.68 5 0 5 C0 3.35 0 1.7 0 0 Z " fill="#BEBEBE" transform="translate(134,279)"/>
<path d="M0 0 C0.99 0 1.98 0 3 0 C3 5.28 3 10.56 3 16 C2.67 16 2.34 16 2 16 C2 11.71 2 7.42 2 3 C0.68 2.67 -0.64 2.34 -2 2 C-1.34 2 -0.68 2 0 2 C0 1.34 0 0.68 0 0 Z " fill="#363636" transform="translate(270,227)"/>
<path d="M0 0 C0.66 0.33 1.32 0.66 2 1 C1.55065113 3.12691797 1.09023527 5.25150039 0.625 7.375 C0.36976563 8.55835938 0.11453125 9.74171875 -0.1484375 10.9609375 C-1 14 -1 14 -3 16 C-2.67 12.37 -2.34 8.74 -2 5 C-1.34 5 -0.68 5 0 5 C0 3.35 0 1.7 0 0 Z " fill="#C0C0C0" transform="translate(175,158)"/>
<path d="M0 0 C0.66 0 1.32 0 2 0 C2.38218767 1.65614657 2.71395102 3.32457024 3 5 C2 6 2 6 -0.5625 6.0625 C-1.7690625 6.0315625 -1.7690625 6.0315625 -3 6 C-3.66 4.35 -4.32 2.7 -5 1 C-3.02 1.99 -1.04 2.98 1 4 C0.67 2.68 0.34 1.36 0 0 Z " fill="#D1D1D1" transform="translate(362,241)"/>
<path d="M0 0 C0 0.66 0 1.32 0 2 C0.66 2.33 1.32 2.66 2 3 C-2.29 3 -6.58 3 -11 3 C-7.4144509 0.60963393 -4.2914923 0 0 0 Z " fill="#575757" transform="translate(412,241)"/>
<path d="M0 0 C0.99 0 1.98 0 3 0 C3.33 0.99 3.66 1.98 4 3 C3.01 3 2.02 3 1 3 C1 7.29 1 11.58 1 16 C0.67 16 0.34 16 0 16 C0 10.72 0 5.44 0 0 Z " fill="#353535" transform="translate(313,227)"/>
<path d="M0 0 C0.625 1.8125 0.625 1.8125 1 4 C0.01 5.485 0.01 5.485 -1 7 C-1.66 7 -2.32 7 -3 7 C-3.33 5.35 -3.66 3.7 -4 2 C-2.68 1.34 -1.36 0.68 0 0 Z " fill="#C1C1C1" transform="translate(130,295)"/>
<path d="M0 0 C1.49341969 2.98683937 0.40648676 4.95160978 -0.4375 8.125 C-0.72496094 9.22070312 -1.01242187 10.31640625 -1.30859375 11.4453125 C-1.53675781 12.28835938 -1.76492188 13.13140625 -2 14 C-2.33 14 -2.66 14 -3 14 C-3.34615998 8.34605369 -2.43425238 4.96993194 0 0 Z " fill="#CFCFCF" transform="translate(367,269)"/>
<path d="M0 0 C3 3 3 3 3.07421875 5.04296875 C2.71614583 7.02864583 2.35807292 9.01432292 2 11 C1.34 11 0.68 11 0 11 C0 7.37 0 3.74 0 0 Z " fill="#EAEAEA" transform="translate(59,235)"/>
<path d="M0 0 C0.33 0.99 0.66 1.98 1 3 C1.66 3 2.32 3 3 3 C3 3.99 3 4.98 3 6 C2.34 6 1.68 6 1 6 C0.67 6.99 0.34 7.98 0 9 C-0.33 7.68 -0.66 6.36 -1 5 C-1.66 5 -2.32 5 -3 5 C-3 3 -3 3 -1.5 1.375 C-1.005 0.92125 -0.51 0.4675 0 0 Z " fill="#959595" transform="translate(263,235)"/>
<path d="M0 0 C0.99 0 1.98 0 3 0 C1.8141763 3.37503669 0.72426311 5.64722731 -2 8 C-2.125 5.125 -2.125 5.125 -2 2 C-1.34 1.34 -0.68 0.68 0 0 Z " fill="#505050" transform="translate(387,227)"/>
<path d="M0 0 C0.66 0 1.32 0 2 0 C4.42857143 7.42857143 4.42857143 7.42857143 3 11 C0.43383368 7.15075052 0.44902324 4.5650696 0 0 Z " fill="#8E8E8E" transform="translate(293,195)"/>
<path d="M0 0 C1.80411967 2.75924185 2.0127245 3.88972103 1.625 7.25 C1.41875 8.1575 1.2125 9.065 1 10 C0.01 10.33 -0.98 10.66 -2 11 C-1.85957123 9.35369672 -1.71250671 7.70795821 -1.5625 6.0625 C-1.48128906 5.14597656 -1.40007812 4.22945312 -1.31640625 3.28515625 C-1 1 -1 1 0 0 Z " fill="#5E5E5E" transform="translate(169,183)"/>
<path d="M0 0 C2.475 0.495 2.475 0.495 5 1 C4.67 2.65 4.34 4.3 4 6 C2.68 5.67 1.36 5.34 0 5 C0 3.35 0 1.7 0 0 Z " fill="#5E5E5E" transform="translate(258,238)"/>
<path d="M0 0 C1.32 0 2.64 0 4 0 C4.66 1.65 5.32 3.3 6 5 C5.01 5.66 4.02 6.32 3 7 C2.01 4.69 1.02 2.38 0 0 Z " fill="#787878" transform="translate(254,234)"/>
<path d="M0 0 C0.66 0.99 1.32 1.98 2 3 C2.66 2.67 3.32 2.34 4 2 C3.34 3.98 2.68 5.96 2 8 C1.01 8 0.02 8 -1 8 C-0.67 5.36 -0.34 2.72 0 0 Z " fill="#797979" transform="translate(390,205)"/>
<path d="M0 0 C1.32 0.99 2.64 1.98 4 3 C2.69593116 5.01920337 1.36176581 7.01924973 0 9 C-0.33 9 -0.66 9 -1 9 C-1.125 2.25 -1.125 2.25 0 0 Z " fill="#575757" transform="translate(404,166)"/>
<path d="M0 0 C0.33 0 0.66 0 1 0 C0.88637738 1.4800841 0.75877092 2.95910074 0.625 4.4375 C0.52058594 5.67306641 0.52058594 5.67306641 0.4140625 6.93359375 C0.27742187 7.61550781 0.14078125 8.29742187 0 9 C-0.99 9.495 -0.99 9.495 -2 10 C-2.17942163 6.05272412 -2.09350689 3.4019487 0 0 Z " fill="#484848" transform="translate(137,280)"/>
<path d="M0 0 C0.33 0 0.66 0 1 0 C1.36923077 6.4 1.36923077 6.4 -0.5 9.4375 C-0.995 9.953125 -1.49 10.46875 -2 11 C-2.28571429 3.57142857 -2.28571429 3.57142857 0 0 Z " fill="#444444" transform="translate(143,262)"/>
<path d="M0 0 C0.33 0.66 0.66 1.32 1 2 C0.67 2.99 0.34 3.98 0 5 C1.32 5 2.64 5 4 5 C4 5.66 4 6.32 4 7 C2.02 7 0.04 7 -2 7 C-1.125 1.125 -1.125 1.125 0 0 Z " fill="#D4D4D4" transform="translate(340,240)"/>
<path d="M0 0 C0.33 0.99 0.66 1.98 1 3 C2.32 3 3.64 3 5 3 C5 3.66 5 4.32 5 5 C3.02 5.99 3.02 5.99 1 7 C0.34 6.34 -0.32 5.68 -1 5 C-0.625 2.375 -0.625 2.375 0 0 Z " fill="#6C6C6C" transform="translate(175,165)"/>
<path d="M0 0 C0.66 0 1.32 0 2 0 C1.01 3.96 0.02 7.92 -1 12 C-2.05413042 7.78347832 -1.79607654 5.21920566 -1 1 C-0.67 0.67 -0.34 0.34 0 0 Z " fill="#BEBEBE" transform="translate(408,148)"/>
<path d="M0 0 C1 2 1 2 0.1875 5.4375 C-1 9 -1 9 -3 12 C-3 10.02 -3 8.04 -3 6 C-2.34 6 -1.68 6 -1 6 C-1.0309375 4.7934375 -1.0309375 4.7934375 -1.0625 3.5625 C-1 1 -1 1 0 0 Z " fill="#616161" transform="translate(129,308)"/>
<path d="M0 0 C0.33 0 0.66 0 1 0 C1 2.64 1 5.28 1 8 C-0.32 8 -1.64 8 -3 8 C-3 7.01 -3 6.02 -3 5 C-2.34 4.67 -1.68 4.34 -1 4 C-0.34786708 1.97536745 -0.34786708 1.97536745 0 0 Z " fill="#909090" transform="translate(359,295)"/>
<path d="M0 0 C0.66 0 1.32 0 2 0 C1.38461538 7.50769231 1.38461538 7.50769231 -0.5625 10 C-1.036875 10.33 -1.51125 10.66 -2 11 C-1.855625 10.29875 -1.71125 9.5975 -1.5625 8.875 C-0.98521625 5.92443859 -0.48304859 2.96729849 0 0 Z " fill="#444444" transform="translate(364,285)"/>
<path d="M0 0 C2 1 2 1 3.1875 3.3125 C4.03624754 6.11989571 3.99928333 7.301935 3 10 C0.96564469 6.27034861 0 4.33094958 0 0 Z " fill="#717171" transform="translate(115,270)"/>
<path d="M0 0 C2.7972908 2.06756277 3.02692273 3.14440371 3.6875 6.6875 C3.790625 7.780625 3.89375 8.87375 4 10 C2 9 2 9 0.875 6.6875 C0 4 0 4 0 0 Z " fill="#B2B2B2" transform="translate(62,192)"/>
<path d="M0 0 C0.6875 1.6875 0.6875 1.6875 1 4 C-0.4375 6.75 -0.4375 6.75 -2 9 C-2.6875 7.3125 -2.6875 7.3125 -3 5 C-1.5625 2.25 -1.5625 2.25 0 0 Z " fill="#C1C1C1" transform="translate(175,177)"/>
<path d="M0 0 C2.5722047 1.28610235 3.00974907 2.33393981 4 5 C3.625 7.25 3.625 7.25 3 9 C2.34 8.67 1.68 8.34 1 8 C0.40644386 5.35139573 0.25790731 2.70802678 0 0 Z " fill="#7D7D7D" transform="translate(121,287)"/>
<path d="M0 0 C0.99 0.33 1.98 0.66 3 1 C3.33 3.31 3.66 5.62 4 8 C3.34 8 2.68 8 2 8 C1.34 5.36 0.68 2.72 0 0 Z " fill="#5D5D5D" transform="translate(90,269)"/>
<path d="M0 0 C1.5 1.1875 1.5 1.1875 3 3 C3.1875 5.6875 3.1875 5.6875 3 8 C2.01 7.34 1.02 6.68 0 6 C-0.1875 2.875 -0.1875 2.875 0 0 Z " fill="#454545" transform="translate(356,233)"/>
<path d="M0 0 C0 2.66666667 0 5.33333333 0 8 C-0.99 8.495 -0.99 8.495 -2 9 C-2.66 8.67 -3.32 8.34 -4 8 C-2.25 2.25 -2.25 2.25 0 0 Z " fill="#959595" transform="translate(74,227)"/>
<path d="M0 0 C0.99 0.33 1.98 0.66 3 1 C3 2.32 3 3.64 3 5 C1.68 5 0.36 5 -1 5 C-0.67 3.35 -0.34 1.7 0 0 Z " fill="#DBDBDB" transform="translate(166,232)"/>
<path d="M0 0 C1.65 0 3.3 0 5 0 C5 1.98 5 3.96 5 6 C4.34 5.67 3.68 5.34 3 5 C3 4.01 3 3.02 3 2 C2.01 2 1.02 2 0 2 C0 1.34 0 0.68 0 0 Z " fill="#454545" transform="translate(350,227)"/>
<path d="M0 0 C0.33 0 0.66 0 1 0 C1.33 3.3 1.66 6.6 2 10 C1.01 10.33 0.02 10.66 -1 11 C-0.67 7.37 -0.34 3.74 0 0 Z " fill="#7B7B7B" transform="translate(42,172)"/>
<path d="M0 0 C0.66 0 1.32 0 2 0 C2 1.65 2 3.3 2 5 C2.66 5 3.32 5 4 5 C4 6.98 4 8.96 4 11 C0.85041169 7.57653445 0.43820891 4.55737263 0 0 Z " fill="#CCCCCC" transform="translate(73,147)"/>
</svg>
