<svg width="371" height="371" viewBox="0 0 371 371" fill="none" xmlns="http://www.w3.org/2000/svg">
<g opacity="0.1">
<g clip-path="url(#clip0_142_3205)">
<path d="M371 368.843C167.295 368.843 2.15698 203.705 2.15698 -1.61226e-05" stroke="white" stroke-width="2" stroke-miterlimit="10"/>
<path d="M371 328.68C189.49 328.68 42.3199 181.531 42.3199 -1.43671e-05" stroke="white" stroke-width="2" stroke-miterlimit="10"/>
<path d="M371 292.163C209.658 292.163 78.8375 161.342 78.8375 -1.27708e-05" stroke="white" stroke-width="2" stroke-miterlimit="10"/>
<path d="M371 254.415C230.495 254.415 116.585 140.505 116.585 -1.11209e-05" stroke="white" stroke-width="2" stroke-miterlimit="10"/>
<path d="M371 208.17C256.033 208.17 162.852 114.967 162.852 -9.09845e-06" stroke="white" stroke-width="2" stroke-miterlimit="10"/>
<path d="M371 167.985C278.228 167.985 203.015 92.7716 203.015 -7.34287e-06" stroke="white" stroke-width="2" stroke-miterlimit="10"/>
</g>
</g>
<defs>
<clipPath id="clip0_142_3205">
<rect width="371" height="371" fill="white" transform="translate(371) rotate(90)"/>
</clipPath>
</defs>
</svg>
