<svg width="224" height="48" viewBox="0 0 224 48" fill="none" xmlns="http://www.w3.org/2000/svg">
<path d="M15.2397 15.1709H0L18.165 35.0837H33.4047L15.2397 15.1709ZM4.47182 17.1415H14.3639L28.9329 33.1131H19.0409L4.47182 17.1415Z" fill="#FC5B15"/>
<path d="M30.5745 2.40063L15.2397 14.4036H0L3.35574 11.7778C11.1157 5.70407 20.7025 2.40063 30.5745 2.40063Z" fill="#FC5B15"/>
<path d="M38.1167 15.101H22.877L41.042 35.0137H56.2817L38.1167 15.101ZM27.3488 17.0716H37.2383L51.8099 33.0431H41.9178L27.3488 17.0716Z" fill="#FC5B15"/>
<path d="M56.2796 35.781L52.9239 38.4068C49.0451 41.4437 44.7059 43.788 40.1065 45.3724C35.507 46.9594 30.6423 47.784 25.7051 47.784L41.0399 35.781H56.2796Z" fill="#FC5B15"/>
<path d="M76.9539 39.358C75.5259 39.358 74.1981 39.1701 72.9706 38.7943C71.7681 38.4185 70.6658 37.8548 69.6637 37.1033C68.6867 36.3266 67.8098 35.3747 67.0332 34.2473L69.814 31.0532C71.0416 32.8068 72.219 34.0218 73.3464 34.6982C74.4737 35.3747 75.814 35.7129 77.3673 35.7129C78.3192 35.7129 79.1835 35.5626 79.9602 35.2619C80.7368 34.9613 81.3506 34.5479 81.8015 34.0218C82.2524 33.4957 82.4779 32.8945 82.4779 32.2181C82.4779 31.7671 82.4027 31.3413 82.2524 30.9404C82.1021 30.5396 81.8641 30.1763 81.5384 29.8506C81.2378 29.525 80.837 29.2243 80.3359 28.9488C79.8599 28.6732 79.2963 28.4352 78.6449 28.2348C77.9936 28.0093 77.242 27.8214 76.3902 27.6711C75.0374 27.3955 73.8599 27.0323 72.8579 26.5813C71.8558 26.1304 71.0165 25.5667 70.3401 24.8903C69.6637 24.2139 69.1627 23.4498 68.837 22.598C68.5113 21.7212 68.3485 20.7442 68.3485 19.6669C68.3485 18.6147 68.5739 17.6377 69.0249 16.7358C69.5009 15.8339 70.1397 15.0573 70.9414 14.406C71.7681 13.7295 72.7326 13.216 73.8349 12.8652C74.9372 12.4895 76.1272 12.3016 77.4048 12.3016C78.7576 12.3016 79.9977 12.4769 81.1251 12.8277C82.2524 13.1784 83.2545 13.7045 84.1313 14.406C85.0082 15.0824 85.7347 15.9216 86.3109 16.9237L83.4549 19.7421C82.9539 18.9154 82.3902 18.2264 81.7639 17.6753C81.1376 17.0991 80.4487 16.6732 79.6971 16.3976C78.9455 16.097 78.1439 15.9467 77.2921 15.9467C76.3151 15.9467 75.4633 16.097 74.7368 16.3976C74.0103 16.6982 73.4341 17.1241 73.0082 17.6753C72.6073 18.2014 72.4069 18.8277 72.4069 19.5542C72.4069 20.0803 72.5071 20.5688 72.7075 21.0197C72.908 21.4456 73.2086 21.8339 73.6094 22.1847C74.0353 22.5103 74.599 22.811 75.3004 23.0865C76.0019 23.3371 76.8412 23.5625 77.8182 23.763C79.1961 24.0636 80.4236 24.4519 81.5009 24.9279C82.5781 25.3788 83.4925 25.9174 84.2441 26.5438C84.9957 27.1701 85.5593 27.8715 85.9351 28.6481C86.3359 29.4248 86.5364 30.264 86.5364 31.1659C86.5364 32.8444 86.1481 34.2974 85.3714 35.525C84.5948 36.7525 83.4925 37.7045 82.0645 38.3809C80.6366 39.0323 78.933 39.358 76.9539 39.358ZM93.7523 38.9822V14.2181H97.6228V38.9822H93.7523ZM89.6562 23.0114V19.2536H102.207V23.0114H89.6562ZM105.732 38.9822V19.2536H109.64V25.454L109.264 23.9508C109.54 22.9989 110.003 22.1346 110.655 21.3579C111.331 20.5813 112.095 19.9675 112.947 19.5166C113.824 19.0657 114.726 18.8402 115.653 18.8402C116.078 18.8402 116.479 18.8778 116.855 18.9529C117.256 19.0281 117.569 19.1158 117.794 19.216L116.78 23.4248C116.479 23.2995 116.141 23.1993 115.765 23.1241C115.415 23.0239 115.064 22.9738 114.713 22.9738C114.037 22.9738 113.385 23.1116 112.759 23.3872C112.158 23.6377 111.619 24.001 111.143 24.4769C110.692 24.9279 110.329 25.4665 110.053 26.0928C109.778 26.6941 109.64 27.358 109.64 28.0845V38.9822H105.732ZM129.251 39.358C127.221 39.358 125.418 38.9321 123.839 38.0803C122.286 37.2035 121.059 36.0135 120.157 34.5104C119.28 33.0072 118.841 31.2786 118.841 29.3245C118.841 27.7713 119.092 26.3559 119.593 25.0782C120.094 23.8005 120.783 22.6982 121.66 21.7713C122.562 20.8193 123.626 20.0928 124.854 19.5918C126.107 19.0657 127.459 18.8026 128.912 18.8026C130.19 18.8026 131.38 19.0531 132.482 19.5542C133.585 20.0302 134.537 20.6941 135.338 21.5458C136.165 22.3976 136.791 23.4122 137.217 24.5897C137.668 25.7421 137.881 27.0072 137.856 28.3851L137.818 30.0385H121.697L120.833 26.9571H134.474L133.91 27.5959V26.6941C133.835 25.8673 133.56 25.1283 133.084 24.4769C132.608 23.8256 132.006 23.312 131.28 22.9362C130.553 22.5605 129.764 22.3726 128.912 22.3726C127.56 22.3726 126.42 22.6356 125.493 23.1617C124.566 23.6627 123.864 24.4143 123.388 25.4164C122.912 26.3934 122.674 27.6085 122.674 29.0615C122.674 30.4394 122.962 31.6419 123.539 32.669C124.115 33.6711 124.929 34.4477 125.981 34.9989C127.033 35.55 128.248 35.8256 129.626 35.8256C130.603 35.8256 131.505 35.6628 132.332 35.3371C133.184 35.0114 134.098 34.4227 135.075 33.5709L137.029 36.3141C136.428 36.9154 135.689 37.4415 134.812 37.8924C133.96 38.3433 133.046 38.7066 132.069 38.9822C131.117 39.2327 130.178 39.358 129.251 39.358ZM156.455 47.2494V34.2849H157.206C157.206 34.8861 157.006 35.4874 156.605 36.0886C156.204 36.6648 155.666 37.2035 154.989 37.7045C154.313 38.2056 153.561 38.6064 152.735 38.907C151.908 39.2076 151.056 39.358 150.179 39.358C148.401 39.358 146.81 38.9195 145.407 38.0427C144.004 37.1408 142.889 35.9258 142.062 34.3976C141.261 32.8444 140.86 31.0782 140.86 29.0991C140.86 27.12 141.261 25.3663 142.062 23.8381C142.864 22.2849 143.954 21.0698 145.332 20.193C146.735 19.2911 148.313 18.8402 150.067 18.8402C151.044 18.8402 151.971 19.003 152.847 19.3287C153.749 19.6544 154.551 20.0803 155.252 20.6064C155.979 21.1325 156.543 21.7212 156.943 22.3726C157.369 22.9989 157.582 23.6377 157.582 24.2891L156.455 24.3642V19.216H160.325V47.2494H156.455ZM150.593 35.788C151.77 35.788 152.81 35.4999 153.712 34.9237C154.614 34.3475 155.315 33.5584 155.816 32.5563C156.342 31.5542 156.605 30.4018 156.605 29.0991C156.605 27.7964 156.342 26.644 155.816 25.6419C155.315 24.6147 154.614 23.8131 153.712 23.2369C152.81 22.6607 151.77 22.3726 150.593 22.3726C149.415 22.3726 148.376 22.6732 147.474 23.2744C146.572 23.8506 145.858 24.6523 145.332 25.6795C144.831 26.6815 144.58 27.8214 144.58 29.0991C144.58 30.3767 144.831 31.5291 145.332 32.5563C145.858 33.5584 146.572 34.3475 147.474 34.9237C148.376 35.4999 149.415 35.788 150.593 35.788ZM172.647 39.358C171.244 39.358 170.016 39.0323 168.964 38.3809C167.937 37.7296 167.135 36.8152 166.559 35.6377C166.008 34.4603 165.732 33.0573 165.732 31.4289V19.2536H169.603V30.3767C169.603 31.5291 169.778 32.5312 170.129 33.383C170.505 34.2097 171.031 34.8486 171.707 35.2995C172.409 35.7504 173.248 35.9759 174.225 35.9759C174.952 35.9759 175.615 35.8632 176.217 35.6377C176.818 35.3872 177.332 35.049 177.757 34.6231C178.208 34.1972 178.559 33.6836 178.81 33.0824C179.06 32.4811 179.185 31.8298 179.185 31.1283V19.2536H183.056V38.9822H179.185V34.8486L179.862 34.3976C179.561 35.3246 179.048 36.1638 178.321 36.9154C177.62 37.6669 176.78 38.2682 175.803 38.7191C174.826 39.145 173.774 39.358 172.647 39.358ZM188.485 38.9822V19.2536H192.393V25.454L192.017 23.9508C192.293 22.9989 192.756 22.1346 193.408 21.3579C194.084 20.5813 194.848 19.9675 195.7 19.5166C196.577 19.0657 197.479 18.8402 198.406 18.8402C198.831 18.8402 199.232 18.8778 199.608 18.9529C200.009 19.0281 200.322 19.1158 200.548 19.216L199.533 23.4248C199.232 23.2995 198.894 23.1993 198.518 23.1241C198.168 23.0239 197.817 22.9738 197.466 22.9738C196.79 22.9738 196.138 23.1116 195.512 23.3872C194.911 23.6377 194.372 24.001 193.896 24.4769C193.445 24.9279 193.082 25.4665 192.806 26.0928C192.531 26.6941 192.393 27.358 192.393 28.0845V38.9822H188.485ZM206.948 47.6252L210.931 38.4185L210.969 41.4999L201.123 19.2536H205.633L211.795 33.7588C211.921 34.0093 212.071 34.3976 212.246 34.9237C212.422 35.4248 212.572 35.9258 212.697 36.4269L211.72 36.6523C211.921 36.1262 212.109 35.6001 212.284 35.074C212.484 34.5479 212.672 34.0218 212.848 33.4957L217.996 19.2536H222.58L214.464 38.9822L211.119 47.6252H206.948Z" fill="#231F20"/>
</svg>
