<svg width="73" height="60" viewBox="0 0 73 60" fill="none" xmlns="http://www.w3.org/2000/svg">
<path fill-rule="evenodd" clip-rule="evenodd" d="M60.9437 3.32262C64.6027 2.06066 69.1361 1.80787 72.2003 1.97334C72.6187 1.99594 72.9763 1.67538 72.9989 1.25736C73.0215 0.839342 72.7006 0.482151 72.2822 0.459555C69.108 0.288141 64.3597 0.540684 60.4485 1.88961C58.4915 2.56455 56.6848 3.53399 55.4009 4.91745C54.19 6.22216 53.4689 7.87086 53.5059 9.89233C52.1506 8.78117 50.5743 7.8111 48.7498 7.08198L48.6927 7.05916L48.6326 7.04582C46.944 6.67092 44.3621 6.80101 42.0035 8.36731C39.6216 9.94909 37.5732 12.9237 36.8419 18.0379L36.8351 18.0855L36.8344 18.1336C36.7593 23.0882 38.5965 35.3715 45.8657 49.5661C41.8549 45.4409 35.9996 40.3328 28.8783 36.1921C24.8966 33.7386 14.9037 28.2691 6.71681 26.0132C6.05712 25.7732 5.26503 25.5421 4.46871 25.3971C3.67126 25.2518 2.81458 25.1825 2.06783 25.3132C1.31955 25.4442 0.537895 25.8091 0.181587 26.6515C-0.154724 27.4466 -0.00547028 28.4361 0.477097 29.561C0.642159 29.9458 1.0882 30.124 1.47335 29.9591C1.8585 29.7942 2.0369 29.3486 1.87185 28.9638C1.44395 27.9664 1.48572 27.463 1.57935 27.2416C1.65298 27.0675 1.83869 26.8924 2.32966 26.8065C2.82215 26.7203 3.47659 26.7574 4.19658 26.8885C4.90563 27.0176 5.62537 27.228 6.22432 27.4474L6.25392 27.4583L6.28433 27.4666C14.2721 29.6612 24.1465 35.0566 28.09 37.4875L28.0984 37.4926L28.1068 37.4976C39.1294 43.9046 47.0621 52.6869 49.6229 56.2357L50.8848 55.3955C40.6669 38.7822 38.2837 23.6514 38.351 18.2045C39.0416 13.4451 40.9072 10.9157 42.8436 9.62983C44.7813 8.34298 46.8953 8.2299 48.2447 8.51303C50.3951 9.38182 52.1736 10.6224 53.6306 12.0377C53.9821 14.6373 55.258 18.6189 58.5041 22.3458C58.8858 22.784 59.4733 22.8911 59.9489 22.6529C60.4295 22.4122 60.6937 21.8693 60.5536 21.2961C59.88 18.5398 58.2303 14.5808 55.0773 11.3376C55.0417 10.9491 55.0326 10.6136 55.043 10.3416L55.0447 10.2986L55.0415 10.2557C54.9062 8.4537 55.4832 7.05848 56.5136 5.94819C57.5648 4.81551 59.1155 3.95312 60.9437 3.32262ZM58.6111 20.0569C58.0268 18.3376 57.1024 16.3672 55.7482 14.4945C56.285 16.1729 57.1807 18.1164 58.6111 20.0569Z" fill="white"/>
<path fill-rule="evenodd" clip-rule="evenodd" d="M19.9368 21.2892C19.6612 21.6066 19.6999 22.0832 20.0231 22.3538L35.6614 35.4434C35.9846 35.714 36.4701 35.676 36.7456 35.3586C37.0212 35.0413 36.9825 34.5646 36.6593 34.294L21.021 21.2044C20.6978 20.9338 20.2123 20.9718 19.9368 21.2892Z" fill="white"/>
<path fill-rule="evenodd" clip-rule="evenodd" d="M3.4985 58.3878C18.8321 55.1779 34.12 57.8915 39.8041 59.637C40.2074 59.7609 40.6354 59.5362 40.76 59.1351C40.8845 58.734 40.6585 58.3085 40.2552 58.1846C34.3892 56.3833 18.8315 53.6246 3.18357 56.9004C2.77049 56.9868 2.50612 57.3899 2.59308 57.8007C2.68005 58.2114 3.08541 58.4743 3.4985 58.3878Z" fill="white"/>
</svg>
