<svg width="20" height="20" viewBox="0 0 20 20" fill="none" xmlns="http://www.w3.org/2000/svg">
<path fill-rule="evenodd" clip-rule="evenodd" d="M10.0478 1.45834H9.9525C8.12691 1.45834 6.69302 1.45833 5.57351 1.60884C4.4263 1.76308 3.51609 2.0856 2.80092 2.80077C2.08576 3.51594 1.76323 4.42615 1.60899 5.57336C1.45848 6.69288 1.45849 8.12678 1.4585 9.95234V10.0477C1.45849 11.8733 1.45848 13.3072 1.60899 14.4267C1.76323 15.5738 2.08576 16.4841 2.80092 17.1993C3.51609 17.9144 4.4263 18.2369 5.57351 18.3912C6.69303 18.5417 8.12691 18.5417 9.9525 18.5417H10.0478C11.8734 18.5417 13.3073 18.5417 14.4268 18.3912C15.574 18.2369 16.4842 17.9144 17.1994 17.1993C17.9146 16.4841 18.2371 15.5738 18.3913 14.4267C18.5418 13.3072 18.5418 11.8733 18.5418 10.0477V9.95234C18.5418 8.12676 18.5418 6.69288 18.3913 5.57336C18.2371 4.42615 17.9146 3.51594 17.1994 2.80077C16.4842 2.0856 15.574 1.76308 14.4268 1.60884C13.3073 1.45833 11.8734 1.45834 10.0478 1.45834ZM6.4368 6.45836L6.4081 6.45835C6.24237 6.45828 6.06025 6.4582 5.90605 6.47949C5.72317 6.50474 5.49049 6.56994 5.2963 6.76933C5.10435 6.96641 5.04387 7.19853 5.02032 7.37835C5.00004 7.53326 5.0001 7.71706 5.00017 7.88837L5.00018 7.91669V12.0833L5.00017 12.1117C5.0001 12.283 5.00004 12.4668 5.02032 12.6217C5.04387 12.8015 5.10435 13.0337 5.2963 13.2308C5.49049 13.4301 5.72317 13.4953 5.90605 13.5206C6.06025 13.5418 6.24237 13.5418 6.40809 13.5417H6.4368H7.81655C8.9675 13.5417 9.90241 12.61 9.90241 11.4583C9.90241 10.8903 9.67491 10.3757 9.30616 10C9.67491 9.62443 9.90241 9.10984 9.90241 8.54168C9.90241 7.39006 8.9675 6.45836 7.81655 6.45836H6.4368ZM6.25018 12.0833V10.625H7.81655C8.27925 10.625 8.65241 10.9992 8.65241 11.4583C8.65241 11.9176 8.27925 12.2917 7.81655 12.2917H6.4368C6.3637 12.2917 6.30348 12.2917 6.25111 12.291C6.2502 12.2329 6.25018 12.1658 6.25018 12.0833ZM6.25018 9.37501H7.81655C8.27925 9.37501 8.65241 9.00093 8.65241 8.54168C8.65241 8.08249 8.27925 7.70836 7.81655 7.70836H6.4368C6.3637 7.70836 6.30348 7.70839 6.25111 7.70909C6.2502 7.76714 6.25018 7.83419 6.25018 7.91669V9.37501ZM12.129 6.7346C11.7838 6.7346 11.504 7.01443 11.504 7.3596C11.504 7.70479 11.7838 7.9846 12.129 7.9846H13.3464C13.6916 7.9846 13.9714 7.70479 13.9714 7.3596C13.9714 7.01443 13.6916 6.7346 13.3464 6.7346H12.129ZM12.7519 8.54168C11.4783 8.54168 10.5037 9.67043 10.5037 10.8333V11.25C10.5037 12.5 11.4948 13.5417 12.7519 13.5417C13.276 13.5417 13.9489 13.3522 14.3782 12.9632C14.634 12.7313 14.6534 12.3361 14.4217 12.0803C14.1898 11.8246 13.7946 11.8051 13.5388 12.0369C13.3957 12.1665 13.0512 12.2917 12.7519 12.2917C12.2811 12.2917 11.867 11.9437 11.7734 11.4583H14.3752C14.7203 11.4583 15.0002 11.1785 15.0002 10.8333C15.0002 9.67043 14.0255 8.54168 12.7519 8.54168ZM12.7519 9.79168C13.0532 9.79168 13.3408 9.96109 13.5292 10.2083H11.9747C12.1631 9.96109 12.4507 9.79168 12.7519 9.79168Z" fill="white"/>
</svg>
