<svg width="100" height="100" viewBox="0 0 100 100" fill="none" xmlns="http://www.w3.org/2000/svg">
<path d="M87.9991 15.2267C89.984 15.2267 91.59 13.6207 91.59 11.6358C91.59 9.65098 89.984 8.04492 87.9991 8.04492C86.0143 8.04492 84.4082 9.65098 84.4082 11.6358C84.4082 13.6207 86.0294 15.2267 87.9991 15.2267ZM87.9991 10.6055C88.5749 10.6055 89.0446 11.0752 89.0446 11.651C89.0446 12.2267 88.5749 12.6964 87.9991 12.6964C87.4082 12.6964 86.9537 12.2419 86.9537 11.651C86.9537 11.0601 87.4234 10.6055 87.9991 10.6055Z" fill="#FC5B15"/>
<path d="M91.9844 2.24219H18.1663C15.3632 2.24219 13.0753 4.53007 13.0753 7.3331V15.1058H8.01474C5.21171 15.1058 2.92383 17.3937 2.92383 20.1967V84.0301C2.92383 86.8331 5.21171 89.121 8.01474 89.121H41.8481V96.4846C41.8481 97.1816 42.4238 97.7573 43.1208 97.7573H67.0299C67.7269 97.7573 68.3026 97.1816 68.3026 96.4846V89.121H81.8329C84.636 89.121 86.9238 86.8331 86.9238 84.0301V76.2573H91.9844C94.7875 76.2573 97.0753 73.9695 97.0753 71.1664V7.3331C97.0753 4.53007 94.7875 2.24219 91.9844 2.24219ZM15.6208 7.3331C15.6208 5.92401 16.7723 4.78764 18.1663 4.78764H91.9844C93.3935 4.78764 94.5299 5.93916 94.5299 7.3331V18.4998H46.2269L40.545 12.6058C40.1056 12.1513 39.4996 11.8937 38.8784 11.8937H26.3632C25.0905 11.8937 24.045 12.9392 24.045 14.2119V18.4998H15.6208V7.3331ZM8.01474 86.5907C6.60565 86.5907 5.46928 85.4392 5.46928 84.0452V20.1967C5.46928 18.7876 6.6208 17.6513 8.01474 17.6513H13.0753V71.1816C13.0753 73.9846 15.3632 76.2725 18.1663 76.2725H45.8026C46.3026 77.2422 46.5299 78.3331 46.439 79.4543H44.4693C43.0147 79.4543 41.8481 80.6361 41.8481 82.0755V86.5907H8.01474ZM53.8178 59.9392C54.0753 59.4846 54.545 59.1967 55.0753 59.1967C55.8632 59.1967 56.4996 59.8331 56.4996 60.621C56.4996 61.1361 56.2269 61.6058 55.7875 61.8634C55.3026 62.1513 54.7269 62.121 54.136 61.7876C54.0602 61.7422 53.9844 61.6816 53.9541 61.6058C53.4693 60.8331 53.6663 60.227 53.8178 59.9392ZM53.8026 56.8937C52.8784 57.2119 52.0905 57.8331 51.6057 58.7119C50.8784 60.0149 50.9693 61.6058 51.8178 62.9695C52.0905 63.3937 52.4541 63.7422 52.8935 63.9998C53.5905 64.3937 54.3481 64.6058 55.0905 64.6058C55.7875 64.6058 56.4693 64.424 57.0753 64.0755C58.2875 63.3634 59.045 62.0452 59.045 60.6361C59.045 58.8937 57.9087 57.424 56.3481 56.8937V50.3482L67.6057 70.6664C67.5905 70.6816 67.5753 70.7119 67.5299 70.727C63.545 71.7573 60.939 75.4846 61.1511 79.4543H49.0147C49.242 75.4695 46.6208 71.7422 42.5602 70.6058L53.8026 50.3482V56.8937ZM65.7572 95.2119H44.3935L44.4693 81.9846H65.6814C65.7269 81.9846 65.7572 82.0149 65.7572 82.0604V95.2119ZM84.3784 84.0301C84.3784 85.4392 83.2269 86.5755 81.8329 86.5755H68.3026V82.0604C68.3026 80.6058 67.1208 79.4392 65.6814 79.4392H63.7117C63.6208 78.3179 63.8632 77.227 64.3481 76.2573H84.3784V84.0301ZM91.9844 73.727H66.8178C67.2269 73.4998 67.6663 73.3028 68.1511 73.1816C68.9541 72.9695 69.6057 72.4089 69.939 71.6513C70.2572 70.9089 70.2117 70.0755 69.8178 69.3634L56.7875 45.8937C56.4541 45.2725 55.8026 44.8786 55.0905 44.8786C54.3632 44.8937 53.7117 45.2573 53.3632 45.8786L40.3178 69.3634C39.9238 70.0755 39.8935 70.924 40.2117 71.6664C40.5299 72.424 41.1814 72.9695 41.9844 73.1816C42.4693 73.3028 42.8935 73.4998 43.3178 73.727H18.1663C16.7572 73.727 15.6208 72.5755 15.6208 71.1816V21.0452H24.2572C25.5299 21.0452 26.5753 19.9998 26.5753 18.727V14.4392H38.7723L44.4541 20.3331C44.8935 20.7876 45.4996 21.0452 46.1208 21.0452H94.5299V71.1664C94.5299 72.5755 93.3935 73.727 91.9844 73.727Z" fill="white"/>
<path d="M79.3331 15.227C81.3179 15.227 82.924 13.621 82.924 11.6361C82.924 9.65129 81.3179 8.04523 79.3331 8.04523C77.3482 8.04523 75.7422 9.65129 75.7422 11.6361C75.7422 13.621 77.3482 15.227 79.3331 15.227ZM79.3331 10.6058C79.9089 10.6058 80.3785 11.0755 80.3785 11.6513C80.3785 12.227 79.9089 12.6967 79.3331 12.6967C78.7422 12.6967 78.2876 12.2422 78.2876 11.6513C78.2876 11.0604 78.7573 10.6058 79.3331 10.6058Z" fill="#FC5B15"/>
<path d="M70.6515 15.2267C72.6363 15.2267 74.2424 13.6207 74.2424 11.6358C74.2424 9.65098 72.6363 8.04492 70.6515 8.04492C68.6666 8.04492 67.0605 9.65098 67.0605 11.6358C67.0605 13.6207 68.6666 15.2267 70.6515 15.2267ZM70.6515 10.6055C71.2272 10.6055 71.6969 11.0752 71.6969 11.651C71.6969 12.2267 71.2272 12.6964 70.6515 12.6964C70.0606 12.6964 69.606 12.2419 69.606 11.651C69.606 11.0601 70.0757 10.6055 70.6515 10.6055Z" fill="#FC5B15"/>
<path d="M79.6056 32.1361C78.8632 32.8786 78.3935 33.818 78.2116 34.818H60.4086V32.818C60.4086 31.4543 59.3026 30.3483 57.9389 30.3483H52.1965C50.8329 30.3483 49.7268 31.4543 49.7268 32.818V34.818H31.9389C31.7723 33.8331 31.3026 32.8937 30.545 32.121C28.6207 30.2271 25.3329 30.2574 23.4541 32.1361C22.4995 33.0907 21.9844 34.3483 21.9844 35.6816C21.9844 37.0301 22.5147 38.3028 23.4541 39.2271C24.4086 40.2119 25.6813 40.7119 26.9995 40.7119C27.8329 40.7119 28.6813 40.5149 29.4844 40.1058C30.348 39.6664 31.0601 38.9392 31.4844 38.0452C31.5904 37.818 31.6813 37.5907 31.7571 37.3634H44.1056C37.3935 40.6361 32.3329 46.7877 30.5753 54.2119H28.6056C27.2419 54.2119 26.1359 55.318 26.1359 56.6816V62.424C26.1359 63.7877 27.2419 64.8937 28.6056 64.8937H34.348C35.7116 64.8937 36.8177 63.7877 36.8177 62.424V56.6816C36.8177 55.318 35.7116 54.2119 34.348 54.2119H33.1965C35.3177 46.2119 41.7268 39.9392 49.7722 37.9998V38.5452C49.7722 39.9089 50.8783 41.0149 52.2419 41.0149H57.9844C59.348 41.0149 60.4541 39.9089 60.4541 38.5452V37.9998C68.4844 39.9392 74.8935 46.2119 77.0298 54.2119H75.9844C74.6207 54.2119 73.5147 55.318 73.5147 56.6816V62.424C73.5147 63.7877 74.6207 64.8937 75.9844 64.8937H81.7268C83.0904 64.8937 84.1965 63.7877 84.1965 62.424V56.6816C84.1965 55.318 83.0904 54.2119 81.7268 54.2119H79.651C77.8783 46.7877 72.8177 40.621 66.1207 37.3634H78.4995C78.742 38.0604 79.1359 38.6967 79.6662 39.2271C80.6207 40.2119 81.8935 40.7119 83.2116 40.7119C84.045 40.7119 84.8935 40.5149 85.6965 40.1058C86.5601 39.6664 87.2723 38.9392 87.6965 38.0452C88.6813 35.9695 88.3329 33.7119 86.7723 32.121C84.7874 30.2422 81.4995 30.2574 79.6056 32.1361ZM29.1662 36.9695C28.9844 37.3331 28.6813 37.6513 28.3177 37.8331C26.9995 38.4998 25.8632 38.0755 25.2419 37.424C24.7723 36.9695 24.5147 36.3483 24.5147 35.6816C24.5147 35.0301 24.7723 34.4089 25.2419 33.924C25.7116 33.4543 26.3329 33.1968 26.9995 33.1968C27.651 33.1968 28.2874 33.4543 28.7419 33.9089C29.5298 34.7271 29.6813 35.8634 29.1662 36.9695ZM34.3177 62.3483L28.651 62.424L28.5753 56.7574H34.242L34.3177 62.3483ZM81.6813 62.3483L76.0147 62.424L75.9389 56.7574H81.6056L81.6813 62.3483ZM52.2874 38.5604L52.2571 36.6513C52.2874 36.5149 52.2874 36.3786 52.2723 36.2271V36.2119C52.2723 36.1664 52.3026 36.1361 52.3026 36.0907C52.3026 36.0149 52.2723 35.9543 52.2571 35.8937L52.2116 32.9089H57.8783L57.9238 35.8937C57.9086 35.9695 57.8783 36.0301 57.8783 36.1058C57.8783 36.1513 57.8935 36.1816 57.9086 36.2271V36.2422C57.8783 36.4392 57.8935 36.621 57.9389 36.7877L57.9692 38.4998L52.2874 38.5604ZM85.3329 36.9695C85.151 37.3331 84.848 37.6513 84.4844 37.8331C83.1662 38.4998 82.0298 38.0755 81.4086 37.424C80.9389 36.9695 80.6813 36.3483 80.6813 35.6816C80.6813 35.0301 80.9389 34.4089 81.4086 33.924C81.8783 33.4543 82.4995 33.1968 83.1662 33.1968C83.8177 33.1968 84.4541 33.4543 84.9086 33.9089C85.6965 34.7271 85.848 35.8634 85.3329 36.9695Z" fill="#FC5B15"/>
</svg>
