<svg width="100" height="100" viewBox="0 0 100 100" fill="none" xmlns="http://www.w3.org/2000/svg">
<path d="M41.6663 93.3333H24.9997C24.0793 93.3333 23.333 92.5871 23.333 91.6667C23.333 90.7463 24.0793 90 24.9997 90H41.6663C42.5868 90 43.333 90.7463 43.333 91.6667C43.333 92.5871 42.5868 93.3333 41.6663 93.3333Z" fill="#FC5B15"/>
<path d="M63.3337 83.3333H11.667C10.7466 83.3333 10.0003 84.0796 10.0003 85C10.0003 85.9204 10.7466 86.6667 11.667 86.6667H61.667V91.6667C61.667 94.4279 59.4282 96.6667 56.667 96.6667H10.0003C7.2391 96.6667 5.00033 94.4279 5.00033 91.6667V8.33333C5.00033 5.5721 7.2391 3.33333 10.0003 3.33333H56.667C58.446 3.33252 60.089 4.28711 60.9688 5.83333C61.4513 6.57715 62.4328 6.81315 63.201 6.36881C63.9692 5.92448 64.2541 4.95687 63.8504 4.16667C62.3636 1.60238 59.6309 0.0170898 56.667 0H10.0003C5.3999 0.00569662 1.67269 3.73291 1.66699 8.33333V91.6667C1.67269 96.2671 5.3999 99.9943 10.0003 100H56.667C61.2674 99.9943 64.9946 96.2671 65.0003 91.6667V85C65.0003 84.0796 64.2541 83.3333 63.3337 83.3333Z" fill="#050B1B"/>
<path d="M15.0003 8.33329C15.0003 9.2537 14.2541 9.99996 13.3337 9.99996C12.4132 9.99996 11.667 9.2537 11.667 8.33329C11.667 7.41288 12.4132 6.66663 13.3337 6.66663C14.2541 6.66663 15.0003 7.41288 15.0003 8.33329Z" fill="#FC5B15"/>
<path d="M21.6663 8.33329C21.6663 9.2537 20.9201 9.99996 19.9997 9.99996C19.0793 9.99996 18.333 9.2537 18.333 8.33329C18.333 7.41288 19.0793 6.66663 19.9997 6.66663C20.9201 6.66663 21.6663 7.41288 21.6663 8.33329Z" fill="#FC5B15"/>
<path d="M23.3333 23.3333C23.3333 21.4925 21.8408 20 20 20H13.3333C11.4925 20 10 21.4925 10 23.3333V30C10 31.8408 11.4925 33.3333 13.3333 33.3333H20C21.8408 33.3333 23.3333 31.8408 23.3333 30V23.3333ZM13.3333 30V23.3333H20V30H13.3333Z" fill="#050B1B"/>
<path d="M23.3333 43.3333C23.3333 41.4925 21.8408 40 20 40H13.3333C11.4925 40 10 41.4925 10 43.3333V50C10 51.8408 11.4925 53.3333 13.3333 53.3333H20C21.8408 53.3333 23.3333 51.8408 23.3333 50V43.3333ZM13.3333 50V43.3333H20V50H13.3333Z" fill="#050B1B"/>
<path d="M20 60H13.3333C11.4925 60 10 61.4925 10 63.3333V70C10 71.8408 11.4925 73.3333 13.3333 73.3333H20C21.8408 73.3333 23.3333 71.8408 23.3333 70V63.3333C23.3333 61.4925 21.8408 60 20 60ZM13.3333 70V63.3333H20V70H13.3333Z" fill="#050B1B"/>
<path d="M40 23.3333C40.9204 23.3333 41.6667 22.5871 41.6667 21.6667C41.6667 20.7463 40.9204 20 40 20H33.3333C31.4925 20 30 21.4925 30 23.3333V30C30 31.8408 31.4925 33.3333 33.3333 33.3333H40C40.9204 33.3333 41.6667 32.5871 41.6667 31.6667C41.6667 30.7463 40.9204 30 40 30H33.3333V23.3333H40Z" fill="#050B1B"/>
<path d="M43.3333 43.3333C43.3333 41.4925 41.8408 40 40 40H33.3333C31.4925 40 30 41.4925 30 43.3333V50C30 50.9204 30.7463 51.6667 31.6667 51.6667C32.5871 51.6667 33.3333 50.9204 33.3333 50V43.3333H40V50C40 50.9204 40.7463 51.6667 41.6667 51.6667C42.5871 51.6667 43.3333 50.9204 43.3333 50V43.3333Z" fill="#050B1B"/>
<path d="M40 60H33.3333C31.4925 60 30 61.4925 30 63.3333V70C30 71.8408 31.4925 73.3333 33.3333 73.3333H40C41.8408 73.3333 43.3333 71.8408 43.3333 70V63.3333C43.3333 61.4925 41.8408 60 40 60ZM33.3333 70V63.3333H40V70H33.3333Z" fill="#050B1B"/>
<path d="M89.9997 10V6.66671C89.9997 4.82589 88.5072 3.33337 86.6663 3.33337H79.9997C78.1589 3.33337 76.6663 4.82589 76.6663 6.66671V10H56.6663C52.0659 10.0057 48.3387 13.733 48.333 18.3334V68.3334C48.333 69.2538 49.0793 70 49.9997 70C50.9201 70 51.6663 69.2538 51.6663 68.3334V18.3334C51.6663 15.5721 53.9051 13.3334 56.6663 13.3334H89.9997C92.7609 13.3334 94.9997 15.5721 94.9997 18.3334V71.6667C94.9997 74.4279 92.7609 76.6667 89.9997 76.6667H56.6663C55.7459 76.6667 54.9997 77.413 54.9997 78.3334C54.9997 79.2538 55.7459 80 56.6663 80H86.6663V87.6433L84.5114 85.4883C83.8604 84.8381 82.8057 84.8381 82.1546 85.4883L79.9997 87.6433V85C79.9997 84.0796 79.2534 83.3334 78.333 83.3334C77.4126 83.3334 76.6663 84.0796 76.6663 85V91.6667C76.6663 92.3405 77.0724 92.9484 77.695 93.2064C78.3175 93.4644 79.0345 93.3212 79.5114 92.8451L83.333 89.0235L87.1546 92.8451C87.4671 93.1576 87.8911 93.3334 88.333 93.3334C88.5519 93.3342 88.7692 93.2911 88.971 93.2064C89.5936 92.9484 89.9997 92.3405 89.9997 91.6667V80C94.6001 79.9943 98.3273 76.2671 98.333 71.6667V18.3334C98.3273 13.733 94.6001 10.0057 89.9997 10ZM79.9997 10V6.66671H86.6663V10H79.9997Z" fill="#FC5B15"/>
<path d="M76.667 25C77.5874 25 78.3337 24.2537 78.3337 23.3333C78.3337 22.4129 77.5874 21.6666 76.667 21.6666H63.3337C62.4132 21.6666 61.667 22.4129 61.667 23.3333C61.667 24.2537 62.4132 25 63.3337 25H76.667Z" fill="#FC5B15"/>
<path d="M55 31.6667C55 32.5871 55.7463 33.3333 56.6667 33.3333H81.6667C82.5871 33.3333 83.3333 32.5871 83.3333 31.6667C83.3333 30.7463 82.5871 30 81.6667 30H56.6667C55.7463 30 55 30.7463 55 31.6667Z" fill="#FC5B15"/>
<path d="M56.6667 43.3333H80C80.9204 43.3333 81.6667 42.5871 81.6667 41.6667C81.6667 40.7463 80.9204 40 80 40H56.6667C55.7463 40 55 40.7463 55 41.6667C55 42.5871 55.7463 43.3333 56.6667 43.3333Z" fill="#FC5B15"/>
<path d="M88.3337 51.6667C88.3337 50.7463 87.5874 50 86.667 50H58.3337C57.4132 50 56.667 50.7463 56.667 51.6667C56.667 52.5871 57.4132 53.3333 58.3337 53.3333H86.667C87.5874 53.3333 88.3337 52.5871 88.3337 51.6667Z" fill="#FC5B15"/>
<path d="M68.3337 58.3334C67.4132 58.3334 66.667 59.0796 66.667 60C66.667 60.9205 67.4132 61.6667 68.3337 61.6667H85.0003C85.9207 61.6667 86.667 60.9205 86.667 60C86.667 59.0796 85.9207 58.3334 85.0003 58.3334H68.3337Z" fill="#FC5B15"/>
<path d="M56.6667 70H85C85.9204 70 86.6667 69.2537 86.6667 68.3333C86.6667 67.4129 85.9204 66.6667 85 66.6667H56.6667C55.7463 66.6667 55 67.4129 55 68.3333C55 69.2537 55.7463 70 56.6667 70Z" fill="#FC5B15"/>
</svg>
