<svg width="100" height="100" viewBox="0 0 100 100" fill="none" xmlns="http://www.w3.org/2000/svg">
<path d="M87.5 37.5H31.25C26.0803 37.5 21.875 41.7053 21.875 46.875V85.9375C21.875 91.1072 26.0803 95.3125 31.25 95.3125H87.5C92.6697 95.3125 96.875 91.1072 96.875 85.9375V46.875C96.875 41.7053 92.6697 37.5 87.5 37.5ZM93.75 85.9375C93.75 89.3837 90.9462 92.1875 87.5 92.1875H31.25C27.8038 92.1875 25 89.3837 25 85.9375V46.875C25 43.4288 27.8038 40.625 31.25 40.625H87.5C90.9462 40.625 93.75 43.4288 93.75 46.875V85.9375Z" fill="white"/>
<path d="M35.9375 73.4375H64.0625C67.5087 73.4375 70.3125 70.6337 70.3125 67.1875V51.5625C70.3125 48.1163 67.5087 45.3125 64.0625 45.3125H35.9375C32.4913 45.3125 29.6875 48.1163 29.6875 51.5625V67.1875C29.6875 70.6337 32.4913 73.4375 35.9375 73.4375ZM32.8125 51.5625C32.8125 49.839 34.214 48.4375 35.9375 48.4375H64.0625C65.786 48.4375 67.1875 49.839 67.1875 51.5625V67.1875C67.1875 68.911 65.786 70.3125 64.0625 70.3125H35.9375C34.214 70.3125 32.8125 68.911 32.8125 67.1875V51.5625Z" fill="white"/>
<path d="M79.6876 51.5625H89.0625C91.1135 51.5285 91.1183 48.4724 89.0625 48.4375H79.6875C77.6365 48.4715 77.6317 51.5275 79.6876 51.5625Z" fill="white"/>
<path d="M76.5625 57.8125H89.0624C91.1124 57.7787 91.119 54.7225 89.0624 54.6875H76.5624C74.5124 54.7213 74.5058 57.7774 76.5625 57.8125Z" fill="white"/>
<path d="M74.9999 64.0625H89.0624C91.112 64.0288 91.1194 60.9726 89.0624 60.9375H74.9999C72.9494 60.9714 72.9438 64.0275 74.9999 64.0625Z" fill="white"/>
<path d="M89.0625 67.1875H79.6875C77.6365 67.2215 77.6317 70.2775 79.6876 70.3125H89.0625C91.1135 70.2785 91.1183 67.2224 89.0625 67.1875Z" fill="white"/>
<path d="M56.25 76.5625H32.8125C31.089 76.5625 29.6875 77.964 29.6875 79.6875V85.9375C29.6875 87.661 31.089 89.0625 32.8125 89.0625H56.25C57.9735 89.0625 59.375 87.661 59.375 85.9375V79.6875C59.375 77.964 57.9735 76.5625 56.25 76.5625ZM56.25 85.9375L32.8125 85.9398V79.6875H56.25V85.9375Z" fill="white"/>
<path d="M87.5 76.5625H65.625C63.9015 76.5625 62.5 77.964 62.5 79.6875V85.9375C62.5 87.661 63.9015 89.0625 65.625 89.0625H87.5C89.2235 89.0625 90.625 87.661 90.625 85.9375V79.6875C90.625 77.964 89.2235 76.5625 87.5 76.5625ZM87.5 85.9375L65.625 85.9398V79.6875H87.5V85.9375Z" fill="white"/>
<path d="M12.5 73.4375H18.75C19.6129 73.4375 20.3125 72.7379 20.3125 71.875C20.3125 71.0121 19.6129 70.3125 18.75 70.3125H12.5C9.0538 70.3125 6.25 67.5087 6.25 64.0625V21.875H79.6875C80.5504 21.875 81.25 21.1754 81.25 20.3125C81.25 19.4496 80.5504 18.75 79.6875 18.75H52.7827L52.108 16.0507C51.5854 13.9603 49.7154 12.5 47.5601 12.5H43.0649C40.4882 12.4631 38.6149 14.5447 38.2813 16.9939C37.9461 14.5446 36.0756 12.4631 33.4975 12.5H29.0024C26.4257 12.4631 24.5524 14.5448 24.2188 16.9939C23.8837 14.5446 22.0131 12.4631 19.4351 12.5H14.9399C12.7846 12.5 10.9147 13.9603 10.392 16.0507L9.71733 18.75H6.25005V14.0625C6.25005 10.6163 9.05384 7.8125 12.5 7.8125H78.125C81.5713 7.8125 84.375 10.6163 84.375 14.0625V34.375C84.3895 36.414 87.4752 36.4356 87.5 34.3749V14.0625C87.5 8.89283 83.2947 4.6875 78.125 4.6875H12.5C7.33033 4.6875 3.125 8.89283 3.125 14.0625V64.0625C3.125 69.2322 7.33033 73.4375 12.5 73.4375ZM41.5489 16.8091C41.7229 16.1117 42.3462 15.625 43.0649 15.625H47.5601C49.1893 15.5941 49.2171 17.629 49.5613 18.75H41.0637L41.5489 16.8091ZM27.4864 16.8091C27.6604 16.1117 28.2837 15.625 29.0024 15.625H33.4976C35.1268 15.5941 35.1546 17.629 35.4988 18.75H27.0012L27.4864 16.8091ZM13.4239 16.8091C13.5979 16.1117 14.2212 15.625 14.9399 15.625H19.4351C21.0643 15.5941 21.0921 17.629 21.4363 18.75H12.9387L13.4239 16.8091Z" fill="#FC5B15"/>
<path d="M35.9372 28.125C37.9849 28.0919 37.9957 25.0353 35.9371 25H10.9372C8.89124 25.0325 8.87723 28.0895 10.9372 28.125H35.9372Z" fill="#FC5B15"/>
<path d="M51.5625 32.8125C51.5625 31.9496 50.8629 31.25 50 31.25H10.9375C10.0746 31.25 9.375 31.9496 9.375 32.8125C9.375 33.6754 10.0746 34.375 10.9375 34.375H50C50.8629 34.375 51.5625 33.6754 51.5625 32.8125Z" fill="#FC5B15"/>
<path d="M23.4375 39.0625C23.4375 38.1996 22.7379 37.5 21.875 37.5H10.9375C10.0746 37.5 9.375 38.1996 9.375 39.0625C9.375 39.9254 10.0746 40.625 10.9375 40.625H21.875C22.7379 40.625 23.4375 39.9254 23.4375 39.0625Z" fill="#FC5B15"/>
<path d="M18.75 43.75H10.9375C8.88605 43.7841 8.88214 46.8401 10.9376 46.875H18.75C20.8015 46.8408 20.8054 43.7849 18.75 43.75Z" fill="#FC5B15"/>
<path d="M10.9375 50C8.88605 50.0341 8.88214 53.0901 10.9376 53.125H18.75C20.8015 53.0908 20.8054 50.0349 18.75 50H10.9375Z" fill="#FC5B15"/>
</svg>
