<svg width="100" height="100" viewBox="0 0 100 100" fill="none" xmlns="http://www.w3.org/2000/svg">
<path d="M34.1797 15.625C35.7977 15.625 37.1094 14.3133 37.1094 12.6953C37.1094 11.0773 35.7977 9.76562 34.1797 9.76562C32.5617 9.76562 31.25 11.0773 31.25 12.6953C31.25 14.3133 32.5617 15.625 34.1797 15.625Z" fill="white"/>
<path d="M90.8203 82.0312C92.4383 82.0312 93.75 80.7196 93.75 79.1016C93.75 77.4835 92.4383 76.1719 90.8203 76.1719C89.2023 76.1719 87.8906 77.4835 87.8906 79.1016C87.8906 80.7196 89.2023 82.0312 90.8203 82.0312Z" fill="#FC5B15"/>
<path d="M9.76562 15.625C10.8443 15.625 11.7188 14.7506 11.7188 13.6719C11.7188 12.5932 10.8443 11.7188 9.76562 11.7188C8.68694 11.7188 7.8125 12.5932 7.8125 13.6719C7.8125 14.7506 8.68694 15.625 9.76562 15.625Z" fill="white"/>
<path d="M48.8281 23.4375C49.9068 23.4375 50.7812 22.5631 50.7812 21.4844C50.7812 20.4057 49.9068 19.5312 48.8281 19.5312C47.7494 19.5312 46.875 20.4057 46.875 21.4844C46.875 22.5631 47.7494 23.4375 48.8281 23.4375Z" fill="white"/>
<path d="M52.7344 80.0781C53.8131 80.0781 54.6875 79.2037 54.6875 78.125C54.6875 77.0463 53.8131 76.1719 52.7344 76.1719C51.6557 76.1719 50.7812 77.0463 50.7812 78.125C50.7812 79.2037 51.6557 80.0781 52.7344 80.0781Z" fill="#FC5B15"/>
<path d="M74.2188 95.7031C75.2974 95.7031 76.1719 94.8287 76.1719 93.75C76.1719 92.6713 75.2974 91.7969 74.2188 91.7969C73.1401 91.7969 72.2656 92.6713 72.2656 93.75C72.2656 94.8287 73.1401 95.7031 74.2188 95.7031Z" fill="#FC5B15"/>
<path d="M33.8086 97.6562H11.1133C6.07422 97.6562 1.95312 93.5352 1.95312 88.4961V40.4102C1.95312 35.3516 6.07422 31.25 11.1133 31.25H33.7891C38.8477 31.25 42.9492 35.3711 42.9492 40.4102V88.4766C42.9688 93.5352 38.8477 97.6562 33.8086 97.6562ZM11.1133 35.1562C8.22266 35.1562 5.85938 37.5195 5.85938 40.4102V88.4766C5.85938 91.3867 8.22266 93.7305 11.1133 93.7305H33.7891C36.6992 93.7305 39.043 91.3672 39.043 88.4766V40.4102C39.043 37.5 36.6797 35.1562 33.7891 35.1562H11.1133Z" fill="white"/>
<path d="M41.0156 46.875H3.90625C2.83203 46.875 1.95312 45.9961 1.95312 44.9219C1.95312 43.8477 2.83203 42.9688 3.90625 42.9688H41.0156C42.0898 42.9688 42.9688 43.8477 42.9688 44.9219C42.9688 45.9961 42.0898 46.875 41.0156 46.875Z" fill="white"/>
<path d="M41.0156 85.9375H3.90625C2.83203 85.9375 1.95312 85.0586 1.95312 83.9844C1.95312 82.9102 2.83203 82.0312 3.90625 82.0312H41.0156C42.0898 82.0312 42.9688 82.9102 42.9688 83.9844C42.9688 85.0586 42.0898 85.9375 41.0156 85.9375Z" fill="white"/>
<path d="M88.4961 68.3594H65.8008C60.7422 68.3594 56.6406 64.2383 56.6406 59.1992V11.1133C56.6406 6.05469 60.7617 1.95312 65.8008 1.95312H88.4766C93.5352 1.95312 97.6367 6.07422 97.6367 11.1133V59.1797C97.6562 64.2383 93.5352 68.3594 88.4961 68.3594ZM65.8008 5.85938C62.9102 5.85938 60.5469 8.22266 60.5469 11.1133V59.1797C60.5469 62.0898 62.9102 64.4336 65.8008 64.4336H88.4766C91.3867 64.4336 93.7305 62.0703 93.7305 59.1797V11.1133C93.7305 8.20313 91.3672 5.85938 88.4766 5.85938H65.8008Z" fill="#FC5B15"/>
<path d="M95.7031 17.5781H58.5938C57.5195 17.5781 56.6406 16.6992 56.6406 15.625C56.6406 14.5508 57.5195 13.6719 58.5938 13.6719H95.7031C96.7773 13.6719 97.6562 14.5508 97.6562 15.625C97.6562 16.6992 96.7773 17.5781 95.7031 17.5781Z" fill="#FC5B15"/>
<path d="M95.7031 56.6406H58.5938C57.5195 56.6406 56.6406 55.7617 56.6406 54.6875C56.6406 53.6133 57.5195 52.7344 58.5938 52.7344H95.7031C96.7773 52.7344 97.6562 53.6133 97.6562 54.6875C97.6562 55.7617 96.7773 56.6406 95.7031 56.6406Z" fill="#FC5B15"/>
<path d="M42.3438 68.3594H27.3438C26.2695 68.3594 25.3906 67.4805 25.3906 66.4062C25.3906 65.332 26.2695 64.4531 27.3438 64.4531H42.3438C44.8438 64.4531 46.875 62.4219 46.875 59.9219V43.6133C46.875 38.9648 50.6641 35.1758 55.3125 35.1758H80.0781C81.1523 35.1758 82.0312 36.0547 82.0312 37.1289C82.0312 38.2031 81.1523 39.082 80.0781 39.082H55.3125C52.8125 39.082 50.7812 41.1133 50.7812 43.6133V59.9219C50.7812 64.5703 46.9922 68.3594 42.3438 68.3594Z" fill="#FC5B15"/>
<path d="M74.7852 42.4023C74.0234 41.6406 74.0234 40.4102 74.7852 39.6484L77.3047 37.1289L74.7852 34.6094C74.0234 33.8477 74.0234 32.6172 74.7852 31.8555C75.5469 31.0938 76.7773 31.0938 77.5391 31.8555L81.4453 35.7617C82.207 36.5234 82.207 37.7539 81.4453 38.5156L77.5391 42.4219C76.7969 43.1641 75.5469 43.1641 74.7852 42.4023Z" fill="#FC5B15"/>
<path d="M21.4844 74.2188C17.168 74.2188 13.6719 70.7227 13.6719 66.4062C13.6719 62.0898 17.168 58.5938 21.4844 58.5938C25.8008 58.5938 29.2969 62.0898 29.2969 66.4062C29.2969 70.7227 25.8008 74.2188 21.4844 74.2188ZM21.4844 62.5C19.3359 62.5 17.5781 64.2578 17.5781 66.4062C17.5781 68.5547 19.3359 70.3125 21.4844 70.3125C23.6328 70.3125 25.3906 68.5547 25.3906 66.4062C25.3906 64.2578 23.6328 62.5 21.4844 62.5Z" fill="white"/>
</svg>
