<svg width="100" height="100" viewBox="0 0 100 100" fill="none" xmlns="http://www.w3.org/2000/svg">
<path d="M96.0755 12.9242C94.4695 11.303 92.2422 10.4394 89.9543 10.5606C87.6664 10.6818 85.5452 11.7727 84.121 13.5454L64.5907 37.1818C60.818 36.3636 57.4846 38.0454 55.1513 42.0606C54.3028 43.5151 53.7271 45.2121 53.4392 47.106C52.9695 50.1212 52.0301 52.7273 50.5452 55.0606C50.3028 55.4545 50.2725 55.9394 50.4846 56.3485C50.6967 56.7576 51.121 57.0151 51.5755 57.0303C52.2271 57.0606 52.8786 57.0606 53.4998 57.0606C61.0452 57.0606 66.318 55.2727 69.1664 51.7576C71.3786 49.0151 71.4998 46 71.3483 44.3636L95.318 24.8788C97.1058 23.4697 98.2119 21.3485 98.3634 19.0757C98.5301 16.7879 97.6816 14.5454 96.0755 12.9242ZM70.3937 34.2121L74.6058 38.4242L70.2725 41.9394L66.8483 38.5L70.3937 34.2121ZM67.1513 50.1667C64.8786 52.9545 60.2877 54.4394 53.818 54.4848C54.8786 52.3636 55.5907 50.0606 55.9846 47.4848C56.2271 45.9091 56.6967 44.5151 57.3786 43.3485C58.8634 40.803 60.6816 39.5303 62.8028 39.5303C63.318 39.5303 63.8634 39.606 64.424 39.7576L68.7574 44.1212C68.9089 45.0454 69.121 47.7727 67.1513 50.1667ZM93.7422 22.8636L93.7271 22.8788L76.6058 36.803L72.0301 32.2273L86.121 15.1818C87.0907 13.9697 88.5301 13.2273 90.0907 13.1363C91.6513 13.0454 93.1513 13.6363 94.2422 14.7424C95.3331 15.8485 95.9089 17.3636 95.818 18.9091C95.7271 20.4545 94.9695 21.8939 93.7422 22.8636Z" fill="#FC5B15"/>
<path d="M43.2578 71.2274C44.0695 71.2274 44.7275 70.5694 44.7275 69.7578C44.7275 68.9461 44.0695 68.2881 43.2578 68.2881C42.4461 68.2881 41.7881 68.9461 41.7881 69.7578C41.7881 70.5694 42.4461 71.2274 43.2578 71.2274Z" fill="#FC5B15"/>
<path d="M28.0753 19.6364C28.0753 18.9242 27.4996 18.3485 26.7874 18.3485H10.242C9.52986 18.3485 8.9541 18.9242 8.9541 19.6364V32.6212C8.9541 33.3333 9.52986 33.9091 10.242 33.9091H26.7874C27.4996 33.9091 28.0753 33.3333 28.0753 32.6212V19.6364ZM25.4996 31.3182H11.5299V20.9091H25.4996V31.3182Z" fill="#FC5B15"/>
<path d="M28.0753 38.9851C28.0753 38.273 27.4996 37.6972 26.7874 37.6972H10.242C9.52986 37.6972 8.9541 38.273 8.9541 38.9851C8.9541 39.6972 9.52986 40.273 10.242 40.273H26.7874C27.4996 40.273 28.0753 39.6972 28.0753 38.9851Z" fill="#FC5B15"/>
<path d="M10.242 43.4848C9.52986 43.4848 8.9541 44.0606 8.9541 44.7727C8.9541 45.4848 9.52986 46.0606 10.242 46.0606H21.8632C22.5753 46.0606 23.1511 45.4848 23.1511 44.7727C23.1511 44.0606 22.5753 43.4848 21.8632 43.4848H10.242Z" fill="#FC5B15"/>
<path d="M50.4396 38.9851C50.4396 38.273 49.8638 37.6972 49.1517 37.6972H32.6062C31.8941 37.6972 31.3184 38.273 31.3184 38.9851C31.3184 39.6972 31.8941 40.273 32.6062 40.273H49.1517C49.8638 40.273 50.4396 39.6972 50.4396 38.9851Z" fill="#FC5B15"/>
<path d="M32.6062 43.4848C31.8941 43.4848 31.3184 44.0606 31.3184 44.7727C31.3184 45.4848 31.8941 46.0606 32.6062 46.0606H44.2275C44.9396 46.0606 45.5153 45.4848 45.5153 44.7727C45.5153 44.0606 44.9396 43.4848 44.2275 43.4848H32.6062Z" fill="#FC5B15"/>
<path d="M50.4396 19.6364C50.4396 18.9242 49.8638 18.3485 49.1517 18.3485H32.6062C31.8941 18.3485 31.3184 18.9242 31.3184 19.6364V32.6212C31.3184 33.3333 31.8941 33.9091 32.6062 33.9091H49.1517C49.8638 33.9091 50.4396 33.3333 50.4396 32.6212V19.6364ZM47.8638 31.3182H33.8941V20.9091H47.8638V31.3182Z" fill="#FC5B15"/>
<path d="M84.9242 40.3182C84.9242 39.606 84.3484 39.0303 83.6363 39.0303C82.9242 39.0303 82.3484 39.606 82.3484 40.3182V63.1515H4.16658V18.1515C4.16658 15.3485 6.43931 13.0606 9.24234 13.0606H77.2575C77.7726 13.0606 78.3029 13.1515 78.8939 13.3636C79.5605 13.5909 80.3029 13.2273 80.5302 12.5606C80.7575 11.8939 80.3939 11.1515 79.7272 10.9242C78.8636 10.6363 78.0605 10.4848 77.2575 10.4848H9.24234C5.03021 10.4848 1.59082 13.9242 1.59082 18.1515V64.4394V68.6667C1.59082 72.8939 5.03021 76.3333 9.24234 76.3333H33.0454L31.0757 81.0303H25.4242C23.0908 81.0303 21.1969 82.9242 21.1969 85.2576C21.1969 87.5909 23.0908 89.4848 25.4242 89.4848H61.106C63.4393 89.4848 65.3332 87.5909 65.3332 85.2576C65.3332 82.9242 63.4393 81.0303 61.106 81.0303H55.4545L53.4848 76.3333H77.2726C81.4848 76.3333 84.9242 72.9091 84.9242 68.6969V64.4394V40.3182ZM62.7575 85.2727C62.7575 86.1818 62.0151 86.9242 61.106 86.9242H25.4242C24.5151 86.9242 23.7726 86.1818 23.7726 85.2727C23.7726 84.3636 24.5151 83.6212 25.4242 83.6212H61.106C62.0151 83.6212 62.7575 84.3636 62.7575 85.2727ZM52.6514 81.0454H33.8636L35.8332 76.3485H50.6817L52.6514 81.0454ZM82.3484 68.7121C82.3484 71.5 80.0757 73.7727 77.2726 73.7727H9.24234C6.43931 73.7727 4.16658 71.4848 4.16658 68.6818V65.7424H82.3484V68.7121Z" fill="white"/>
</svg>
