<svg width="20" height="20" viewBox="0 0 20 20" fill="none" xmlns="http://www.w3.org/2000/svg">
<path fill-rule="evenodd" clip-rule="evenodd" d="M7.75924 3.34846C8.1515 3.27292 8.54216 3.48637 8.69058 3.85727C8.76766 4.05007 8.8485 4.25624 8.93341 4.47294C9.30783 5.42813 9.76241 6.58779 10.3342 7.70823C10.8269 6.00797 12.3013 4.37509 14.6877 4.37509C17.1337 4.37509 19.1668 6.40826 19.1668 8.85426C19.1668 11.3003 17.1337 13.3334 14.6877 13.3334C13.3059 13.3334 12.1666 12.7179 11.2348 11.8441C11.1522 12.2838 11.0677 12.7334 10.985 13.1736C10.8054 14.1288 10.6337 14.8865 10.5069 15.5596L10.2982 16.6667L8.66041 16.358L8.86908 15.251C8.99591 14.5781 9.1675 13.8206 9.34708 12.8657C9.5185 11.9536 9.697 11.0032 9.85033 10.1837C9.75325 10.0397 9.65975 9.89459 9.56966 9.74934C9.27266 9.27084 9 8.76934 8.75016 8.267V9.37509C8.75016 11.5374 6.95415 13.3334 4.79183 13.3334C2.6295 13.3334 0.833496 11.5374 0.833496 9.37509V4.16676H2.50016V9.37509C2.50016 10.6169 3.54998 11.6668 4.79183 11.6668C6.03368 11.6668 7.0835 10.6169 7.0835 9.37509V4.16676C7.0835 3.76729 7.36697 3.424 7.75924 3.34846ZM11.6195 9.78976C12.526 10.9613 13.5392 11.6668 14.6877 11.6668C16.2132 11.6668 17.5002 10.3798 17.5002 8.85426C17.5002 7.32874 16.2132 6.04176 14.6877 6.04176C13.0736 6.04176 12.0923 7.21523 11.8617 8.48259C11.8137 8.74659 11.7275 9.21093 11.6195 9.78976Z" fill="white"/>
</svg>
