<svg width="216" height="52" viewBox="0 0 216 52" fill="none" xmlns="http://www.w3.org/2000/svg">
<path d="M45.4527 4.97954C42.2217 1.76291 37.9244 -0.009155 33.3547 -0.009155C28.7845 -0.00996367 24.4881 1.76264 21.256 4.98035C18.7306 7.49451 17.0911 10.657 16.496 14.0922C16.4353 14.4391 16.386 14.7882 16.3484 15.1402C16.3099 15.4858 16.2826 15.8349 16.2658 16.1853C16.2517 16.4638 16.245 16.7438 16.245 17.0247L16.2458 19.3405V20.3826L16.245 21.4255L16.2441 34.0583L28.9351 34.0575H29.9819H31.0286C31.0462 33.774 31.0552 33.4871 31.056 33.1985V30.9099L30.0114 30.9091H19.4075L19.4083 21.3924V19.3138L19.4075 17.0245C19.4083 16.7355 19.4172 16.449 19.4348 16.1654C19.4562 15.8147 19.4909 15.4686 19.5388 15.1254C19.5867 14.7734 19.6487 14.4265 19.7243 14.0855C20.2986 11.4338 21.6377 9.06307 23.4973 7.21175C26.0227 4.69732 29.5094 3.14009 33.3547 3.13955C41.0449 3.14036 47.3012 9.36875 47.302 17.0247C47.3012 20.853 45.737 24.3241 43.2116 26.8382C41.352 28.6896 38.9704 30.0228 36.3071 30.5945V30.8824L36.3063 33.1982C36.3063 33.4025 36.3033 33.6068 36.2974 33.8082C39.748 33.216 42.9265 31.5843 45.4527 29.0694C48.6848 25.8519 50.4645 21.5738 50.4645 17.0245C50.4645 12.4754 48.6848 8.19725 45.4527 4.97954Z" fill="#FC5B15"/>
<path d="M19.4094 19.3139H20.4532H21.497L31.0562 19.3134L31.057 28.8315V29.8706V30.9097V33.1983C31.0562 33.487 31.0473 33.7738 31.0297 34.0574C31.0083 34.4081 30.9742 34.7547 30.9257 35.0973C30.8783 35.4486 30.8171 35.7947 30.7419 36.1359C30.1662 38.7876 28.827 41.1599 26.9674 43.0113C24.442 45.5254 20.9552 47.0827 17.1101 47.0835C9.42011 47.0827 3.1636 40.8543 3.16279 33.1983C3.1636 29.37 4.7278 25.8989 7.2532 23.3848C9.1128 21.5335 11.495 20.201 14.1585 19.6277V17.0246C14.1585 16.8186 14.1614 16.6143 14.1679 16.4137C10.7176 17.0046 7.53885 18.6376 5.01182 21.1531C1.77973 24.3708 -0.000812011 28.6482 2.77804e-07 33.198C2.77804e-07 37.7473 1.78 42.0255 5.01101 45.2421C8.24284 48.4596 12.5401 50.2316 17.1098 50.2316C21.6794 50.2316 25.9767 48.4596 29.2085 45.2421C32.2403 42.2236 33.9946 38.2714 34.199 34.0372C34.2055 33.9013 34.2109 33.7654 34.2144 33.6293C34.216 33.5557 34.2174 33.4824 34.2182 33.408C34.219 33.3382 34.2196 33.2684 34.2196 33.1978L34.219 33.1969V30.882L34.2196 16.1633L21.5289 16.1641L20.4829 16.1647H19.4362C19.4186 16.4482 19.4096 16.7348 19.4088 17.0238L19.4094 19.3139Z" fill="#FC5B15"/>
<path d="M73.1627 40.9908V16.3423H65.0569V12.0413H85.9833V16.3423H77.6292V40.9908H73.1627ZM87.9519 40.9908V19.2787H92.253V26.1025L91.8394 24.4482C92.1427 23.4005 92.6528 22.4493 93.3696 21.5946C94.114 20.7399 94.9549 20.0644 95.8924 19.5682C96.8573 19.0719 97.8499 18.8237 98.87 18.8237C99.3387 18.8237 99.7799 18.8651 100.193 18.9478C100.635 19.0305 100.979 19.127 101.227 19.2373L100.111 23.8692C99.7799 23.7314 99.4077 23.6211 98.9941 23.5384C98.6081 23.4281 98.2221 23.373 97.8361 23.373C97.0917 23.373 96.3748 23.5246 95.6856 23.8279C95.0239 24.1036 94.4311 24.5034 93.9072 25.0272C93.411 25.5235 93.0112 26.1163 92.7079 26.8056C92.4046 27.4673 92.253 28.1979 92.253 28.9974V40.9908H87.9519ZM112.057 41.4044C110.265 41.4044 108.624 40.9081 107.136 39.9156C105.674 38.923 104.502 37.572 103.62 35.8626C102.738 34.1532 102.297 32.2233 102.297 30.0727C102.297 27.8946 102.738 25.9646 103.62 24.2828C104.53 22.5734 105.743 21.2362 107.26 20.2712C108.804 19.3062 110.527 18.8237 112.429 18.8237C113.56 18.8237 114.593 18.9892 115.531 19.32C116.468 19.6509 117.282 20.1196 117.971 20.7261C118.688 21.3051 119.267 21.9806 119.708 22.7526C120.177 23.5246 120.466 24.3517 120.576 25.234L119.625 24.9031V19.2787H123.926V40.9908H119.625V35.8213L120.618 35.5318C120.452 36.2762 120.108 37.0068 119.584 37.7237C119.088 38.413 118.44 39.0333 117.64 39.5847C116.868 40.1361 116 40.5773 115.035 40.9081C114.097 41.239 113.105 41.4044 112.057 41.4044ZM113.174 37.4755C114.469 37.4755 115.614 37.1585 116.606 36.5243C117.599 35.8902 118.371 35.0217 118.922 33.9189C119.501 32.7885 119.791 31.5064 119.791 30.0727C119.791 28.6666 119.501 27.4121 118.922 26.3093C118.371 25.2064 117.599 24.3379 116.606 23.7038C115.614 23.0697 114.469 22.7526 113.174 22.7526C111.905 22.7526 110.775 23.0697 109.782 23.7038C108.817 24.3379 108.045 25.2064 107.466 26.3093C106.915 27.4121 106.639 28.6666 106.639 30.0727C106.639 31.5064 106.915 32.7885 107.466 33.9189C108.045 35.0217 108.817 35.8902 109.782 36.5243C110.775 37.1585 111.905 37.4755 113.174 37.4755ZM129.874 40.9908V19.2787H134.134V23.7452L133.389 24.2414C133.665 23.2765 134.203 22.3942 135.002 21.5946C135.802 20.7675 136.753 20.1058 137.856 19.6095C138.959 19.0857 140.089 18.8237 141.247 18.8237C142.901 18.8237 144.28 19.1546 145.383 19.8163C146.485 20.4504 147.313 21.4292 147.864 22.7526C148.415 24.076 148.691 25.7441 148.691 27.7568V40.9908H144.431V28.0462C144.431 26.8056 144.266 25.7854 143.935 24.9859C143.604 24.1587 143.094 23.566 142.405 23.2075C141.716 22.8215 140.861 22.6561 139.841 22.7113C139.014 22.7113 138.255 22.8491 137.566 23.1248C136.877 23.373 136.27 23.7314 135.746 24.2001C135.25 24.6688 134.85 25.2202 134.547 25.8543C134.271 26.4609 134.134 27.1226 134.134 27.8395V40.9908H132.024C131.666 40.9908 131.308 40.9908 130.949 40.9908C130.591 40.9908 130.232 40.9908 129.874 40.9908ZM161.707 41.4044C159.887 41.4044 158.247 41.0873 156.786 40.4532C155.324 39.8191 154.111 38.8817 153.146 37.641L156.041 35.1596C156.868 36.1246 157.764 36.8276 158.729 37.2688C159.722 37.6823 160.839 37.8891 162.079 37.8891C162.576 37.8891 163.03 37.834 163.444 37.7237C163.885 37.5858 164.257 37.3928 164.561 37.1447C164.892 36.8965 165.14 36.6071 165.305 36.2762C165.471 35.9178 165.553 35.5318 165.553 35.1182C165.553 34.4014 165.291 33.8224 164.767 33.3812C164.492 33.1882 164.051 32.9815 163.444 32.7609C162.865 32.5128 162.107 32.2646 161.169 32.0165C159.57 31.6029 158.261 31.1342 157.241 30.6104C156.22 30.0865 155.435 29.4937 154.883 28.832C154.47 28.3082 154.166 27.743 153.973 27.1364C153.78 26.5023 153.684 25.813 153.684 25.0686C153.684 24.1587 153.877 23.3316 154.263 22.5872C154.676 21.8152 155.228 21.1535 155.917 20.6021C156.634 20.0231 157.461 19.5819 158.399 19.2787C159.364 18.9754 160.384 18.8237 161.459 18.8237C162.479 18.8237 163.485 18.9616 164.478 19.2373C165.498 19.513 166.436 19.9128 167.29 20.4366C168.145 20.9605 168.862 21.5808 169.441 22.2977L167.001 24.9859C166.477 24.462 165.898 24.0071 165.264 23.6211C164.657 23.2075 164.037 22.8905 163.403 22.6699C162.769 22.4493 162.19 22.339 161.666 22.339C161.087 22.339 160.563 22.3942 160.094 22.5045C159.625 22.6148 159.226 22.7802 158.895 23.0007C158.592 23.2213 158.357 23.497 158.192 23.8279C158.026 24.1587 157.944 24.5309 157.944 24.9445C157.971 25.3029 158.054 25.6476 158.192 25.9784C158.357 26.2817 158.578 26.5436 158.853 26.7642C159.157 26.9848 159.612 27.2191 160.218 27.4673C160.825 27.7154 161.597 27.9497 162.534 28.1703C163.913 28.5287 165.043 28.9285 165.925 29.3697C166.835 29.7832 167.552 30.2657 168.076 30.8171C168.627 31.341 169.013 31.9475 169.234 32.6368C169.455 33.3261 169.565 34.0981 169.565 34.9528C169.565 36.1935 169.206 37.3101 168.49 38.3027C167.8 39.2677 166.863 40.0259 165.677 40.5773C164.492 41.1287 163.168 41.4044 161.707 41.4044ZM174.342 40.9908V10.387H178.602V40.9908H174.342ZM185.342 40.9908V19.2787H189.602V40.9908H185.342ZM187.41 14.4813C186.5 14.4813 185.797 14.2469 185.301 13.7782C184.804 13.3095 184.556 12.6478 184.556 11.7931C184.556 10.9936 184.804 10.3456 185.301 9.84937C185.825 9.35309 186.528 9.10495 187.41 9.10495C188.32 9.10495 189.023 9.3393 189.519 9.80801C190.015 10.2767 190.263 10.9384 190.263 11.7931C190.263 12.5927 190.002 13.2406 189.478 13.7369C188.981 14.2332 188.292 14.4813 187.41 14.4813ZM205.372 41.4044C203.359 41.4044 201.553 40.9081 199.954 39.9156C198.383 38.923 197.128 37.572 196.191 35.8626C195.281 34.1532 194.826 32.237 194.826 30.1141C194.826 27.9911 195.281 26.0749 196.191 24.3655C197.128 22.6561 198.383 21.3051 199.954 20.3126C201.553 19.32 203.359 18.8237 205.372 18.8237C207.302 18.8237 209.053 19.2235 210.624 20.0231C212.223 20.7951 213.436 21.8566 214.263 23.2075L211.906 26.1025C211.465 25.4684 210.9 24.8894 210.211 24.3655C209.521 23.8417 208.791 23.4281 208.019 23.1248C207.247 22.8215 206.502 22.6699 205.785 22.6699C204.462 22.6699 203.276 23.0007 202.229 23.6625C201.209 24.2966 200.395 25.1789 199.789 26.3093C199.182 27.4397 198.879 28.708 198.879 30.1141C198.879 31.5202 199.196 32.7885 199.83 33.9189C200.464 35.0217 201.305 35.904 202.353 36.5657C203.401 37.2274 204.558 37.5583 205.827 37.5583C206.571 37.5583 207.288 37.4342 207.977 37.186C208.694 36.9379 209.383 36.5657 210.045 36.0694C210.707 35.5731 211.327 34.9666 211.906 34.2497L214.263 37.1447C213.381 38.3854 212.113 39.4055 210.459 40.2051C208.832 41.0046 207.136 41.4044 205.372 41.4044Z" fill="#231F20"/>
</svg>
