<svg width="166" height="166" viewBox="0 0 166 166" fill="none" xmlns="http://www.w3.org/2000/svg">
<g opacity="0.5" clip-path="url(#clip0_142_3306)">
<path d="M159.896 112.02C160.014 111.712 160.133 111.403 160.239 111.095L63.2291 2.41821C62.9094 2.50122 62.5897 2.57238 62.2699 2.65539L159.896 112.02Z" fill="#FC5B15"/>
<path d="M140.581 141.537C140.795 141.336 140.996 141.122 141.209 140.921L31.5042 18.0247C31.2792 18.2025 31.0542 18.3923 30.8173 18.5702L140.581 141.537Z" fill="#FC5B15"/>
<path d="M148.172 132.987C148.35 132.75 148.539 132.512 148.717 132.275L40.9188 11.5259C40.6583 11.68 40.4096 11.8342 40.149 11.9884L148.172 132.987Z" fill="#FC5B15"/>
<path d="M154.65 123.203C154.804 122.93 154.946 122.658 155.1 122.385L51.4463 6.26049C51.1621 6.37908 50.8779 6.49768 50.5937 6.61627L154.65 123.203Z" fill="#FC5B15"/>
<path d="M163.626 99.141C163.697 98.7852 163.768 98.4176 163.839 98.0618L76.5634 0.295406C76.1963 0.319125 75.8292 0.354702 75.4621 0.37842L163.626 99.141Z" fill="#FC5B15"/>
<path d="M163.342 64.7259C163.212 64.1329 163.069 63.54 162.927 62.947L111.308 5.11018C110.739 4.89672 110.171 4.69511 109.591 4.50537L163.342 64.7259Z" fill="#FC5B15"/>
<path d="M165.272 83.9498C165.284 83.511 165.284 83.0722 165.284 82.6453L92.0291 0.568435C91.6028 0.520999 91.1646 0.473562 90.7383 0.437985L165.272 83.9498Z" fill="#FC5B15"/>
<path d="M48.3673 157.606C49.0187 157.903 49.6581 158.188 50.3094 158.472L3.9241 106.506C4.12542 107.182 4.33857 107.858 4.56356 108.534L48.3673 157.606Z" fill="#FC5B15"/>
<path d="M99.3001 163.512C99.6316 163.441 99.9632 163.381 100.295 163.31L4.72939 56.2463C4.62281 56.5665 4.51623 56.8867 4.40965 57.2069L99.3001 163.512Z" fill="#FC5B15"/>
<path d="M131.949 148.925C132.185 148.748 132.422 148.582 132.647 148.404L23.132 25.6975C22.9307 25.911 22.7294 26.1244 22.528 26.3379L131.949 148.925Z" fill="#FC5B15"/>
<path d="M69.3277 164.046C69.7777 164.117 70.2396 164.2 70.6896 164.259L0.454323 85.574C0.466164 86.0365 0.489853 86.499 0.513542 86.9615L69.3277 164.046Z" fill="#FC5B15"/>
<path d="M85.5159 165.113C85.8948 165.101 86.2738 165.089 86.6527 165.066L1.44909 69.6118C1.38988 69.9913 1.33067 70.3589 1.2833 70.7384L85.5159 165.113Z" fill="#FC5B15"/>
<path d="M122.262 155.14C122.523 154.997 122.783 154.855 123.044 154.701L15.8019 34.5561C15.6243 34.8052 15.4585 35.0424 15.2808 35.2914L122.262 155.14Z" fill="#FC5B15"/>
<path d="M111.45 160.061C111.746 159.954 112.03 159.836 112.326 159.729L9.62025 44.6719C9.47814 44.9446 9.3242 45.2292 9.19393 45.502L111.45 160.061Z" fill="#FC5B15"/>
</g>
<defs>
<clipPath id="clip0_142_3306">
<rect width="164.818" height="164.818" fill="white" transform="translate(165.284 0.29541) rotate(90)"/>
</clipPath>
</defs>
</svg>
