<svg width="129" height="38" viewBox="0 0 129 38" fill="none" xmlns="http://www.w3.org/2000/svg">
<path d="M24.6122 0L34.9427 0L29.7774 9.94909L24.6122 19.8982L19.4469 9.94909L14.2817 0L24.6122 0Z" fill="#FC5B15"/>
<path d="M55.9607 0L66.2912 0L61.126 9.94909L55.9607 19.8982L50.7955 9.94909L45.6302 0L55.9607 0Z" fill="white"/>
<path d="M87.321 0L97.6515 0L92.4743 9.94909L87.321 19.8982L82.1438 9.94909L76.9786 0L87.321 0Z" fill="#FC5B15"/>
<path d="M118.67 0L129 0L123.835 9.94909L118.67 19.8982L113.505 9.94909L108.339 0L118.67 0Z" fill="#FC5B15"/>
<path d="M104.388 37.0974H94.0575L99.2228 27.1483L104.388 17.1992L109.553 27.1483L114.718 37.0974H104.388Z" fill="white"/>
<path d="M73.0393 37.0974H62.6969L67.8621 27.1483L73.0393 17.1992L78.1926 27.1483L83.3698 37.0974H73.0393Z" fill="#FC5B15"/>
<path d="M41.679 37.0974H31.3485L36.5138 27.1483L41.679 17.1992L46.8443 27.1483L52.0095 37.0974H41.679Z" fill="#FC5B15"/>
<path d="M10.3305 37.0974H0L5.1652 27.1483L10.3305 17.1992L15.4957 27.1483L20.6609 37.0974H10.3305Z" fill="white"/>
</svg>
