<svg width="118" height="96" viewBox="0 0 118 96" fill="none" xmlns="http://www.w3.org/2000/svg">
<g opacity="0.6">
<path fill-rule="evenodd" clip-rule="evenodd" d="M19.4883 4.69239C13.5736 2.65783 6.24571 2.25028 1.29265 2.51706C0.616305 2.55349 0.0383793 2.03668 0.00181996 1.36274C-0.0347394 0.688794 0.483912 0.112923 1.16026 0.0764935C6.29113 -0.199865 13.9665 0.207291 20.2887 2.38206C23.4521 3.47022 26.3725 5.03317 28.4479 7.26361C30.4052 9.3671 31.5708 12.0252 31.511 15.2842C33.7018 13.4928 36.2497 11.9288 39.1989 10.7533L39.2913 10.7165L39.3884 10.695C42.118 10.0906 46.2914 10.3003 50.1038 12.8256C53.954 15.3757 57.2651 20.1714 58.4473 28.4167L58.4583 28.4935L58.4594 28.571C58.5809 36.5588 55.6111 56.3623 43.861 79.2472C50.3441 72.5964 59.8089 64.361 71.3199 57.6853C77.7562 53.7297 93.9091 44.9117 107.143 41.2746C108.209 40.8878 109.489 40.5151 110.777 40.2813C112.066 40.0472 113.45 39.9355 114.657 40.1462C115.867 40.3573 117.131 40.9457 117.706 42.3038C118.25 43.5857 118.009 45.1809 117.229 46.9945C116.962 47.6149 116.241 47.9022 115.618 47.6364C114.996 47.3705 114.707 46.6521 114.974 46.0317C115.666 44.4236 115.598 43.612 115.447 43.2551C115.328 42.9745 115.028 42.6922 114.234 42.5536C113.438 42.4147 112.38 42.4744 111.216 42.6858C110.07 42.894 108.907 43.2332 107.939 43.5869L107.891 43.6044L107.842 43.6179C94.93 47.156 78.9686 55.8546 72.5942 59.7738L72.5807 59.7821L72.567 59.79C54.7497 70.1196 41.927 84.2786 37.7876 90L35.7478 88.6456C52.2645 61.8611 56.1168 37.4669 56.0079 28.6854C54.8917 21.0121 51.876 16.9342 48.746 14.861C45.6137 12.7863 42.1967 12.604 40.0154 13.0605C36.5394 14.4612 33.6646 16.4612 31.3094 18.7431C30.7412 22.9341 28.6788 29.3534 23.4317 35.362C22.8148 36.0685 21.8651 36.2412 21.0963 35.8572C20.3194 35.4691 19.8924 34.5938 20.1188 33.6697C21.2076 29.2258 23.8743 22.8431 28.9709 17.6143C29.0284 16.9879 29.0432 16.4471 29.0263 16.0085L29.0236 15.9393L29.0288 15.8701C29.2475 12.9648 28.3149 10.7154 26.6493 8.9254C24.95 7.09927 22.4434 5.7089 19.4883 4.69239ZM23.2588 31.6718C24.2032 28.8999 25.6975 25.7232 27.8865 22.7039C27.0188 25.4099 25.5709 28.5433 23.2588 31.6718Z" fill="#FC5B15"/>
<path fill-rule="evenodd" clip-rule="evenodd" d="M85.7004 33.4361C86.1495 33.9578 86.0865 34.7413 85.5596 35.1861L60.0671 56.7033C59.5402 57.1481 58.7488 57.0857 58.2996 56.5639C57.8505 56.0422 57.9135 55.2587 58.4404 54.8139L83.9329 33.2967C84.4599 32.8519 85.2512 32.9143 85.7004 33.4361Z" fill="#FC5B15"/>
<path fill-rule="evenodd" clip-rule="evenodd" d="M112.504 93.9081C87.6289 88.6755 62.8274 93.0991 53.6062 95.9445C52.9519 96.1464 52.2576 95.7801 52.0555 95.1263C51.8535 94.4725 52.2201 93.7788 52.8744 93.5769C62.3908 90.6404 87.6298 86.1435 113.015 91.4834C113.685 91.6243 114.114 92.2814 113.973 92.951C113.832 93.6206 113.174 94.0491 112.504 93.9081Z" fill="#FC5B15"/>
</g>
</svg>
