<svg width="204" height="44" viewBox="0 0 204 44" fill="none" xmlns="http://www.w3.org/2000/svg">
<path d="M12.2108 15.6624L26.9646 0.973267L21.1011 2.57128C14.9993 4.233 9.85752 7.11357 5.82003 11.1333L1.27148 15.6626C2.78185 17.1655 4.76108 17.9178 6.74103 17.9178C8.72123 17.9176 10.7002 17.165 12.2108 15.6624ZM7.29015 12.5964C10.6767 9.22398 14.9098 6.70447 19.8911 5.08957L10.7412 14.1988C9.67279 15.2624 8.25285 15.8484 6.74128 15.8484C5.95361 15.8484 5.19019 15.6884 4.48834 15.3858L7.29015 12.5964Z" fill="#FC5B15"/>
<path d="M10.2053 37.9981L14.7538 42.5264C16.2642 41.0228 17.0191 39.0523 17.0191 37.0812C17.0191 35.1101 16.2644 33.1396 14.7538 31.636L0 16.9479L1.60419 22.7853C3.2731 28.8595 6.16752 33.9786 10.2053 37.9981ZM13.2839 33.0993C14.971 34.7789 15.3679 37.2637 14.4743 39.3224L11.6744 36.5348C8.28784 33.1633 5.75611 28.949 4.13495 23.9899L13.2839 33.0993Z" fill="#FC5B15"/>
<path d="M36.2917 26.8893C34.3125 26.8893 32.3325 27.6416 30.8222 29.1455L16.0684 43.8336L21.9319 42.2365C28.0334 40.5748 33.1752 37.6933 37.2129 33.6738L41.7615 29.1452C41.0066 28.3939 40.1338 27.8296 39.2024 27.4533C38.2717 27.0773 37.2816 26.8893 36.2917 26.8893ZM35.7426 32.2102C32.356 35.5826 28.1229 38.1031 23.1416 39.717L32.2918 30.6078C33.3602 29.5442 34.7811 28.9582 36.2915 28.9582C37.0794 28.9582 37.8425 29.1182 38.5444 29.4209L35.7426 32.2102Z" fill="#FC5B15"/>
<path d="M28.2757 13.1697L43.0295 27.8578L41.4255 22.0204C39.7561 15.946 36.8617 10.8271 32.8242 6.80759L28.2757 2.2793C25.2545 5.28682 25.2545 10.1619 28.2757 13.1697ZM28.5552 5.48328L31.3551 8.27068C34.7419 11.6431 37.2734 15.8565 38.8945 20.8156L29.7453 11.7071C28.0582 10.0275 27.6616 7.54179 28.5552 5.48328Z" fill="#FC5B15"/>
<path d="M56.7846 34.9733V11.1075H66.5013C67.7969 11.1075 68.9675 11.4371 70.013 12.0962C71.0813 12.7327 71.9336 13.6077 72.5701 14.7215C73.2065 15.8352 73.5247 17.074 73.5247 18.4377C73.5247 19.8015 73.2065 21.0402 72.5701 22.1539C71.9336 23.2677 71.0813 24.1655 70.013 24.8474C68.9675 25.5065 67.7969 25.8361 66.5013 25.8361H60.4667V34.9733H56.7846ZM60.4667 22.2903H66.4331C67.0468 22.2903 67.6037 22.1199 68.1037 21.7789C68.6038 21.4152 69.0016 20.9493 69.297 20.3811C69.6152 19.7901 69.7744 19.1423 69.7744 18.4377C69.7744 17.7331 69.6152 17.0967 69.297 16.5285C69.0016 15.9602 68.6038 15.5056 68.1037 15.1647C67.6037 14.8238 67.0468 14.6533 66.4331 14.6533H60.4667V22.2903ZM77.5065 34.9733V17.074H81.0523V22.6995L80.7113 21.3357C80.9613 20.472 81.3818 19.6878 81.9728 18.9832C82.5865 18.2786 83.2797 17.7217 84.0525 17.3126C84.848 16.9035 85.6663 16.6989 86.5073 16.6989C86.8937 16.6989 87.2573 16.733 87.5983 16.8012C87.962 16.8694 88.2461 16.9489 88.4506 17.0399L87.5301 20.8584C87.2573 20.7447 86.9505 20.6538 86.6096 20.5856C86.2914 20.4947 85.9731 20.4493 85.6549 20.4493C85.0412 20.4493 84.4503 20.5743 83.882 20.8243C83.3365 21.0516 82.8479 21.3812 82.416 21.813C82.0069 22.2221 81.6773 22.7108 81.4273 23.279C81.1773 23.8246 81.0523 24.4269 81.0523 25.086V34.9733H77.5065ZM98.5376 35.3142C96.7875 35.3142 95.2192 34.9164 93.8327 34.1209C92.4689 33.3027 91.3893 32.2003 90.5938 30.8138C89.7982 29.4046 89.4005 27.8022 89.4005 26.0066C89.4005 24.2109 89.7982 22.6199 90.5938 21.2334C91.3893 19.8242 92.4689 18.7218 93.8327 17.9263C95.2192 17.108 96.7875 16.6989 98.5376 16.6989C100.265 16.6989 101.811 17.108 103.174 17.9263C104.561 18.7218 105.652 19.8242 106.447 21.2334C107.243 22.6199 107.641 24.2109 107.641 26.0066C107.641 27.8022 107.243 29.4046 106.447 30.8138C105.652 32.2003 104.561 33.3027 103.174 34.1209C101.811 34.9164 100.265 35.3142 98.5376 35.3142ZM98.5376 32.1094C99.6059 32.1094 100.561 31.848 101.402 31.3252C102.243 30.7797 102.902 30.0524 103.379 29.1432C103.856 28.2113 104.084 27.1658 104.061 26.0066C104.084 24.8246 103.856 23.7791 103.379 22.8699C102.902 21.938 102.243 21.2107 101.402 20.6879C100.561 20.1651 99.6059 19.9037 98.5376 19.9037C97.4694 19.9037 96.5034 20.1765 95.6397 20.722C94.7987 21.2448 94.1395 21.9721 93.6622 22.904C93.1849 23.8132 92.9576 24.8474 92.9803 26.0066C92.9576 27.1658 93.1849 28.2113 93.6622 29.1432C94.1395 30.0524 94.7987 30.7797 95.6397 31.3252C96.5034 31.848 97.4694 32.1094 98.5376 32.1094ZM111.399 34.9733V17.074H114.945V20.8925L114.297 21.3016C114.479 20.7106 114.763 20.1424 115.149 19.5969C115.559 19.0514 116.047 18.5741 116.615 18.165C117.206 17.7331 117.831 17.3922 118.491 17.1421C119.172 16.8921 119.866 16.7671 120.57 16.7671C121.593 16.7671 122.491 16.9376 123.264 17.2785C124.037 17.6195 124.673 18.1309 125.173 18.8127C125.673 19.4946 126.037 20.347 126.264 21.3698L125.718 21.2334L125.957 20.6538C126.207 20.131 126.548 19.6424 126.98 19.1878C127.435 18.7105 127.946 18.29 128.514 17.9263C129.082 17.5626 129.685 17.2785 130.321 17.074C130.958 16.8694 131.583 16.7671 132.196 16.7671C133.537 16.7671 134.64 17.0399 135.503 17.5854C136.39 18.1309 137.049 18.9605 137.481 20.0742C137.935 21.188 138.163 22.5744 138.163 24.2337V34.9733H134.617V24.4382C134.617 23.4154 134.481 22.5858 134.208 21.9494C133.958 21.2902 133.571 20.8016 133.049 20.4833C132.526 20.1651 131.855 20.006 131.037 20.006C130.401 20.006 129.798 20.1197 129.23 20.347C128.685 20.5515 128.207 20.847 127.798 21.2334C127.389 21.6198 127.071 22.0744 126.844 22.5972C126.616 23.0972 126.503 23.6541 126.503 24.2678V34.9733H122.957V24.3701C122.957 23.4382 122.821 22.654 122.548 22.0176C122.275 21.3584 121.877 20.8584 121.354 20.5174C120.832 20.1765 120.195 20.006 119.445 20.006C118.809 20.006 118.218 20.1197 117.672 20.347C117.127 20.5515 116.65 20.847 116.24 21.2334C115.831 21.5971 115.513 22.0403 115.286 22.5631C115.058 23.0631 114.945 23.6086 114.945 24.1996V34.9733H111.399ZM142.864 42.4739V17.074H146.41V21.1652L145.865 20.8584C146.001 20.1765 146.387 19.5287 147.024 18.915C147.66 18.2786 148.433 17.7672 149.342 17.3808C150.274 16.9717 151.229 16.7671 152.206 16.7671C153.82 16.7671 155.252 17.1649 156.502 17.9604C157.752 18.7559 158.741 19.8469 159.468 21.2334C160.195 22.6199 160.559 24.2109 160.559 26.0066C160.559 27.7794 160.195 29.3705 159.468 30.7797C158.763 32.1662 157.786 33.2686 156.536 34.0868C155.286 34.8823 153.877 35.2801 152.308 35.2801C151.263 35.2801 150.251 35.0755 149.274 34.6664C148.297 34.2346 147.467 33.6891 146.785 33.0299C146.103 32.3708 145.683 31.6889 145.524 30.9843L146.41 30.507V42.4739H142.864ZM151.729 32.0412C152.774 32.0412 153.706 31.7798 154.524 31.257C155.343 30.7343 155.99 30.0183 156.468 29.1091C156.945 28.1999 157.184 27.1658 157.184 26.0066C157.184 24.8474 156.945 23.8246 156.468 22.9381C156.013 22.0289 155.377 21.313 154.558 20.7902C153.74 20.2674 152.797 20.006 151.729 20.006C150.66 20.006 149.717 20.2674 148.899 20.7902C148.081 21.2902 147.433 21.9948 146.956 22.904C146.478 23.8132 146.24 24.8474 146.24 26.0066C146.24 27.1658 146.478 28.1999 146.956 29.1091C147.433 30.0183 148.081 30.7343 148.899 31.257C149.717 31.7798 150.66 32.0412 151.729 32.0412ZM166.589 34.9733V12.5054H170.101V34.9733H166.589ZM162.873 20.4833V17.074H174.26V20.4833H162.873ZM180.458 42.8149L184.072 34.4619L184.106 37.2576L175.173 17.074H179.265L184.856 30.2342C184.97 30.4615 185.106 30.8138 185.265 31.2911C185.424 31.7457 185.561 32.2003 185.674 32.6549L184.788 32.8594C184.97 32.3821 185.14 31.9048 185.299 31.4275C185.481 30.9502 185.652 30.4729 185.811 29.9956L190.482 17.074H194.641L187.277 34.9733L184.242 42.8149H180.458ZM197.336 34.9733V9.74376H200.848V34.9733H197.336Z" fill="#231F20"/>
</svg>
