<svg width="20" height="20" viewBox="0 0 20 20" fill="none" xmlns="http://www.w3.org/2000/svg">
<path fill-rule="evenodd" clip-rule="evenodd" d="M10.0478 1.45834C11.8734 1.45834 13.3073 1.45833 14.4268 1.60884C15.574 1.76308 16.4842 2.0856 17.1994 2.80077C17.9146 3.51594 18.2371 4.42615 18.3913 5.57336C18.5418 6.69288 18.5418 8.12676 18.5418 9.95234V10.0477C18.5418 11.8733 18.5418 13.3072 18.3913 14.4267C18.2371 15.5738 17.9146 16.4841 17.1994 17.1993C16.4842 17.9144 15.574 18.2369 14.4268 18.3912C13.3073 18.5417 11.8734 18.5417 10.0478 18.5417H9.9525C8.12691 18.5417 6.69303 18.5417 5.57351 18.3912C4.4263 18.2369 3.51609 17.9144 2.80092 17.1993C2.08576 16.4841 1.76323 15.5738 1.60899 14.4267C1.45848 13.3072 1.45849 11.8733 1.4585 10.0477V9.95234C1.45849 8.12678 1.45848 6.69288 1.60899 5.57336C1.76323 4.42615 2.08576 3.51594 2.80092 2.80077C3.51609 2.0856 4.4263 1.76308 5.57351 1.60884C6.69302 1.45833 8.12691 1.45834 9.9525 1.45834H10.0478ZM13.7502 10C13.7502 12.0711 12.0712 13.75 10.0002 13.75C7.9291 13.75 6.25016 12.0711 6.25016 10C6.25016 7.92894 7.9291 6.25001 10.0002 6.25001C12.0712 6.25001 13.7502 7.92894 13.7502 10ZM14.5946 6.25001C15.0527 6.25001 15.4242 5.87692 15.4242 5.41668C15.4242 4.95644 15.0527 4.58334 14.5946 4.58334H14.5871C14.1289 4.58334 13.7575 4.95644 13.7575 5.41668C13.7575 5.87691 14.1289 6.25001 14.5871 6.25001H14.5946Z" fill="white"/>
</svg>
