<svg width="61" height="56" viewBox="0 0 61 56" fill="none" xmlns="http://www.w3.org/2000/svg">
<path d="M24.396 7.75949L33.1267 22.7731L33.1636 22.8365L33.227 22.8734L48.2406 31.604L33.227 40.3347L33.1636 40.3716L33.1267 40.435L24.396 55.4486L15.6654 40.435L15.6285 40.3716L15.5651 40.3347L0.551479 31.604L15.5651 22.8734L15.6285 22.8365L15.6654 22.7731L24.396 7.75949Z" stroke="#FC5B15" stroke-width="0.554455"/>
<path d="M50.7326 0.551479L54.2646 6.62518L54.3015 6.68859L54.3649 6.72547L60.4386 10.2574L54.3649 13.7894L54.3015 13.8263L54.2646 13.8897L50.7326 19.9634L47.2007 13.8897L47.1638 13.8263L47.1004 13.7894L41.0267 10.2574L47.1004 6.72547L47.1638 6.68859L47.2007 6.62518L50.7326 0.551479Z" stroke="#FC5B15" stroke-width="0.554455"/>
</svg>
