<svg width="211" height="55" viewBox="0 0 211 55" fill="none" xmlns="http://www.w3.org/2000/svg">
<path d="M32.2166 31.4923V40.5256H9.3071C8.70737 40.5256 8.12385 40.4707 7.55654 40.361C7.4755 40.3448 7.39445 40.3255 7.31341 40.3093C6.03615 40.0318 4.8594 39.4928 3.83501 38.7505C1.51391 37.0626 0 34.3388 0 31.2664V0C4.6033 2.60768 7.55654 7.52613 7.55654 12.919V27.7131C7.55654 30.6338 9.93924 33.0059 12.873 33.0059H28.4983C29.9441 33.0059 31.257 32.4282 32.2166 31.4923Z" fill="#FC5B15"/>
<path d="M41.3685 0.000244141V17.4536C39.7412 15.059 37.1964 13.3098 34.1816 12.7385C34.0616 12.7159 33.9417 12.6933 33.8185 12.6772C33.9028 7.37792 36.8366 2.5692 41.3685 0.000244141Z" fill="#FC5B15"/>
<path d="M41.3657 23.74V54.9999C36.7656 52.3923 33.8124 47.4738 33.8124 42.0809V27.2869C33.8124 24.3694 31.4265 21.994 28.4959 21.994H12.8707C11.4248 21.994 10.1119 22.5717 9.15234 23.5077V14.4744H32.0619C32.6616 14.4744 33.2451 14.5292 33.8124 14.639C38.1077 15.4555 41.3657 19.225 41.3657 23.74Z" fill="#FC5B15"/>
<path d="M7.55329 42.3228C7.46901 47.6221 4.53522 52.4308 0 54.9998V37.5399C0.71967 38.5985 1.62736 39.5409 2.69066 40.3122C3.95494 41.232 5.3716 41.8678 6.89523 42.2002L6.94709 42.2131C7.02813 42.2292 7.10917 42.2454 7.18697 42.2615C7.30692 42.2841 7.43011 42.3067 7.55329 42.3228Z" fill="#FC5B15"/>
<path d="M83.2728 42.8373V15.5905H87.4766V42.8373H83.2728ZM65.4845 42.8373V15.5905H69.6883V42.8373H65.4845ZM67.3139 31.2768V27.2287H85.1411V31.2768H67.3139ZM97.5089 51.7898L101.635 42.2534L101.674 45.4452L91.4757 22.4022H96.1466L102.53 37.4268C102.66 37.6863 102.816 38.0885 102.997 38.6335C103.179 39.1525 103.335 39.6715 103.464 40.1904L102.452 40.424C102.66 39.8791 102.854 39.3341 103.036 38.7892C103.244 38.2442 103.438 37.6993 103.62 37.1544L108.953 22.4022H113.701L105.294 42.8373L101.829 51.7898H97.5089ZM116.701 51.4006V22.4022H120.749V27.073L120.126 26.7227C120.282 25.9442 120.723 25.2047 121.449 24.5041C122.176 23.7775 123.058 23.1936 124.096 22.7525C125.16 22.2854 126.25 22.0518 127.366 22.0518C129.208 22.0518 130.843 22.506 132.27 23.4142C133.697 24.3224 134.826 25.568 135.657 27.1509C136.487 28.7338 136.902 30.5503 136.902 32.6003C136.902 34.6243 136.487 36.4408 135.657 38.0496C134.852 39.6325 133.736 40.8911 132.309 41.8253C130.882 42.7335 129.273 43.1876 127.483 43.1876C126.289 43.1876 125.134 42.9541 124.018 42.487C122.902 41.9939 121.955 41.3711 121.177 40.6186C120.398 39.8661 119.918 39.0876 119.737 38.2832L120.749 37.7382V51.4006H116.701ZM126.821 39.4898C128.015 39.4898 129.078 39.1914 130.013 38.5946C130.947 37.9977 131.686 37.1803 132.231 36.1423C132.776 35.1044 133.049 33.9237 133.049 32.6003C133.049 31.2768 132.776 30.1091 132.231 29.0971C131.712 28.0591 130.986 27.2417 130.052 26.6449C129.117 26.048 128.04 25.7496 126.821 25.7496C125.601 25.7496 124.524 26.048 123.59 26.6449C122.656 27.2158 121.916 28.0202 121.371 29.0582C120.827 30.0961 120.554 31.2768 120.554 32.6003C120.554 33.9237 120.827 35.1044 121.371 36.1423C121.916 37.1803 122.656 37.9977 123.59 38.5946C124.524 39.1914 125.601 39.4898 126.821 39.4898ZM150.442 43.2265C148.444 43.2265 146.654 42.7724 145.071 41.8642C143.514 40.93 142.281 39.6715 141.373 38.0885C140.465 36.4797 140.011 34.6503 140.011 32.6003C140.011 30.5503 140.465 28.7338 141.373 27.1509C142.281 25.542 143.514 24.2835 145.071 23.3753C146.654 22.4411 148.444 21.974 150.442 21.974C152.414 21.974 154.179 22.4411 155.736 23.3753C157.319 24.2835 158.564 25.542 159.473 27.1509C160.381 28.7338 160.835 30.5503 160.835 32.6003C160.835 34.6503 160.381 36.4797 159.473 38.0885C158.564 39.6715 157.319 40.93 155.736 41.8642C154.179 42.7724 152.414 43.2265 150.442 43.2265ZM150.442 39.5677C151.662 39.5677 152.752 39.2692 153.712 38.6724C154.672 38.0496 155.425 37.2192 155.969 36.1813C156.514 35.1173 156.774 33.9237 156.748 32.6003C156.774 31.2509 156.514 30.0572 155.969 29.0192C155.425 27.9553 154.672 27.1249 153.712 26.5281C152.752 25.9313 151.662 25.6329 150.442 25.6329C149.223 25.6329 148.12 25.9443 147.134 26.567C146.174 27.1639 145.421 27.9942 144.876 29.0582C144.331 30.0961 144.072 31.2768 144.098 32.6003C144.072 33.9237 144.331 35.1173 144.876 36.1813C145.421 37.2192 146.174 38.0496 147.134 38.6724C148.12 39.2692 149.223 39.5677 150.442 39.5677ZM172.015 43.2265C170.303 43.2265 168.759 42.9281 167.383 42.3313C166.008 41.7344 164.866 40.8522 163.958 39.6844L166.683 37.349C167.461 38.2572 168.305 38.9189 169.213 39.3341C170.147 39.7234 171.198 39.918 172.366 39.918C172.833 39.918 173.261 39.8661 173.65 39.7623C174.065 39.6325 174.416 39.4509 174.701 39.2173C175.012 38.9838 175.246 38.7113 175.402 38.3999C175.557 38.0626 175.635 37.6993 175.635 37.3101C175.635 36.6354 175.389 36.0904 174.896 35.6753C174.636 35.4936 174.221 35.299 173.65 35.0914C173.105 34.8579 172.392 34.6243 171.509 34.3908C170.004 34.0015 168.772 33.5604 167.811 33.0673C166.851 32.5743 166.112 32.0164 165.593 31.3936C165.204 30.9006 164.918 30.3686 164.736 29.7977C164.555 29.2009 164.464 28.5522 164.464 27.8515C164.464 26.9952 164.646 26.2167 165.009 25.5161C165.398 24.7895 165.917 24.1667 166.566 23.6477C167.241 23.1028 168.019 22.6876 168.901 22.4022C169.81 22.1167 170.77 21.974 171.782 21.974C172.742 21.974 173.689 22.1037 174.623 22.3632C175.583 22.6227 176.466 22.999 177.27 23.492C178.074 23.9851 178.749 24.5689 179.294 25.2436L176.998 27.7737C176.505 27.2806 175.96 26.8525 175.363 26.4892C174.792 26.0999 174.208 25.8015 173.611 25.5939C173.014 25.3863 172.469 25.2825 171.976 25.2825C171.431 25.2825 170.938 25.3344 170.497 25.4382C170.056 25.542 169.68 25.6977 169.368 25.9053C169.083 26.1129 168.862 26.3724 168.707 26.6838C168.551 26.9952 168.473 27.3455 168.473 27.7348C168.499 28.0721 168.577 28.3965 168.707 28.7079C168.862 28.9933 169.07 29.2398 169.33 29.4474C169.615 29.655 170.043 29.8756 170.614 30.1091C171.185 30.3427 171.911 30.5632 172.794 30.7708C174.091 31.1082 175.155 31.4844 175.986 31.8996C176.842 32.2889 177.517 32.743 178.01 33.262C178.529 33.755 178.892 34.3259 179.099 34.9746C179.307 35.6234 179.411 36.3499 179.411 37.1544C179.411 38.3221 179.074 39.373 178.399 40.3072C177.75 41.2154 176.868 41.9291 175.752 42.448C174.636 42.967 173.391 43.2265 172.015 43.2265ZM184.491 42.8373V22.4022H188.5V42.8373H184.491ZM186.437 17.887C185.581 17.887 184.919 17.6664 184.452 17.2253C183.985 16.7841 183.751 16.1613 183.751 15.3569C183.751 14.6044 183.985 13.9946 184.452 13.5275C184.945 13.0604 185.607 12.8269 186.437 12.8269C187.294 12.8269 187.955 13.0474 188.422 13.4886C188.889 13.9297 189.123 14.5525 189.123 15.3569C189.123 16.1094 188.876 16.7193 188.383 17.1863C187.916 17.6534 187.268 17.887 186.437 17.887ZM201.474 43.2265C199.762 43.2265 198.218 42.9281 196.842 42.3313C195.467 41.7344 194.325 40.8522 193.417 39.6844L196.142 37.349C196.92 38.2572 197.764 38.9189 198.672 39.3341C199.606 39.7234 200.657 39.918 201.825 39.918C202.292 39.918 202.72 39.8661 203.109 39.7623C203.524 39.6325 203.875 39.4509 204.16 39.2173C204.472 38.9838 204.705 38.7113 204.861 38.3999C205.016 38.0626 205.094 37.6993 205.094 37.3101C205.094 36.6354 204.848 36.0904 204.355 35.6753C204.095 35.4936 203.68 35.299 203.109 35.0914C202.564 34.8579 201.851 34.6243 200.968 34.3908C199.463 34.0015 198.231 33.5604 197.271 33.0673C196.31 32.5743 195.571 32.0164 195.052 31.3936C194.663 30.9006 194.377 30.3686 194.196 29.7977C194.014 29.2009 193.923 28.5522 193.923 27.8515C193.923 26.9952 194.105 26.2167 194.468 25.5161C194.857 24.7895 195.376 24.1667 196.025 23.6477C196.7 23.1028 197.478 22.6876 198.36 22.4022C199.269 22.1167 200.229 21.974 201.241 21.974C202.201 21.974 203.148 22.1037 204.082 22.3632C205.042 22.6227 205.925 22.999 206.729 23.492C207.534 23.9851 208.208 24.5689 208.753 25.2436L206.457 27.7737C205.964 27.2806 205.419 26.8525 204.822 26.4892C204.251 26.0999 203.667 25.8015 203.07 25.5939C202.473 25.3863 201.929 25.2825 201.435 25.2825C200.891 25.2825 200.398 25.3344 199.956 25.4382C199.515 25.542 199.139 25.6977 198.828 25.9053C198.542 26.1129 198.322 26.3724 198.166 26.6838C198.01 26.9952 197.932 27.3455 197.932 27.7348C197.958 28.0721 198.036 28.3965 198.166 28.7079C198.322 28.9933 198.529 29.2398 198.789 29.4474C199.074 29.655 199.502 29.8756 200.073 30.1091C200.644 30.3427 201.371 30.5632 202.253 30.7708C203.55 31.1082 204.614 31.4844 205.445 31.8996C206.301 32.2889 206.976 32.743 207.469 33.262C207.988 33.755 208.351 34.3259 208.559 34.9746C208.766 35.6234 208.87 36.3499 208.87 37.1544C208.87 38.3221 208.533 39.373 207.858 40.3072C207.209 41.2154 206.327 41.9291 205.211 42.448C204.095 42.967 202.85 43.2265 201.474 43.2265Z" fill="#231F20"/>
</svg>
