<svg width="205" height="51" viewBox="0 0 205 51" fill="none" xmlns="http://www.w3.org/2000/svg">
<path d="M26.6284 11.7993L31.869 20.8378C32.4605 20.8268 33.0551 20.8224 33.6535 20.8224C35.1872 20.8224 36.7012 20.8568 38.1903 20.9234L26.6284 0.986694L13.9238 22.894C16.1303 22.393 18.4706 21.9737 20.9177 21.6466L26.6284 11.7993ZM17.221 20.5352L26.6287 4.31319L35.2444 19.1714C34.7143 19.1625 34.1831 19.1592 33.6538 19.1592C33.3808 19.1592 33.106 19.1603 32.8272 19.1625L28.0755 10.9678L26.6287 8.47276L25.1807 10.9678L19.8787 20.1107C18.9819 20.239 18.094 20.381 17.221 20.5352Z" fill="#FC5B15"/>
<path d="M18.8378 50.7373C12.2851 47.8706 8.28056 44.034 8.28056 39.8188C8.28056 38.4158 8.72385 37.0553 9.5576 35.7578H46.7941L40.0102 24.0606C42.5911 23.8473 45.2638 23.735 48.0009 23.735C51.6877 23.735 55.2578 23.9384 58.6445 24.3197C58.4493 24.2567 58.2482 24.1972 58.0497 24.1358C58.2482 24.1969 58.4495 24.2567 58.6445 24.3194C58.8721 24.3448 59.098 24.3706 59.3239 24.3979C58.7269 24.2473 58.1196 24.1036 57.501 23.9665C57.5007 23.9662 57.5005 23.9662 57.4999 23.9659C51.9687 22.7381 45.6045 22.0352 38.831 22.0278C38.7909 22.027 38.7503 22.027 38.7102 22.027C37.1685 22.027 35.6484 22.063 34.154 22.1332C33.656 22.1566 33.1607 22.1836 32.6685 22.2147C27.9491 22.5093 23.5129 23.1447 19.5214 24.0557C19.1766 24.1344 18.8351 24.2151 18.4969 24.2977C16.1303 24.8769 13.9321 25.5553 11.938 26.3181C4.5808 29.1295 0 33.0898 0 37.4768C0 43.1095 7.55217 48.0383 18.8378 50.7373ZM34.1349 24.7426L37.3873 30.3513H15.8883C20.4415 27.823 26.7716 25.8532 34.1349 24.7426Z" fill="#FC5B15"/>
<path d="M60.1641 39.6517L69.2894 16.0807H72.9934L82.0514 39.6517H78.1791L72.7914 25.4418C72.7241 25.2846 72.5894 24.903 72.3873 24.2969C72.2077 23.6908 71.9945 23.0173 71.7475 22.2765C71.5006 21.5357 71.2761 20.8623 71.0741 20.2562C70.8721 19.6276 70.7374 19.2235 70.67 19.0439L71.4445 19.0103C71.3098 19.3919 71.1414 19.8745 70.9394 20.4582C70.7598 21.0419 70.5578 21.6592 70.3333 22.3102C70.1313 22.9612 69.9292 23.5786 69.7272 24.1622C69.5251 24.7234 69.3568 25.1949 69.2221 25.5765L63.8681 39.6517H60.1641ZM64.2048 33.7927L65.5517 30.2907H76.2597L77.8087 33.7927H64.2048ZM91.217 39.9885C89.7354 39.9885 88.3997 39.7303 87.21 39.214C86.0202 38.6977 85.0325 37.9344 84.2468 36.9242L86.6039 34.9039C87.2773 35.6896 88.0069 36.262 88.7926 36.6212C89.6007 36.9579 90.5099 37.1263 91.5201 37.1263C91.9242 37.1263 92.2946 37.0814 92.6313 36.9916C92.9905 36.8793 93.2935 36.7222 93.5405 36.5202C93.8098 36.3181 94.0119 36.0824 94.1466 35.813C94.2813 35.5212 94.3486 35.2069 94.3486 34.8702C94.3486 34.2865 94.1353 33.8151 93.7088 33.4559C93.4843 33.2988 93.1252 33.1304 92.6313 32.9508C92.1599 32.7488 91.5425 32.5468 90.7793 32.3447C89.4773 32.008 88.411 31.6264 87.5804 31.1998C86.7498 30.7733 86.11 30.2907 85.661 29.7519C85.3243 29.3254 85.0773 28.8652 84.9202 28.3713C84.7631 27.855 84.6845 27.2938 84.6845 26.6877C84.6845 25.9469 84.8416 25.2734 85.1559 24.6673C85.4926 24.0388 85.9416 23.5 86.5028 23.051C87.0865 22.5796 87.76 22.2204 88.5232 21.9735C89.3089 21.7266 90.1395 21.6031 91.015 21.6031C91.8456 21.6031 92.665 21.7153 93.4731 21.9398C94.3037 22.1643 95.067 22.4898 95.7629 22.9163C96.4588 23.3428 97.0424 23.8479 97.5139 24.4316L95.5272 26.6203C95.1006 26.1938 94.6292 25.8234 94.1129 25.5091C93.619 25.1724 93.1139 24.9142 92.5976 24.7347C92.0813 24.5551 91.6099 24.4653 91.1834 24.4653C90.7119 24.4653 90.2854 24.5102 89.9038 24.6C89.5222 24.6898 89.1967 24.8245 88.9273 25.004C88.6803 25.1836 88.4895 25.4081 88.3548 25.6775C88.2201 25.9469 88.1528 26.2499 88.1528 26.5867C88.1753 26.8785 88.2426 27.1591 88.3548 27.4285C88.4895 27.6754 88.6691 27.8887 88.8936 28.0683C89.1405 28.2479 89.5109 28.4387 90.0048 28.6407C90.4987 28.8427 91.1272 29.0336 91.8905 29.2131C93.0129 29.505 93.9333 29.8305 94.6517 30.1897C95.3925 30.5264 95.9761 30.9192 96.4027 31.3682C96.8516 31.7947 97.1659 32.2886 97.3455 32.8498C97.5251 33.411 97.6149 34.0396 97.6149 34.7355C97.6149 35.7457 97.323 36.6548 96.7394 37.463C96.1782 38.2487 95.4149 38.866 94.4496 39.315C93.4843 39.764 92.4068 39.9885 91.217 39.9885ZM101.437 47.0598V21.9735H104.939V26.0142L104.4 25.7112C104.535 25.0377 104.917 24.3979 105.545 23.7918C106.174 23.1633 106.937 22.6582 107.835 22.2765C108.756 21.8725 109.698 21.6704 110.664 21.6704C112.257 21.6704 113.672 22.0633 114.906 22.849C116.141 23.6347 117.118 24.7122 117.836 26.0816C118.554 27.4509 118.913 29.0223 118.913 30.7958C118.913 32.5468 118.554 34.1182 117.836 35.51C117.14 36.8793 116.175 37.9681 114.94 38.7762C113.705 39.5619 112.314 39.9548 110.765 39.9548C109.732 39.9548 108.733 39.7528 107.768 39.3487C106.802 38.9222 105.983 38.3834 105.31 37.7324C104.636 37.0814 104.221 36.4079 104.064 35.712L104.939 35.2406V47.0598H101.437ZM110.192 36.7559C111.225 36.7559 112.145 36.4977 112.953 35.9814C113.762 35.4651 114.401 34.7579 114.873 33.86C115.344 32.9621 115.58 31.9406 115.58 30.7958C115.58 29.6509 115.344 28.6407 114.873 27.7652C114.424 26.8673 113.795 26.1601 112.987 25.6438C112.179 25.1275 111.247 24.8694 110.192 24.8694C109.137 24.8694 108.206 25.1275 107.397 25.6438C106.589 26.1377 105.949 26.8336 105.478 27.7315C105.007 28.6295 104.771 29.6509 104.771 30.7958C104.771 31.9406 105.007 32.9621 105.478 33.86C105.949 34.7579 106.589 35.4651 107.397 35.9814C108.206 36.4977 109.137 36.7559 110.192 36.7559ZM122.68 39.6517V21.9735H126.182V27.5295L125.845 26.1826C126.092 25.3295 126.508 24.5551 127.091 23.8592C127.697 23.1633 128.382 22.6133 129.145 22.2092C129.931 21.8051 130.739 21.6031 131.57 21.6031C131.951 21.6031 132.311 21.6368 132.647 21.7041C133.006 21.7714 133.287 21.85 133.489 21.9398L132.58 25.7112C132.311 25.5989 132.007 25.5091 131.671 25.4418C131.356 25.352 131.042 25.3071 130.728 25.3071C130.122 25.3071 129.538 25.4306 128.977 25.6775C128.438 25.902 127.956 26.2275 127.529 26.654C127.125 27.0581 126.799 27.5407 126.552 28.1019C126.306 28.6407 126.182 29.2356 126.182 29.8866V39.6517H122.68ZM143.452 39.9885C141.723 39.9885 140.174 39.5956 138.805 38.8099C137.458 38.0018 136.391 36.913 135.606 35.5436C134.82 34.1518 134.427 32.5692 134.427 30.7958C134.427 29.0223 134.82 27.4509 135.606 26.0816C136.391 24.6898 137.458 23.601 138.805 22.8153C140.174 22.0072 141.723 21.6031 143.452 21.6031C145.158 21.6031 146.684 22.0072 148.031 22.8153C149.4 23.601 150.478 24.6898 151.264 26.0816C152.049 27.4509 152.442 29.0223 152.442 30.7958C152.442 32.5692 152.049 34.1518 151.264 35.5436C150.478 36.913 149.4 38.0018 148.031 38.8099C146.684 39.5956 145.158 39.9885 143.452 39.9885ZM143.452 36.8232C144.507 36.8232 145.449 36.5651 146.28 36.0487C147.111 35.51 147.762 34.7916 148.233 33.8937C148.704 32.9733 148.929 31.9406 148.907 30.7958C148.929 29.6284 148.704 28.5958 148.233 27.6979C147.762 26.7775 147.111 26.0591 146.28 25.5428C145.449 25.0265 144.507 24.7683 143.452 24.7683C142.396 24.7683 141.442 25.0377 140.589 25.5765C139.759 26.0928 139.108 26.8112 138.636 27.7315C138.165 28.6295 137.94 29.6509 137.963 30.7958C137.94 31.9406 138.165 32.9733 138.636 33.8937C139.108 34.7916 139.759 35.51 140.589 36.0487C141.442 36.5651 142.396 36.8232 143.452 36.8232ZM158.41 39.6517V17.4613H161.878V39.6517H158.41ZM154.74 25.3408V21.9735H165.987V25.3408H154.74ZM177.23 39.9885C175.412 39.9885 173.795 39.6068 172.381 38.8436C170.989 38.0579 169.889 36.9916 169.081 35.6447C168.296 34.2977 167.903 32.7488 167.903 30.9978C167.903 29.606 168.127 28.3377 168.576 27.1928C169.025 26.0479 169.643 25.0602 170.428 24.2296C171.236 23.3765 172.19 22.7255 173.29 22.2765C174.413 21.8051 175.625 21.5694 176.927 21.5694C178.072 21.5694 179.138 21.7939 180.126 22.2429C181.114 22.6694 181.967 23.2643 182.685 24.0275C183.426 24.7908 183.987 25.6999 184.369 26.755C184.773 27.7877 184.964 28.9213 184.941 30.156L184.908 31.6376H170.462L169.687 28.8764H181.911L181.406 29.4489V28.6407C181.338 27.8999 181.091 27.2377 180.665 26.654C180.238 26.0703 179.699 25.6102 179.048 25.2734C178.397 24.9367 177.69 24.7683 176.927 24.7683C175.715 24.7683 174.693 25.004 173.863 25.4755C173.032 25.9244 172.404 26.5979 171.977 27.4958C171.551 28.3713 171.337 29.4601 171.337 30.7621C171.337 31.9968 171.596 33.0743 172.112 33.9947C172.628 34.8926 173.358 35.5885 174.301 36.0824C175.243 36.5763 176.332 36.8232 177.567 36.8232C178.442 36.8232 179.25 36.6773 179.991 36.3855C180.755 36.0936 181.574 35.5661 182.449 34.8028L184.2 37.261C183.662 37.7997 182.999 38.2711 182.214 38.6752C181.45 39.0793 180.631 39.4048 179.756 39.6517C178.903 39.8762 178.061 39.9885 177.23 39.9885ZM196.22 39.9885C194.581 39.9885 193.11 39.5844 191.808 38.7762C190.529 37.9681 189.507 36.8681 188.744 35.4763C188.003 34.0845 187.633 32.5243 187.633 30.7958C187.633 29.0672 188.003 27.5071 188.744 26.1152C189.507 24.7234 190.529 23.6235 191.808 22.8153C193.11 22.0072 194.581 21.6031 196.22 21.6031C197.791 21.6031 199.216 21.9286 200.496 22.5796C201.798 23.2082 202.786 24.0724 203.459 25.1724L201.54 27.5295C201.181 27.0132 200.72 26.5418 200.159 26.1152C199.598 25.6887 199.003 25.352 198.375 25.1051C197.746 24.8581 197.14 24.7347 196.556 24.7347C195.479 24.7347 194.513 25.004 193.66 25.5428C192.83 26.0591 192.168 26.7775 191.674 27.6979C191.18 28.6183 190.933 29.6509 190.933 30.7958C190.933 31.9406 191.191 32.9733 191.707 33.8937C192.224 34.7916 192.908 35.51 193.761 36.0487C194.614 36.5875 195.557 36.8569 196.59 36.8569C197.196 36.8569 197.78 36.7559 198.341 36.5538C198.925 36.3518 199.486 36.0487 200.025 35.6447C200.563 35.2406 201.068 34.7467 201.54 34.1631L203.459 36.5202C202.741 37.5303 201.708 38.3609 200.361 39.0119C199.037 39.663 197.656 39.9885 196.22 39.9885Z" fill="#231F20"/>
</svg>
