<svg width="130" height="29" viewBox="0 0 130 29" fill="none" xmlns="http://www.w3.org/2000/svg">
<path d="M28.7197 14.0234C28.7197 16.7924 27.8986 19.4991 26.3603 21.8014C24.822 24.1037 22.6355 25.8981 20.0773 26.9578C17.5191 28.0174 14.7042 28.2946 11.9885 27.7544C9.27273 27.2142 6.77817 25.8809 4.82024 23.9229C2.8623 21.965 1.52893 19.4704 0.988739 16.7547C0.448546 14.039 0.725793 11.224 1.78542 8.66587C2.84505 6.1077 4.63946 3.9212 6.94175 2.38286C9.24404 0.844523 11.9508 0.0234375 14.7197 0.0234375V7.02344C13.3353 7.02344 11.9819 7.43398 10.8307 8.20315C9.6796 8.97232 8.78239 10.0656 8.25258 11.3447C7.72276 12.6237 7.58414 14.0312 7.85424 15.3891C8.12433 16.7469 8.79102 17.9942 9.76999 18.9732C10.749 19.9522 11.9962 20.6188 13.3541 20.8889C14.712 21.159 16.1194 21.0204 17.3985 20.4906C18.6776 19.9608 19.7709 19.0636 20.54 17.9124C21.3092 16.7613 21.7197 15.4079 21.7197 14.0234H28.7197Z" fill="#121316"/>
<path d="M27.458 0.0236104L27.4367 0.0234375L15.9898 0.0236104V7.0236H21.7173V12.7504L28.7173 12.7504L28.7173 1.30397L28.7171 1.28284V0.0236104H27.458Z" fill="#121316"/>
<path fill-rule="evenodd" clip-rule="evenodd" d="M41.2834 22.0236H37.7396L44.1918 3.69635H48.2904L54.7514 22.0236H51.2077L49.6893 17.5045H42.799L41.2834 22.0236ZM46.3127 7.45488L48.7932 14.8377H43.6934L46.1695 7.45488H46.3127Z" fill="#121316"/>
<path fill-rule="evenodd" clip-rule="evenodd" d="M59.5849 26.9902C60.4201 27.3064 61.4194 27.4645 62.5828 27.4645C63.8177 27.4645 64.9214 27.2735 65.8938 26.8917C66.8663 26.5099 67.6329 25.9342 68.1937 25.1646C68.7545 24.395 69.0349 23.4226 69.0349 22.2473V8.27809H65.8401V10.5511H65.6612C65.5001 10.217 65.2644 9.86204 64.9542 9.48618C64.644 9.10437 64.2264 8.77922 63.7014 8.51076C63.1823 8.23633 62.5201 8.09911 61.7147 8.09911C60.6587 8.09911 59.7012 8.37056 58.8421 8.91346C57.983 9.45039 57.2999 10.2409 56.7928 11.2849C56.2917 12.323 56.0411 13.5967 56.0411 15.1061C56.0411 16.6035 56.2917 17.8504 56.7928 18.8467C57.2999 19.837 57.9801 20.5828 58.8332 21.0839C59.6923 21.5791 60.6498 21.8267 61.7058 21.8267C62.4933 21.8267 63.1465 21.7074 63.6656 21.4687C64.1906 21.2301 64.6112 20.9348 64.9274 20.5828C65.2495 20.2308 65.4941 19.8877 65.6612 19.5537H65.8222V22.1578C65.8222 23.172 65.521 23.8998 64.9184 24.3413C64.3159 24.7887 63.5552 25.0125 62.6364 25.0125C61.9862 25.0125 61.4463 24.923 61.0167 24.744C60.5931 24.571 60.2561 24.3502 60.0055 24.0818C59.7549 23.8193 59.564 23.5538 59.4328 23.2853L56.5154 23.9923C56.7123 24.6306 57.0643 25.2123 57.5714 25.7373C58.0785 26.2623 58.7497 26.6799 59.5849 26.9902ZM64.3636 18.7841C63.8803 19.1181 63.2957 19.2852 62.6096 19.2852C61.8997 19.2852 61.3001 19.1122 60.8109 18.7662C60.3276 18.4142 59.9607 17.925 59.7102 17.2985C59.4656 16.6662 59.3433 15.9294 59.3433 15.0882C59.3433 14.2589 59.4656 13.5191 59.7102 12.8689C59.9548 12.2126 60.3187 11.6966 60.8019 11.3207C61.2852 10.9448 61.8877 10.7569 62.6096 10.7569C63.3076 10.7569 63.8953 10.9389 64.3725 11.3028C64.8558 11.6608 65.2197 12.1649 65.4643 12.8152C65.7149 13.4654 65.8401 14.2231 65.8401 15.0882C65.8401 15.9652 65.7149 16.7169 65.4643 17.3433C65.2137 17.9697 64.8468 18.45 64.3636 18.7841Z" fill="#121316"/>
<path fill-rule="evenodd" clip-rule="evenodd" d="M78.4385 22.292C77.0603 22.292 75.8701 22.0056 74.8679 21.4329C73.8716 20.8542 73.1049 20.0369 72.568 18.9809C72.0311 17.919 71.7626 16.6691 71.7626 15.2314C71.7626 13.8174 72.0311 12.5765 72.568 11.5086C73.1109 10.4348 73.8686 9.59954 74.841 9.00294C75.8135 8.40039 76.9559 8.09911 78.2684 8.09911C79.1156 8.09911 79.915 8.23633 80.6667 8.51076C81.4244 8.77922 82.0926 9.19684 82.6713 9.7636C83.2559 10.3304 83.7153 11.0522 84.0494 11.9292C84.3835 12.8002 84.5505 13.8383 84.5505 15.0434V16.0368H74.9757C74.9853 16.8018 75.1313 17.4611 75.4137 18.0145C75.7061 18.5812 76.1147 19.0167 76.6397 19.321C77.1647 19.6193 77.7792 19.7684 78.4832 19.7684C78.9545 19.7684 79.3811 19.7028 79.7629 19.5716C80.1447 19.4343 80.4758 19.2345 80.7562 18.972C81.0366 18.7095 81.2484 18.3843 81.3916 17.9966L84.4163 18.3366C84.2254 19.136 83.8615 19.8341 83.3245 20.4306C82.7936 21.0213 82.1135 21.4806 81.2842 21.8088C80.4549 22.1309 79.5064 22.292 78.4385 22.292ZM75.3958 12.3588C75.151 12.8166 75.013 13.3147 74.9819 13.8532H81.4453C81.4393 13.2328 81.3051 12.6809 81.0426 12.1977C80.7801 11.7085 80.4132 11.3237 79.9419 11.0433C79.4765 10.7629 78.9336 10.6227 78.3132 10.6227C77.651 10.6227 77.0693 10.7838 76.5682 11.1059C76.067 11.4221 75.6762 11.8397 75.3958 12.3588Z" fill="#121316"/>
<path d="M90.5323 13.9696C90.5323 13.3074 90.6546 12.7436 90.8993 12.2782C91.1498 11.8129 91.4929 11.4579 91.9284 11.2133C92.3698 10.9627 92.874 10.8375 93.4407 10.8375C94.276 10.8375 94.9292 11.097 95.4005 11.616C95.8778 12.135 96.1164 12.8539 96.1164 13.7727V22.0235H99.3559V13.2716C99.3619 12.1738 99.168 11.2402 98.7742 10.4706C98.3865 9.70096 97.8376 9.11331 97.1277 8.70763C96.4237 8.30195 95.5974 8.09911 94.6488 8.09911C93.6227 8.09911 92.7606 8.32581 92.0626 8.77922C91.3706 9.23263 90.8664 9.84414 90.5502 10.6137H90.3892V8.27809H87.2929V22.0235H90.5323V13.9696Z" fill="#121316"/>
<path d="M108.645 22.292C107.272 22.292 106.094 21.9907 105.11 21.3882C104.131 20.7856 103.377 19.9534 102.846 18.8914C102.321 17.8235 102.058 16.5946 102.058 15.2045C102.058 13.8085 102.327 12.5765 102.864 11.5086C103.401 10.4348 104.158 9.59954 105.137 9.00294C106.121 8.40039 107.284 8.09911 108.627 8.09911C109.742 8.09911 110.73 8.30493 111.589 8.71658C112.454 9.12226 113.143 9.69797 113.656 10.4437C114.169 11.1835 114.461 12.0485 114.533 13.0389H111.437C111.311 12.3767 111.013 11.8248 110.542 11.3833C110.076 10.9359 109.453 10.7122 108.671 10.7122C108.009 10.7122 107.428 10.8912 106.926 11.2491C106.425 11.6011 106.034 12.1082 105.754 12.7704C105.48 13.4326 105.342 14.2261 105.342 15.1508C105.342 16.0875 105.48 16.8929 105.754 17.567C106.029 18.2352 106.413 18.7512 106.908 19.1152C107.41 19.4731 107.997 19.6521 108.671 19.6521C109.149 19.6521 109.575 19.5626 109.951 19.3836C110.333 19.1987 110.652 18.9332 110.909 18.5872C111.165 18.2412 111.341 17.8206 111.437 17.3254H114.533C114.455 18.2978 114.169 19.1599 113.674 19.9116C113.179 20.6574 112.505 21.242 111.651 21.6656C110.798 22.0832 109.796 22.292 108.645 22.292Z" fill="#121316"/>
<path d="M119.205 27.1782C118.763 27.1782 118.354 27.1424 117.979 27.0708C117.609 27.0052 117.313 26.9276 117.093 26.8381L117.844 24.3146C118.316 24.4518 118.736 24.5174 119.106 24.5114C119.476 24.5055 119.801 24.3891 120.082 24.1624C120.368 23.9417 120.61 23.5718 120.806 23.0528L121.084 22.31L116.099 8.27819H119.536L122.704 18.6589H122.847L126.024 8.27819H129.469L123.965 23.6881C123.709 24.416 123.369 25.0394 122.945 25.5584C122.522 26.0835 122.003 26.4832 121.388 26.7576C120.78 27.038 120.052 27.1782 119.205 27.1782Z" fill="#121316"/>
</svg>
