<svg width="138" height="29" viewBox="0 0 138 29" fill="none" xmlns="http://www.w3.org/2000/svg">
<path d="M0.185547 14.0234C0.185547 8.47667 3.41128 3.6833 8.08915 1.41695V14.0859C8.1227 17.4248 10.84 20.1211 14.1867 20.1212L26.7914 20.1212C24.5247 24.7984 19.7318 28.0234 14.1856 28.0234C6.45356 28.0234 0.185547 21.7554 0.185547 14.0234Z" fill="#121316"/>
<path d="M28.1856 14.0234C28.1856 14.8181 28.1193 15.5974 27.9921 16.3559H19.8228C20.1205 15.6374 20.2848 14.8496 20.2848 14.0234C20.2848 10.6556 17.5547 7.92553 14.187 7.92553C13.3608 7.92553 12.573 8.08984 11.8545 8.38756V0.216632C12.6126 0.0895711 13.3913 0.0234375 14.1856 0.0234375C21.9175 0.0234375 28.1856 6.29145 28.1856 14.0234Z" fill="#121316"/>
<path d="M84.0029 22.8179V9.07241H87.2424V22.8179H84.0029Z" fill="#121316"/>
<path d="M85.6316 7.12156C85.1185 7.12156 84.677 6.95153 84.3071 6.61148C83.9373 6.26545 83.7523 5.85082 83.7523 5.36758C83.7523 4.87838 83.9373 4.46375 84.3071 4.12369C84.677 3.77767 85.1185 3.60466 85.6316 3.60466C86.1506 3.60466 86.5921 3.77767 86.956 4.12369C87.3259 4.46375 87.5108 4.87838 87.5108 5.36758C87.5108 5.85082 87.3259 6.26545 86.956 6.61148C86.5921 6.95153 86.1506 7.12156 85.6316 7.12156Z" fill="#121316"/>
<path d="M97.438 11.5782V9.07247H94.7265V5.77929H91.487V9.07247H89.5362V11.5782H91.487V19.2205C91.4811 20.0796 91.666 20.7955 92.0419 21.3682C92.4237 21.9409 92.9397 22.3645 93.59 22.639C94.2403 22.9074 94.9711 23.0297 95.7825 23.0059C96.2419 22.9939 96.6297 22.9522 96.9459 22.8806C97.268 22.809 97.5156 22.7434 97.6886 22.6837L97.1427 20.1512C97.0532 20.175 96.922 20.2019 96.749 20.2317C96.5819 20.2615 96.397 20.2765 96.1941 20.2765C95.9257 20.2765 95.6811 20.2347 95.4603 20.1512C95.2396 20.0676 95.0606 19.9125 94.9234 19.6858C94.7922 19.4532 94.7265 19.1191 94.7265 18.6836V11.5782H97.438Z" fill="#121316"/>
<path d="M122.342 11.5782V9.07247H119.63V5.77929H116.391V9.07247H114.44V11.5782H116.391V19.2205C116.385 20.0796 116.57 20.7955 116.945 21.3682C117.327 21.9409 117.843 22.3645 118.494 22.639C119.144 22.9074 119.875 23.0297 120.686 23.0059C121.145 22.9939 121.533 22.9522 121.849 22.8806C122.172 22.809 122.419 22.7434 122.592 22.6837L122.046 20.1512C121.957 20.175 121.826 20.2019 121.653 20.2317C121.485 20.2615 121.301 20.2765 121.098 20.2765C120.829 20.2765 120.585 20.2347 120.364 20.1512C120.143 20.0676 119.964 19.9125 119.827 19.6858C119.696 19.4532 119.63 19.1191 119.63 18.6836V11.5782H122.342Z" fill="#121316"/>
<path fill-rule="evenodd" clip-rule="evenodd" d="M127.42 22.2272C128.422 22.7999 129.612 23.0863 130.991 23.0863C132.058 23.0863 133.007 22.9252 133.836 22.6031C134.666 22.2749 135.346 21.8156 135.877 21.2249C136.414 20.6284 136.777 19.9303 136.968 19.1309L133.944 18.7909C133.8 19.1786 133.589 19.5038 133.308 19.7663C133.028 20.0288 132.697 20.2286 132.315 20.3659C131.933 20.4971 131.507 20.5627 131.035 20.5627C130.331 20.5627 129.717 20.4136 129.192 20.1153C128.667 19.811 128.258 19.3755 127.966 18.8088C127.683 18.2554 127.537 17.5961 127.528 16.8311H137.103V15.8377C137.103 14.6326 136.936 13.5945 136.601 12.7235C136.267 11.8465 135.808 11.1247 135.223 10.5579C134.645 9.99114 133.976 9.57353 133.219 9.30506C132.467 9.03063 131.668 8.89341 130.82 8.89341C129.508 8.89341 128.366 9.19469 127.393 9.79725C126.421 10.3938 125.663 11.2291 125.12 12.3029C124.583 13.3708 124.315 14.6117 124.315 16.0257C124.315 17.4634 124.583 18.7133 125.12 19.7752C125.657 20.8312 126.424 21.6485 127.42 22.2272ZM127.534 14.6475C127.565 14.109 127.703 13.6109 127.948 13.1531C128.228 12.634 128.619 12.2164 129.12 11.9002C129.621 11.5781 130.203 11.417 130.865 11.417C131.486 11.417 132.029 11.5572 132.494 11.8376C132.965 12.118 133.332 12.5028 133.595 12.992C133.857 13.4752 133.991 14.0271 133.997 14.6475H127.534Z" fill="#121316"/>
<path d="M108.909 17.037V9.07249H112.148V22.8179H109.007V20.3749H108.864C108.554 21.1445 108.044 21.7739 107.334 22.2631C106.63 22.7523 105.762 22.9969 104.73 22.9969C103.829 22.9969 103.032 22.7971 102.34 22.3974C101.654 21.9917 101.117 21.404 100.729 20.6344C100.342 19.8589 100.148 18.9222 100.148 17.8245V9.07249H103.387V17.3233C103.387 18.1944 103.626 18.8864 104.103 19.3995C104.58 19.9126 105.207 20.1691 105.982 20.1691C106.46 20.1691 106.922 20.0528 107.37 19.8201C107.817 19.5874 108.184 19.2414 108.47 18.782C108.763 18.3167 108.909 17.735 108.909 17.037Z" fill="#121316"/>
<path d="M81.2933 11.5782V9.07247H78.5818V5.77929H75.3424V9.07247H73.3915V11.5782H75.3424V19.2205C75.3364 20.0796 75.5213 20.7955 75.8972 21.3682C76.279 21.9409 76.7951 22.3645 77.4453 22.639C78.0956 22.9074 78.8264 23.0297 79.6378 23.0059C80.0972 22.9939 80.485 22.9522 80.8012 22.8806C81.1233 22.809 81.3709 22.7434 81.5439 22.6837L80.998 20.1512C80.9085 20.175 80.7773 20.2019 80.6043 20.2317C80.4372 20.2615 80.2523 20.2765 80.0495 20.2765C79.781 20.2765 79.5364 20.2347 79.3157 20.1512C79.0949 20.0676 78.9159 19.9125 78.7787 19.6858C78.6475 19.4532 78.5818 19.1191 78.5818 18.6836V11.5782H81.2933Z" fill="#121316"/>
<path d="M71.4654 12.7056L68.5123 13.0278C68.4288 12.7295 68.2826 12.4491 68.0738 12.1866C67.871 11.9241 67.5965 11.7123 67.2505 11.5512C66.9045 11.3901 66.4809 11.3096 65.9798 11.3096C65.3056 11.3096 64.7389 11.4558 64.2795 11.7481C63.8261 12.0404 63.6024 12.4193 63.6083 12.8846C63.6024 13.2843 63.7485 13.6095 64.0468 13.86C64.3511 14.1106 64.8522 14.3164 65.5502 14.4775L67.8948 14.9786C69.1954 15.259 70.1619 15.7035 70.7943 16.312C71.4326 16.9205 71.7548 17.717 71.7607 18.7014C71.7548 19.5664 71.5012 20.3301 71.0001 20.9923C70.5049 21.6485 69.8159 22.1616 68.9329 22.5315C68.0499 22.9014 67.0357 23.0863 65.8903 23.0863C64.2079 23.0863 62.8536 22.7343 61.8275 22.0303C60.8014 21.3204 60.1899 20.333 59.993 19.0683L63.1519 18.764C63.2951 19.3845 63.5994 19.8528 64.0647 20.169C64.5301 20.4852 65.1356 20.6433 65.8813 20.6433C66.6509 20.6433 67.2684 20.4852 67.7337 20.169C68.2051 19.8528 68.4407 19.462 68.4407 18.9967C68.4407 18.6029 68.2886 18.2778 67.9843 18.0213C67.686 17.7647 67.2207 17.5678 66.5883 17.4306L64.2437 16.9384C62.9252 16.664 61.9498 16.2017 61.3174 15.5514C60.685 14.8951 60.3718 14.0659 60.3778 13.0636C60.3718 12.2164 60.6015 11.4826 61.0668 10.8622C61.5382 10.2357 62.1914 9.7525 63.0267 9.41245C63.8678 9.06642 64.8373 8.89341 65.935 8.89341C67.5458 8.89341 68.8136 9.23645 69.7383 9.92253C70.669 10.6086 71.2447 11.5363 71.4654 12.7056Z" fill="#121316"/>
<path d="M48.4828 22.8178V14.7639C48.4828 14.1017 48.6051 13.5379 48.8497 13.0725C49.1003 12.6072 49.4433 12.2522 49.8788 12.0076C50.3203 11.757 50.8244 11.6318 51.3912 11.6318C52.2264 11.6318 52.8797 11.8913 53.351 12.4103C53.8283 12.9294 54.0669 13.6482 54.0669 14.567V22.8178H57.3064V14.0659C57.3124 12.9681 57.1185 12.0345 56.7247 11.2649C56.3369 10.4953 55.7881 9.90762 55.0781 9.50194C54.3742 9.09625 53.5479 8.89341 52.5993 8.89341C51.5732 8.89341 50.7111 9.12012 50.0131 9.57353C49.321 10.0269 48.8169 10.6384 48.5007 11.408H48.3396V9.07239H45.2433V22.8178H48.4828Z" fill="#121316"/>
<path d="M41.792 4.49066V22.8179H38.472V4.49066H41.792Z" fill="#121316"/>
</svg>
