<svg width="132" height="29" viewBox="0 0 132 29" fill="none" xmlns="http://www.w3.org/2000/svg">
<path fill-rule="evenodd" clip-rule="evenodd" d="M9.44585 0.812169V9.35676C4.29154 9.35717 0.113281 13.5357 0.113281 18.6901C0.113281 23.8448 4.29196 28.0234 9.44662 28.0234H17.8911C18.382 28.0234 18.7799 27.6255 18.7799 27.1345V18.6901C23.9346 18.69 28.1132 14.5114 28.1132 9.35677C28.1132 4.20211 23.9338 0.0234375 18.7792 0.0234375H10.2346C9.79898 0.0234375 9.44585 0.376565 9.44585 0.812169ZM18.7799 18.6901H10.3354C9.84447 18.6901 9.4465 18.2921 9.4465 17.8012L9.44585 9.35676L17.8956 9.35677C18.372 9.35917 18.7597 9.73627 18.7792 10.2084L18.7799 18.6901Z" fill="#121316"/>
<path d="M40.7723 4.14386L45.542 18.5694H45.7299L50.4907 4.14386H54.1419L47.6808 22.4711H43.5822L37.1301 4.14386H40.7723Z" fill="#121316"/>
<path d="M92.0929 11.2314V8.72568H89.3814V5.43249H86.1419V8.72568H84.191V11.2314H86.1419V18.8737C86.1359 19.7328 86.3209 20.4487 86.6967 21.0214C87.0785 21.5941 87.5946 22.0177 88.2449 22.2922C88.8951 22.5606 89.626 22.6829 90.4373 22.6591C90.8967 22.6471 91.2845 22.6054 91.6007 22.5338C91.9229 22.4622 92.1704 22.3966 92.3434 22.3369L91.7976 19.8044C91.7081 19.8282 91.5768 19.8551 91.4038 19.8849C91.2368 19.9147 91.0518 19.9297 90.849 19.9297C90.5805 19.9297 90.3359 19.8879 90.1152 19.8044C89.8944 19.7208 89.7155 19.5657 89.5782 19.339C89.447 19.1064 89.3814 18.7723 89.3814 18.3368V11.2314H92.0929Z" fill="#121316"/>
<path d="M110.135 8.72566V22.4711H113.375V14.3903C113.375 13.8056 113.509 13.2896 113.778 12.8421C114.046 12.3947 114.413 12.0457 114.878 11.7951C115.35 11.5386 115.881 11.4103 116.471 11.4103C116.746 11.4103 117.029 11.4312 117.321 11.473C117.62 11.5088 117.837 11.5505 117.975 11.5982V8.61827C117.825 8.58844 117.638 8.56756 117.411 8.55563C117.19 8.53773 116.99 8.52879 116.811 8.52879C116.024 8.52879 115.323 8.74654 114.708 9.18205C114.1 9.6116 113.67 10.2231 113.42 11.0166H113.276V8.72566H110.135Z" fill="#121316"/>
<path fill-rule="evenodd" clip-rule="evenodd" d="M122.075 21.8804C123.077 22.4531 124.267 22.7395 125.645 22.7395C126.713 22.7395 127.662 22.5784 128.491 22.2563C129.32 21.9282 130 21.4688 130.531 20.8782C131.068 20.2816 131.432 19.5835 131.623 18.7841L128.598 18.4441C128.455 18.8318 128.244 19.157 127.963 19.4195C127.683 19.682 127.352 19.8818 126.97 20.0191C126.588 20.1503 126.161 20.2159 125.69 20.2159C124.986 20.2159 124.372 20.0668 123.847 19.7685C123.322 19.4642 122.913 19.0287 122.621 18.462C122.338 17.9086 122.192 17.2493 122.183 16.4843H131.757V15.4909C131.757 14.2858 131.59 13.2478 131.256 12.3767C130.922 11.4997 130.463 10.7779 129.878 10.2111C129.299 9.64434 128.631 9.22673 127.874 8.95826C127.122 8.68383 126.322 8.54662 125.475 8.54662C124.163 8.54662 123.02 8.84789 122.048 9.45045C121.075 10.047 120.318 10.8823 119.775 11.9561C119.238 13.024 118.97 14.2649 118.97 15.6789C118.97 17.1166 119.238 18.3665 119.775 19.4284C120.312 20.4844 121.078 21.3017 122.075 21.8804ZM122.189 14.3007C122.22 13.7622 122.358 13.2641 122.603 12.8063C122.883 12.2872 123.274 11.8696 123.775 11.5534C124.276 11.2313 124.858 11.0702 125.52 11.0702C126.141 11.0702 126.683 11.2104 127.149 11.4908C127.62 11.7712 127.987 12.156 128.249 12.6452C128.512 13.1284 128.646 13.6803 128.652 14.3007H122.189Z" fill="#121316"/>
<path d="M103.564 16.6902V8.7257H106.803V22.4712H103.662V20.0281H103.519C103.209 20.7977 102.699 21.4271 101.989 21.9163C101.285 22.4055 100.417 22.6501 99.3844 22.6501C98.4836 22.6501 97.6871 22.4503 96.9951 22.0506C96.309 21.6449 95.7721 21.0572 95.3843 20.2876C94.9965 19.5121 94.8026 18.5754 94.8026 17.4777V8.7257H98.0421V16.9765C98.0421 17.8476 98.2808 18.5396 98.758 19.0527C99.2353 19.5658 99.8617 19.8223 100.637 19.8223C101.115 19.8223 101.577 19.706 102.024 19.4733C102.472 19.2406 102.839 18.8946 103.125 18.4352C103.417 17.9699 103.564 17.3882 103.564 16.6902Z" fill="#121316"/>
<path d="M73.1135 14.4171V22.471H69.874V8.72559H72.9703V11.0612H73.1314C73.4476 10.2916 73.9517 9.68014 74.6437 9.22673C75.3417 8.77332 76.2038 8.54662 77.23 8.54662C78.1785 8.54662 79.0048 8.74946 79.7088 9.15514C80.4187 9.56082 80.9676 10.1485 81.3554 10.9181C81.7491 11.6877 81.943 12.6213 81.9371 13.7191V22.471H78.6976V14.2202C78.6976 13.3014 78.4589 12.5826 77.9817 12.0635C77.5104 11.5445 76.8571 11.285 76.0219 11.285C75.4551 11.285 74.951 11.4103 74.5095 11.6608C74.074 11.9054 73.7309 12.2604 73.4804 12.7257C73.2358 13.1911 73.1135 13.7549 73.1135 14.4171Z" fill="#121316"/>
<path fill-rule="evenodd" clip-rule="evenodd" d="M57.4521 21.8804C58.4544 22.4531 59.6446 22.7395 61.0227 22.7395C62.0906 22.7395 63.0392 22.5784 63.8685 22.2563C64.6977 21.9282 65.3778 21.4688 65.9088 20.8782C66.4457 20.2816 66.8097 19.5835 67.0006 18.7841L63.9759 18.4441C63.8327 18.8318 63.6209 19.157 63.3405 19.4195C63.0601 19.682 62.729 19.8818 62.3472 20.0191C61.9653 20.1503 61.5388 20.2159 61.0675 20.2159C60.3635 20.2159 59.749 20.0668 59.224 19.7685C58.699 19.4642 58.2903 19.0287 57.998 18.462C57.7156 17.9086 57.5696 17.2493 57.56 16.4843H67.1348V15.4909C67.1348 14.2858 66.9678 13.2478 66.6337 12.3767C66.2996 11.4997 65.8402 10.7779 65.2555 10.2111C64.6768 9.64434 64.0087 9.22673 63.251 8.95826C62.4993 8.68383 61.6999 8.54662 60.8527 8.54662C59.5402 8.54662 58.3977 8.84789 57.4253 9.45045C56.4528 10.047 55.6952 10.8823 55.1523 11.9561C54.6153 13.024 54.3469 14.2649 54.3469 15.6789C54.3469 17.1166 54.6153 18.3665 55.1523 19.4284C55.6892 20.4844 56.4558 21.3017 57.4521 21.8804ZM64.0295 14.3007H57.5661C57.5973 13.7622 57.7353 13.2641 57.9801 12.8063C58.2605 12.2872 58.6513 11.8696 59.1524 11.5534C59.6536 11.2313 60.2352 11.0702 60.8974 11.0702C61.5179 11.0702 62.0608 11.2104 62.5261 11.4908C62.9974 11.7712 63.3644 12.156 63.6269 12.6452C63.8893 13.1284 64.0236 13.6803 64.0295 14.3007Z" fill="#121316"/>
</svg>
