<svg width="153" height="29" viewBox="0 0 153 29" fill="none" xmlns="http://www.w3.org/2000/svg">
<path d="M8.68836 2.07807C8.68836 0.930384 9.61874 0 10.7664 0H25.9061C27.0537 0 27.9841 0.930384 27.9841 2.07807V17.3997C27.9841 18.5474 27.0537 19.4778 25.9061 19.4778H19.2958V10.6468C19.2958 9.49907 18.3654 8.56869 17.2177 8.56869H8.68836V2.07807Z" fill="#121316"/>
<path d="M8.68836 8.56869H2.07807C0.930384 8.56869 0 9.49907 0 10.6468V25.9684C0 27.1161 0.930382 28.0465 2.07807 28.0465H17.2177C18.3654 28.0465 19.2958 27.1161 19.2958 25.9684V19.4778H10.7664C9.61874 19.4778 8.68836 18.5474 8.68836 17.3997V8.56869Z" fill="#121316"/>
<path d="M53.8686 10.6234H50.5217C50.4262 10.0746 50.2502 9.58834 49.9937 9.16476C49.7372 8.73522 49.418 8.3713 49.0362 8.073C48.6544 7.7747 48.2188 7.55098 47.7296 7.40183C47.2464 7.24672 46.7244 7.16917 46.1636 7.16917C45.1673 7.16917 44.2843 7.41973 43.5147 7.92087C42.7451 8.41604 42.1426 9.14388 41.7071 10.1044C41.2715 11.0589 41.0538 12.2253 41.0538 13.6034C41.0538 15.0054 41.2715 16.1866 41.7071 17.1471C42.1485 18.1017 42.7511 18.8236 43.5147 19.3128C44.2843 19.796 45.1643 20.0376 46.1546 20.0376C46.7035 20.0376 47.2166 19.966 47.6938 19.8229C48.1771 19.6737 48.6096 19.456 48.9914 19.1696C49.3792 18.8832 49.7044 18.5312 49.9669 18.1136C50.2353 17.696 50.4203 17.2187 50.5217 16.6818L53.8686 16.6997C53.7433 17.5707 53.4718 18.3881 53.0542 19.1517C52.6426 19.9153 52.1027 20.5895 51.4345 21.1741C50.7663 21.7528 49.9848 22.2062 49.0899 22.5344C48.195 22.8565 47.2017 23.0176 46.1099 23.0176C44.4991 23.0176 43.0613 22.6447 41.7965 21.899C40.5318 21.1533 39.5355 20.0764 38.8076 18.6685C38.0798 17.2605 37.7159 15.5721 37.7159 13.6034C37.7159 11.6287 38.0828 9.94033 38.8166 8.53834C39.5504 7.13039 40.5497 6.05354 41.8144 5.3078C43.0792 4.56206 44.511 4.18919 46.1099 4.18919C47.1301 4.18919 48.0786 4.33237 48.9556 4.61874C49.8326 4.9051 50.6142 5.3257 51.3002 5.88053C51.9863 6.42939 52.5501 7.10354 52.9916 7.90297C53.439 8.69644 53.7313 9.60326 53.8686 10.6234Z" fill="#121316"/>
<path fill-rule="evenodd" clip-rule="evenodd" d="M59.2704 22.1495C60.2548 22.7401 61.4181 23.0354 62.7605 23.0354C64.1028 23.0354 65.2661 22.7401 66.2505 22.1495C67.2349 21.5589 67.9955 20.7326 68.5325 19.6707C69.0754 18.6087 69.3468 17.3678 69.3468 15.9479C69.3468 14.5281 69.0754 13.2842 68.5325 12.2163C67.9955 11.1484 67.2349 10.3191 66.2505 9.72848C65.2661 9.13786 64.1028 8.84255 62.7605 8.84255C61.4181 8.84255 60.2548 9.13786 59.2704 9.72848C58.286 10.3191 57.5224 11.1484 56.9795 12.2163C56.4426 13.2842 56.1741 14.5281 56.1741 15.9479C56.1741 17.3678 56.4426 18.6087 56.9795 19.6707C57.5224 20.7326 58.286 21.5589 59.2704 22.1495ZM64.6039 19.8407C64.1147 20.2404 63.5062 20.4403 62.7783 20.4403C62.0326 20.4403 61.4122 20.2404 60.917 19.8407C60.4278 19.435 60.0609 18.8921 59.8163 18.212C59.5776 17.5319 59.4583 16.7742 59.4583 15.939C59.4583 15.0978 59.5776 14.3371 59.8163 13.657C60.0609 12.971 60.4278 12.4251 60.917 12.0194C61.4122 11.6137 62.0326 11.4109 62.7783 11.4109C63.5062 11.4109 64.1147 11.6137 64.6039 12.0194C65.0931 12.4251 65.457 12.971 65.6957 13.657C65.9403 14.3371 66.0626 15.0978 66.0626 15.939C66.0626 16.7742 65.9403 17.5319 65.6957 18.212C65.457 18.8921 65.0931 19.435 64.6039 19.8407Z" fill="#121316"/>
<path d="M72.0962 22.767V9.02152H75.1925V11.3572H75.3536C75.6399 10.5697 76.1142 9.95519 76.7765 9.51371C77.4387 9.06627 78.2291 8.84255 79.1479 8.84255C80.0786 8.84255 80.8631 9.06925 81.5015 9.52266C82.1458 9.9701 82.5992 10.5816 82.8617 11.3572H83.0049C83.3091 10.5935 83.8222 9.98502 84.5441 9.53161C85.2719 9.07223 86.134 8.84255 87.1303 8.84255C88.3951 8.84255 89.4272 9.24226 90.2266 10.0417C91.026 10.8411 91.4257 12.0075 91.4257 13.5407V22.767H88.1773V14.0418C88.1773 13.1887 87.9506 12.5653 87.4972 12.1715C87.0438 11.7718 86.489 11.5719 85.8327 11.5719C85.0512 11.5719 84.4397 11.8166 83.9982 12.3058C83.5627 12.789 83.3449 13.4184 83.3449 14.194V22.767H80.1681V13.9076C80.1681 13.1977 79.9533 12.6309 79.5238 12.2073C79.1002 11.7837 78.5453 11.5719 77.8593 11.5719C77.3939 11.5719 76.9703 11.6913 76.5885 11.9299C76.2067 12.1626 75.9024 12.4937 75.6757 12.9232C75.449 13.3468 75.3357 13.842 75.3357 14.4087V22.767H72.0962Z" fill="#121316"/>
<path fill-rule="evenodd" clip-rule="evenodd" d="M94.7144 9.02152V27.9215H97.9539V20.6014H98.0881C98.2612 20.9354 98.5028 21.2904 98.813 21.6663C99.1292 22.0362 99.5468 22.3523 100.066 22.6148C100.585 22.8773 101.238 23.0086 102.026 23.0086C103.105 23.0086 104.072 22.7312 104.925 22.1764C105.778 21.6215 106.452 20.8161 106.948 19.7602C107.443 18.7042 107.69 17.4215 107.69 15.9121C107.69 14.3849 107.437 13.0962 106.93 12.0462C106.428 10.9903 105.748 10.1938 104.889 9.65689C104.036 9.11399 103.079 8.84255 102.017 8.84255C101.211 8.84255 100.549 8.97976 100.03 9.25419C99.511 9.52266 99.0994 9.8478 98.7951 10.2296C98.4908 10.6055 98.2552 10.9604 98.0881 11.2945H97.9002V9.02152H94.7144ZM98.2671 18.2299C98.0165 17.5617 97.8913 16.7832 97.8913 15.8943C97.8913 15.0053 98.0136 14.2327 98.2582 13.5765C98.5087 12.9202 98.8756 12.4102 99.3589 12.0462C99.8421 11.6823 100.43 11.5004 101.122 11.5004C101.844 11.5004 102.446 11.6883 102.929 12.0641C103.413 12.44 103.777 12.959 104.021 13.6212C104.266 14.2835 104.388 15.0411 104.388 15.8943C104.388 16.7533 104.263 17.52 104.012 18.1941C103.768 18.8623 103.404 19.3903 102.921 19.7781C102.437 20.1599 101.838 20.3508 101.122 20.3508C100.436 20.3508 99.8511 20.1658 99.3678 19.796C98.8906 19.4201 98.5237 18.8981 98.2671 18.2299Z" fill="#121316"/>
<path fill-rule="evenodd" clip-rule="evenodd" d="M114.418 23.0444C113.547 23.0444 112.762 22.8893 112.064 22.5791C111.372 22.2629 110.824 21.7975 110.418 21.183C110.018 20.5685 109.818 19.8109 109.818 18.91C109.818 18.1345 109.962 17.4931 110.248 16.986C110.534 16.4789 110.925 16.0732 111.42 15.769C111.915 15.4647 112.473 15.235 113.094 15.0799C113.72 14.9188 114.367 14.8025 115.036 14.7309C115.841 14.6474 116.494 14.5728 116.995 14.5072C117.496 14.4356 117.86 14.3282 118.087 14.185C118.32 14.0359 118.436 13.8062 118.436 13.496V13.4423C118.436 12.7681 118.236 12.2461 117.837 11.8762C117.437 11.5063 116.861 11.3214 116.109 11.3214C115.316 11.3214 114.687 11.4944 114.221 11.8404C113.762 12.1864 113.452 12.5951 113.29 13.0664L110.266 12.6369C110.504 11.8016 110.898 11.1036 111.447 10.5428C111.996 9.97607 112.667 9.55249 113.461 9.27209C114.254 8.98573 115.131 8.84255 116.091 8.84255C116.754 8.84255 117.413 8.9201 118.069 9.07522C118.725 9.23033 119.325 9.48686 119.868 9.84482C120.411 10.1968 120.846 10.6771 121.174 11.2856C121.509 11.8941 121.676 12.6548 121.676 13.5675V22.767H118.561V20.8788H118.454C118.257 21.2606 117.98 21.6185 117.622 21.9526C117.27 22.2808 116.825 22.5462 116.288 22.7491C115.757 22.946 115.134 23.0444 114.418 23.0444ZM115.259 20.664C115.91 20.664 116.473 20.5357 116.951 20.2792C117.428 20.0167 117.795 19.6707 118.051 19.2411C118.314 18.8116 118.445 18.3433 118.445 17.8362V16.2164C118.344 16.2999 118.171 16.3775 117.926 16.4491C117.687 16.5207 117.419 16.5833 117.121 16.637C116.822 16.6907 116.527 16.7384 116.235 16.7802C115.942 16.8219 115.689 16.8577 115.474 16.8876C114.991 16.9532 114.558 17.0606 114.176 17.2097C113.795 17.3589 113.493 17.5677 113.273 17.8362C113.052 18.0987 112.941 18.4387 112.941 18.8563C112.941 19.4529 113.159 19.9033 113.595 20.2076C114.03 20.5119 114.585 20.664 115.259 20.664Z" fill="#121316"/>
<path d="M128.174 22.767V14.713C128.174 14.0508 128.297 13.487 128.541 13.0217C128.792 12.5563 129.135 12.2014 129.57 11.9567C130.012 11.7062 130.516 11.5809 131.083 11.5809C131.918 11.5809 132.571 11.8404 133.042 12.3594C133.52 12.8785 133.758 13.5974 133.758 14.5161V22.767H136.998V14.015C137.004 12.9173 136.81 11.9836 136.416 11.214C136.028 10.4444 135.48 9.85675 134.77 9.45107C134.066 9.04539 133.239 8.84255 132.291 8.84255C131.265 8.84255 130.403 9.06925 129.704 9.52266C129.012 9.97607 128.508 10.5876 128.192 11.3572H128.031V9.02152H124.935V22.767H128.174Z" fill="#121316"/>
<path d="M140.586 27.8142C140.961 27.8858 141.37 27.9216 141.812 27.9216C142.659 27.9216 143.387 27.7814 143.995 27.501C144.61 27.2266 145.129 26.8269 145.552 26.3019C145.976 25.7829 146.316 25.1594 146.572 24.4316L152.076 9.02163H148.631L145.454 19.4023H145.311L142.143 9.02163H138.706L143.691 23.0534L143.413 23.7962C143.217 24.3152 142.975 24.6851 142.689 24.9059C142.408 25.1326 142.083 25.2489 141.713 25.2549C141.343 25.2608 140.923 25.1952 140.451 25.058L139.7 27.5816C139.92 27.6711 140.216 27.7486 140.586 27.8142Z" fill="#121316"/>
</svg>
