<svg width="20" height="20" viewBox="0 0 20 20" fill="none" xmlns="http://www.w3.org/2000/svg">
<path d="M6.17251 1.9752C6.14254 1.95582 6.14531 1.91115 6.17758 1.8959C7.33695 1.3481 8.63275 1.04175 10.0001 1.04175C12.085 1.04175 14.0036 1.75397 15.5257 2.94838C15.7118 3.09443 15.7255 3.36776 15.5637 3.54037L15.3772 3.73932C15.3706 3.74641 15.3641 3.75366 15.3577 3.76106C14.2379 5.07341 12.8649 6.17152 11.3119 6.983C11.1184 7.08413 10.8817 7.01099 10.7676 6.82481C9.59425 4.91099 8.03113 3.2614 6.18895 1.98619C6.18353 1.98244 6.17805 1.97878 6.17251 1.9752Z" fill="white"/>
<path d="M16.4319 4.4418C16.6004 4.26199 16.8881 4.2665 17.0406 4.46008C18.2417 5.98451 18.9584 7.90853 18.9584 9.99994C18.9584 10.0553 18.9579 10.1105 18.9569 10.1657C18.953 10.3836 18.7369 10.529 18.53 10.4604C18.5033 10.4515 18.4761 10.4445 18.4484 10.4393C17.6383 10.2874 16.8054 10.2083 15.9559 10.2083C14.8954 10.2083 13.8623 10.3314 12.8681 10.5648C12.6481 10.6164 12.4238 10.4904 12.3545 10.2754C12.1741 9.71535 11.9637 9.16877 11.7252 8.63752C11.6315 8.42877 11.7171 8.18203 11.9196 8.07563C13.5983 7.1937 15.0843 6.00418 16.2991 4.58352L16.4319 4.4418Z" fill="white"/>
<path d="M18.4127 11.7385C18.614 11.8053 18.734 12.0128 18.6816 12.2183C17.9272 15.1797 15.6974 17.5515 12.8211 18.5051C12.803 18.5111 12.7854 18.4949 12.7897 18.4764L12.7934 18.4596C13.0108 17.4067 13.1249 16.3166 13.1249 15.2005C13.1249 14.1973 13.0327 13.2154 12.8565 12.2631C12.8161 12.0455 12.9471 11.8303 13.1626 11.7799C14.0636 11.5691 14.9981 11.4583 15.9559 11.4583C16.7132 11.4583 17.4552 11.5274 18.177 11.6603L18.4127 11.7385Z" fill="white"/>
<path d="M11.1416 18.9009C11.3094 18.8796 11.4436 18.7537 11.4824 18.5889L11.5708 18.2127C11.77 17.2442 11.8747 16.2406 11.8747 15.212C11.8747 14.3756 11.8055 13.5553 11.6722 12.7567C11.6299 12.5024 11.3639 12.3557 11.127 12.4568C8.8983 13.4095 6.9617 15.0035 5.5118 17.0381L5.40197 17.1981C5.26889 17.392 5.32185 17.6585 5.52536 17.7762C6.84198 18.5374 8.37013 18.9731 9.99996 18.9731C10.3867 18.9731 10.7678 18.9485 11.1416 18.9009Z" fill="white"/>
<path d="M3.81242 16.4905C3.9918 16.662 4.27936 16.6242 4.41982 16.4196L4.49081 16.3162C6.12701 14.0184 8.34816 12.2207 10.9189 11.1887C11.1222 11.1072 11.235 10.8854 11.168 10.6767C10.997 10.1443 10.7967 9.62508 10.5691 9.12083C10.4796 8.9225 10.2499 8.83325 10.0453 8.90708C8.44883 9.48358 6.72384 9.79817 4.92453 9.79817C3.75607 9.79817 2.61836 9.66542 1.52648 9.41417C1.51981 9.41267 1.51315 9.411 1.50652 9.40925C1.2791 9.349 1.05222 9.50975 1.04549 9.74508C1.043 9.832 1.04175 9.91917 1.04175 10.0067C1.04175 12.5566 2.10521 14.8579 3.81242 16.4905Z" fill="white"/>
<path d="M1.35164 7.65939C1.29323 7.8755 1.42666 8.09384 1.6429 8.15115L1.81627 8.1971C2.81383 8.42583 3.85426 8.547 4.92433 8.547C6.47089 8.547 7.95669 8.29387 9.34122 7.82767C9.5868 7.74497 9.68805 7.45583 9.5483 7.23738C8.48671 5.57748 7.10324 4.14245 5.4853 3.0199L5.12928 2.78956C4.98737 2.69775 4.80356 2.70009 4.66785 2.80085C3.07275 3.98521 1.88459 5.68756 1.35164 7.65939Z" fill="white"/>
</svg>
