<svg width="72" height="72" viewBox="0 0 72 72" fill="none" xmlns="http://www.w3.org/2000/svg">
<path fill-rule="evenodd" clip-rule="evenodd" d="M62.4298 34.8904C61.8179 34.9937 61.4048 35.5737 61.5081 36.1868C61.752 37.6282 61.875 39.0784 61.875 40.5C61.875 48.4295 58.3407 55.587 52.6462 60.3527C51.6517 53.8954 47.0671 48.7163 40.9791 46.8629C43.3996 45.2483 45 42.4973 45 39.375C45 34.4114 40.9625 30.375 36 30.375C31.0375 30.375 27 34.4114 27 39.375C27 42.4973 28.6004 45.2483 31.0209 46.8629C24.9329 48.7163 20.3483 53.8954 19.3538 60.3527C13.6593 55.587 10.125 48.4295 10.125 40.5C10.125 39.0784 10.248 37.6282 10.4919 36.1868C10.5952 35.5737 10.1821 34.9937 9.57019 34.8904C8.94397 34.7849 8.37708 35.2002 8.27271 35.8132C8.00903 37.3755 7.875 38.9531 7.875 40.5C7.875 54.3164 17.7429 65.9773 31.3385 68.2273C31.4 68.2383 31.4626 68.2427 31.5231 68.2427C32.0636 68.2427 32.5404 67.8516 32.6316 67.3022C32.7338 66.6892 32.3185 66.1091 31.7054 66.0081C27.9145 65.3806 24.4464 63.9473 21.443 61.9141C21.9857 54.2795 28.2603 48.375 36 48.375C43.7397 48.375 50.0143 54.2795 50.557 61.9141C47.5536 63.9473 44.0855 65.3806 40.2946 66.0081C39.6815 66.1091 39.2662 66.6892 39.3684 67.3022C39.4596 67.8516 39.9364 68.2427 40.4769 68.2427C40.5374 68.2427 40.6 68.2383 40.6615 68.2273C54.2571 65.9773 64.125 54.3164 64.125 40.5C64.125 38.9531 63.991 37.3755 63.7273 35.8132C63.6229 35.2002 63.0494 34.7827 62.4298 34.8904ZM29.25 39.375C29.25 35.6528 32.2778 32.625 36 32.625C39.7222 32.625 42.75 35.6528 42.75 39.375C42.75 43.0972 39.7222 46.125 36 46.125C32.2778 46.125 29.25 43.0972 29.25 39.375Z" fill="#FC5B15"/>
<path fill-rule="evenodd" clip-rule="evenodd" d="M48.32 12.3267C48.1871 11.918 47.8355 11.6213 47.4114 11.5598L40.2231 10.5161L37.0085 4.00122C36.6306 3.23657 35.3693 3.23657 34.9914 4.00122L31.7768 10.5161L24.5885 11.5598C24.1644 11.6213 23.8128 11.918 23.6799 12.3267C23.548 12.7332 23.6579 13.1814 23.9644 13.4802L29.1665 18.5493L27.9382 25.708C27.8657 26.1321 28.0393 26.5583 28.3853 26.8088C28.7336 27.0615 29.1917 27.0989 29.5708 26.8945L36 23.5129L42.4291 26.8945C42.5939 26.9824 42.7741 27.0242 42.9532 27.0242C43.1861 27.0242 43.4179 26.9517 43.6146 26.8088C43.9606 26.5583 44.1342 26.1321 44.0617 25.708L42.8334 18.5493L48.0355 13.4802C48.342 13.1814 48.4519 12.7332 48.32 12.3267ZM40.8394 17.3496C40.5747 17.6089 40.4538 17.9802 40.5164 18.3472L41.4591 23.8425L36.524 21.2476C36.3592 21.1619 36.1801 21.1179 36 21.1179C35.8198 21.1179 35.6407 21.1619 35.4759 21.2476L30.5408 23.8425L31.4835 18.3472C31.5461 17.9802 31.4252 17.6089 31.1605 17.3496L27.168 13.4604L32.6854 12.6584C33.0523 12.6035 33.3687 12.375 33.5324 12.0432L36 7.04224L38.4675 12.0432C38.6312 12.375 38.9476 12.6035 39.3145 12.6584L44.8319 13.4604L40.8394 17.3496Z" fill="white"/>
<path fill-rule="evenodd" clip-rule="evenodd" d="M9.07905 30.4277C9.00654 30.8518 9.18013 31.2781 9.5262 31.5286C9.87556 31.7812 10.3348 31.8164 10.7116 31.6143L15.75 28.9644L20.7883 31.6143C20.9531 31.7021 21.1333 31.7439 21.3123 31.7439C21.5452 31.7439 21.7771 31.6714 21.9737 31.5286C22.3198 31.2781 22.4934 30.8518 22.4209 30.4277L21.4584 24.8181L25.5355 20.8455C25.842 20.5466 25.9519 20.0984 25.82 19.6919C25.6871 19.2832 25.3355 18.9866 24.9114 18.925L19.2777 18.1077L16.7585 13.0012C16.3806 12.2366 15.1193 12.2366 14.7414 13.0012L12.2222 18.1077L6.58845 18.925C6.16438 18.9866 5.81282 19.2832 5.67988 19.6919C5.54805 20.0984 5.65791 20.5466 5.96443 20.8455L10.0415 24.8181L9.07905 30.4277ZM9.16804 20.8257L13.1308 20.25C13.4978 20.1951 13.8142 19.9666 13.9779 19.6348L15.75 16.0422L17.522 19.6348C17.6857 19.9666 18.0021 20.1951 18.3691 20.25L22.3319 20.8257L19.4644 23.6184C19.1997 23.8777 19.0788 24.249 19.1414 24.616L19.8182 28.5623L16.274 26.699C16.1092 26.6133 15.9301 26.5693 15.75 26.5693C15.5698 26.5693 15.3907 26.6133 15.2259 26.699L11.6817 28.5623L12.3585 24.616C12.4211 24.249 12.3002 23.8777 12.0355 23.6184L9.16804 20.8257Z" fill="white"/>
<path fill-rule="evenodd" clip-rule="evenodd" d="M65.4114 18.925L59.7777 18.1077L57.2585 13.0012C56.8806 12.2366 55.6193 12.2366 55.2414 13.0012L52.7222 18.1077L47.0885 18.925C46.6644 18.9866 46.3128 19.2832 46.1799 19.6919C46.048 20.0984 46.1579 20.5466 46.4644 20.8455L50.5415 24.8181L49.5791 30.4277C49.5065 30.8518 49.6801 31.2781 50.0262 31.5286C50.3745 31.7812 50.8326 31.8164 51.2116 31.6143L56.25 28.9644L61.2883 31.6143C61.4531 31.7021 61.6333 31.7439 61.8123 31.7439C62.0452 31.7439 62.2771 31.6714 62.4737 31.5286C62.8198 31.2781 62.9934 30.8518 62.9209 30.4277L61.9584 24.8181L66.0355 20.8455C66.342 20.5466 66.4519 20.0984 66.32 19.6919C66.1871 19.2832 65.8355 18.9866 65.4114 18.925ZM59.9644 23.6184C59.6997 23.8777 59.5788 24.249 59.6414 24.616L60.3182 28.5623L56.774 26.699C56.6092 26.6133 56.4301 26.5693 56.25 26.5693C56.0698 26.5693 55.8907 26.6133 55.7259 26.699L52.1817 28.5623L52.8585 24.616C52.9211 24.249 52.8002 23.8777 52.5355 23.6184L49.668 20.8257L53.6308 20.25C53.9978 20.1951 54.3142 19.9666 54.4779 19.6348L56.25 16.0422L58.022 19.6348C58.1857 19.9666 58.5021 20.1951 58.8691 20.25L62.8319 20.8257L59.9644 23.6184Z" fill="white"/>
<path d="M36 68.625C36.6213 68.625 37.125 68.1213 37.125 67.5C37.125 66.8787 36.6213 66.375 36 66.375C35.3787 66.375 34.875 66.8787 34.875 67.5C34.875 68.1213 35.3787 68.625 36 68.625Z" fill="white"/>
</svg>
