<svg width="108" height="88" viewBox="0 0 108 88" fill="none" xmlns="http://www.w3.org/2000/svg">
<path fill-rule="evenodd" clip-rule="evenodd" d="M90.1632 4.30596C95.5767 2.43895 102.284 2.06496 106.817 2.30977C107.436 2.3432 107.965 1.86895 107.998 1.25051C108.032 0.632069 107.557 0.103623 106.938 0.070194C102.242 -0.183406 95.2171 0.19022 89.4306 2.18589C86.5353 3.18443 83.8625 4.61867 81.9629 6.66543C80.1715 8.59569 79.1047 11.0349 79.1594 14.0255C77.1543 12.3816 74.8223 10.9465 72.123 9.86776L72.0385 9.83398L71.9496 9.81426C69.4514 9.25961 65.6316 9.45208 62.1422 11.7693C58.6183 14.1095 55.5878 18.5102 54.5059 26.0765L54.4958 26.1469L54.4947 26.2181C54.3836 33.5481 57.1017 51.7208 67.856 72.721C61.9223 66.6179 53.2596 59.0607 42.7241 52.9348C36.8333 49.3049 22.0493 41.2131 9.93721 37.8755C8.96122 37.5206 7.78937 37.1786 6.61125 36.964C5.43145 36.7492 4.16403 36.6467 3.05927 36.84C1.95222 37.0337 0.795799 37.5737 0.268654 38.8199C-0.228905 39.9963 -0.00808716 41.4601 0.705841 43.1244C0.95005 43.6936 1.60995 43.9574 2.17976 43.7134C2.74957 43.4694 3.01351 42.8101 2.76932 42.2409C2.13627 40.7652 2.19806 40.0204 2.33658 39.693C2.44551 39.4354 2.72026 39.1763 3.44662 39.0492C4.17525 38.9217 5.14345 38.9765 6.20864 39.1705C7.25765 39.3616 8.32247 39.6728 9.20858 39.9974L9.25239 40.0135L9.29737 40.0258C21.1149 43.2726 35.7236 51.2548 41.5578 54.8512L41.5702 54.8589L41.5827 54.8662C57.8901 64.3451 69.6261 77.338 73.4147 82.5882L75.2816 81.3453C60.1647 56.7667 56.6389 34.3814 56.7385 26.323C57.7601 19.2817 60.5203 15.5396 63.385 13.6372C66.2518 11.7333 69.3793 11.566 71.3757 11.9849C74.5572 13.2703 77.1883 15.1056 79.3439 17.1996C79.864 21.0455 81.7516 26.936 86.5541 32.4498C87.1187 33.0981 87.9879 33.2566 88.6915 32.9042C89.4026 32.5481 89.7934 31.7449 89.5862 30.8969C88.5897 26.819 86.1489 20.9619 81.4843 16.1637C81.4316 15.5889 81.4181 15.0926 81.4335 14.6902L81.436 14.6266L81.4312 14.5632C81.2311 11.8971 82.0847 9.83299 83.6092 8.19036C85.1644 6.51462 87.4585 5.23876 90.1632 4.30596ZM86.7123 29.0635C85.8479 26.5199 84.4802 23.6048 82.4767 20.8342C83.2709 23.3174 84.5961 26.1927 86.7123 29.0635Z" fill="white"/>
<path fill-rule="evenodd" clip-rule="evenodd" d="M29.4954 30.8866C29.0878 31.3562 29.145 32.0613 29.6232 32.4616L52.7592 51.8271C53.2375 52.2274 53.9556 52.1712 54.3633 51.7017C54.771 51.2321 54.7138 50.5269 54.2355 50.1266L31.0995 30.7612C30.6213 30.3609 29.9031 30.417 29.4954 30.8866Z" fill="white"/>
<path fill-rule="evenodd" clip-rule="evenodd" d="M5.1756 85.7718C27.8609 81.0229 50.4787 85.0376 58.888 87.62C59.4847 87.8032 60.1179 87.4707 60.3021 86.8774C60.4864 86.284 60.1521 85.6545 59.5553 85.4712C50.8768 82.8062 27.86 78.7249 4.70969 83.5712C4.09855 83.6991 3.70743 84.2955 3.83609 84.9032C3.96475 85.5109 4.56447 85.8998 5.1756 85.7718Z" fill="white"/>
</svg>
