<svg width="72" height="72" viewBox="0 0 72 72" fill="none" xmlns="http://www.w3.org/2000/svg">
<g clip-path="url(#clip0_196_1134)">
<path d="M66.2399 26.2854H61.9489V25.8035C61.9489 24.6039 60.9729 23.6282 59.7734 23.6282H51.3103C50.727 23.6282 50.2541 24.1009 50.2541 24.6844C50.2541 25.2678 50.727 25.7405 51.3103 25.7405H59.7734C59.8082 25.7405 59.8365 25.7687 59.8365 25.8035V38.6814C59.8365 39.2648 60.3094 39.7376 60.8927 39.7376C61.476 39.7376 61.9489 39.2648 61.9489 38.6814V28.3977H66.2399C66.3827 28.3977 66.4989 28.5139 66.4989 28.6567V65.5044C66.4989 67.9214 64.5326 69.8877 62.1156 69.8877H9.88431C7.46735 69.8877 5.50103 67.9214 5.50103 65.5044V28.6567C5.50103 28.5139 5.61721 28.3977 5.76 28.3977H10.1919V64.5209C10.1919 66.0102 11.4035 67.222 12.893 67.222H59.2476C60.7371 67.222 61.9487 66.0104 61.9487 64.5209V43.1862C61.9487 42.6028 61.4758 42.13 60.8925 42.13C60.3092 42.13 59.8364 42.6028 59.8364 43.1862V58.3855H42.7482C40.535 58.3855 38.5376 59.3214 37.1265 60.8164V47.1543C37.1265 46.5709 36.6537 46.0982 36.0704 46.0982C35.4871 46.0982 35.0142 46.5709 35.0142 47.1543V60.8165C33.6031 59.3215 31.6055 58.3856 29.3925 58.3856H24.5932C24.0099 58.3856 23.537 58.8584 23.537 59.4418C23.537 60.0252 24.0099 60.498 24.5932 60.498H29.3925C32.1474 60.498 34.4443 62.4905 34.9217 65.1097H12.893C12.5683 65.1097 12.3042 64.8456 12.3042 64.5209V60.498H20.0883C20.6716 60.498 21.1444 60.0252 21.1444 59.4418C21.1444 58.8584 20.6716 58.3856 20.0883 58.3856H12.3042V25.8035C12.3042 25.7687 12.3325 25.7405 12.3673 25.7405H20.8304C21.4137 25.7405 21.8866 25.2678 21.8866 24.6844C21.8866 24.1009 21.4137 23.6282 20.8304 23.6282H12.3673C11.1678 23.6282 10.1919 24.6041 10.1919 25.8035V26.2854H5.76C4.45246 26.2854 3.38867 27.3492 3.38867 28.6567V65.5044C3.38867 69.0861 6.3026 72 9.88431 72H62.1153C65.697 72 68.611 69.0861 68.611 65.5044V28.6567C68.6111 27.3492 67.5475 26.2854 66.2399 26.2854ZM42.7482 60.4978H59.8364V64.5209C59.8364 64.8456 59.5723 65.1097 59.2476 65.1097H37.2192C37.6965 62.4903 39.9933 60.4978 42.7482 60.4978Z" fill="#FC5B15"/>
<path d="M21.9885 14.819C22.5683 14.8728 23.0844 14.4474 23.1392 13.8666C23.4412 10.6637 24.9202 7.69828 27.304 5.51663C29.7027 3.32147 32.8159 2.11236 36.0703 2.11236C43.2331 2.11236 49.0603 7.93965 49.0603 15.1022C49.0603 17.7975 48.2423 20.3821 46.6948 22.5773C46.6861 22.5897 46.6776 22.6024 46.6693 22.615L39.9106 33.1371C39.8012 33.3075 39.743 33.5055 39.743 33.708V35.0763C39.743 35.354 39.5171 35.5798 39.2394 35.5798H39.1704L39.8433 24.1626H41.0465C42.7682 24.1626 44.1688 22.7619 44.1688 21.0403V20.9122C44.1688 19.1906 42.7682 17.79 41.0465 17.79C39.3959 17.79 38.0268 19.0808 37.9296 20.7286L37.8518 22.0502H34.1479L34.0701 20.7286C33.973 19.0808 32.6038 17.79 30.9532 17.79C29.2315 17.79 27.8309 19.1906 27.8309 20.9122V21.0403C27.8309 22.7619 29.2315 24.1626 30.9532 24.1626H32.1564L32.8288 35.5725C32.5856 35.537 32.3976 35.3292 32.3976 35.0763V33.708C32.3976 33.5055 32.3395 33.3075 32.2302 33.1371L25.4714 22.615C25.4632 22.6024 25.4547 22.5897 25.446 22.5773C24.4742 21.1986 23.7898 19.6666 23.4122 18.0236C23.2814 17.4551 22.7139 17.1004 22.1462 17.2309C21.5777 17.3617 21.2228 17.9284 21.3535 18.4969C21.7912 20.4007 22.5828 22.1765 23.7063 23.7753L30.2856 34.0177V35.076C30.2856 36.1424 30.9279 37.0605 31.8453 37.4673V39.2534C31.8453 41.1328 33.3743 42.6617 35.2537 42.6617H36.8878C38.7671 42.6617 40.2962 41.1328 40.2962 39.2534V37.4673C41.2135 37.0605 41.8559 36.1426 41.8559 35.076V34.0177L48.4351 23.7753C50.2264 21.2262 51.1731 18.2275 51.1731 15.1021C51.1726 6.77475 44.3977 0 36.0703 0C32.2867 0 28.6669 1.40584 25.8779 3.95842C23.1069 6.49465 21.3875 9.94287 21.0363 13.6684C20.9813 14.2493 21.4078 14.7644 21.9885 14.819ZM40.0383 20.8528C40.0697 20.3198 40.5126 19.9022 41.0465 19.9022C41.6034 19.9022 42.0565 20.3552 42.0565 20.9121V21.0402C42.0565 21.597 41.6034 22.0501 41.0465 22.0501H39.9678L40.0383 20.8528ZM30.9532 22.0501C30.3963 22.0501 29.9432 21.597 29.9432 21.0402V20.9121C29.9432 20.3552 30.3963 19.9022 30.9532 19.9022C31.4872 19.9022 31.93 20.3198 31.9614 20.8528L32.0319 22.0501H30.9532ZM37.7273 24.1624L37.0545 35.5797H34.9453L34.2726 24.1624H37.7273ZM38.1833 39.2535C38.1833 39.9681 37.6019 40.5495 36.8872 40.5495H35.2531C34.5386 40.5495 33.9571 39.9681 33.9571 39.2535V37.6921H38.1831V39.2535H38.1833Z" fill="white"/>
<path d="M54.571 8.02015C54.8184 8.02015 55.0668 7.93369 55.2673 7.75766L57.5718 5.7343C58.0102 5.34957 58.0534 4.68206 57.6687 4.24382C57.2839 3.80558 56.6166 3.7622 56.1782 4.14693L53.8738 6.17029C53.4354 6.55502 53.3921 7.22252 53.7769 7.66077C53.9857 7.89862 54.2776 8.02015 54.571 8.02015Z" fill="white"/>
<path d="M53.8737 14.39L56.1781 16.4135C56.3787 16.5896 56.6271 16.676 56.8747 16.676C57.168 16.676 57.4599 16.5544 57.6688 16.3166C58.0536 15.8783 58.0103 15.211 57.572 14.8261L55.2676 12.8026C54.8292 12.4176 54.162 12.4611 53.7771 12.8995C53.3921 13.3377 53.4353 14.005 53.8737 14.39Z" fill="white"/>
<path d="M14.5689 5.73422L16.8733 7.75757C17.0738 7.93374 17.3223 8.02007 17.5697 8.02007C17.863 8.02007 18.155 7.89854 18.3638 7.66069C18.7487 7.22244 18.7053 6.55494 18.2669 6.17021L15.9625 4.14685C15.5242 3.76184 14.8567 3.80535 14.472 4.24374C14.0871 4.68198 14.1305 5.34934 14.5689 5.73422Z" fill="white"/>
<path d="M15.266 16.6761C15.5134 16.6761 15.7618 16.5896 15.9625 16.4136L18.2669 14.3901C18.7052 14.0052 18.7485 13.3378 18.3637 12.8996C17.9789 12.4613 17.3116 12.418 16.8732 12.8027L14.5687 14.8262C14.1305 15.2111 14.0871 15.8784 14.472 16.3167C14.6807 16.5545 14.9725 16.6761 15.266 16.6761Z" fill="white"/>
<path d="M26.7258 36.6358C26.7258 36.0523 26.2529 35.5796 25.6696 35.5796H15.2657C14.6824 35.5796 14.2095 36.0523 14.2095 36.6358C14.2095 37.2192 14.6824 37.6919 15.2657 37.6919H25.6696C26.2529 37.6919 26.7258 37.2192 26.7258 36.6358Z" fill="white"/>
<path d="M28.8872 40.9524H17.1736C16.5903 40.9524 16.1174 41.4251 16.1174 42.0086C16.1174 42.592 16.5903 43.0648 17.1736 43.0648H28.8872C29.4705 43.0648 29.9434 42.592 29.9434 42.0086C29.9434 41.4251 29.4705 40.9524 28.8872 40.9524Z" fill="white"/>
<path d="M28.8872 46.0981H17.1736C16.5903 46.0981 16.1174 46.5709 16.1174 47.1543C16.1174 47.7378 16.5903 48.2105 17.1736 48.2105H28.8872C29.4705 48.2105 29.9434 47.7378 29.9434 47.1543C29.9434 46.5709 29.4705 46.0981 28.8872 46.0981Z" fill="white"/>
<path d="M28.8872 51.2439H17.1736C16.5903 51.2439 16.1174 51.7166 16.1174 52.3001C16.1174 52.8835 16.5903 53.3563 17.1736 53.3563H28.8872C29.4705 53.3563 29.9434 52.8835 29.9434 52.3001C29.9434 51.7166 29.4705 51.2439 28.8872 51.2439Z" fill="white"/>
<path d="M57.9313 36.6358C57.9313 36.0523 57.4584 35.5796 56.8751 35.5796H46.4712C45.8879 35.5796 45.415 36.0523 45.415 36.6358C45.415 37.2192 45.8879 37.6919 46.4712 37.6919H56.8751C57.4584 37.6919 57.9313 37.2192 57.9313 36.6358Z" fill="white"/>
<path d="M54.967 40.9524H43.2534C42.6702 40.9524 42.1973 41.4251 42.1973 42.0086C42.1973 42.592 42.6702 43.0648 43.2534 43.0648H54.967C55.5503 43.0648 56.0232 42.592 56.0232 42.0086C56.0232 41.4251 55.5503 40.9524 54.967 40.9524Z" fill="white"/>
<path d="M54.967 46.0981H43.2534C42.6702 46.0981 42.1973 46.5709 42.1973 47.1543C42.1973 47.7378 42.6702 48.2105 43.2534 48.2105H54.967C55.5503 48.2105 56.0232 47.7378 56.0232 47.1543C56.0232 46.5709 55.5503 46.0981 54.967 46.0981Z" fill="white"/>
<path d="M54.967 51.2439H43.2534C42.6702 51.2439 42.1973 51.7166 42.1973 52.3001C42.1973 52.8835 42.6702 53.3563 43.2534 53.3563H54.967C55.5503 53.3563 56.0232 52.8835 56.0232 52.3001C56.0232 51.7166 55.5503 51.2439 54.967 51.2439Z" fill="white"/>
</g>
<defs>
<clipPath id="clip0_196_1134">
<rect width="72" height="72" fill="white"/>
</clipPath>
</defs>
</svg>
