<svg width="72" height="72" viewBox="0 0 72 72" fill="none" xmlns="http://www.w3.org/2000/svg">
<path d="M17.7188 48.6562C10.7401 48.6562 5.0625 42.9787 5.0625 36C5.0625 29.0213 10.7401 23.3438 17.7188 23.3438C24.6974 23.3438 30.375 29.0213 30.375 36C30.375 42.9787 24.6974 48.6562 17.7188 48.6562ZM17.7188 26.1562C12.2909 26.1562 7.875 30.5722 7.875 36C7.875 41.4278 12.2909 45.8438 17.7188 45.8438C23.1466 45.8438 27.5625 41.4278 27.5625 36C27.5625 30.5722 23.1466 26.1562 17.7188 26.1562Z" fill="#FC5B15"/>
<path d="M17.7188 37.4062H13.5C12.7233 37.4062 12.0938 36.7766 12.0938 36C12.0938 35.2233 12.7233 34.5937 13.5 34.5937H17.1363L20.9431 30.7869C21.4923 30.2377 22.3827 30.2377 22.932 30.7869C23.4811 31.336 23.4811 32.2264 22.932 32.7757L18.7133 36.9945C18.4494 37.258 18.0917 37.4062 17.7188 37.4062Z" fill="#FC5B15"/>
<path d="M36 10.6875C33.6738 10.6875 31.7812 8.79497 31.7812 6.46875C31.7812 4.14253 33.6738 2.25 36 2.25C38.3262 2.25 40.2188 4.14253 40.2188 6.46875C40.2188 8.79497 38.3262 10.6875 36 10.6875ZM36 5.0625C35.2246 5.0625 34.5938 5.69334 34.5938 6.46875C34.5938 7.24416 35.2246 7.875 36 7.875C36.7754 7.875 37.4062 7.24416 37.4062 6.46875C37.4062 5.69334 36.7754 5.0625 36 5.0625Z" fill="#FC5B15"/>
<path d="M36 30.375C33.6738 30.375 31.7812 28.4825 31.7812 26.1562C31.7812 23.83 33.6738 21.9375 36 21.9375C38.3262 21.9375 40.2188 23.83 40.2188 26.1562C40.2188 28.4825 38.3262 30.375 36 30.375ZM36 24.75C35.2246 24.75 34.5938 25.3808 34.5938 26.1562C34.5938 26.9317 35.2246 27.5625 36 27.5625C36.7754 27.5625 37.4062 26.9317 37.4062 26.1562C37.4062 25.3808 36.7754 24.75 36 24.75Z" fill="#FC5B15"/>
<path d="M36 50.0625C33.6738 50.0625 31.7812 48.17 31.7812 45.8438C31.7812 43.5175 33.6738 41.625 36 41.625C38.3262 41.625 40.2188 43.5175 40.2188 45.8438C40.2188 48.17 38.3262 50.0625 36 50.0625ZM36 44.4375C35.2246 44.4375 34.5938 45.0683 34.5938 45.8438C34.5938 46.6192 35.2246 47.25 36 47.25C36.7754 47.25 37.4062 46.6192 37.4062 45.8438C37.4062 45.0683 36.7754 44.4375 36 44.4375Z" fill="#FC5B15"/>
<path d="M36 69.75C33.6738 69.75 31.7812 67.8575 31.7812 65.5312C31.7812 63.205 33.6738 61.3125 36 61.3125C38.3262 61.3125 40.2188 63.205 40.2188 65.5312C40.2188 67.8575 38.3262 69.75 36 69.75ZM36 64.125C35.2246 64.125 34.5938 64.7558 34.5938 65.5312C34.5938 66.3067 35.2246 66.9375 36 66.9375C36.7754 66.9375 37.4062 66.3067 37.4062 65.5312C37.4062 64.7558 36.7754 64.125 36 64.125Z" fill="#FC5B15"/>
<path d="M36 64.125C35.2233 64.125 34.5938 63.4953 34.5938 62.7188V48.6562C34.5938 47.8796 35.2233 47.25 36 47.25C36.7767 47.25 37.4062 47.8796 37.4062 48.6562V62.7188C37.4062 63.4953 36.7767 64.125 36 64.125Z" fill="#FC5B15"/>
<path d="M36 44.4375C35.2233 44.4375 34.5938 43.8078 34.5938 43.0312V28.9688C34.5938 28.1921 35.2233 27.5625 36 27.5625C36.7767 27.5625 37.4062 28.1921 37.4062 28.9688V43.0312C37.4062 43.8078 36.7767 44.4375 36 44.4375Z" fill="#FC5B15"/>
<path d="M36 24.75C35.2233 24.75 34.5938 24.1204 34.5938 23.3438V9.28125C34.5938 8.50458 35.2233 7.875 36 7.875C36.7767 7.875 37.4062 8.50458 37.4062 9.28125V23.3438C37.4062 24.1204 36.7767 24.75 36 24.75Z" fill="#FC5B15"/>
<path d="M65.5312 16.824H45.8438C45.0671 16.824 44.4375 16.1944 44.4375 15.4177V3.65625C44.4375 2.87958 45.0671 2.25 45.8438 2.25H65.5312C66.3079 2.25 66.9375 2.87958 66.9375 3.65625V15.4177C66.9375 16.1944 66.3079 16.824 65.5312 16.824ZM47.25 14.0115H64.125V5.0625H47.25V14.0115Z" fill="white"/>
<path d="M59.9062 10.9431H51.4688C50.6921 10.9431 50.0625 10.3135 50.0625 9.53687C50.0625 8.76019 50.6921 8.13062 51.4688 8.13062H59.9062C60.6829 8.13062 61.3125 8.76019 61.3125 9.53687C61.3125 10.3135 60.6829 10.9431 59.9062 10.9431Z" fill="white"/>
<path d="M65.5312 34.466H45.8438C45.0671 34.466 44.4375 33.8365 44.4375 33.0598V21.2983C44.4375 20.5217 45.0671 19.8921 45.8438 19.8921H65.5312C66.3079 19.8921 66.9375 20.5217 66.9375 21.2983V33.0598C66.9375 33.8365 66.3079 34.466 65.5312 34.466ZM47.25 31.6535H64.125V22.7046H47.25V31.6535Z" fill="white"/>
<path d="M59.9062 28.5852H51.4688C50.6921 28.5852 50.0625 27.9556 50.0625 27.179C50.0625 26.4023 50.6921 25.7727 51.4688 25.7727H59.9062C60.6829 25.7727 61.3125 26.4023 61.3125 27.179C61.3125 27.9556 60.6829 28.5852 59.9062 28.5852Z" fill="white"/>
<path d="M65.5312 52.1081H45.8438C45.0671 52.1081 44.4375 51.4784 44.4375 50.7019V38.9404C44.4375 38.1638 45.0671 37.5342 45.8438 37.5342H65.5312C66.3079 37.5342 66.9375 38.1638 66.9375 38.9404V50.7019C66.9375 51.4784 66.3079 52.1081 65.5312 52.1081ZM47.25 49.2956H64.125V40.3467H47.25V49.2956Z" fill="white"/>
<path d="M59.9062 46.2273H51.4688C50.6921 46.2273 50.0625 45.5977 50.0625 44.821C50.0625 44.0445 50.6921 43.4148 51.4688 43.4148H59.9062C60.6829 43.4148 61.3125 44.0445 61.3125 44.821C61.3125 45.5976 60.6829 46.2273 59.9062 46.2273Z" fill="white"/>
<path d="M65.5312 69.7501H45.8438C45.0671 69.7501 44.4375 69.1204 44.4375 68.3438V56.5825C44.4375 55.806 45.0671 55.1763 45.8438 55.1763H65.5312C66.3079 55.1763 66.9375 55.806 66.9375 56.5825V68.3438C66.9375 69.1204 66.3079 69.7501 65.5312 69.7501ZM47.25 66.9376H64.125V57.9888H47.25V66.9376Z" fill="white"/>
<path d="M59.9062 63.8694H51.4688C50.6921 63.8694 50.0625 63.2398 50.0625 62.4631C50.0625 61.6866 50.6921 61.0569 51.4688 61.0569H59.9062C60.6829 61.0569 61.3125 61.6866 61.3125 62.4631C61.3125 63.2397 60.6829 63.8694 59.9062 63.8694Z" fill="white"/>
<path d="M17.7188 26.1562C16.9421 26.1562 16.3125 25.5267 16.3125 24.75V16.2422C16.3125 13.1794 18.8044 10.6875 21.8672 10.6875H26.1562C26.9329 10.6875 27.5625 11.3171 27.5625 12.0938C27.5625 12.8704 26.9329 13.5 26.1562 13.5H21.8672C20.355 13.5 19.125 14.73 19.125 16.2422V24.75C19.125 25.5267 18.4954 26.1562 17.7188 26.1562Z" fill="#FC5B15"/>
<path d="M26.1562 61.3125H21.8672C18.8044 61.3125 16.3125 58.8206 16.3125 55.7578V47.25C16.3125 46.4733 16.9421 45.8438 17.7188 45.8438C18.4954 45.8438 19.125 46.4733 19.125 47.25V55.7578C19.125 57.2698 20.355 58.5 21.8672 58.5H26.1562C26.9329 58.5 27.5625 59.1296 27.5625 59.9062C27.5625 60.6828 26.9329 61.3125 26.1562 61.3125Z" fill="#FC5B15"/>
</svg>
