<svg width="448" height="590" viewBox="0 0 448 590" fill="none" xmlns="http://www.w3.org/2000/svg">
<path opacity="0.6" fill-rule="evenodd" clip-rule="evenodd" d="M217.622 586H211.254C208.819 586 206.395 585.957 203.982 585.872L203.871 589.025C206.321 589.111 208.782 589.155 211.254 589.155H217.622V586ZM189.507 584.851L189.173 587.988C184.252 587.465 179.382 586.769 174.57 585.906L175.126 582.8C179.865 583.65 184.66 584.335 189.507 584.851ZM160.944 579.729L160.166 582.786C155.379 581.568 150.658 580.183 146.011 578.636L147.007 575.643C151.583 577.165 156.231 578.53 160.944 579.729ZM133.407 570.568L132.199 573.482C127.644 571.594 123.172 569.547 118.789 567.348L120.203 564.528C124.519 566.693 128.923 568.708 133.407 570.568ZM107.467 557.56L105.855 560.271C101.623 557.755 97.4887 555.092 93.4591 552.289L95.2606 549.699C99.2288 552.459 103.3 555.082 107.467 557.56ZM83.6444 540.989L81.6634 543.445C77.836 540.356 74.1211 537.134 70.5258 533.786L72.676 531.477C76.2167 534.775 79.8752 537.948 83.6444 540.989ZM62.4097 521.211L60.1012 523.361C56.7525 519.766 53.5304 516.051 50.4422 512.223L52.8975 510.242C55.9387 514.012 59.1118 517.67 62.4097 521.211ZM44.1881 498.626L41.5983 500.428C38.7952 496.398 36.1321 492.264 33.6157 488.032L36.3274 486.419C38.8052 490.587 41.4278 494.658 44.1881 498.626ZM29.3586 473.684L26.5386 475.098C24.3403 470.715 22.2933 466.242 20.4046 461.688L23.3187 460.479C25.1784 464.964 27.194 469.368 29.3586 473.684ZM18.244 446.88L15.2505 447.876C13.7044 443.228 12.3188 438.508 11.1006 433.72L14.1579 432.942C15.3574 437.656 16.7216 442.304 18.244 446.88ZM11.0864 418.76L7.98118 419.317C7.11841 414.505 6.42236 409.635 5.89921 404.714L9.03631 404.38C9.55149 409.226 10.2369 414.022 11.0864 418.76ZM7.8872 221.417H4.73242V214.408C4.73242 211.937 4.77584 209.476 4.86197 207.025L8.0148 207.136C7.92997 209.55 7.8872 211.974 7.8872 214.408V221.417ZM9.03632 192.661L5.89922 192.327C6.42237 187.406 7.11842 182.536 7.9812 177.724L11.0865 178.281C10.2369 183.019 9.55151 187.815 9.03632 192.661ZM14.1579 164.099L11.1006 163.321C12.3189 158.533 13.7044 153.813 15.2505 149.166L18.244 150.161C16.7216 154.737 15.3575 159.385 14.1579 164.099ZM23.3188 136.562L20.4046 135.353C22.2934 130.799 24.3403 126.326 26.5387 121.943L29.3586 123.358C27.194 127.674 25.1785 132.077 23.3188 136.562ZM36.3274 110.622L33.6158 109.009C36.1321 104.777 38.7953 100.643 41.5983 96.6135L44.1882 98.415C41.4279 102.383 38.8053 106.454 36.3274 110.622ZM52.8976 86.7988L50.4423 84.8178C53.5305 80.9903 56.7526 77.2754 60.1013 73.6802L62.4098 75.8304C59.1119 79.3711 55.9388 83.0295 52.8976 86.7988ZM72.6762 65.5641L70.5259 63.2556C74.1212 59.9068 77.8361 56.6848 81.6636 53.5966L83.6446 56.0518C79.8753 59.0931 76.2168 62.2662 72.6762 65.5641ZM95.2608 47.3424L93.4593 44.7526C97.4889 41.9496 101.623 39.2864 105.855 36.7701L107.468 39.4817C103.3 41.9596 99.229 44.5821 95.2608 47.3424ZM120.203 32.5129L118.789 29.6929C123.172 27.4946 127.644 25.4476 132.199 23.5589L133.408 26.4731C128.923 28.3328 124.519 30.3483 120.203 32.5129ZM147.007 21.3983L146.011 18.4048C150.659 16.8587 155.379 15.4732 160.166 14.2549L160.944 17.3122C156.231 18.5117 151.583 19.8759 147.007 21.3983ZM175.127 14.2408C179.865 13.3912 184.661 12.7058 189.507 12.1906L189.173 9.05351C184.252 9.57667 179.382 10.2727 174.57 11.1355L175.127 14.2408ZM203.982 11.1691C206.395 11.0843 208.82 11.0415 211.254 11.0415H217.622V7.88672H211.254C208.783 7.88672 206.321 7.93014 203.871 8.01626L203.982 11.1691ZM230.357 11.0415V7.88672H236.725C239.197 7.88672 241.658 7.93014 244.108 8.01626L243.997 11.1691C241.584 11.0843 239.16 11.0415 236.725 11.0415H230.357ZM258.472 12.1906L258.806 9.05351C263.727 9.57667 268.597 10.2727 273.409 11.1355L272.853 14.2408C268.114 13.3912 263.319 12.7058 258.472 12.1906ZM287.035 17.3122L287.813 14.2549C292.6 15.4732 297.321 16.8587 301.968 18.4048L300.972 21.3983C296.396 19.8759 291.748 18.5118 287.035 17.3122ZM314.572 26.4731L315.78 23.5589C320.335 25.4477 324.807 27.4946 329.19 29.693L327.776 32.5129C323.46 30.3483 319.056 28.3328 314.572 26.4731ZM340.512 39.4818L342.124 36.7701C346.356 39.2864 350.49 41.9496 354.52 44.7527L352.718 47.3425C348.75 44.5822 344.679 41.9596 340.512 39.4818ZM364.335 56.0519L366.316 53.5967C370.143 56.6849 373.858 59.9069 377.453 63.2556L375.303 65.5641C371.762 62.2662 368.104 59.0931 364.335 56.0519ZM385.569 75.8305L387.878 73.6803C391.227 77.2755 394.449 80.9904 397.537 84.8179L395.082 86.7989C392.04 83.0296 388.867 79.3712 385.569 75.8305ZM403.791 98.4151L406.381 96.6136C409.184 100.643 411.847 104.778 414.363 109.01L411.652 110.622C409.174 106.455 406.551 102.383 403.791 98.4151ZM418.62 123.358L421.44 121.943C423.639 126.327 425.686 130.799 427.574 135.353L424.66 136.562C422.801 132.077 420.785 127.674 418.62 123.358ZM429.735 150.162L432.728 149.166C434.275 153.813 435.66 158.533 436.878 163.321L433.821 164.099C432.622 159.385 431.257 154.737 429.735 150.162ZM436.893 178.281L439.998 177.724C440.861 182.537 441.557 187.406 442.08 192.328L438.943 192.661C438.427 187.815 437.742 183.019 436.893 178.281ZM440.092 375.624H443.247V382.633C443.247 385.104 443.203 387.566 443.117 390.016L439.964 389.905C440.049 387.492 440.092 385.067 440.092 382.633V375.624ZM438.943 404.38L442.08 404.714C441.557 409.635 440.861 414.505 439.998 419.317L436.893 418.76C437.742 414.022 438.427 409.227 438.943 404.38ZM433.821 432.943L436.878 433.721C435.66 438.508 434.275 443.228 432.728 447.876L429.735 446.88C431.257 442.304 432.622 437.656 433.821 432.943ZM424.66 460.479L427.574 461.688C425.686 466.243 423.639 470.715 421.44 475.098L418.62 473.684C420.785 469.368 422.801 464.964 424.66 460.479ZM411.652 486.419L414.363 488.032C411.847 492.264 409.184 496.398 406.381 500.428L403.791 498.626C406.551 494.658 409.174 490.587 411.652 486.419ZM395.081 510.242L397.537 512.223C394.448 516.051 391.226 519.766 387.878 523.361L385.569 521.211C388.867 517.67 392.04 514.012 395.081 510.242ZM375.303 531.477L377.453 533.786C373.858 537.134 370.143 540.356 366.315 543.445L364.334 540.989C368.104 537.948 371.762 534.775 375.303 531.477ZM352.718 549.699L354.52 552.289C350.49 555.092 346.356 557.755 342.124 560.271L340.511 557.56C344.679 555.082 348.75 552.459 352.718 549.699ZM327.776 564.528L329.19 567.348C324.807 569.547 320.335 571.594 315.78 573.482L314.571 570.568C319.056 568.708 323.46 566.693 327.776 564.528ZM300.972 575.643L301.968 578.636C297.32 580.183 292.6 581.568 287.813 582.786L287.035 579.729C291.748 578.53 296.396 577.165 300.972 575.643ZM272.852 582.8L273.409 585.906C268.597 586.769 263.727 587.465 258.806 587.988L258.472 584.851C263.318 584.335 268.114 583.65 272.852 582.8ZM230.357 586V589.155H236.725C239.196 589.155 241.658 589.111 244.108 589.025L243.997 585.872C241.584 585.957 239.159 586 236.725 586H230.357ZM440.092 361.605H443.247V347.586H440.092V361.605ZM440.092 333.568H443.247V319.549H440.092V333.568ZM440.092 305.53H443.247V291.511H440.092V305.53ZM440.092 277.493H443.247V263.474H440.092V277.493ZM440.092 249.455H443.247V235.436H440.092V249.455ZM440.092 221.418H443.247V214.408C443.247 211.937 443.203 209.476 443.117 207.025L439.964 207.136C440.049 209.55 440.092 211.974 440.092 214.408V221.418ZM7.8872 235.436H4.73242V249.455H7.8872V235.436ZM7.8872 263.474H4.73242V277.492H7.8872V263.474ZM7.8872 291.511H4.73242V305.53H7.8872V291.511ZM7.8872 319.549H4.73242V333.567H7.8872V319.549ZM7.8872 347.586H4.73242V361.605H7.8872V347.586ZM7.8872 375.624H4.73242V382.633C4.73242 385.104 4.77584 387.565 4.86197 390.016L8.0148 389.905C7.92997 387.492 7.8872 385.067 7.8872 382.633V375.624Z" fill="white"/>
<path d="M447.19 223.595C447.19 193.908 441.278 164.518 429.799 137.14C418.32 109.762 401.505 84.9439 380.333 64.1336C359.161 43.3233 334.057 26.9375 306.485 15.932C278.914 4.92656 249.426 -0.47816 219.744 0.0331718C190.061 0.544504 160.777 6.96164 133.601 18.9102C106.425 30.8588 81.9002 48.0996 61.4576 69.6268C41.0151 91.154 25.064 116.537 14.5351 144.294C4.00619 172.051 -0.889837 201.627 0.132675 231.296L12.3406 230.875C11.3739 202.827 16.0025 174.867 25.9562 148.626C35.9099 122.385 50.9895 98.3893 70.3153 78.0382C89.641 57.687 112.826 41.3881 138.518 30.0923C164.209 18.7965 191.893 12.7299 219.954 12.2465C248.015 11.7631 275.891 16.8725 301.957 27.2768C328.022 37.681 351.755 53.1717 371.77 72.8451C391.785 92.5185 407.683 115.981 418.534 141.863C429.386 167.745 434.975 195.53 434.975 223.595H447.19Z" fill="white"/>
</svg>
