<svg width="56" height="52" viewBox="0 0 56 52" fill="none" xmlns="http://www.w3.org/2000/svg">
<path d="M22.4 7.61279L30.2042 21.0331L30.2707 21.1475L30.385 21.214L43.8054 29.0182L30.385 36.8223L30.2707 36.8888L30.2042 37.0032L22.4 50.4235L14.5959 37.0032L14.5293 36.8888L14.415 36.8223L0.99463 29.0182L14.415 21.214L14.5293 21.1475L14.5959 21.0331L22.4 7.61279Z" stroke="#FC5B15"/>
<path d="M46.5818 0.994632L49.6125 6.20651L49.6791 6.32088L49.7934 6.38739L55.0053 9.41818L49.7934 12.449L49.6791 12.5155L49.6125 12.6299L46.5818 17.8417L43.551 12.6299L43.4845 12.5155L43.3701 12.449L38.1582 9.41818L43.3701 6.38739L43.4845 6.32088L43.551 6.20651L46.5818 0.994632Z" stroke="#FC5B15"/>
</svg>
