<svg width="371" height="371" viewBox="0 0 371 371" fill="none" xmlns="http://www.w3.org/2000/svg">
<g opacity="0.1">
<g clip-path="url(#clip0_142_3213)">
<path d="M1.61226e-05 368.843C203.705 368.843 368.843 203.705 368.843 -1.61226e-05" stroke="white" stroke-width="2" stroke-miterlimit="10"/>
<path d="M1.43671e-05 328.68C181.51 328.68 328.68 181.531 328.68 -1.43671e-05" stroke="white" stroke-width="2" stroke-miterlimit="10"/>
<path d="M1.27708e-05 292.163C161.342 292.163 292.163 161.342 292.163 -1.27708e-05" stroke="white" stroke-width="2" stroke-miterlimit="10"/>
<path d="M1.11209e-05 254.415C140.505 254.415 254.415 140.505 254.415 -1.11209e-05" stroke="white" stroke-width="2" stroke-miterlimit="10"/>
<path d="M9.09939e-06 208.17C114.967 208.17 208.148 114.967 208.148 -9.09845e-06" stroke="white" stroke-width="2" stroke-miterlimit="10"/>
<path d="M7.34287e-06 167.985C92.7716 167.985 167.985 92.7716 167.985 -7.34287e-06" stroke="white" stroke-width="2" stroke-miterlimit="10"/>
</g>
</g>
<defs>
<clipPath id="clip0_142_3213">
<rect width="371" height="371" fill="white" transform="matrix(4.37114e-08 1 1 -4.37114e-08 0 0)"/>
</clipPath>
</defs>
</svg>
