<svg width="28" height="28" viewBox="0 0 28 28" fill="none" xmlns="http://www.w3.org/2000/svg">
<path fill-rule="evenodd" clip-rule="evenodd" d="M14.0026 26.5418C7.07603 26.5418 1.46094 20.9268 1.46094 14.0002C1.46094 7.07359 7.07603 1.4585 14.0026 1.4585C20.9292 1.4585 26.5443 7.07359 26.5443 14.0002C26.5443 20.9268 20.9292 26.5418 14.0026 26.5418ZM19.2293 10.9406C19.7945 10.6315 20.0022 9.92258 19.693 9.35727C19.3839 8.79195 18.675 8.58429 18.1097 8.89345C15.9763 10.0602 14.2121 12.3119 13.026 14.128C12.5877 14.7993 12.2132 15.4348 11.9136 15.9731C11.6341 15.702 11.3573 15.4667 11.1097 15.2709C10.7858 15.0148 10.4942 14.8127 10.2817 14.6736L9.91413 14.4452C9.35443 14.126 8.64192 14.321 8.32271 14.8808C8.00357 15.4403 8.19836 16.1525 8.75776 16.472L9.0031 16.6254C9.16971 16.7345 9.40318 16.8962 9.66257 17.1013C10.1964 17.5233 10.7724 18.0765 11.1349 18.6826C11.3574 19.0545 11.7677 19.2724 12.2005 19.2486C12.6331 19.2247 13.0169 18.9627 13.1971 18.5687L13.3118 18.3291C13.3908 18.1676 13.5091 17.9315 13.6631 17.6406C13.9717 17.0576 14.4204 16.2602 14.9796 15.4039C16.1269 13.6472 17.6293 11.8156 19.2293 10.9406Z" fill="#050B1B"/>
</svg>
